<svg xmlns="http://www.w3.org/2000/svg" viewBox="600 350 950 600">
  <path fill="black" d="M1196.85 392.26c21.99-1.062 39.5 7.714 50.83 26.845 36.21 61.151 51.81 155.663 53.43 225.57.86 36.494-1.9 72.983-8.24 108.932-4.73 25.416-14.84 65.15-37.26 80.4-29.26 19.914-71.53-6.056-99.28-19.336a836 836 0 0 0-43.95-19.191c-73.9-30.228-126.199-43.041-203.535-57.566 2.115 5.992 3.552 12.118 5.236 18.151 10.282 36.838-8.577 39.945-38.284 42.859a1310 1310 0 0 0 21.151 53.645c17.139 41.21 32.684 66.299-25.684 76.079-20.596 3.893-67.949 5.81-86.591-4.647-13.335-7.48-25.574-58.109-30.316-74.251a8692 8692 0 0 1-32.013-112.074c-20.484.788-48.176 3.537-65.723-8.506-39.654-27.215-43.217-103.962-18.98-141.836 20.227-31.607 65.539-25.987 98.932-27.821 56.738-3.118 110.487-2.77 166.309-16.463a635.4 635.4 0 0 0 165.358-66.851 602 602 0 0 0 51.71-34.018c22.53-16.488 51.22-45.261 76.9-49.921m-336.454 183.97c-4.262 43.817-7.766 87.01 15.508 126.713 26.221 1.518 65.203 5.659 90.882 11.053 63.824 12.117 140.704 34.926 196.204 69.153-42.53-86.44-51.57-224.305-20.28-315.613.22-.639.44-1.275.67-1.911l-.57-.471c-68.08 46.634-134.15 78.273-214.831 97.964a702 702 0 0 1-39.982 8.35c-7.778 1.316-20.201 2.848-27.601 4.762m300.124-23.399c23.66 2.852 52.01 10.628 65.63 31.076 36.05 54.103 9.91 113.276-51.6 124.697 6.74 23.093 11.32 39.429 21.86 61.625 5.95 11.39 22.48 45.558 39.63 34.19 13.6-9.01 18.68-41.465 22.14-56.645 14.98-83.462 6.45-172.128-17.46-253.112-5.27-17.816-13.23-40.576-23.1-56.358-4.26-6.813-9.61-11.667-17.53-13.636-26.7 24.903-36.45 92.359-39.57 128.163m-449.08 30.354c-19.09 33.796-16.156 103.332 14.352 129.944 7.598 4.143 102.751-7.994 120.19-8.13-20.197-34.834-19.751-68.122-17.295-107.61.294-4.715 2.825-15.654 1.646-18.755l-1.55-.169c-37.858 2.014-79.473 3.982-117.343 4.72m41.702 152.811a4879 4879 0 0 0 30.306 104.922c4.754 15.443 12.958 51.211 25.726 61.214 5.873 4.602 29.762 3.71 38.045 2.247 7.587-.79 28.531-2.64 31.4-10.15-2.839-14.043-13.989-38.603-19.029-53.405-11.96-35.124-25.211-71.052-35.145-106.764-10.696.06-29.833-.348-39.865.378zm99.976-1.601c3.382 12.643 9.52 28.925 13.84 41.674 7.904-.233 14.486-.76 22.204-2.717 4.474-6.94-4.295-30.938-7.174-39.071-9.43.009-19.496-.161-28.87.114m-159.082-21.435c-21.29-32.685-26.12-67.32-18.939-105.519.932-4.956 5.603-18.651 5.467-21.058l-1.996-.556c-12.579 6.796-18.65 14.632-22.593 28.582-8.475 29.989-3.559 75.574 24.713 93.638 4.432 1.638 8.901 3.332 13.348 4.913m494.944-38.61c26.06-31.353 15.13-91.641-30.17-100.041-1.24 39.395 3.11 75.672 9.94 114.226 8.89-4.843 13.11-6.811 20.23-14.185"/>
  <path fill="black" d="M774.031 620.569c5.989-.537 23.834-1.843 27.222 1.943 5.835 6.52 8.966 36.156 3.534 43.183-5.984 3.489-40.338 3.192-50.545 3.972-6.12.477-21.064 2.38-25.236-.7-7.587-5.6-8.56-37.941-2.053-43.156 6.991-5.604 37.567-4.805 47.078-5.242m678.869-8.011c8.09-.741 36.97-2.196 43.63 2.214 1.11 4.104-.47 3.117-1.54 8.243l3.54 1.714c2.06 3.39 1.74 1.868 1.29 5.705-2.53 3.799-5.39 3.915-6.42 5.838 1.45 2.219 2.33 3.681 3.54 6.04l-.78 2.056c-11.39 7.946-83.08 7.304-100.41 7.19-16.92.262-69.47 5.353-49.32-27.419 5.16-8.395 95.33-11.12 106.47-11.581m-112.86 114.484c20.22-1.283 82.08 34.6 101.68 45.789 4.84 2.763 8.93 5.315 10.29 10.756l-1.38 1.918c-4.42 1.515-5.57.548-9.94-.124l.81 2.185c3 1.933 3.82 2.211 5.84 5.024.66 3.576.21 3.909-1.54 7.352-7.38.331-7.63-1.13-14.53-2.233l.41 2.879c-1.28.931-1.64 1.176-3.23 1.37-7.89.962-86.71-46.412-95.62-53.118-3.95-8.24 1.55-16.081 7.21-21.798m94.36-272.026c12.98-.376 25.36 9.299 18.38 18.869-17.63 24.162-77.28 49.382-102.56 59.367-1.66.591-6.45 1.668-7.94.91-7.36-3.7-15.26-18.621-5.36-24.083 23.85-13.165 48.01-25.647 71.18-40.041 8.33-5.179 17.3-11.203 26.3-15.022"/>
</svg>
