<svg xmlns="http://www.w3.org/2000/svg" viewBox="0 0 147.6 107.25"><g id="Layer_2" data-name="Layer 2"><g id="Layer_1-2" data-name="Layer 1"><path d="M102.5 87.43c-5.41 1.11-11 2.08-15.76 4.95-2.68 1.47-6.08 4.75-9.93 3.94a23 23 0 0 0-2.74-.5c-2.7-.19-5.4-.62-8.09-.86h-.42v.09c-.11.67.33 1.13.25 2.09a1.7 1.7 0 0 1-.51 1 4 4 0 0 1-4.12.63 2.6 2.6 0 0 1-.87-3.35c.42-1.15 1.84-1.66 2.88-1.83l.37-.11a.5.5 0 0 0-.19.38c0 .06 0 0 0 0a2 2 0 0 0-.85-.53 1 1 0 0 0-.73 0s.09 0 0 .08c-.74 2.15-3.17 3.18-5.42 3-4.59-.85-.75-5.95 2.11-6.67 2.14-.64 4.26.29 6.36.54 2.19-.09 5.06-.78 6.73-2.31 1-.94 1.77-2.83 2.86-4.6A15 15 0 0 0 75.58 81c.3-.82.44-1.92.77-2.81.81-2.4 2.29-4.35 3-6.72.49-1.24 0-2-1.06-2.69-1.54-1.15-3.25-2.18-4.84-3.37-.17-.1 0-.39.16-.31 3.15 1.47 9 2.32 8 6.89-.32 2.48-1.62 4.76-2.2 7.1a16 16 0 0 1-1.9 6c-1 1.86-1.65 3.78-3.27 5.47-2.58 2.44-6.24 3.26-9.72 3.2-1.72-.12-3.54-1.19-5.25-1A4.6 4.6 0 0 0 57 94.49a1 1 0 0 0 0-.43 1 1 0 0 0-.32-.45c-.14-.06 0 0 .08 0a3.3 3.3 0 0 0 2.8-.71c.31-.47.69-1.29 1.44-1.5a3.3 3.3 0 0 1 3.6 1.5 1.24 1.24 0 0 1-.18 1.71c-.91.51-1.54.22-2.31.56-1 .34-1.38 2-.45 2.57s2.67.13 2.95-.77a8 8 0 0 0-.35-1.24A1.7 1.7 0 0 1 66 93.42c1.55-.06 6.53-.25 8.16-.34 1.4-.16 2.89.4 4.22.21 2.65-.52 4.78-2.51 7-3.54 5.27-2.67 11.33-3.17 17.12-2.68.19 0 .22.33 0 .36" style="fill:#367660"/><path d="M68.48 91.21a182 182 0 0 0-14.09-1.48 25 25 0 0 0-6.75.3c-.45.12-.92.38-.87.43s0-.06 0 .09c.18 1 .76 1.68.61 2.9a2.1 2.1 0 0 1-1.38 1.6c-1.88.55-4.33-.44-4.56-2.64-.06-1.19.73-2 1.08-2.81 0 0 0 .32.05.36s-.05 0-.18-.08a3.4 3.4 0 0 0-3.29.44c-.58.62-1.27 2.21-2.59 2.34a3.5 3.5 0 0 1-3.78-2.91c-.55-2.81 2.84-4.53 5.22-4.13a4 4 0 0 0 .64.09 10 10 0 0 1 1.26-.45 6 6 0 0 1 2.36 0c.55.09 1.22-.09 1.82 0a46 46 0 0 0 27.19-5.33 12 12 0 0 0 2.67-2c.09-.08 0-.22 0 .35a1.5 1.5 0 0 0 .8 1.26c-1.6-.27-3.87-.07-5.69-.2-9.37-.15-19-4.86-24-12.92-.74-.66-1.9.19-2.66.66-5.04 3.7-9.34 10.76-12.44 15.3a12 12 0 0 1-2.77 4.33A29 29 0 0 1 23.94 89s0-.11 0-.12a1 1 0 0 0 .44.41 17 17 0 0 0 2.08 1c1.62.81 2.11 3.26.34 4.2a2 2 0 0 1-2.6-.34c-.6-.81-.62-2.19-1.11-2.7-1.54-1.38-4 .11-6.05.41a3.2 3.2 0 0 1-2.89-.48 3 3 0 0 1-.72-1.15l.2.13a.4.4 0 0 0 .28 0c-1.06 1.67-3.07 4.45-5.54 3.61-1.07-.29-2.32-1.34-1.91-2.6.64-1.53 2.25-1.89 3.38-2.61l-.12.17-.06.25a.75.75 0 0 0 .43.76A9.8 9.8 0 0 0 4 92.49C.81 95-2 88.08 1.84 87.31c2.52-.52 4.94.18 7.39.58a11.7 11.7 0 0 0 8.07-2.3l-.36.34C25.17 74.12 37.9 58 35.45 43a19 19 0 0 0-2.81-6.78 25 25 0 0 0-5.12-5.52l.48.3c-3.29-1.58-6.45-3.49-8.64-6.67-3.1-4.25-2.07-10.65 1.56-14.31 1.89-2.1 5.26-3.18 7.6-3.79a6 6 0 0 0 2.19-.92 7 7 0 0 1 2.07-3.25A6.7 6.7 0 0 1 36.37.63l-.58.13C39.6-.7 44.49-.31 46.24 4.18q.25.54.36.74c.11.2 0 0-.11 0a1 1 0 0 0-.3-.09l.23-.06a10 10 0 0 0 2.69-2 2.4 2.4 0 0 1 2.17-.62 20.3 20.3 0 0 1 14 11l-.57-.73a27 27 0 0 0 6.37 4.28 21 21 0 0 1 5.14 2l.51.33a7 7 0 0 1 2.32 2.79l-2.13-1a14 14 0 0 1 4.95 0c4.77.89 8.6 4.24 11.47 7.92l-1.13-.62c4 .32 7.61 2.32 11.07 4.14 3.38 1.51 7.32 2.82 10.37 5.11s5.64 5 9 6.9c2.34 1.58 5.4 2.41 7.23 4.75a5.4 5.4 0 0 1 1 2.83.24.24 0 0 1-.22.25.23.23 0 0 1-.25-.21 4.7 4.7 0 0 0-2.07-3.31c-1.93-1.32-4.24-2-6.33-3.13-3.4-1.61-6.46-4.29-9.55-6.29-3.24-2.14-6.67-3-10.29-4.41-3.37-1.5-6.54-3.24-10.31-3.35a1.6 1.6 0 0 1-1.13-.62c-3.24-3.77-7.93-7.24-13.11-6.07a1.94 1.94 0 0 1-2.13-1 2.7 2.7 0 0 0-1.37-1.41 12 12 0 0 0-3.43-1.3 20 20 0 0 1-5.29-2.57c-1.42-1.07-3.12-1.9-4.13-3.34a16 16 0 0 0-11-8.23l2.17-.62C49.91 9 45 11.75 42.37 7.49a13 13 0 0 0-1.23-2.16c-1.09-.78-2.75 0-4.25.36A1.7 1.7 0 0 0 36 6c-.3.29-.24.3-.46.89A5.7 5.7 0 0 1 32.7 10c-3.42 1.71-7.35 1.4-9.22 4.92-3.3 5.88 2.09 9.5 7 12.08 4.6 3.8 8.28 9.15 9.29 15.14C42.3 59.2 28.88 75.01 19.15 87.58a14 14 0 0 1-10.22 2.69C7 90 5.26 89.21 3.27 89.33a5 5 0 0 0-1.15.09 1.8 1.8 0 0 0 .52 1.68s-.08 0 0 0l.28-.1a13 13 0 0 1 5.66-2.63 4 4 0 0 1 2.27.09.93.93 0 0 1 .36 1.19 1.6 1.6 0 0 1-.77.67c-.92.51-2.11.86-2.49 1.57a1.7 1.7 0 0 0 1.65.69 6.4 6.4 0 0 0 2.94-2.85c.22-.37.85-1 1.49-.76s.88 1.24 1.12 1.38a1 1 0 0 0 .62.21c1.93 0 3.55-1 5.75-1.11a3.3 3.3 0 0 1 2.71 1.08 7 7 0 0 1 1 2.4c.14.46.35.49.79.26s.46-.53.23-1c-.56-.8-1.92-.85-2.78-1.49-2.09-1.36-1.28-2.94.66-3.94a8.8 8.8 0 0 0 3.93-5.2 106 106 0 0 1 7.51-11.68c2.73-3.8 9.44-11 13-4 6.44 7 13.84 9.62 24.75 9.26a8 8 0 0 1 3.29.59 2.9 2.9 0 0 1 1.19 3.91c-1.86 3.16-5.35 4.46-8.45 5.92a49 49 0 0 1-25.81 3.38h.49a10 10 0 0 1-2.22 0c-1-.16-.88-.18-1.16-.14a6 6 0 0 1-2.14.49c-1.11-.07-1.53-.42-2.42.1-.1.06-.11.1-.07 0a.4.4 0 0 0 0-.26s.12.26.2.3 0 0-.28 0a1 1 0 0 0-.33.15A10 10 0 0 1 37 88a6 6 0 0 1 4.47-1.35c3.32.28 5.21 2.61 2.8 5.52-.1.16-.1.23-.11.16s-.07-.14 0-.07a1.6 1.6 0 0 0 1.09.42l-.13.1L45 93a1 1 0 0 0-.05-.35c-2.53-6.26 6-5 9.6-4.63a137 137 0 0 1 14 2.69.24.24 0 0 1-.09.47Z" style="fill:#367660"/><path d="M20.1 20.72c.57.05 1.59.22 1.91-.21a1.9 1.9 0 0 1 1.72-.6 4 4 0 0 1 1.51.57c.35.16.22.08.66.12s.83 0 1.25.1c2.57.13 4.7 1.74 7.11 2.38a70 70 0 0 0 7.18 1 7 7 0 0 1 4.24.74 2 2 0 0 0 .74.32 12 12 0 0 1 3 .46 21 21 0 0 0 4.35 1.53 5 5 0 0 1 2 .62 4.3 4.3 0 0 0 2.18.77.14.14 0 0 1 0 .27 4 4 0 0 1-1.3.43c-.76.1-1.73-.24-2.35-.1a11.5 11.5 0 0 1-5.3-.48 6 6 0 0 0-1.86-.34 5 5 0 0 1-3-1.1c-1-.89-3-.52-4.23-1.31l-1.09-.55c-3.67-1.93-8-1.32-11.94-2.13a14 14 0 0 1-2-.42c-.69-.26-1.09-.84-1.61-1.1h-.05s-.2.11-.35.17a2 2 0 0 1-1.67-.06A4 4 0 0 1 20 21a.16.16 0 0 1 .12-.26ZM51.86 13c1 0 1.26-1.28 1.72-1.93 0-.1 0 .07.08 0s.23-.22.27-.48c.13-.57-.39-1-.94-1.08-.72-.12-1.7.62-2.47.75-.32.17.1.11.22-.09a1 1 0 0 0 .15-.33 13 13 0 0 0 .24 1.44c.09.57.14 1.51.73 1.7Zm0 .29a7 7 0 0 1-1-.39c-.92-.34-2-.53-2.52-1.49a2.43 2.43 0 0 1 1-3.65 5.2 5.2 0 0 1 4.06.88 11 11 0 0 1 2 1.25 2 2 0 0 1 0 3.06c-1.12.73-2.26.25-3.45.34ZM38.73 7.53c1.49-.53.69-3.08 1.85-3.83v.14a3 3 0 0 0-.39 1.75c0 .71.85 1.71 1.34 1.59.67-.3-.1-1.09-.56-1.14-1.31-.29-1.97 1.37-2.63 2.24-.44.54-1.22 1-1.63 1.44-.08.08-.12.15 0 .09 1.68-1.05 1.56-4.09-.07-5 0 0-.11-.07-.21-.11l-.28-.12c-.37-.1-.42 0-.29.11.78.69 1.61 2.92 2.88 2.8Zm.18.62c-2 .56-2.91 3.65-5.35 2.63a3.7 3.7 0 0 1-1.43-6.15c1.31-1.31 2.87-1.39 4.48-1.25 1.26.21 2.91 1.15 4.06.6s2.76-1.72 4.14-.06.21 4.16-1.4 4.82c-1.37.47-3.51-1.14-4.5-.59" style="fill:#367660"/><path d="M57.18 13.53c-2.11 5.92-10.38 3.73-11.36-1.74 0-1.86.26-4 2-5.2 1-.64 2.34-.47 3.43-.54a5.7 5.7 0 0 1 6 7.48Zm-.18-.06c.82-3.26-3-5.36-5.84-5.44-.65 0-1.38-.09-1.92-.09-.89-.06-1.66.77-2.23 2-1.66 2.84.74 4.72 3.41 5.14 2.27.45 5.52 1.14 6.58-1.63Zm22.79 34.47a4.3 4.3 0 0 1 3.8.74 12 12 0 0 1 1.31 1.45l1 1.2a25 25 0 0 1 2.94 3.88 12 12 0 0 0 1.3 2 3.2 3.2 0 0 1 .69 2.17 4 4 0 0 0 0 2.06c.13.9.91 1.28 1.21 2.19s-.14 1.88 0 2.65c.13 1.15.64 1.18 1.57 2a4.8 4.8 0 0 1 1.69 3 40 40 0 0 1-.8 7.72 16.5 16.5 0 0 1-2.45 6.66c-1.33 2.39-4.24 3.71-6.6 4.47-.08 0-.06 0-.08-.17s-.1-.42-.18-.34.31.43.47.83a1.2 1.2 0 0 1-.15 1.14.25.25 0 0 1-.45-.13.4.4 0 0 0-.3-.44 3 3 0 0 1-.69-.3c-1.76-1.53 2-4 2.7-5.1 1.1-1.15 1.57-3.41 2.11-4.83.72-2.74 1.73-6.3 2.58-8.94l.18-.55c.4-1.16-.51-1.75-1-3a6.4 6.4 0 0 1 0-3.74c0-.48 0-.53-.33-.85a8 8 0 0 1-2.47-4c-.08-.15-.14-.12-.24-.18s0 .09 0 .14c-.27 0-.85-.56-1.09-.76a11 11 0 0 1-2.11-2.82 19 19 0 0 1-2.72-5.77 4.6 4.6 0 0 0-2-2 .26.26 0 0 1 .06-.47Zm36.62 18.34a60 60 0 0 0-9.78 11.07 9 9 0 0 0-1.44 3.06c-.75 4 4.53 5.26 7.65 5.17 9.78-.51 16.89-9.76 23.11-16.65.1-.13.34 0 .27.15-3.29 9.62-12.38 20.1-23.55 18.18-3.19-.81-6.93-1.68-8.66-4.79-1.49-3.39.37-7.19 2.57-9.76a21.3 21.3 0 0 1 9.68-6.7.16.16 0 0 1 .15.27M21.78 15.34a7.7 7.7 0 0 1 4.49-4.9 9 9 0 0 1 3.5-.09 18 18 0 0 0 3.23-.28c4.27-.61 8-1.48 12.36-1.71a.13.13 0 0 1 .1.22A13.7 13.7 0 0 1 33 11.36a9 9 0 0 0-3.14-.25c-2.15.27-3.39 1.76-5.16 2.7-.86.52-1.69 1.11-2.68 1.68a.14.14 0 0 1-.19-.15Z" style="fill:#367660"/><path d="M124.35 66.07a12.4 12.4 0 0 0 4.86-10.13c0-1.55.17-3.44 1.38-4.75 2.38-2.65 6.46-2.55 9.54-1.45A12 12 0 0 1 147 56.4l.15.75a2 2 0 0 0-.05-.46 17.4 17.4 0 0 1 0 8.57c-.56 2.6-2 4.75-2.74 7.25s-1 5.36-2.32 7.55a40 40 0 0 1-4.5 6.59 27 27 0 0 1-6.96 4.35c-7 2.93-14.75 3-21.85 5.51 0 .09-.15 0-.21.1l-.15.15c-.31.28-1.12 1.11-1.43 1.39a4 4 0 0 1-.7.6l.34-.25a25 25 0 0 0-2.11 2.55c-.79 1.13-.17 2.27 0 3.53a2.3 2.3 0 0 1-.66 2.12 2.4 2.4 0 0 1-2.9.07c-2-1.23-2.71-4.2-1-5.92a6.7 6.7 0 0 0 2.21-3.85c0 .13.17.62.32.69s.22.16.1.14a5 5 0 0 0-1.12-.12 22 22 0 0 0-10.16 2.61c-.1.07-.08.13.07-.12a1.7 1.7 0 0 0-.14-1.75 1 1 0 0 0-.43 0 1.4 1.4 0 0 0-.54.25L90 99a8.3 8.3 0 0 1 3.85-5 14.6 14.6 0 0 1 8.77-1.18 2.6 2.6 0 0 1 2.08 1.92c-.18-.4.71.85-1.09 2.52-1.35.58-.44.18-.77.31h-.24a18 18 0 0 0-2.54.52c-.51 0-2.1.46-2.62.59-3 .61-6 1-9.08-.14a3.75 3.75 0 0 1-1.8-5.47c.84-2 3.58-4.08 5.56-2.24.8.76 1.15 2.31 1.89 2.61a51 51 0 0 0 5.47-.66 4.6 4.6 0 0 0 2.64-1.27c.2-.39 5.77-4.78 5.08-3.09-1.93 1.45-3.2 3.35-4.83 5.08-2 1.59-4.62 1.85-6.92 2.51-2.45.99-4.25-.51-5.31-2.37-.16-.28-.43-.44-.09-.17a1 1 0 0 0 .5.09q.1 0 0 0a2.7 2.7 0 0 0-.81 1.59v-.19q.01-.08-.06-.09h.16c3 .62 6.58-.59 9.53-1.33l-.7.1a19 19 0 0 1 2.88-.76l.37-.07h-.1c-.32.13.6-.27-.74.3-2.28 2.09-.66 4.16.79 4.39a11 11 0 0 0-5.6.84 2.6 2.6 0 0 0-1.2 1.34 10 10 0 0 1-.95 2 3.9 3.9 0 0 1-4.37 1.42c-3.21-1-4.54-4.74-1.55-6.87 3.15-2.44 17.46-5.93 18.24.07.09 3-1.47 5.2-3.53 7.1-.11.1 0 .06 0-.07 0-.3-.07-.17.06 0s.13.19.1.17a2 2 0 0 0-.5-.12 2 2 0 0 0-.5 0 1.6 1.6 0 0 0-1.2 1.45v-.43c-.39-1.72-.15-4.15 1.15-5.48a22 22 0 0 1 3-2.86l-.23.15 2.49-1.85-.29.2a6 6 0 0 1 2.36-.88c9-1.48 20.49-1.7 26.45-8.49a33 33 0 0 0 3.43-6.56c1-2.46.72-4.78 1.37-7.32.85-3.56 2.84-6.86 2.83-10.58a11 11 0 0 0-.35-3.4v-.37l.14.75a8.8 8.8 0 0 0-4.41-4.73c-1.74-.74-4.5-1.19-5.93.09-.77.71-.85 1.8-1.05 2.92a15 15 0 0 1-1.15 4.25 13 13 0 0 1-6 6c-.25.15-.47-.23-.27-.39ZM63.21 99.53c3.79 0 3.8-5.89 0-5.89s-3.8 5.89 0 5.89" style="fill:#367660"/><path d="M65.46 97.05c1.44-1.46 3.46-.5 5.25-.46 2.22 0 4.48-.47 6.69-.12a1.5 1.5 0 0 0 1.81-1 1.5 1.5 0 0 0-1-1.81c-2.67-.42-5.29.14-8 0a18 18 0 0 0-3.69-.28A5.5 5.5 0 0 0 63.38 95a1.47 1.47 0 0 0 2.08 2.08ZM9.5 93.35a12 12 0 0 1 3.2-1.78c.55-.19.82.13 1.37.3a6 6 0 0 0 2.18.18c1.39-.08 2.78-.22 4.17-.33a5 5 0 0 0 1-.08c.32 0 .39 0 .2-.16l.33.28.78.66.45.37q.32.25.12.15v-.78l-.06.21a1.47 1.47 0 0 0 2.84.78 2.4 2.4 0 0 0-.82-2.44A13 13 0 0 0 23.14 89a4.7 4.7 0 0 0-2.72-.18l-2.85.18a9 9 0 0 1-2.45.09c-.84-.15-1.4-.64-2.31-.55A10.4 10.4 0 0 0 8 90.8a1.54 1.54 0 0 0-.53 2 1.5 1.5 0 0 0 2 .53Z" style="fill:#367660"/></g></g></svg>