<svg viewBox="82 -4 207 330" fill="none" xmlns="http://www.w3.org/2000/svg" aria-hidden="true" focusable="false"><path fill="#fff" d="M272.603 315.826H96.7294L99.5285 306.495L110.725 298.565H133.584L159.241 279.438L185.366 275.239L214.756 277.572L236.215 295.766L260.94 298.565L272.603 315.826Z"></path><path fill="#fff" d="M185.366 236.986C174.481 238.385 150.191 233.72 140.115 203.864C142.447 198.266 196.096 203.864 185.366 236.986Z"></path><path fill="#fff" d="M194.696 135.754C182.1 135.754 172.77 147.883 176.502 155.813L187.232 159.546L197.962 143.218C197.651 141.507 196.562 137.62 194.696 135.754Z"></path><path fill="#fff" d="M134.05 40.1196L125.186 52.7153L116.323 48.9832L100.461 48.0502L94.3969 51.7822L93.4639 64.8445L97.6624 76.0406L109.325 89.5694L133.117 107.297L152.71 108.23L163.44 105.431L177.902 89.5694L187.232 72.3086L191.43 60.1794V43.8516L187.232 28.9234L176.502 24.2583L157.375 34.5215L152.71 48.0502L141.981 40.1196H134.05Z"></path><path fill="#593c0e" d="M198.428 142.508C197.784 140.286 198.031 137.971 197.298 135.741C196.341 132.852 195.616 132.088 192.75 132.528C188.931 133.11 185.32 134.167 182.234 136.694C180.043 138.484 177.678 140.062 175.132 141.921C169.859 130.819 164.786 120.153 159.756 109.568C162.776 106.832 165.685 104.402 168.355 101.733C171.769 98.3226 175.109 94.8199 178.234 91.1475C179.603 89.5389 180.294 87.3632 181.42 85.5231C185.262 79.2159 188.294 72.6464 190.27 65.4327C192.156 58.5623 192.414 51.665 192.688 44.702C192.731 43.5756 192.094 42.4183 191.674 40.9331C192.866 38.9657 193.236 37.9165 192.368 35.6675C191.188 32.6046 190.027 29.4143 188.167 26.7564C186.616 24.5345 184.36 22.243 181.91 21.3365C177.856 19.8359 173.524 19.8398 169.165 21.4985C165.118 23.0416 162.02 25.576 158.896 28.3959C155.3 31.6402 152.997 35.3512 152.496 40.1963C152.388 41.207 151.867 42.1753 151.551 43.1165C150.787 42.8812 150.455 42.8889 150.32 42.7269C146.999 38.7381 142.698 37.2028 137.582 37.0177C134.415 36.9019 132.02 37.9203 130.211 40.2773C128.073 43.0664 126.176 46.0406 124.038 49.1382C122.206 49.5471 121.161 47.8459 119.783 46.7889C114.101 42.4723 107.559 42.5533 100.931 43.1821C100.453 43.2245 99.9477 43.5216 99.5427 43.8186C96.8346 45.786 94.4545 47.9462 92.9732 51.1403C91.434 54.4579 92.5064 57.8873 91.8622 61.2202C91.5844 62.6475 92.0859 64.233 92.2865 65.7413C92.3714 66.374 92.4138 67.1532 92.7919 67.5737C94.2307 69.1476 94.3966 71.142 95.0987 72.9859C97.3361 78.8379 100.341 84.524 104.909 88.8677C108.531 92.3086 112.377 95.5722 116.535 98.5348C120.663 101.478 124.575 104.445 129.227 106.636C135.874 109.757 142.586 111.404 149.892 110.366C153.094 109.915 156.666 111.168 157.569 113.225C158.853 116.149 160.308 119.065 161.064 122.139C162.163 126.603 163.44 130.923 165.646 134.985C166.676 136.883 167.471 138.951 168.065 141.03C169.084 144.595 170.114 148.19 170.661 151.839C171.221 155.546 173.103 158.775 173.832 162.405C174.712 166.756 176.185 171.004 176.853 175.378C178.612 186.858 180.089 198.381 181.64 209.892C181.748 210.691 181.54 211.528 181.459 212.631C178.168 210.224 174.966 208.307 172.285 205.819C168.223 202.053 163.39 199.793 158.286 198.261C151.836 196.325 145.417 197.475 139.284 200.067C138.659 200.329 137.876 201 137.775 201.587C137.401 203.693 136.564 206.116 137.235 207.925C138.678 211.852 140.688 215.636 142.933 219.185C146.845 225.369 152.951 229.323 158.753 233.458C161.615 235.499 164.898 237.281 168.258 238.218C173.099 239.569 178.149 241.135 183.226 238.762C183.303 238.728 183.453 238.84 183.777 238.959C184.248 243.465 183.427 246.759 183.789 252.54C183.457 252.941 183.434 253.518 183.314 254.042C182.84 256.137 182.265 258.259 182.211 260.384C182.142 263.154 181.982 264.823 181.982 268.436C181.315 270.569 181.382 271.872 181.239 273.593C180.68 280.448 181.41 269.346 180.985 276.335C180.985 276.335 185.597 277.138 185.956 277.107C184.861 273.851 185.426 280.512 185.918 277.107C185.956 276.852 185.937 276.594 185.956 276.335C186.616 267.548 186.605 265.723 187.087 256.928C187.488 249.541 187.808 242.13 187.65 234.743C187.388 222.638 186.713 210.54 186.215 198.632C184.892 198.119 184.036 197.787 182.994 197.382C184.151 195.712 186.4 195.307 185.964 192.803C184.958 187.009 184.348 181.149 183.399 175.343C182.624 170.575 181.594 165.85 180.656 161.005C181.27 161.024 182.049 160.947 182.786 161.082C187.288 161.892 189.652 161.055 191.782 157.332C193.992 153.471 195.983 149.474 197.95 145.482C198.382 144.606 198.687 143.391 198.428 142.515V142.508ZM161.523 33.785C166.071 29.2909 171.19 26.39 177.775 26.5134C180.29 26.5636 182.088 27.5472 183.704 29.4568C187.307 33.7155 188.233 38.7651 188.904 44.0809C189.587 49.4507 189.849 54.7626 189.186 60.1324C188.518 65.5022 186.829 70.4553 184.109 75.1886C181.771 79.2545 178.944 82.9848 176.749 87.1819C174.23 92.0077 170.218 95.9618 164.86 98.936C168.324 79.567 165.519 61.741 153.997 45.9981C156.184 41.4655 158.07 37.1874 161.519 33.7811L161.523 33.785ZM136.039 103.075C131.545 100.934 126.881 99.0324 122.708 96.3707C118.055 93.3965 113.503 90.0712 109.599 86.1982C106.475 83.0928 103.038 80.1032 100.742 76.18C99.7278 74.4479 98.4162 72.8895 97.3863 71.169C94.4853 66.3393 93.9144 61.0968 94.6859 55.592C95.415 50.4112 100.152 47.2673 105.429 48.3011C111.15 49.416 116.362 51.4952 121.172 54.8552C123.17 56.2478 123.614 57.6944 123.691 59.9202C123.849 64.6226 123.803 69.4485 124.856 73.9812C127.348 84.6822 131.187 94.8739 138.956 103.592C137.98 103.434 136.9 103.48 136.039 103.071V103.075ZM142.975 102.651C141.621 101.262 139.801 100.321 138.435 99.3487C138.258 98.5348 138.25 97.7324 137.922 97.0921C135.904 93.138 133.424 89.3691 131.85 85.2454C130.041 80.4967 128.598 75.5204 127.761 70.5093C126.739 64.4105 126.677 58.1727 128.201 52.07C129.343 47.4795 131.179 43.4444 135.877 41.1954C137.633 40.3545 138.258 40.4779 139.97 41.5426C143.778 43.9112 146.829 46.8738 149.553 50.2994C150.332 51.2753 150.922 52.4018 151.593 53.4587C155.57 59.7081 158.375 66.401 159.47 73.7767C159.802 76.0218 160.504 78.2052 160.963 80.4349C162.194 86.4374 161.226 92.1813 159.621 98.0642C157.827 104.634 147.25 107.025 142.979 102.647L142.975 102.651ZM183.31 226.534C183.742 227.876 183.322 232.656 182.589 234.342C177.659 235.379 173.238 233.778 168.652 231.977C162.04 229.381 156.982 224.732 151.89 220.18C148.044 216.739 144.765 212.627 143.11 207.562C142.713 206.343 142.802 204.958 142.628 203.269C150.937 203.122 158.221 203.465 164.682 207.975C167.29 209.792 170.152 211.242 172.895 212.874C178.188 216.033 181.447 220.759 183.31 226.534ZM190.42 148.371C189.54 149.903 188.696 151.453 187.785 152.962C186.701 154.748 185.401 156.241 183.029 156.206C179.542 156.156 177.717 154.424 178.056 150.944C178.384 147.619 179.542 144.649 182.404 142.461C184.826 140.613 187.056 138.519 190.123 137.79C191.45 137.473 192.8 137.261 194.644 136.899C194.748 141.817 192.353 145.007 190.42 148.371Z"></path><path fill="#593c0e" d="M145.145 15.5042C145.03 18.7446 142.495 20.7196 138.746 20.492C136.304 20.3455 134.379 17.7802 134.414 14.7134C134.448 11.6003 138.017 8.47948 141.315 8.68008C143.193 8.79195 145.253 12.4644 145.145 15.5003V15.5042Z"></path><path fill="#593c0e" d="M120.297 26.34C119.437 25.5299 118.457 24.8702 117.832 23.9637C116.239 21.6491 117.223 19.4696 120.077 18.6942C123.719 17.7028 124.066 17.7722 125.046 19.6972C126.049 21.6684 125.47 23.875 123.572 24.9474C122.705 25.4373 121.729 25.7382 120.294 26.34H120.297Z"></path><path fill="#593c0e" d="M127.167 6.05504C125.381 5.50726 122.92 5.98174 122.214 3.46273C121.685 1.57251 123.73 0.905141 124.802 0.122048C125.361 -0.286858 127.229 0.403652 128 1.12888C129.393 2.44432 129.057 3.70576 127.167 6.05504Z"></path><path fill="#593c0e" d="M211.646 270.235C211.673 270.262 211.696 270.293 211.723 270.32L211.735 270.308L211.646 270.235ZM277.754 309.926L277.742 309.914C277.418 309.609 277.121 309.231 276.855 308.772C275.389 306.249 273.634 303.885 271.898 301.528C269.537 298.318 265.945 296.794 262.57 295.004C260.78 294.055 258.944 293.191 256.633 292.042C256.633 292.042 255.869 290.128 248.714 290.275C248.66 290.275 248.606 290.279 248.552 290.279C245.674 290.36 242.788 290.479 239.93 290.267C238.622 290.171 237.152 289.411 236.149 288.512C233.032 285.708 230.182 282.602 227.061 279.794C225.487 278.378 223.585 277.313 221.788 276.156C218.524 274.054 214.443 273.352 211.723 270.32C210.292 271.689 208.853 270.601 207.41 270.339C204.667 269.845 201.932 269.236 199.17 268.915C192.277 268.121 186.062 271.581 179.385 272.229C177.163 272.441 174.949 272.735 172.869 272.978C172.514 273.02 166.79 273.406 166.79 273.406C164.483 274.027 162.049 274.397 159.846 275.323C150.495 279.254 142.217 284.763 135.37 292.347C134.613 293.184 133.294 293.643 132.148 293.959C130.312 294.468 128.403 294.711 125.922 295.178C125.899 295.155 125.274 294.599 124.615 294.013C123.291 296.744 123.349 296.686 121.378 294.715C120.823 294.163 119.789 293.797 118.99 293.832C116.826 293.92 114.481 293.816 112.548 294.607C108.39 296.312 103.143 296.474 101.145 301.713C101.075 301.902 100.736 302.087 100.508 302.102C97.9586 302.276 97.3645 304.587 96.3654 306.211C95.3431 307.873 94.9342 309.918 94.2668 311.758C93.3796 311.959 92.6389 312.202 91.879 312.279C90.498 312.414 89.0359 312.213 87.7514 312.618C86.9798 312.857 86.0077 313.972 86 314.701C86 315.392 87.0107 316.364 87.7976 316.715C88.6772 317.101 89.8036 316.958 90.8259 316.989C93.8926 317.081 96.971 317.035 100.03 317.251C102.889 317.456 105.816 316.16 108.629 317.66C109.038 317.88 109.639 317.757 110.152 317.757C112.934 317.757 115.723 317.679 118.504 317.757C127.512 318.023 136.515 318.366 145.523 318.628C147.17 318.679 148.914 318.115 150.464 318.474C154.515 319.408 158.469 319.62 162.465 318.312C162.878 318.177 163.426 318.424 163.904 318.52C164.969 318.729 166.026 319.122 167.091 319.145C172.449 319.249 177.811 319.234 183.169 319.315C188.851 319.4 194.534 319.543 199.911 319.658C200.447 318.679 200.76 317.232 201.454 317.016C203.688 316.325 202.496 319.145 203.715 319.67C207.561 319.67 211.368 319.62 215.172 319.685C217.637 319.732 220.098 320.009 222.563 320.067C229.132 320.218 235.71 319.195 242.275 320.245C243.274 320.407 244.354 320.403 245.346 320.218C253.366 318.717 261.405 320.534 269.44 320.021C274.494 319.697 279.578 319.701 284.651 319.693C284.227 315.16 279.74 312.105 277.754 309.922V309.926ZM180.97 276.766C181.055 276.708 181.425 277.09 181.888 277.437C181.422 277.823 181.14 278.185 180.785 278.289C180.758 278.297 180.723 278.289 180.689 278.274C180.669 278.266 180.65 278.255 180.631 278.239C180.542 278.178 180.442 278.073 180.338 277.958C180.318 277.942 180.303 277.923 180.287 277.908C180.272 277.888 180.257 277.873 180.241 277.857C180.214 277.83 180.191 277.803 180.168 277.78C180.16 277.769 180.149 277.757 180.137 277.749C180.125 277.734 180.118 277.726 180.11 277.722C180.091 277.703 180.075 277.688 180.056 277.668C180.353 277.356 180.619 276.993 180.97 276.766ZM242.808 310.25C240.547 310.311 238.286 310.25 236.026 310.25C227.369 310.25 218.709 310.227 210.053 310.238C202.523 310.246 194.996 310.273 187.466 310.315C179.809 310.358 172.156 310.462 164.498 310.473C158.673 310.481 152.848 310.381 147.023 310.335C146.387 310.331 145.743 310.315 145.11 310.377C140.242 310.848 135.37 310.732 130.494 310.786C125.706 310.836 120.834 310.863 116.012 311.237C110.527 311.662 105.014 311.762 98.7031 312.036C100.717 307.827 102.761 304.88 106.036 303.345C110.627 301.196 115.26 299.364 120.703 300.081C125.336 300.691 130.15 300.502 134.818 300.023C136.542 299.846 138.321 298.056 139.651 296.613C143.64 292.285 148.049 288.609 153.018 285.384C157.485 282.49 162.257 281.021 167.314 280.234C170.69 279.713 174.146 279.586 177.568 279.559C180.781 279.535 183.863 279.316 186.996 278.328C193.16 276.384 199.417 276.843 205.69 278.259C210.003 279.235 214.126 280.496 217.614 283.289C219.184 284.55 220.673 285.935 222.065 287.393C225.047 290.51 227.821 293.839 230.926 296.833C232.89 298.727 235.135 300.579 238.298 299.699C241.211 301.925 244.547 300.22 247.626 300.737C249.825 301.103 251.919 302.056 254.103 302.569C255.102 302.805 256.201 302.612 257.247 302.612C257.015 305.848 261.745 306.292 262.034 309.644C255.723 311.017 249.246 310.064 242.808 310.246V310.25Z"></path></svg>
