<svg xmlns="http://www.w3.org/2000/svg" width="149" height="122" version="1.2" viewBox="0 0 149 122"><path fill-rule="evenodd" d="M141.7 49.7c-.1.1-.4.4-.6.7s-1.1 1.4-2 2.5c-2 2.4-4.5 6.4-5.5 8.9-.4.9-.8 1.7-.8 1.8-.1.1-.2-1.1-.4-4.1-.3-4-.5-5.6-1.3-8.4-2.1-8.2-5.8-13.4-11.2-15.8-2.7-1.2-7.4-2-10.9-1.9-7.4.4-16 4.9-21.5 11.4-1.2 1.4-4.1 6-5.2 8.2l-.5.9-.7-1c-3.2-5.2-5-7.6-7.7-10.7-3-3.3-6.2-5.9-9.7-7.9-12.4-7.1-29.5-2.7-45.1 11.5-2.5 2.3-7.1 6.9-8.9 9-3.6 4-6.8 10.5-6.9 13.8-.1 1.2.1 2.2.4 2.4s.4-.1.6-1.7c.3-2.4 1.2-4.4 3.4-7.8 2.2-3.3 2.5-3.6 7.1-8 7-6.6 11.2-9.9 17.2-13.3 4.8-2.7 8.5-4.1 13.1-5.1 5.7-1.1 10.7-.7 15.2 1.3 2.3 1 6.5 4 8.7 6.2C71.9 46 74 48.9 77.7 55c2.2 3.9 2.8 4.6 4.1 4.6 1.5 0 2.2-.8 4.2-4.7.6-1.2 1.9-3.5 3-5.2 1.7-2.5 2.2-3.1 3.3-4.3q5.3-5.1 12.2-7.1c4.4-1.3 9.9-.9 13.8.9 2.9 1.4 5.3 4.4 6.9 8.8 1 2.4 2.1 7.8 2.2 10.9l.1 2.6-.6-.2c-.3-.2-2.1-1.1-3.8-2.2-3.6-2.1-4.2-2.3-5.3-2.1-1.9.2-3 2.3-2 3.9.5.9 2.7 2.8 5.4 4.8 1.3.9 4.2 3.1 6.6 4.9 4.8 3.7 5.1 3.9 6.6 3.7 1.9-.3 2.7-1.6 3.4-5.8.3-1.6.8-3.9 1.2-5.1 1.5-5.2 3.2-11.5 3.4-12.5.2-1.1-.1-1.6-.7-1.2" style="fill:#896c4b"/></svg>