<svg viewBox="30 -6 322 320" fill="none" xmlns="http://www.w3.org/2000/svg" aria-hidden="true" focusable="false"><g clip-path="url(#clip2_1206_3949)">
              <path fill="#fff" d="M298.468 92.5882C291.852 69.8428 271.278 59.363 250.303 65.0933C247.967 44.2645 236.348 2.8141 208.56 3.64357C173.825 4.68042 180.996 48.6076 180.83 58.3132C174.765 52.3223 149.699 47.4973 135.574 65.0415C124.274 79.0768 138.029 97.1082 146.319 104.37C140.486 109.049 130.294 122.916 136.186 140.948C142.079 158.981 157.198 167.275 164.021 169.167C159.938 176.32 156.124 193.302 173.538 204.001C190.951 214.7 211.21 198.002 219.164 188.316C219.868 188.928 222.319 192.203 226.491 200.402C241.658 230.874 262.43 228.821 280.538 208.177C298.646 187.532 274.484 146.234 274.721 144.157C298.453 135.258 305.085 115.334 298.468 92.5882Z"></path>
              <path fill="#593c0e" d="M219.364 189.841C218.308 191.755 217.489 193.754 216.228 195.407C213.681 198.743 210.773 201.687 207.265 204.12C204.929 205.739 202.353 206.711 199.891 207.966C198.426 208.712 196.66 208.867 195.02 209.249C193.968 209.495 192.897 209.676 191.837 209.882C191.582 209.931 191.323 210.015 191.068 210C186.737 209.747 182.409 209.411 178.18 208.339C175.905 207.76 173.752 206.857 171.895 205.312C170.999 204.567 169.966 203.992 169.036 203.284C167.22 201.904 166.369 199.782 165.114 197.972C164.782 197.492 164.573 196.922 164.243 196.438C162.736 194.23 162.304 191.629 161.56 189.143C160.884 186.879 160.534 184.579 160.496 182.21C160.452 179.592 160.591 177.024 161.323 174.503C161.483 173.957 161.479 173.361 161.583 172.548C160.163 172.279 158.852 172.08 157.565 171.769C156.703 171.558 155.775 171.341 155.063 170.852C153.929 170.072 152.521 170.087 151.416 169.332C150.893 168.976 150.409 168.564 149.917 168.165C149.513 167.834 149.174 167.383 148.721 167.161C147.493 166.56 146.29 166.103 145.515 164.733C144.849 163.55 143.706 162.629 142.73 161.636C142.186 161.086 141.51 160.67 140.957 160.126C139.755 158.94 138.705 157.636 137.973 156.08C137.088 154.195 135.747 153.143 133.499 153.327C130.8 153.549 128.08 153.524 125.369 153.606C124.465 153.635 123.562 153.637 122.661 153.672C120.523 153.759 118.39 153.901 116.248 153.924C115.564 153.934 114.805 153.783 114.204 153.466C112.951 152.816 112.987 151.395 114.17 150.653C117.721 148.43 121.255 146.186 124.813 143.976C125.527 143.531 126.381 143.298 127.054 142.804C128.305 141.891 129.505 140.894 130.651 139.85C130.922 139.603 130.981 139.031 130.992 138.6C131.008 138.085 130.935 137.548 130.785 137.052C130.201 135.134 130.121 133.219 130.576 131.264C130.69 130.765 130.717 130.198 130.61 129.697C130.039 127.016 130.798 124.51 131.526 122.013C131.69 121.443 132.225 120.987 132.745 120.255C131.776 118.693 132.533 117.17 133.734 115.629C134.714 114.369 135.467 112.93 136.358 111.594C136.663 111.133 137.007 110.642 137.452 110.338C139.367 109.028 141.323 107.782 143.381 106.434C143.175 106.23 142.944 105.966 142.675 105.751C141.299 104.66 139.772 103.728 138.565 102.474C135.631 99.4329 132.538 96.5596 130.618 92.5992C129.439 90.1736 128.768 87.6357 127.827 85.1665C126.471 81.6103 126.942 77.9383 126.676 74.3172C126.605 73.3785 126.876 72.3613 127.205 71.4631C128.79 67.1451 130.755 63.0811 134.569 60.2287C135.913 59.2238 137.062 57.9628 138.365 56.8979C139.515 55.9578 140.752 55.1206 141.954 54.2443C142.059 54.1681 142.171 54.0933 142.292 54.0464C144.939 53.0534 147.513 51.7083 150.251 51.1495C155.183 50.1476 160.21 49.7336 165.209 51.1113C167.271 51.6816 169.386 52.1117 171.381 52.8684C172.807 53.4109 174.075 54.3895 175.42 55.1603C175.807 55.3825 176.213 55.5572 176.857 55.8774C176.638 54.8047 176.441 53.9483 176.29 53.0822C175.91 50.9346 175.498 48.7892 175.208 46.6301C175.119 45.9725 175.392 45.2647 175.537 44.3641C175.561 44.3684 175.295 44.3296 174.98 44.2866C174.605 39.7873 174.868 35.3112 175.22 30.8052C175.537 26.7515 176.816 23.0829 178.296 19.4002C179.251 17.0251 180.622 14.9616 181.971 12.8215C183.246 10.7978 184.7 9.05364 186.43 7.50783C189.264 4.98233 192.566 3.16894 195.999 1.63087C197.035 1.16637 198.279 1.16577 199.435 0.979643C201.85 0.591873 204.205 0.127346 206.742 0.292987C210.273 0.52063 213.417 1.86764 216.716 2.81386C219.05 3.48154 221.087 4.67517 223.181 5.85604C226.095 7.5013 228.883 9.27462 231.131 11.7891C233.902 14.8861 236.819 17.8833 239.276 21.2204C240.974 23.5306 242.087 26.3008 243.295 28.9406C243.953 30.3714 245.064 31.7438 244.595 33.5222C244.582 33.5676 244.638 33.6682 244.682 33.6894C246.325 34.4853 246.151 36.1616 246.527 37.5621C246.89 38.9174 247.276 40.2657 247.53 41.657C247.691 42.5315 248.224 43.3377 248.389 44.2147C248.93 47.0856 249.319 49.9863 249.885 52.8536C250.208 54.4926 249.706 56.2091 250.626 57.8194C250.942 58.3722 250.511 59.3421 250.453 60.1223C250.405 60.7563 250.403 61.3955 250.367 62.3358C251.133 62.1588 251.686 62.0975 252.189 61.9036C255.721 60.563 259.405 60.3485 263.133 60.4313C266.77 60.5141 270.281 61.4318 273.781 62.2768C275.121 62.5995 276.318 63.5686 277.567 64.2658C278.533 64.8045 279.508 65.3367 280.432 65.9482C281.45 66.6263 282.428 67.3694 283.394 68.1234C284.322 68.8473 285.238 69.5857 286.109 70.3717C288.937 72.9152 292.095 75.1197 294.241 78.4425C298.341 76.6734 301.702 73.7922 305.321 71.315C308.97 68.8172 311.737 65.4803 314.484 61.964C314.066 61.5471 313.781 61.3025 313.541 61.0218C312.919 60.2797 312.565 59.4998 313.035 58.5073C313.504 57.5148 313.678 56.2808 314.377 55.5227C315.066 54.7792 316.233 54.1399 317.219 54.0984C319.224 54.0169 321.045 54.7452 322.128 56.6929C322.902 58.0857 322.687 59.498 321.412 60.4334C320.052 61.432 319.069 62.8104 318.569 64.3069C317.872 66.402 316.445 67.9376 315.072 69.4008C313.181 71.4101 311.327 73.548 308.824 74.9062C307.195 75.7914 305.887 77.2995 304.284 78.0597C301.784 79.2473 299.7 81.0373 297.185 82.1991C298.802 86.7665 300.381 91.2317 301.968 95.7246C304.381 95.4284 306.88 95.0611 309.391 94.8339C312.499 94.5516 315.598 94.544 318.673 95.39C319.902 95.7302 321.231 95.6779 322.484 95.9468C326.354 96.7774 330.015 98.2438 333.659 99.768C334.15 99.9746 334.811 99.9873 335.332 99.8525C337.24 99.3537 339.63 100.058 340.739 101.59C341.356 102.439 341.985 103.289 342.478 104.213C342.841 104.888 343.193 105.676 343.211 106.419C343.263 108.47 341.768 109.682 339.609 109.522C337.431 109.36 335.771 108.229 334.641 106.45C333.945 105.359 333.192 104.516 332.012 104.01C331.301 103.706 330.697 103.125 329.974 102.881C329.027 102.556 328.233 101.894 327.082 101.955C326.265 101.999 325.418 101.357 324.568 101.072C323.035 100.561 321.506 100.041 319.947 99.6201C318.868 99.3303 317.742 99.2128 316.638 99.0057C312.057 98.1434 307.513 98.8268 302.997 99.1091C302.249 100.373 302.883 101.546 302.887 102.686C302.892 103.655 303.236 104.631 302.712 105.564C302.647 105.674 302.569 105.825 302.596 105.931C303.359 109.137 302.198 112.09 301.53 115.118C301.245 116.419 301.306 117.803 300.999 119.095C300.46 121.358 299.921 123.645 299.069 125.797C298.434 127.394 297.391 128.847 296.385 130.262C294.749 132.559 293.01 134.78 291.281 137.002C290.97 137.403 290.536 137.754 290.087 137.993C288.088 139.044 286.096 140.119 284.041 141.043C282.642 141.671 281.133 142.052 279.687 142.585C279.272 142.737 278.887 143.002 278.529 143.27C277.791 143.821 277.566 144.488 278.217 145.278C278.713 145.884 279.221 146.478 279.718 147.084C280.26 147.743 280.777 148.392 280.63 149.365C280.589 149.642 280.898 149.981 281.062 150.284C281.531 151.139 282.083 151.959 282.469 152.85C283.487 155.184 284.495 157.524 285.388 159.905C286.289 162.311 287.039 164.776 287.866 167.211C288.056 167.767 288.267 168.317 288.501 168.857C288.9 169.767 288.866 170.627 288.495 171.167C288.875 172.393 289.258 173.398 289.498 174.438C289.861 176.024 290.235 177.621 290.394 179.234C290.589 181.224 290.694 183.241 290.611 185.238C290.513 187.576 290.346 189.937 289.897 192.228C289.212 195.729 288.268 199.178 287.423 202.646C287.348 202.96 287.196 203.257 287.05 203.546C286.261 205.102 285.389 206.617 284.686 208.211C283.554 210.767 281.421 212.557 279.896 214.809C278.386 217.046 276.448 218.876 274.262 220.406C272.998 221.289 271.582 221.96 270.192 222.646C269.09 223.19 267.872 223.508 266.8 224.104C265.257 224.964 263.568 225.028 261.903 225.236C261.201 225.326 260.261 225.509 259.804 225.152C258.957 224.495 258.755 225.76 258.036 225.466C257.412 225.212 256.624 225.414 255.918 225.328C252.96 224.965 249.985 224.747 247.314 223.106C246.283 222.473 244.953 222.347 243.92 221.719C241.978 220.546 240.14 219.203 238.29 217.886C237.292 217.176 236.323 216.411 235.406 215.597C231.153 211.819 228.1 207.086 225.152 202.288C224.131 200.624 223.41 198.778 222.496 197.045C221.435 195.034 220.602 192.933 219.874 190.783C219.757 190.436 219.531 190.128 219.378 189.837L219.364 189.841ZM239.411 37.7955C239.431 37.7894 239.448 37.7844 239.468 37.7748C239.283 37.1491 239.119 36.5174 238.914 35.8978C237.91 32.9141 236.325 30.2152 234.86 27.4545C234.103 26.0268 233.559 24.5019 232.442 23.2597C231.268 21.9548 230.287 20.4796 229.131 19.1581C227.851 17.6921 226.531 16.2451 225.101 14.9327C224.301 14.1976 223.171 13.8394 222.312 13.1559C219.999 11.3182 217.533 9.80119 214.71 8.91893C213.656 8.59116 212.568 8.33421 211.579 7.85884C209.756 6.98383 207.926 6.63212 205.922 7.02302C205.195 7.16593 204.387 6.93575 203.618 6.86401C203.168 6.81932 202.682 6.60372 202.277 6.71197C199.876 7.33742 197.362 7.37657 195.131 8.87002C192.279 10.7808 189.691 12.9503 187.394 15.4608C185.546 17.4798 184.721 20.153 183.459 22.5507C182.025 25.2866 181.658 28.21 181.228 31.1332C180.869 33.563 180.889 36.0509 180.738 38.5139C180.698 39.1642 180.556 39.8221 180.601 40.4665C180.853 44.3746 181.256 48.2725 182.02 52.1131C182.614 55.1006 183.481 58.0378 184.282 60.9828C184.807 62.9137 185.201 64.9324 186.057 66.7167C187.767 70.2853 189.367 73.9093 191.108 77.4652C193.318 81.9785 196.405 85.8815 198.992 90.1251C199.159 90.4007 199.4 90.6356 199.617 90.8776C201.664 93.1679 203.671 95.4968 205.77 97.7341C208.572 100.724 211.156 103.97 214.969 105.811C215.692 106.161 216.248 106.866 216.89 107.398C218.671 108.875 220.598 110.098 222.897 110.519C223.402 110.612 224.091 110.503 224.496 110.213C226.219 108.964 227.828 107.552 229.562 106.311C232.177 104.436 234.142 101.952 236.086 99.451C237.24 97.9657 238.605 96.4896 239.21 94.7656C240.448 91.2375 242.425 87.9598 242.823 84.1281C242.909 83.3054 243.185 82.3662 243.699 81.7649C244.446 80.8907 243.467 80.3103 243.603 79.5033C244.037 76.9491 244.304 74.3462 244.387 71.7523C244.487 68.6355 244.353 65.5086 244.262 62.3914C244.237 61.5713 243.949 60.7607 243.87 59.9339C243.699 58.1139 243.705 56.272 243.421 54.474C242.963 51.5822 242.195 48.737 241.822 45.8392C241.549 43.7244 240.898 41.7737 240.14 39.8248C239.879 39.1538 239.65 38.4691 239.406 37.7931L239.411 37.7955ZM223.75 184.734C224.919 187.582 226.189 190.593 227.392 193.631C228.576 196.63 230.276 199.34 231.972 202.048C232.558 202.982 233.56 203.669 234.081 204.626C235.92 208.005 238.616 210.596 241.468 213.045C242.101 213.592 242.971 213.845 243.642 214.357C246.446 216.515 249.5 217.915 253.032 218.512C255.922 218.997 258.8 219.331 261.679 219.12C264.078 218.945 266.246 217.795 268.269 216.483C269.241 215.853 270.11 215.048 271.125 214.511C272.304 213.887 273.262 213.106 274.024 212.004C274.759 210.937 275.664 209.99 276.377 208.91C277.518 207.179 278.636 205.424 279.613 203.594C280.522 201.887 281.322 200.101 282.001 198.288C282.497 196.955 282.843 195.534 283.039 194.119C283.334 191.992 283.427 189.837 283.624 187.697C283.714 186.733 284.021 185.762 283.934 184.82C283.645 181.713 283.376 178.588 282.808 175.521C281.881 170.519 280.841 165.54 278.541 160.91C277.537 158.889 277.04 156.61 276.033 154.591C274.102 150.717 272.012 146.916 269.899 143.138C269.141 141.782 268.16 140.549 267.214 139.305C265.596 137.179 263.786 135.185 262.364 132.937C261.852 132.125 261.254 131.606 260.607 131.022C259.457 129.986 258.404 128.835 257.187 127.89C255.282 126.412 253.222 125.13 251.332 123.636C249.937 122.532 248.428 121.863 246.703 121.915C245.311 121.959 244.219 121.488 243.178 120.631C242.271 119.89 241.331 119.238 240.072 119.137C236.782 118.865 233.495 118.539 230.214 118.158C229.417 118.064 228.838 118.216 228.303 118.797C226.69 120.562 225.515 122.545 225.057 124.943C224.924 125.633 224.602 126.287 224.342 126.949C223.556 128.946 222.504 130.877 222.031 132.948C221.319 136.056 221.109 139.281 220.501 142.423C219.476 147.702 219.104 153.023 219.309 158.392C219.407 160.94 219.632 163.485 219.815 166.031C219.88 166.934 219.949 167.839 220.086 168.736C220.41 170.87 220.776 172.998 221.118 175.131C221.18 175.52 221.165 175.925 221.275 176.297C222.071 179.044 222.887 181.784 223.757 184.732L223.75 184.734ZM221.094 119.542C219.188 120.01 217.68 120.342 216.197 120.76C214.955 121.112 213.689 121.455 212.526 121.998C210.181 123.091 207.948 124.438 205.569 125.442C203.825 126.18 202.175 127.059 200.886 128.377C199.249 130.047 197.004 130.845 195.445 132.616C194.941 133.188 194.155 133.549 193.68 134.244C193.427 134.614 193.121 135.037 192.737 135.214C190.737 136.137 189.478 137.782 188.335 139.57C188.198 139.788 188.028 139.997 187.836 140.171C185.052 142.727 183.055 145.912 180.945 149.006C179.299 151.419 177.641 153.828 176.001 156.247C175.606 156.832 175.13 157.399 174.898 158.053C173.838 161.008 171.871 163.458 170.622 166.344C169.179 169.683 167.428 172.829 167.283 176.591C167.242 177.63 166.86 178.654 166.816 179.695C166.741 181.364 166.628 183.072 166.884 184.711C167.181 186.63 167.949 188.471 168.344 190.38C168.864 192.89 170.282 195.022 171.666 196.964C173.947 200.16 177.335 202.21 181.219 202.912C185.009 203.599 188.844 204.262 192.736 203.7C194.586 203.433 196.502 203.42 198.276 202.896C200.235 202.318 202.102 201.378 203.931 200.434C205.821 199.457 207.66 198.358 209.434 197.177C210.555 196.431 211.457 195.36 212.546 194.555C214.549 193.072 216.191 191.242 217.662 189.263C218.073 188.707 218.276 187.785 218.178 187.085C217.998 185.804 217.484 184.569 217.181 183.302C216.479 180.392 215.506 177.55 215.084 174.565C214.593 171.09 213.729 167.668 213.696 164.126C213.678 161.909 213.449 159.691 213.332 157.473C213.296 156.754 213.273 156.032 213.317 155.32C213.461 152.972 213.602 150.626 213.819 148.283C214.058 145.7 214.335 143.12 214.672 140.55C214.941 138.486 215.125 136.376 215.699 134.393C216.48 131.684 217.043 128.907 218.432 126.362C219.565 124.286 220.192 121.928 221.1 119.548L221.094 119.542ZM216.31 114.054C216.135 113.852 216.004 113.638 215.822 113.502C213.942 112.119 212.064 110.731 210.159 109.381C208.794 108.412 207.408 107.529 206.12 106.405C202.981 103.67 200.383 100.476 197.657 97.3773C196.938 96.5617 196.352 95.6274 195.668 94.7788C194.326 93.1042 192.858 91.5233 191.631 89.773C190.282 87.8472 189.121 85.7866 187.916 83.7656C186.741 81.7995 185.5 79.8608 184.498 77.8062C183.064 74.8702 181.815 71.8417 180.495 68.8494C180.337 68.4916 180.173 68.128 180.059 67.7536C179.123 64.7083 178.231 61.6464 177.236 58.6184C177.074 58.1184 176.542 57.6708 176.075 57.3551C175.599 57.0345 175.013 56.822 174.447 56.7018C172.179 56.2188 169.984 55.4041 167.599 55.4505C166.064 55.4801 164.518 54.9502 162.983 54.9763C160.4 55.0243 157.815 55.243 155.247 55.5286C153.918 55.675 152.518 55.8918 151.339 56.47C147.702 58.25 143.922 59.7737 140.83 62.5642C138.278 64.8703 135.62 67.0451 134.261 70.3407C133.424 72.3788 132.531 74.4411 132.777 76.7303C133.06 79.3748 133.085 82.0428 133.959 84.6228C135.029 87.7946 136.148 90.8881 138.64 93.2813C139.437 94.0438 140.046 95.0088 140.749 95.8708C141.16 96.3768 141.561 96.9007 142.019 97.3627C144.624 99.9871 147.908 101.656 151.016 103.478C154.979 105.8 159.107 107.9 163.373 109.63C167.096 111.142 170.883 112.492 174.662 113.863C175.875 114.302 177.267 114.36 178.366 114.981C181.028 116.481 184.052 115.812 186.835 116.736C188.691 117.352 190.855 116.974 192.882 117.079C193.394 117.106 193.897 117.343 194.412 117.379C195.948 117.482 197.508 117.702 199.026 117.567C201.397 117.359 203.747 116.926 206.099 116.527C207.946 116.212 209.788 115.858 211.61 115.422C213.156 115.052 214.667 114.539 216.313 114.053L216.31 114.054ZM139.667 142.143C140.459 143.927 141.373 146.023 142.325 148.096C142.506 148.496 142.84 148.828 143.103 149.189C143.788 150.132 144.631 150.998 145.112 152.035C145.661 153.21 146.46 154.108 147.356 154.966C147.774 155.368 148.216 155.74 148.642 156.132C150.113 157.496 151.509 158.959 153.079 160.192C154.179 161.058 155.699 161.407 156.715 162.342C158.772 164.237 161.283 163.908 163.674 164.222C163.946 164.259 164.379 164.079 164.53 163.856C165.332 162.686 166.104 161.491 166.813 160.262C167.286 159.434 167.601 158.514 168.048 157.672C168.444 156.924 168.938 156.23 169.368 155.498C170.285 153.947 171.22 152.405 172.096 150.828C172.523 150.056 172.772 149.317 172.61 148.277C172.251 145.972 172.167 143.608 172.142 141.269C172.093 136.394 171.663 131.631 168.944 127.37C168.609 126.842 168.447 126.206 168.178 125.635C167.123 123.403 166.081 121.164 164.985 118.956C164.669 118.316 164.21 117.748 163.788 117.166C163.6 116.908 163.387 116.605 163.114 116.477C161.292 115.632 159.448 114.842 157.62 114.003C156.496 113.488 155.389 112.938 154.293 112.366C153.259 111.824 152.238 111.253 151.231 110.662C150.349 110.144 149.486 109.598 148.632 109.033C147.856 108.518 146.921 107.857 146.136 108.428C144.632 109.522 143.054 110.695 142.005 112.194C140.54 114.293 139.463 116.659 138.756 119.214C137.92 122.242 136.911 125.193 137.449 128.408C137.579 129.178 137.824 129.983 137.731 130.732C137.245 134.62 138.855 138.135 139.664 142.144L139.667 142.143ZM249.869 80.0232C249.62 80.913 249.339 81.4682 249.329 82.0303C249.288 84.2341 248.72 86.295 247.883 88.2954C246.963 90.4976 246.65 92.9327 245.189 94.9435C244.537 95.8386 244.047 96.9998 244.942 98.198C246.025 99.6507 246.999 101.192 248.089 102.643C250.671 106.09 252.485 109.742 251.445 114.232C251.374 114.536 251.496 114.885 251.463 115.205C251.245 117.378 251.393 117.425 253.272 118.472C255.351 119.631 257.572 120.521 259.359 122.261C260.785 123.647 262.568 124.662 264.185 125.836C264.743 125.422 265.111 125 265.573 124.83C266.849 124.355 267.29 123.318 267.499 122.126C267.832 120.214 268.218 118.309 267.886 116.333C267.673 115.069 267.632 113.777 267.484 112.502C267.291 110.825 267.189 109.124 266.827 107.478C266.408 105.576 265.624 103.756 265.234 101.853C264.734 99.3971 263.829 97.0909 262.77 94.8715C261.446 92.107 259.861 89.4688 258.377 86.7818C257.999 86.0961 257.226 85.417 257.25 84.7638C257.307 83.4245 256.066 84.2821 255.739 83.5811C255.019 82.0403 253.295 81.7064 252.047 80.7938C251.509 80.4009 250.749 80.3192 249.868 80.0198L249.869 80.0232ZM242.439 220.399C243.287 219.563 243.038 219.176 241.991 218.88L242.439 220.399ZM180.158 18.9603C180.33 18.5808 180.55 18.3269 180.492 18.1666C180.4 17.9065 180.129 17.7105 179.936 17.4878C179.775 17.713 179.463 17.96 179.489 18.1638C179.524 18.4069 179.845 18.6105 180.154 18.9614L180.158 18.9603Z"></path>
            </g><path fill="#593c0e" d="M66.8793 302.362C66.1356 302.051 65.2399 301.908 64.6762 301.395C62.3228 299.25 59.5009 297.656 57.5131 295.076C56.9068 294.289 55.9631 293.762 55.1835 293.106C54.9342 292.898 54.6025 292.697 54.4927 292.42C53.8414 290.778 52.6496 289.477 51.4012 288.385C48.8409 286.142 47.7244 282.961 45.7915 280.322C44.6419 278.75 44.0041 276.803 43.1262 275.029C42.9327 274.639 42.7083 274.263 42.4814 273.888C42.2879 273.568 42.0066 273.285 41.8809 272.942C41.1529 270.975 40.3268 269.03 39.7923 267.01C39.2683 265.028 38.9023 262.972 38.7499 260.931C38.5973 258.868 40.9045 257.219 42.8403 257.945C43.4588 258.178 44.1227 258.926 44.3232 259.569C45.0252 261.838 45.429 264.193 46.1502 266.452C46.7163 268.222 47.5747 269.902 48.3242 271.615C48.8968 272.919 49.5029 274.208 50.0873 275.508C50.1553 275.658 50.1311 275.892 50.2337 275.974C51.6595 277.087 51.8105 278.926 52.7313 280.332C53.9069 282.126 54.8156 284.097 56.0095 285.876C57.9393 288.753 59.9916 291.548 62.0189 294.359C63.6664 296.644 65.3572 298.896 67.0022 301.183C67.1618 301.404 67.1297 301.761 67.1884 302.054L66.8751 302.361L66.8793 302.362Z"></path><path fill="#593c0e" d="M36.993 237.675C36.8062 237.424 36.4563 237.169 36.4628 236.925C36.4978 235.783 35.6899 234.859 35.6956 233.722C35.6999 232.535 35.5294 231.348 35.5378 230.161C35.5476 229.015 35.6952 227.868 35.773 226.72C35.8133 226.121 35.8241 225.516 35.8644 224.917C35.8895 224.538 35.8385 224.111 35.9921 223.794C36.8256 222.078 37.1701 220.219 37.6841 218.401C38.156 216.737 38.8927 215.152 39.4785 213.522C40.1171 211.738 41.1326 210.136 41.7144 208.305C42.1892 206.812 43.1986 205.498 43.9956 204.117C44.7563 202.8 45.4433 201.423 46.3549 200.223C47.5513 198.646 48.5084 196.865 50.2839 195.744C51.6572 194.878 52.76 195.582 53.7903 196.194C54.7851 196.786 55.4983 197.738 55.2407 199.11C55.0418 200.17 54.6743 201.045 53.8756 201.819C52.4093 203.237 51.1799 204.862 49.9701 206.521C49.0624 207.771 48.0063 208.902 47.237 210.276C45.8623 212.733 44.1995 215.048 43.0342 217.599C41.9805 219.906 40.686 222.099 39.7774 224.459C38.2744 228.356 37.1567 232.366 37.4108 236.648C37.4285 236.95 37.3689 237.255 37.3463 237.562C37.2258 237.599 37.1077 237.634 36.9871 237.671L36.993 237.675Z"></path><path fill="#593c0e" d="M100.009 167.003C99.4262 167.288 98.5365 167.3 98.8212 168.485C98.9685 169.097 98.1453 169.198 97.644 169.377C95.9651 169.972 94.2536 170.497 92.6179 171.2C91.2792 171.777 90.0516 172.599 88.7456 173.257C87.1206 174.078 85.3816 174.703 84.0828 176.068C84.0496 176.105 83.9851 176.123 83.9348 176.135C80.9407 176.785 78.7475 178.933 76.131 180.285C75.1728 180.779 74.2766 181.338 73.4119 181.998C72.5646 182.646 71.5304 183.102 70.5117 183.452C69.4236 183.823 68.9382 183.254 69.3206 182.148C69.9977 180.194 71.2636 178.667 72.7783 177.304C75.4851 174.865 78.5179 172.879 81.503 170.832C83.8302 169.239 86.2435 167.759 88.7085 166.387C90.7193 165.269 92.8544 164.374 94.9476 163.411C95.3329 163.233 95.7785 163.177 96.2027 163.094C98.7256 162.613 100.169 164.519 100.007 167L100.009 167.003Z"></path><defs><clipPath id="clip2_1206_3949"><rect width="233.608" height="233.608" fill="#fff" transform="translate(303.056 -30) rotate(73.5585)"></rect></clipPath></defs></svg>
