<svg xmlns="http://www.w3.org/2000/svg" viewBox="0 0 176.72 112.57"><g id="Layer_2" data-name="Layer 2"><g id="Layer_1-2" data-name="Layer 1"><path d="M65.8 70.44a12 12 0 0 1-4.71-4.77c-.35-.69-.58-1.44-.83-2a5.7 5.7 0 0 0-2.7-2.67c-1.8-1-4.25-.82-6.24-1.76a7.3 7.3 0 0 1-3.64-3.45 12.5 12.5 0 0 0-3.24-5.06c-3.18-2.82-7-5.38-10-8.44-1.91-1.78-4.11-4.1-4.57-6.93-.07-.15 0 .08.2.19s.14 0-.16 0h-.58a4 4 0 0 1-1-.16 4.2 4.2 0 0 1-2.54-2.81 4 4 0 0 0-.31-.71s-.05 0 0 0h-.05c-.05 0-.83-.26-1.84-.71a4 4 0 0 1-1.69-1.36 6 6 0 0 1-.9-2.87c0-.09 0 .07.13.2s.19.1 0 .07a10 10 0 0 1-2.49-.4 3.5 3.5 0 0 1-2-2 7 7 0 0 1-.27-1.6 1 1 0 0 0-.1-.48l.06.09c.21.23.05.05-.28 0-2.11-.6-4.19-.2-6.43-.83C5.76 21-2 15.07.91 10.91c2.3-2.7 7.9-.44 10.74.2.67.19 2.18.66 2.76.81.26 1.37-.11-3.23-2.72 3.42 2.65 2.56 1 .8 1.49 1.34l-1-.24C7.25 15.25 2 12.67.22 7.45a3.56 3.56 0 0 1 2.84-4.79C7.39 2.24 11.18 4 14.89 5.28A108 108 0 0 1 25.65 10l.3.17.22.14c.19.95 0-1.92 1 2.7-4.78 3.16-2.1.71-3.06 1.42l-.23-.1a93 93 0 0 1-12.2-7.49 29 29 0 0 1-3.62-3l-.34-.42a2 2 0 0 1-.43-1.13A2 2 0 0 1 7.68.85 2 2 0 0 1 9.16 0 6 6 0 0 1 11 .22c3.59 1 7 2.43 10.45 3.64q8.15 3.01 16.48 5.26c4.21 1.19 8.54 1.8 12.75 3.12 7 2.6 12.59 8 17.56 13.34 2 2.12 3.41 4.78 5.17 7.06 2.55 3.16 5.67 6.48 9.41 8.07 1.11.35 2.07.38 2.81-.61 2.74-3.81 8.07-6.07 12.72-4.77 2.43.72 4.78 1.8 6.22 4.11 1.59 2.66-1.52 4.78-3.49 5.82A7 7 0 0 0 99 46.78c-.08.13 0 0 0-.09s0-.06 0 0v.14a4.7 4.7 0 0 0 2 3.34c7.07 5.36 15.74 3.24 24.49 6.1 6 1.94 11 5.44 15.75 8.86l1.76 1.32a46 46 0 0 1 4.82 4.88l.35.34.16.17.11.09a2 2 0 0 0 .39.26c.86.35 2.67.41 3.84.86a18 18 0 0 1 6.38 4 27 27 0 0 0 11 5.59l.32.09c.13 0 .26.08.55.21.21.46.28-.76 1.69 2.1-1 4.82-2.83 2.75-2.61 3.34a17 17 0 0 1-3.79-.56l-4.29-1c-2.75-.66-7.1-1.6-9-1.88a3 3 0 0 0 .71-.21c.39.16 2.22-1.89 1.55-3.35a2.5 2.5 0 0 0-.68-1.18l-.22-.2.64.34c6.4 2.91 13.1 5.76 18.67 10.14 1.16 1 2.39 1.8 2.91 3.51a3.23 3.23 0 0 1-2.41 4 6 6 0 0 1-2.59-.16c-2.56-.62-5.25-1.84-7.69-2.1-.11 0-.14.1.5-.23a2.2 2.2 0 0 0 1-1.64v-.28c0-.22 0 0 .07.11 1.32 2.46 3.51 4.52 5.3 6.75l.25.35.19.29a3 3 0 0 1 .34.74c.61-.9-.12 4.81-3.1 3.82a2.6 2.6 0 0 1-1.3-.46l-.31-.2-.19-.14-.51-.42a28.5 28.5 0 0 0-11-6.43c-.25-.08-.64-.14-.67-.15a2 2 0 0 0 .64-.16 2.53 2.53 0 0 0 1-3.7l.27.25.79.71a23.3 23.3 0 0 1 6.91 10 5 5 0 0 1-.08 3.9c-1.07 2-3.65 2-5.41 1.17a11.5 11.5 0 0 1-5.82-5.28c-.08-.12 0 0 0 0h-.11c-.11 0-.91.08-2.13 0a8 8 0 0 1-2.94-1.05c-1.91-1.18-3.33-2.44-5.36-3.17-4.3-1.72-11.79-3.52-16.42-4.93-1.13-.34-18.51-5.25-18.86-5.37-3.67-.93-6.36-3.69-9.83-4.9-2.69-.94-6.26-1.37-8-4.11-.87-1-1.33-2.75-2.13-3.62-1.07-.77-2.18.6-3.25 1.11a3 3 0 0 1-2.42.24 4 4 0 0 1-1.88-1.38.27.27 0 0 1 0-.39.27.27 0 0 1 .38 0 2.6 2.6 0 0 0 3.43.72c1.18-.85 2.76-2.52 4.45-1.3 1.68 1.66 1.94 3.69 4 5 1.78 1.16 3.89 1 6 1.76 3.51.91 6.39 3.47 9.85 4.24.32 0 18 4.28 19.08 4.47l8.49 2c4.19 1 9.24 2 13 4.58a8 8 0 0 0 2.8 1.45c.22 0 .94-.13 2.21 0a5 5 0 0 1 3.55 2.07 7 7 0 0 0 2.26 2.6 5 5 0 0 0 1.89.85 1.8 1.8 0 0 0-1.38.93 1 1 0 0 0-.18.47c-.05.17 0 .26 0 .21a17.3 17.3 0 0 0-5.71-8l-.85-.72a8 8 0 0 1-.9-.89 3 3 0 0 1 1.08-4.8 4 4 0 0 1 1.45-.27 18 18 0 0 1 6.63 1.89 39 39 0 0 1 9.14 6.06h-.08c-.21 0 .13-.1-1.05-.34-2.88-1-3.58 4.59-3 3.62a3 3 0 0 0 .21.51v.06l-.07-.09c-1.3-1.53-2.61-2.89-3.92-4.53s-2.85-3.53-2.8-6c.38-3.86 4.44-4.06 7.24-3.28 2.42.54 4.44 1.41 6.69 1.93a2.78 2.78 0 0 0-2.61 3.44 2 2 0 0 0 .29.66 4 4 0 0 0-.44-.44c-5.37-4.52-12-7.1-18.29-10.14a8 8 0 0 1-1.91-1.25 3 3 0 0 1-.84-1.4c-.69-1.54 1.2-3.68 1.68-3.55a4 4 0 0 1 1.94-.29c5.59.77 10.83 2.55 16.23 3.62l.35.06h-.24c.29.57-1.36-1.5-2.4 3.22 1.37 2.78 1.34 1.53 1.47 1.95h.05a35 35 0 0 1-9.31-4.06c-2.38-1.35-4.63-3.91-6.79-5.2s-5.49-.86-7.52-2.92c-.29-.24-.67-.66-.93-.93a33 33 0 0 0-5.9-5.79c-4.55-3.48-9.18-6.72-14.25-8.59-7.48-2.68-18.45-1.58-25.27-7.73-2-1.63-4.15-5.43-2.26-7.94 1.59-1.91 4.22-2.33 5.69-3.91-.65-1.38-2.83-2.61-4.5-3.11a9.3 9.3 0 0 0-7.44 1c-1.69.79-2.53 2.36-4 3.54-2.81 1.64-5.92-.59-8-2.24A38 38 0 0 1 72 33.71c-1.78-2.32-3.08-4.83-5.06-7a56 56 0 0 0-13-11c-5-2.76-11-2.9-16.53-4.33a222 222 0 0 1-16.93-4.57c-3.63-1-7.3-2.5-10.91-3.15a1 1 0 0 0 .43-.08 1.6 1.6 0 0 0 .7-.55 2 2 0 0 0 .3-1.14 1.3 1.3 0 0 0-.21-.64c.45.42 1 .82 1.46 1.2a86 86 0 0 0 13.25 7.62l.17.07c-.87.73 1.9-1.66-2.8 1.47 1 4.53.71 1.62.83 2.52-5.79-2.63-12.09-5.26-18.36-6.51A5 5 0 0 0 4 7.56l.15-.06a1.5 1.5 0 0 0 .62-.6 1.6 1.6 0 0 0 .22-1c1.32 3.32 4.82 4.7 8.37 5.7l1.09.27c.57.56-1-1.18 1.75 1.42-2.62 6.7-3.14 2-2.95 3.41-3-.82-6.29-2.17-9.37-2.27a1.8 1.8 0 0 0 1.17-1.62v-.13.1a10.6 10.6 0 0 0 5.86 4.7c3.64.79 9.62 0 9.84 5.32 0 .94.14.54-.23.16s-.39-.13.18-.1A5 5 0 0 1 24.05 24a4.7 4.7 0 0 1 1.25 3.3c0 .24.06.24 0 .15s-.1-.06.05 0 2.33.81 3 1.64a9 9 0 0 1 1.39 2.77c0 .07-.11-.1-.23-.12s0 0-.05 0a5 5 0 0 1 2.54.52c1.11.54 1.63 2.15 1.73 3.12.48 1.7 1.89 3 3.18 4.46a72 72 0 0 0 6.22 5.87c2.28 2 4.82 4 6 7 .57 1.48.88 2.72 1.67 3.47A6.7 6.7 0 0 0 54.05 58c2.08.41 4.64 1.29 6.17 3.05s1.47 4.19 2.91 5.94a12 12 0 0 0 3 3c.31.19 0 .66-.3.47Z" style="fill:#367660"/><path d="M66.51 112.21a67 67 0 0 1 7.12-24 122 122 0 0 1 5.26-11.7c1.94-3.61 5.52-7.43 7.82-9.94a54 54 0 0 0 10.5-19.38.22.22 0 0 1 .42 0 23.4 23.4 0 0 1-1.32 11.91A29.5 29.5 0 0 1 90 69.44c-3 2.81-6.15 5.64-9.06 8.56a20 20 0 0 0-5.64 10.71 56 56 0 0 1-8.38 23.64.22.22 0 0 1-.4-.14Z" style="fill:#367660"/><path d="M84.38 42.86c-3.28 3.3-5.95 6.37-7.28 10.73-1.14 3.21-1.77 6.73-2.92 10a18 18 0 0 1-4.63 6.65 99 99 0 0 1-8.45 7.38c-5.71 4.38-10.61 9.7-15.24 15.07a19 19 0 0 0-2.51 3.24c0 .06.08-.09.09-.16a2.9 2.9 0 0 0-.36-2.57 4 4 0 0 0-1.17-1.1h.3a3 3 0 0 0 1.09-.23l.29-.16c2.79-1.34 6.29-2.58 9.36-1.27.61.26 1.09.42.51.25-1.42-.41-3.57.5-3.52 1.86v-.36A4.53 4.53 0 0 1 57 89c1.24.76 2 2.35 2.61 3.35.1.17.07.09-.45 0a2 2 0 0 0-.8 0c-.21.07-.28.15-.06.08 4.32-1.89 7.94 2.39 5.5 6.31-.24.42-.16.18-.3-.2a2 2 0 0 0-.46-.65c-.23-.18-.31-.15 0 .06 1.28.83 2.61 3 2.33 4.67-.15-.17-.15.12-.26.12 0 .24.36.45.57.8a3.9 3.9 0 0 1 .5 3.62c-.28.84-.85 1.27-1 1.94a3.7 3.7 0 0 0 .87 2.75.43.43 0 0 1-.51.65 5 5 0 0 1-3.07-3c-.39-1.1 0-2.32 0-3.25 0-.14-.12-.09-.15 0-.19.06.29.69-.76-.2a5.4 5.4 0 0 1-1.79-3.05c-.08-.5-.08 0-.11 0s0 .17 0 .29.07.16-.19 0a5 5 0 0 1-1.45-1.06 5.4 5.4 0 0 1-1.32-4.43 23 23 0 0 1 .5-2.28A3.2 3.2 0 0 0 58.53 99a3.5 3.5 0 0 0 2.87.49c.2-.05.09 0 0 .08a6 6 0 0 1-1.76.63c-3.59.76-6.47-2.15-8.12-4.54 0-.05-.1-.09.06.11a4 4 0 0 0 .49.43 4.25 4.25 0 0 0 6.62-2.76v-.14a7 7 0 0 1-.37 1.75c-1.23 3.62-4.94 5.51-8.53 3.64h.19a14 14 0 0 0-1.63.37 12 12 0 0 0-1.72.56 11 11 0 0 1-6.51.23c-5.16-1.42-5.34-6.43-1.75-9.63C46.28 83 58.55 80.38 63.22 70l1.57-3.15a46 46 0 0 0 3.38-8.94c1.62-4.85 4.08-10.15 8.62-13A17 17 0 0 1 84 42.12a.44.44 0 0 1 .36.74Z" style="fill:#367660"/></g></g></svg>