<svg viewBox="0 0 147.81 131.86" xmlns="http://www.w3.org/2000/svg" aria-hidden="true"><defs><style>.cc-1{fill:#367763;}.cc-2{fill:none;stroke:#367763;stroke-linecap:round;stroke-miterlimit:10;stroke-width:6px;}</style></defs>
<path class="cc-1" d="M38.3,66.92c.2-.1.31-.42.38-.81.3-2.98-.25-6.02-.57-9-.96-7.37-2.5-14.41-.87-21.9.48-2,2.22-4.04,4.56-3.93,5.42.45,9.57,8.18,9.85,13.12.04,3.75-.08,6.84,0,10.55-.01,5.12-.31,10.1.12,15.2.09,3.79-.42,7.55-1.76,11.03-.13.37-.71.35-.8-.04-.96-3.54-1.87-6.85-3.01-9.99-1.38-3.33-2.27-7.21-2.61-10.76-.39-3.66-.41-7.24.12-11.04.31-2.7,1.12-4.4.78-6.67-.4-2.08-1.59-4.48-3.1-5.74-.03-.03-.03-.03-.02-.03.02,0,0-.02.05-.01.31.05.8-.12,1.01-.31,0,0,.11-.12.11-.12.02-.03.03-.07.02-.05-.03-.02-.17.23-.28.47-2.14,6.31-1.52,13.38-1.67,20.09-.09,2.68-.14,5.37-.6,8.04-.22.94-.37,2.24-1.42,2.65-.45.14-.72-.54-.29-.74h0Z"/>
<path class="cc-1" d="M28.48,68.7c-.12.08-.42-.1-.4-.13-.02-.02-.06-.1-.08-.12-.07-.14-.18-.42-.23-.57-2.12-6.19-3.92-12.89-5.67-19.18-.87-3.33-1.72-6.65-2.52-10.04-.56-2.92-1.55-7.07.91-9.76,3.42-3.1,8.43-.74,11.03,2.25,2.02,2.52,2.43,5.63,3.13,8.55,1.91,7.44,2.74,15.14,2.99,22.82.12,1.63-.14,3.19.97,4.47.15.16.17.44-.04.57-2.14.02-3.22-2.67-4.03-4.27-2.14-4.58-3.69-9.87-5.17-14.69-.73-2.55-1.38-5-1.79-7.63-.36-2.03-.25-4.36-1.04-6.13-.37-.82-1.78-1.72-2.57-1.89,0-.02.21-.09.29-.24-.5.91-.31,3.42-.09,5.16,1.25,9.86,2.68,19.97,4.36,29.79,0,0,.07.3.07.3l.03.14v.05s.02.02,0,0c0,0-.02-.02-.02-.02.03-.02-.25-.19-.36-.1.43-.15.64.55.21.67h0Z"/>
<path class="cc-1" d="M18.82,73.69c-.16.09-.1.11-.12.04-.55-2.8-1.95-5.39-3.08-8-2.48-5.78-5.92-10.7-8.36-16.55-1.46-3.78-.74-9.6,3.34-11.85,4.97-2.4,8.76,3.6,10.88,7.02,4.72,8.2,7.27,17.32,7.69,26.77.01.38-.5.58-.75.29-4.18-4.74-7.3-9.95-10.29-15.37-2.4-4.04-3.62-8.94-5.98-12.77,0,0-.01-.04,0-.04.02.01.04.02.07.02.02-.02.18.06.29.04.29.05.68-.08.84-.18.31-.24-.05-.09-.28.27-2.41,3.5.99,8.6,2.17,12.64,1.02,2.92,1.95,5.86,2.75,8.84.68,2.94,1.71,5.93,1.57,8.98-.04.11-.04.33-.35.54-.46.24-.84-.45-.38-.7h0Z"/>
<path class="cc-1" d="M23.93,130.99c-.94-4.56-1.71-8.94-2.05-13.64-.01-.36-.03-.93.05-1.37,0-.04,0-.04-.01-.05-.1.08.03.51.23.72.18.23.49.37.6.4.23.06.02.06-.32.11-4.67,0-7.78-4.06-9.41-7.91-1.92-4.47-3.33-9.21-3.56-14.11-.11-4.24.29-8.56-.91-12.58-1.93-6.16-5.71-12.39-7.37-18.81C.51,61.13-.1,59.06.01,56.08c.08-.83.3-1.98,1.05-2.8,1.37-1.68,3.94-1.31,5.25-.3,2.36,1.67,3.89,3.43,5.26,5.8,1.64,3.13,2.26,6.48,3.9,9.5,1.02,1.97,2.22,3.88,3.53,5.76-1.87-1.34-3.57-2.91-5.13-4.66-3.02-3.11-4.4-7.9-7.76-10.43-.93-.7-1.79-1.44-2.64-1.66-.02,0,.18.17.83,0,.47-.13,1.01-.63,1.14-.99.06-.17.05-.06.06.04.04.56.27,1.61.55,2.56,2.1,7.53,6.87,14.21,9.21,21.74.68,2.66.97,4.91,1.05,7.56-.05,4.44-.62,8.58.32,12.93.47,2.57,1.12,5.21,1.99,7.67.61,1.77,1.97,3.64,3.63,4.34.53-.05,2.11.13,2.69.95.73.85.77,1.88.47,2.78-.75,4.57-.87,9.47-1.5,14.13h0Z"/>
<path class="cc-1" d="M47.64,92.49c-.18-4.63.49-9.44,1.71-13.91,1.23-4.75,2.21-9.76,5.42-13.66,1.88-2.44,4.6-4.48,7.75-5.19,1.9-.44,3.68-.69,5.62.5,4.28,2.88,1.48,7.88-.27,11.07-1.84,3.56-3.48,7.39-3.89,11.32-.01,3.53-.44,7.54-1.4,10.79-1.22,4.72-3.2,9.15-5.69,13.36-1.28,2.23-2.84,4.58-5.06,6.17-.56.42-1.26.84-1.83,1.11.67-.3,1.2-1.28,1.14-1.88,0,0,0,.05,0,.05,0,0,0,.1,0,.1-.09,1-.31,3.68-.4,4.69-.43,4.6-.91,9.19-1.68,13.77-1.27-6.06-2.15-12.29-2.8-18.44-.12-.93.43-2.06,1.25-2.55,1.84-1.44,2.69-3.3,3.75-5.81,1.66-3.93,3.15-8.09,3.93-12.29.79-3.42.78-6.29.85-9.63.44-6.3,3.54-12.03,6.63-17.25.57-1.04.14-.66.45.31.22.77,1.13,1.53,1.71,1.53.08,0,.02-.03-.1-.03-1.96.05-3.55.79-5.27,2.45-.9.84-2.05,2.35-2.73,3.36-.48.79-3.26,6.55-3.74,7.52-1.27,2.57-2.55,5.06-3.62,7.69-.55,1.59-1.16,3.29-1.77,4.87h0Z"/>
<path class="cc-1" d="M109.22,68.53c-.3-.09-.58-.34-.72-.57-.83-1.45-.85-3.18-1.04-4.77-.81-8.41.72-17.41-1.93-25.43-.11-.24-.24-.49-.28-.47-.01-.03,0,.02.02.04l.11.12c.21.2.7.36,1.01.31.05-.01.03.02.05.01.01,0,.01,0-.02.03-1.52,1.26-2.71,3.67-3.1,5.74-.35,2.27.47,3.98.78,6.67.53,3.8.51,7.37.12,11.04-.34,3.55-1.23,7.44-2.61,10.76-1.14,3.13-2.05,6.45-3.01,9.99-.09.38-.67.42-.8.04-1.67-4.29-2.03-9.18-1.59-13.77.19-7.7-.14-15.28-.03-23.02.29-4.95,4.42-12.66,9.85-13.12,2.32-.12,4.09,1.94,4.56,3.93,1.63,7.49.09,14.53-.87,21.9-.32,2.98-.87,6.02-.57,9.01.07.39.18.7.38.81.43.2.16.89-.29.75h0Z"/>
<path class="cc-1" d="M119.54,68.9c-.11-.09-.39.09-.36.1l-.02.02s0,0,0,0c0-.02.04-.16.05-.19.54-2.69,1.15-7.05,1.6-9.8,1-6.74,1.99-13.56,2.82-20.3.2-1.72.44-4.3-.09-5.16.08.14.28.22.29.24-1.45.41-2.84,1.59-3.01,3.28-.46,4.1-1.12,8.4-2.39,12.38-.91,2.92-2.11,6.97-3.16,9.81-1.2,2.79-2.12,6.34-4.37,8.51-.39.32-.93.53-1.36.68-.18.06-.38-.03-.44-.22-.05-.15.01-.28.1-.39.48-.61.81-1.26.84-2.01.25-4.2.36-8.53.83-12.73.73-6.09,1.95-11.97,3.66-17.88,1.38-5.6,11.47-10.57,14.03-3.3.73,2.52.12,5.41-.33,7.59-.8,3.4-1.64,6.71-2.52,10.04-1.79,6.4-3.58,13.21-5.79,19.49,0,0-.07.16-.07.16,0,0-.05.1-.05.1,0,0-.04.07-.04.07,0,0-.04.05-.04.05.02.03-.28.21-.4.13-.44-.15-.23-.8.21-.67h0Z"/>
<path class="cc-1" d="M128.62,75.26c-.54-.41-.37-1.01-.39-1.53.64-5.79,2.52-11.33,4.36-16.84,1.18-4.03,4.58-9.17,2.17-12.64-.23-.36-.59-.52-.28-.27.24.19.83.23,1.13.14-2.06,3.61-3.62,8.78-5.92,12.78-2.98,5.43-6.11,10.63-10.29,15.37-.24.29-.77.09-.75-.29.42-9.45,2.97-18.57,7.69-26.77,2.12-3.41,5.91-9.42,10.88-7.02,4.08,2.25,4.8,8.07,3.34,11.85-1.16,3.16-2.83,5.61-4.3,8.47-2.63,5.19-5.66,10.43-7.13,16.08-.02.07.04.05-.12-.04.46.23.07.97-.38.7h0Z"/>
<path class="cc-1" d="M123.88,131.86c-.64-4.66-.76-9.56-1.5-14.13-.29-.9-.25-1.93.47-2.78.58-.82,2.16-.99,2.69-.95-.03-.02.39-.16.66-.34,1.86-1.19,2.86-3.35,3.46-5.47.93-3.03,1.6-6.17,1.94-9.31.45-4.5-.59-9.05.19-13.58,1.2-9.11,7.62-16.81,9.95-25.53.29-.95.52-2,.55-2.56.01-.1,0-.21.06-.04.12.39.67.84,1.14.99.65.17.84,0,.83,0-.85.22-1.71.96-2.64,1.66-3.36,2.53-4.74,7.31-7.76,10.43-1.55,1.75-3.26,3.32-5.13,4.66,1.31-1.88,2.51-3.79,3.53-5.76,1.65-3.02,2.26-6.37,3.9-9.5,1.36-2.37,2.9-4.13,5.26-5.8,1.31-.99,3.89-1.39,5.25.3.75.82.98,1.97,1.05,2.8.12,2.98-.5,5.05-1.16,7.68-1.66,6.42-5.44,12.65-7.37,18.81-1.2,4.03-.8,8.35-.91,12.58-.22,4.9-1.64,9.64-3.56,14.11-1.63,3.86-4.74,7.9-9.41,7.91-.91-.1-.05-.04.27-.51.21-.26.32-.56.23-.72,0,0-.01.01-.01.05.08.44.07,1.01.05,1.37-.34,4.69-1.11,9.08-2.05,13.64h0Z"/>
<path class="cc-1" d="M100.17,93.36c-.61-1.58-1.22-3.28-1.77-4.87-1.06-2.63-2.35-5.12-3.62-7.69-.5-.97-3.23-6.69-3.74-7.52-.68-1.01-1.83-2.52-2.73-3.36-1.72-1.66-3.3-2.4-5.27-2.45-.11,0-.17.03-.1.03.6.04,1.49-.77,1.71-1.53.31-.96-.12-1.36.45-.31,3.1,5.23,6.19,10.95,6.63,17.25.07,3.34.05,6.21.85,9.63.78,4.19,2.27,8.37,3.93,12.29,1.06,2.52,1.91,4.38,3.75,5.81.82.49,1.38,1.63,1.25,2.55-.66,6.15-1.54,12.38-2.8,18.44-.76-4.57-1.25-9.16-1.68-13.77-.09-1.06-.32-3.79-.41-4.79,0,0,0-.05,0-.05,0,.02,0-.09,0,.05,0,.71.49,1.51,1.14,1.83-.57-.28-1.27-.69-1.83-1.11-2.22-1.59-3.77-3.94-5.06-6.17-3.79-6.47-6.38-13.26-6.98-20.85.34-6.56-2.7-12.11-5.63-17.86-2.28-4.34-.09-9.18,5.31-8.63,5.23.51,9.32,4.35,11.55,8.8,1.71,3.12,2.34,6.96,3.3,10.35,1.22,4.47,1.89,9.27,1.71,13.91h0Z"/>
<path class="cc-2" d="M72.26,11.2c0-2.73,0-5.47,0-8.2"/>
<path class="cc-2" d="M89.91,16.14c1-2.54,2-5.09,3.01-7.63"/>
<path class="cc-2" d="M52.71,16.2c-.89-2.59-1.77-5.17-2.66-7.76"/>
</svg>
