<svg xmlns="http://www.w3.org/2000/svg" width="1254" height="1254" viewBox="0 0 1254 1254"><defs><clipPath id="artboard-9416120545713013530"><path d="M0 0h1254v1254H0z"/></clipPath></defs><path fill="none" d="M0 0h1254v1254H0z"/><g fill="#fff" clip-path="url(#artboard-9416120545713013530)"><path d="M761.8 265.2c14.69 13.7 25.64 29.67 35.12 46.93a189 189 0 0 1 21.84 67.78c4.28 33.9.23 67.06-12.88 98.73a481 481 0 0 1-20.36 43.23c-6.2 11.56-14 22.27-21.04 33.39-7.19 11.36-14.27 22.78-21.45 34.14-8.16 12.92-16.5 25.72-24.52 38.73-11.28 18.3-22.35 36.73-33.45 55.14-5.75 9.54-11.8 18.93-16.92 28.8-5.22 10.05-10 20.4-13.99 31-6.34 16.9-11.93 34.06-17.68 51.17-2.77 8.24-4.7 16.8-7.92 24.84-2.15 5.39-6.56 5.72-9.82.97-3.48-5.08-6.29-10.68-8.93-16.28-4.61-9.77-8.85-19.71-13.28-29.56-6.3-14.02-12.1-28.3-19.13-41.93-6.54-12.67-14.36-24.68-21.72-36.92-6.62-11.03-13.17-22.1-20.12-32.92-6.25-9.73-13.1-19.09-19.5-28.73-5.32-8-10.32-16.22-15.59-24.27-8.06-12.32-16.45-24.42-24.28-36.88-7-11.13-13.91-22.36-19.98-34.01a632 632 0 0 1-20.18-42.64c-6.45-15.04-10.33-30.94-12.97-47.07a175 175 0 0 1-1.95-21.58c-.35-9.23-.53-18.5-.06-27.72.3-5.98 1.88-11.9 2.95-17.83a175 175 0 0 1 16.71-49.35 230 230 0 0 1 26.87-40.77c18.5-22.55 41.02-40.08 66.81-53.17 21.62-10.97 44.64-18.47 68.83-21.36a463 463 0 0 1 40.46-2.97c17.76-.56 35.29 2.62 51.92 8.26a159 159 0 0 1 49.74 27.27c5.75 4.7 10.83 10.2 16.47 15.58m-252.11 95.98c-12.75 26.22-14.54 53.42-7.59 81.52 6.3 25.48 18.38 48.34 32.61 70.02 11.85 18.05 24.9 35.31 37.4 52.94l43.06 60.88 3.18 4.56c7.09-8.89 13.75-17.3 20.48-25.67 7.16-8.9 14.25-17.85 21.6-26.59 6.71-7.97 13.97-15.48 20.55-23.55 6.77-8.3 13.05-17 19.48-25.57 14.13-18.84 26.45-38.7 35.78-60.46a155 155 0 0 0 11.61-44.77c1.87-17.58-1.58-34.81-9.2-50.73a123 123 0 0 0-31.17-40.83c-26.8-22.9-57.71-34.33-92.84-35.1a119 119 0 0 0-49.96 9.71c-24.8 10.64-42.94 28.59-55 53.64"/><path d="M205.92 995.03c-16.33.02-30.69-4.32-39.8-19.1-6.19-10.03-9.05-21.16-9.09-32.97-.02-7.23-.38-14.5.13-21.7.63-8.97 1.38-18.01 3.16-26.8 3.65-17.9 8-35.67 12.1-53.48 2.49-10.75 5.23-21.43 7.58-32.2 4.1-18.75 8.44-37.46 11.81-56.34 2.44-13.65 3.42-27.55 5.16-41.32 1.93-15.24 4.42-30.43 5.82-45.71 1.14-12.47 5.3-23.9 10.44-34.96 2.77-5.94 6.94-11.42 11.28-16.4 16.63-19.07 39.25-27.3 62.87-32.9 13.72-3.26 27.82-4.92 41.78-7.11 4.2-.66 8.51-.7 13.7-.97 10.68 0 20.43-.05 30.17-.1 17.84.15 35.25 3.48 52.26 8.27 7.83 2.2 15.7 5.72 21.59 12.1 2.61 2.83 2.75 5.28.38 8.54-4.97 6.82-12.67 7.64-19.78 8.98-23.05 4.35-46.4 7.23-69.28 12.28-25.74 5.69-51.1 13.1-76.62 19.84-3.02.8-6.06 1.83-8.8 3.29-1.55.83-3.38 2.63-3.6 4.21-1.04 7.14-1.57 14.35-2.24 21.53l-3.26 36.13c-.88 9.56-1.68 19.12-2.73 28.66-1.18 10.59-2.18 21.23-4.02 31.71a741 741 0 0 1-8.97 43.91c-3.14 13.14-7 26.13-10.93 39.07a707 707 0 0 1-10.94 32.58c-4.6 12.82-9.66 25.47-14.23 38.3-1.97 5.55-3.99 11.28-4.58 17.07-.73 7.14 2.06 12.63 10.54 10.13 14.8-4.37 29.44-9.32 44.28-13.55 26.52-7.54 53.01-15.2 79.75-21.9 21.67-5.42 43.64-9.71 65.56-14.07 8.3-1.65 16.85-2.09 25.3-3.08.15-2.17.32-3.48.32-4.8.1-15.88-.25-31.78.4-47.64.46-11.12 2.39-22.18 3.47-33.28.83-8.51 1.2-17.07 2.08-25.57 1.05-10.1 2.5-20.15 3.64-30.24.73-6.46.98-12.98 1.9-19.42.85-6.06 2.02-12.11 3.52-18.05a761 761 0 0 1 8.12-29.3c.63-2.12 2.13-4.02 3.4-5.9 2.86-4.27 8.45-4.26 10.94.38a69 69 0 0 1 6 14.88c1.66 6.31 2.35 12.88 3.13 20.02-.3 15.04-.28 29.38-.27 43.72-.47 9.07-.72 18.15-1.48 27.2a494 494 0 0 1-2.95 25.12c-1.82 13.57-3.55 27.17-5.78 40.69-2.34 14.18-5.22 28.27-7.91 42.62 6.77.86 13.39 1.81 20.03 2.53a130 130 0 0 1 40.03 10.7 748 748 0 0 1 37.17 18.03c7.17 3.75 13.57 8.96 20.73 12.74 9.94 5.26 20.52 9.32 30.35 14.77a55.4 55.4 0 0 0 34.22 6.53c12.44-1.54 24.8-4.83 36.77-8.65 14-4.46 27.47-10.6 41.35-15.51 25.65-9.1 51.37-18.09 78.36-22.43 10.87-1.76 21.86-2.8 32.8-4.08 5.39-.64 10.8-1.1 16.92-1.54 10.18.23 19.62.34 29.06.46 29 .47 57.39 5.02 85.3 12.68 12.16 3.34 24.42 6.4 36.37 10.37 9.14 3.05 17.93 7.23 26.78 11.13a543 543 0 0 1 26.73 12.4c5.46 2.77 10.97 5.85 15.53 9.85 2.6 2.27 4.47 6.64 4.59 10.13.14 4.17-3.98 5.64-7.88 6.79-13.76 4.03-27.63 2.97-41.2.17-31.83-6.57-63.42-14.3-95.26-20.76-14.38-2.91-29.15-3.88-43.75-5.76a99 99 0 0 1-6.52-1.14c-11-.13-21.3-.04-31.59.04-3.97.71-7.92 1.7-11.93 2.1-23.96 2.3-47.1 8.02-69.72 16.1-19.52 6.98-39.07 13.84-58.55 20.92-17.14 6.22-34.35 12.16-52.38 15.33-26.6 4.69-52.16 1.59-75.76-11.83-19.75-11.22-38.77-23.71-58.38-35.2-24.94-14.6-51.82-23.14-80.9-20.02-17.49 1.88-34.88 5.75-51.93 10.2-21.33 5.55-42.25 12.69-63.4 18.98-17.96 5.35-35.86 11.03-54.05 15.5-12.14 3-24.73 4.15-38.02 6.06-9.67-.03-18.43 0-27.2.04m791.99-303.2c-.92-8.24-1.93-16-2.77-23.79-.54-4.91-.53-9.9-1.29-14.78-.85-5.47-1.75-11.02-3.55-16.22-5.22-15.09-17.1-20.9-32.06-23.1-16.63-2.45-32.75.4-48.8 3.52-20.43 3.96-40.59 9.33-61.04 13.16-23.09 4.33-46.28 8.64-69.98 7.47-4.7-.23-9.43-.97-13.99-2.11-2.01-.5-5.29-2.89-5.11-3.93.53-3.12 1.69-7.44 4.01-8.71 9.2-5.02 18.72-9.67 28.55-13.31a1264 1264 0 0 1 60.7-21.06 1237 1237 0 0 1 63.12-17.92 207 207 0 0 1 67.38-5.8c12.16.91 24.18 3.48 35.16 10.13 18.62 11.28 27.42 28.89 32.49 48.73 3.9 15.28 6.48 30.9 9.38 46.42 2.2 11.8 3.86 23.72 5.96 35.55 2.35 13.28 4.89 26.52 7.42 39.76 3.83 19.97 7.67 39.93 11.62 59.87 2.75 13.87 5.77 27.69 8.53 41.56 3.88 19.47 8.23 38.81 9.72 58.76 1.11 14.93-.17 29.27-4.55 43.39-1.13 3.65-3.58 7.02-5.94 10.13-2.34 3.09-8.91 2.21-11.01-1.56a373 373 0 0 1-11.82-22.85 1279 1279 0 0 1-27-62.65c-3.71-9.23-7.54-18.43-10.79-27.82-2.83-8.18-4.96-16.6-7.32-24.94-3.12-11.01-6.4-22-9.18-33.09-4.15-16.5-8.47-32.99-11.69-49.68-2.5-12.97-3.4-26.25-5.06-39.39-.23-1.77-.73-3.52-1.08-5.74"/><path d="M819.98 868.14c-.99 9.19-1.94 18.39-2.98 27.57a9 9 0 0 1-1.13 3.74c-2.15 3.46-2.77 8.92-8.33 8.52-5.2-.37-6.52-5.1-7.53-9.18a2227 2227 0 0 1-12.02-50.5 702 702 0 0 1-7.92-39.78 362 362 0 0 1-3.88-34.18c-.87-13.05-1.95-26.23-.98-39.2.96-12.78 4.13-25.42 6.94-37.98.53-2.4 3.56-5.2 6.02-5.99 4.59-1.46 8.14 1.01 10.33 5.37 5.32 10.57 7.96 21.88 9.57 33.5 1.37 9.95 1.9 20.1 4.18 29.84 4.69 20.02 5.5 40.36 6.79 60.7.39 6.11.64 12.24.9 19.3a3734 3734 0 0 0 .04 28.27M479.77 761.86a880 880 0 0 1-.15-43.36c.68 12.66 1.1 25.57 1.4 38.49.04 1.64-.55 3.3-1.25 4.87m368.82 194.98c9.83-.07 20.12-.16 30.8-.14-9.87.1-20.1.12-30.8.14M372.86 572.57c-9.57.45-19.32.5-29.54.48-.02-.43.45-1.1.91-1.1 9.48.03 18.97.13 28.63.62M878.8 910.59c-9.2.24-18.65.13-28.43-.23 9.18-.2 18.69-.17 28.43.23"/><path d="M820.4 867.99c-.46-8.97-.49-18.08-.47-27.67.4.14 1.06.76 1.06 1.38 0 8.7-.09 17.42-.58 26.29M206.14 995.41c8.54-.41 17.3-.45 26.52-.39a11 11 0 0 1-4.04 1c-7.42 0-14.84-.14-22.48-.6"/></g></svg>