<?xml version="1.0" encoding="UTF-8"?>
<svg version="1.1" xmlns="http://www.w3.org/2000/svg" width="423" height="600">
<path d="M0 0 C1.9970961 0.84385691 3.92177893 1.39564534 6.03613281 1.86035156 C6.03613281 2.52035156 6.03613281 3.18035156 6.03613281 3.86035156 C6.5888385 4.03626328 7.14154419 4.21217499 7.71099854 4.39341736 C13.06594742 6.13277862 18.23534327 8.11701908 23.39550781 10.36425781 C24.14777649 10.6882103 24.90004517 11.01216278 25.67510986 11.34593201 C28.04696081 12.36811528 30.41661006 13.39528449 32.78613281 14.42285156 C35.17039074 15.4529108 37.55509392 16.48193086 39.94000244 17.51048279 C41.41521255 18.14712097 42.88996937 18.78481085 44.36419678 19.42372131 C47.16131573 20.63405917 49.95932392 21.82980767 52.79150391 22.95605469 C54.84776736 23.7844645 56.80423949 24.69405603 58.77832031 25.70019531 C59.4525 26.04115234 60.12667969 26.38210937 60.82128906 26.73339844 C62.20673526 27.43906963 63.59215226 28.14479814 64.97753906 28.85058594 C68.22820051 30.49449187 71.47301146 32.07610607 74.83300781 33.48535156 C83.12930051 37.04668697 83.12930051 37.04668697 85.03613281 40.86035156 C87.13693492 42.06080991 89.17668692 42.90720293 91.47363281 43.67285156 C94.7410242 45.18700855 96.55151651 47.2574202 99.03613281 49.86035156 C101.33572276 51.90069755 103.68061979 53.88497897 106.03613281 55.86035156 C106.56722656 55.04050781 107.09832031 54.22066406 107.64550781 53.37597656 C108.35191406 52.29832031 109.05832031 51.22066406 109.78613281 50.11035156 C110.48222656 49.04300781 111.17832031 47.97566406 111.89550781 46.87597656 C114.5952858 43.07263969 117.16154378 40.44341092 121.03613281 37.86035156 C120.08738281 37.11785156 119.13863281 36.37535156 118.16113281 35.61035156 C114.22710772 32.27941994 113.18557091 30.35473255 112.66113281 25.11035156 C112.84749208 18.8556688 115.52922971 14.47238744 119.72363281 9.98535156 C125.86009165 6.04875533 132.84334432 5.12888155 140.03613281 5.86035156 C143.28112872 8.02368217 143.90785405 9.30447693 144.78613281 13.11035156 C144.86863281 14.01785156 144.95113281 14.92535156 145.03613281 15.86035156 C150.2552128 17.22725346 152.34799846 16.25225684 157.03613281 13.86035156 C162.24486922 13.30227266 165.61721662 14.01961972 170.03613281 16.86035156 C170.36613281 17.85035156 170.69613281 18.84035156 171.03613281 19.86035156 C171.69613281 20.52035156 172.35613281 21.18035156 173.03613281 21.86035156 C175.28604028 27.73510995 175.80945038 33.60779612 175.03613281 39.86035156 C172.42346436 45.08568847 169.45047066 47.81063946 164.16113281 50.11035156 C160.72428537 50.93519495 158.44664114 50.67237735 155.03613281 49.86035156 C155.03613281 49.20035156 155.03613281 48.54035156 155.03613281 47.86035156 C154.37613281 47.86035156 153.71613281 47.86035156 153.03613281 47.86035156 C153.53113281 48.99472656 154.02613281 50.12910156 154.53613281 51.29785156 C156.28259614 55.88129288 156.3391413 60.01221572 156.03613281 64.86035156 C155.37613281 64.86035156 154.71613281 64.86035156 154.03613281 64.86035156 C153.37613281 67.17035156 152.71613281 69.48035156 152.03613281 71.86035156 C155.00613281 72.35535156 155.00613281 72.35535156 158.03613281 72.86035156 C158.36613281 72.20035156 158.69613281 71.54035156 159.03613281 70.86035156 C159.03613281 71.52035156 159.03613281 72.18035156 159.03613281 72.86035156 C160.19628906 72.75207031 160.19628906 72.75207031 161.37988281 72.64160156 C177.16113281 71.23535156 177.16113281 71.23535156 182.03613281 72.86035156 C183.53550309 72.90381157 185.03666586 72.90033735 186.53613281 72.86035156 C189.49537514 72.78143843 191.16952523 72.9048157 194.03613281 73.86035156 C195.61640244 74.11674886 197.2020366 74.34086934 198.79003906 74.54394531 C199.72783203 74.66705078 200.665625 74.79015625 201.63183594 74.91699219 C203.58230679 75.1673818 205.53282629 75.41739291 207.48339844 75.66699219 C213.06203975 76.39992464 218.55247561 77.30043736 224.05541992 78.4777832 C226.02719717 78.92356551 226.02719717 78.92356551 228.03613281 78.86035156 C228.03613281 79.52035156 228.03613281 80.18035156 228.03613281 80.86035156 C229.52113281 80.36535156 229.52113281 80.36535156 231.03613281 79.86035156 C232.91044617 80.34066772 232.91044617 80.34066772 235.03491211 81.15869141 C240.2949072 83.02728227 245.57454923 84.07875872 251.05566406 85.08691406 C252.07665695 85.28006195 253.09764984 85.47320984 254.14958191 85.67221069 C257.38152601 86.28246894 260.61498126 86.88421321 263.84863281 87.48535156 C267.09978028 88.09540779 270.35059273 88.70721114 273.60124207 89.31991577 C275.61643397 89.69914287 277.6319759 90.07651585 279.64790344 90.45181274 C280.55952744 90.62224091 281.47115143 90.79266907 282.41040039 90.96826172 C283.20932205 91.11687653 284.00824371 91.26549133 284.83137512 91.41860962 C296.84791484 93.82622549 308.94164669 98.36051211 316.03613281 108.86035156 C317.71488008 113.89659335 317.57196661 117.56541989 315.53613281 122.48535156 C310.99075002 129.50002536 303.96820256 131.38557026 296.1862793 133.10205078 C287.31201402 134.82136519 278.26860249 135.61164602 269.28613281 136.54785156 C268.24542633 136.65874115 267.20471985 136.76963074 266.13247681 136.88388062 C250.71065298 138.51315056 235.5525501 139.55352484 220.03613281 138.86035156 C219.37613281 138.86035156 218.71613281 138.86035156 218.03613281 138.86035156 C219.43798828 139.33601563 219.43798828 139.33601563 220.86816406 139.82128906 C236.65947841 145.3608854 251.47018782 153.04289137 265.03613281 162.86035156 C265.63425781 163.26253906 266.23238281 163.66472656 266.84863281 164.07910156 C271.90622268 167.7669275 275.47607324 173.23130491 278.03613281 178.86035156 C278.68371914 183.43568975 277.6830793 186.6473269 275.53613281 190.67285156 C267.53648319 197.67254499 259.27719978 197.37292795 249.03613281 196.86035156 C247.94945312 196.828125 246.86277344 196.79589844 245.74316406 196.76269531 C239.81665608 196.47557257 234.42307032 195.51362573 228.70019531 193.94628906 C220.15133297 191.71080047 211.62265264 190.64229337 202.84863281 189.73535156 C186.3895092 187.96563245 186.3895092 187.96563245 178.54785156 186.86816406 C177.50459717 186.72266113 176.46134277 186.5771582 175.38647461 186.42724609 C174.61086182 186.2401709 173.83524902 186.0530957 173.03613281 185.86035156 C172.70613281 185.20035156 172.37613281 184.54035156 172.03613281 183.86035156 C171.1634375 183.71597656 170.29074219 183.57160156 169.39160156 183.42285156 C157.08762405 181.36025231 144.64850496 172.02728349 137.28613281 162.29785156 C130.28524526 151.48443248 124.83088088 138.88244617 125.03613281 125.86035156 C124.37613281 125.53035156 123.71613281 125.20035156 123.03613281 124.86035156 C122.62884054 122.53878559 122.29174605 120.20347286 122.03613281 117.86035156 C121.91496094 118.51261719 121.79378906 119.16488281 121.66894531 119.83691406 C121.50136719 120.71089844 121.33378906 121.58488281 121.16113281 122.48535156 C120.9175 123.773125 120.9175 123.773125 120.66894531 125.08691406 C120.03613281 127.86035156 120.03613281 127.86035156 119.09863281 130.65332031 C118.29044843 133.09272979 117.6231636 135.4429842 117.02832031 137.93457031 C110.75205428 164.11801104 97.88070383 188.05166218 83.64257812 210.7565918 C83.16788086 211.52044189 82.69318359 212.28429199 82.20410156 213.07128906 C81.78410889 213.73435059 81.36411621 214.39741211 80.93139648 215.08056641 C79.81144828 216.97497998 79.81144828 216.97497998 80.03613281 219.86035156 C79.04613281 219.86035156 78.05613281 219.86035156 77.03613281 219.86035156 C76.76663818 220.58416016 76.49714355 221.30796875 76.21948242 222.05371094 C75.05105798 224.82495239 73.69819067 227.22074729 72.10253906 229.76660156 C71.53599609 230.67539062 70.96945313 231.58417969 70.38574219 232.52050781 C69.79599609 233.45765625 69.20625 234.39480469 68.59863281 235.36035156 C67.43303772 237.2247908 66.26766588 239.08936965 65.10253906 240.95410156 C64.5863501 241.77587891 64.07016113 242.59765625 63.53833008 243.44433594 C60.640535 248.06921957 60.640535 248.06921957 58.03613281 252.86035156 C57.37613281 252.86035156 56.71613281 252.86035156 56.03613281 252.86035156 C55.771875 253.57835937 55.50761719 254.29636719 55.23535156 255.03613281 C49.28802619 269.04237464 36.52759016 288.358759 23.03613281 295.86035156 C19.53230003 297.00583536 18.06317827 297.33223731 14.72363281 295.79785156 C12.42688199 293.16084136 12.24020209 291.32952932 12.03613281 287.86035156 C12.47363281 284.48535156 12.47363281 284.48535156 13.03613281 281.86035156 C13.69613281 281.86035156 14.35613281 281.86035156 15.03613281 281.86035156 C15.40931641 280.59191406 15.40931641 280.59191406 15.79003906 279.29785156 C17.14542601 275.55885308 18.94935549 272.26262318 20.97363281 268.86035156 C22.94468884 265.51065338 24.8796478 262.19201849 26.54003906 258.67285156 C28.09034759 255.75843343 29.68820003 254.15328772 32.03613281 251.86035156 C34.02200649 249.29865667 35.87108019 246.64446981 37.72363281 243.98535156 C38.25182617 243.23012207 38.78001953 242.47489258 39.32421875 241.69677734 C56.64175024 218.92837942 56.64175024 218.92837942 65.03613281 192.86035156 C65.69613281 192.86035156 66.35613281 192.86035156 67.03613281 192.86035156 C67.23916016 191.94382812 67.23916016 191.94382812 67.44628906 191.00878906 C69.80960884 180.9611421 73.05543055 171.2092437 76.22558594 161.39355469 C77.25924519 158.16305818 78.24472437 154.92034147 79.22363281 151.67285156 C82.4405546 141.19410213 86.18257638 130.70613748 91.03613281 120.86035156 C91.69613281 120.53035156 92.35613281 120.20035156 93.03613281 119.86035156 C93.03613281 118.87035156 93.03613281 117.88035156 93.03613281 116.86035156 C93.69613281 116.86035156 94.35613281 116.86035156 95.03613281 116.86035156 C95.25269531 115.22066406 95.25269531 115.22066406 95.47363281 113.54785156 C96.03613281 109.86035156 96.03613281 109.86035156 97.03613281 106.86035156 C96.19695312 107.55257812 96.19695312 107.55257812 95.34082031 108.25878906 C73.13143225 126.32623337 53.50349043 136.8404558 24.03613281 134.86035156 C18.63085829 134.27408717 13.24802623 133.43184916 8.03613281 131.86035156 C7.70613281 131.20035156 7.37613281 130.54035156 7.03613281 129.86035156 C6.21628906 129.75078125 5.39644531 129.64121094 4.55175781 129.52832031 C-0.22445716 128.62083947 -3.97138739 126.4844967 -8.21386719 124.17285156 C-9.06287598 123.7187793 -9.91188477 123.26470703 -10.78662109 122.796875 C-15.03983174 120.50662187 -19.23007166 118.15292305 -23.33886719 115.61035156 C-33.07142679 109.39549769 -33.07142679 109.39549769 -43.96386719 106.86035156 C-44.57294922 106.24740234 -44.57294922 106.24740234 -45.19433594 105.62207031 C-47.30294737 103.52276842 -49.67392775 102.24439812 -52.25830078 100.80224609 C-59.89906653 96.52615338 -66.07278027 92.53361231 -68.96386719 83.86035156 C-69.32462381 79.96418008 -69.389297 77.62257997 -67.46386719 74.17285156 C-59.04368532 66.38418334 -47.90273379 65.45145905 -36.90136719 65.42285156 C-35.84804199 65.41898437 -34.7947168 65.41511719 -33.70947266 65.41113281 C-20.25022433 65.59766202 -7.05988003 68.02692838 6.15478516 70.40136719 C9.04362805 70.93900739 9.04362805 70.93900739 12.03613281 70.86035156 C11.13495728 70.43641113 11.13495728 70.43641113 10.21557617 70.00390625 C3.66097801 66.83520668 -2.37257326 63.18213443 -8.40136719 59.11035156 C-9.32151611 58.49272949 -10.24166504 57.87510742 -11.18969727 57.23876953 C-17.77774088 52.77133081 -23.92556672 48.04748198 -29.96386719 42.86035156 C-32.52475871 40.82201533 -35.0972582 38.79943686 -37.67480469 36.78222656 C-40.26634519 34.60639392 -42.60280721 32.28493782 -44.96386719 29.86035156 C-45.4643457 29.34907715 -45.96482422 28.83780273 -46.48046875 28.31103516 C-64.08920099 10.20394257 -64.08920099 10.20394257 -64.58886719 0.61035156 C-64.27536029 -3.92837324 -63.11003228 -6.74510189 -59.96386719 -10.13964844 C-42.03097978 -21.6963981 -16.76745614 -7.97190907 0 0 Z M-42.96386719 3.86035156 C-40.3724486 11.87329062 -36.51232021 17.58453831 -30.96386719 23.86035156 C-30.1246875 24.82070312 -29.28550781 25.78105469 -28.42089844 26.77050781 C-18.85220453 37.55496813 -8.19623938 48.10743961 4.03613281 55.86035156 C5.02613281 55.86035156 6.01613281 55.86035156 7.03613281 55.86035156 C7.03613281 56.52035156 7.03613281 57.18035156 7.03613281 57.86035156 C29.36267579 69.97017232 51.71530625 73.74227624 77.00610352 74.5703125 C82.94463724 74.76885599 82.94463724 74.76885599 84.03613281 75.86035156 C86.49414625 75.93318159 88.93737889 75.8567289 91.39550781 75.79785156 C94.05760991 75.8608599 96.44595196 76.26405093 99.03613281 76.86035156 C99.81671123 74.64170753 100.5596447 72.40979122 101.28613281 70.17285156 C101.70378906 68.93148437 102.12144531 67.69011719 102.55175781 66.41113281 C103.39011169 62.88459568 103.39011169 62.88459568 101.58691406 60.20019531 C98.58814272 57.44940812 95.43595889 55.22062465 91.97363281 53.11035156 C90.92187866 52.46356445 90.92187866 52.46356445 89.84887695 51.80371094 C77.61129288 44.44688847 64.39417591 38.93864446 51.30078125 33.30932617 C44.29614624 30.29518628 37.32394775 27.21406612 30.36035156 24.10644531 C28.43005997 23.24680211 26.49972096 22.38726541 24.56933594 21.52783203 C21.66294691 20.23383614 18.75745076 18.93802302 15.85473633 17.63580322 C13.10902496 16.40437416 10.36002103 15.18056822 7.61035156 13.95800781 C6.79434982 13.58961288 5.97834808 13.22121796 5.13761902 12.84165955 C0.25170931 10.67886229 -4.61719215 8.96153399 -9.76506042 7.52513123 C-11.96386719 6.86035156 -11.96386719 6.86035156 -15.52636719 5.29785156 C-23.66907886 1.89271759 -34.91788325 -0.86596068 -42.96386719 3.86035156 Z M127.97363281 13.36035156 C124.40488267 16.39758573 123.54625207 18.49778483 122.03613281 22.86035156 C125.33393414 23.98679157 127.07252692 23.82653217 130.22363281 22.36035156 C132.34623757 21.33043355 132.34623757 21.33043355 134.03613281 19.86035156 C135.17570008 16.23381492 135.17570008 16.23381492 135.03613281 12.86035156 C131.97769211 11.44876355 131.06516805 11.84613022 127.97363281 13.36035156 Z M162.03613281 24.86035156 C159.97462794 26.87693539 159.97462794 26.87693539 159.03613281 29.86035156 C160.37348457 34.24389344 161.18745515 36.29456645 165.03613281 38.86035156 C167.07047871 37.44515441 167.94023674 36.31053033 168.45800781 33.87988281 C168.69887233 31.87858203 168.87146022 29.86935716 169.03613281 27.86035156 C165.98032307 25.27257949 165.98032307 25.27257949 162.03613281 24.86035156 Z M144.03613281 27.86035156 C145.03613281 30.86035156 145.03613281 30.86035156 145.03613281 30.86035156 Z M126.03613281 38.86035156 C126.51050781 39.68535156 126.98488281 40.51035156 127.47363281 41.36035156 C128.03613281 44.86035156 128.03613281 44.86035156 126.82128906 46.58300781 C126.2321875 47.19015625 125.64308594 47.79730469 125.03613281 48.42285156 C113.86347223 60.01256627 111.37399398 77.17899496 109.66113281 92.54785156 C108.63801941 101.55328991 106.96180822 108.15269322 102.03613281 115.86035156 C98.40200941 121.72517673 96.03161534 127.7424158 93.72363281 134.23535156 C93.33264404 135.32662354 92.94165527 136.41789551 92.53881836 137.54223633 C89.47908472 146.24629621 86.91026759 155.0385962 84.49658203 163.94018555 C77.03323396 191.42284161 66.21039898 217.05675599 49.09472656 239.95800781 C46.59730596 243.47903914 44.32984346 247.10407699 42.09863281 250.79785156 C41.70869141 251.43722656 41.31875 252.07660156 40.91699219 252.73535156 C39.14396703 255.71251681 37.5813887 258.40706425 37.03613281 261.86035156 C53.75806327 252.89480154 63.79452448 228.52383443 72.95166016 212.72070312 C73.93223049 211.03859012 74.93042948 209.36678393 75.93066406 207.69628906 C80.74708159 199.62906151 85.01829508 191.34657835 89.03613281 182.86035156 C89.47006348 181.94560059 89.90399414 181.03084961 90.35107422 180.08837891 C98.78124585 162.12510543 105.00910885 144.16860848 108.93579102 124.70947266 C111.89068667 110.0707826 116.02307161 99.42693781 126.61425781 88.43457031 C133.43241405 81.18753005 137.8075207 72.78887621 142.03613281 63.86035156 C142.40867187 63.13976562 142.78121094 62.41917969 143.16503906 61.67675781 C146.04353201 55.67451916 146.09314954 47.11118773 143.91113281 40.86035156 C142.33575322 37.69412244 142.33575322 37.69412244 139.47363281 36.79785156 C134.84418119 36.88202341 130.52844989 37.78610183 126.03613281 38.86035156 Z M-51.96386719 79.86035156 C-51.15496166 84.1139222 -49.21158128 86.00870017 -45.96386719 88.86035156 C-45.30386719 88.86035156 -44.64386719 88.86035156 -43.96386719 88.86035156 C-43.96386719 89.52035156 -43.96386719 90.18035156 -43.96386719 90.86035156 C-43.41674072 91.17149902 -42.86961426 91.48264648 -42.3059082 91.80322266 C-39.71200787 93.27933802 -37.11912261 94.75722612 -34.52636719 96.23535156 C-33.58164551 96.77321289 -32.63692383 97.31107422 -31.66357422 97.86523438 C-27.0484527 100.49956713 -22.44816378 103.15248088 -17.88964844 105.88378906 C-17.1187085 106.34479004 -16.34776855 106.80579102 -15.5534668 107.28076172 C-14.10165596 108.15239239 -12.6531106 109.02949052 -11.20825195 109.91259766 C-7.36368984 112.27133643 -7.36368984 112.27133643 -2.96386719 112.86035156 C-2.96386719 113.52035156 -2.96386719 114.18035156 -2.96386719 114.86035156 C-1.21705426 115.84519264 0.53371791 116.82301343 2.28613281 117.79785156 C3.74792969 118.61576172 3.74792969 118.61576172 5.23925781 119.45019531 C7.60061525 120.64076799 9.48656267 121.3070406 12.03613281 121.86035156 C13.06738281 122.33472656 14.09863281 122.80910156 15.16113281 123.29785156 C28.90387445 129.25012183 44.7557266 127.83419159 58.46191406 122.53613281 C70.15965198 117.2989552 80.79281156 110.28104424 91.29736328 102.99511719 C93.03613281 101.86035156 93.03613281 101.86035156 96.46582031 100.13378906 C99.16226498 98.19065503 99.16226498 98.19065503 99.50292969 95.86181641 C99.62799922 93.41629699 99.5600569 91.05423403 99.41113281 88.61035156 C99.3840625 87.76988281 99.35699219 86.92941406 99.32910156 86.06347656 C99.2585739 83.99466523 99.15095648 81.92717764 99.03613281 79.86035156 C98.04613281 80.19035156 97.05613281 80.52035156 96.03613281 80.86035156 C93.82779439 80.88063814 91.61889512 80.8522183 89.41113281 80.79785156 C83.91915814 80.72403112 78.60870085 81.05691903 73.16113281 81.79785156 C29.85881598 87.46791262 29.85881598 87.46791262 13.03613281 81.86035156 C-2.66319076 79.03406072 -18.85955083 76.49475775 -34.83886719 76.42285156 C-36.06488647 76.40822876 -36.06488647 76.40822876 -37.31567383 76.39331055 C-42.7844821 76.47188703 -46.93944237 77.70293908 -51.96386719 79.86035156 Z M149.03613281 78.86035156 C148.62363281 80.05660156 148.21113281 81.25285156 147.78613281 82.48535156 C146.33227287 86.394774 144.47863287 89.49138596 142.03613281 92.86035156 C149.26618041 98.1147173 156.72503252 102.78638617 164.47363281 107.23535156 C165.60728271 107.88656982 166.74093262 108.53778809 167.90893555 109.20874023 C174.70730383 113.07209214 181.54819975 116.78927479 188.59863281 120.17285156 C189.69292603 120.70434814 189.69292603 120.70434814 190.80932617 121.24658203 C195.15414797 123.26257934 199.33104565 124.48671606 204.02612305 125.41625977 C206.03613281 125.86035156 206.03613281 125.86035156 208.62988281 126.91503906 C211.89632389 128.19828377 215.05693201 128.55387587 218.53613281 128.98535156 C219.82519531 129.15292969 221.11425781 129.32050781 222.44238281 129.49316406 C232.77868932 130.48471813 242.94988775 129.7535646 253.22363281 128.48535156 C254.32126953 128.35902344 255.41890625 128.23269531 256.54980469 128.10253906 C263.12334948 127.31950812 269.5656137 126.25028864 276.03613281 124.86035156 C276.87934082 124.69414307 277.72254883 124.52793457 278.59130859 124.35668945 C281.96056587 123.67267707 285.2762362 122.8016369 288.59863281 121.92285156 C289.25798828 121.75333984 289.91734375 121.58382812 290.59667969 121.40917969 C293.94484379 120.52418757 297.01678613 119.57361953 300.03613281 117.86035156 C300.45600227 115.57198934 300.45600227 115.57198934 300.03613281 112.86035156 C289.24968524 98.47842147 263.18411627 97.63194933 247.01959229 94.67953491 C235.55784364 92.58466211 224.16804287 90.22646697 212.78613281 87.73535156 C211.20174321 87.38915249 209.61735195 87.042961 208.03295898 86.69677734 C205.758885 86.19969238 203.48482929 85.7025253 201.21086121 85.20495605 C195.26463734 83.90556251 189.3132971 82.63519121 183.34863281 81.42285156 C182.62063477 81.27122559 181.89263672 81.11959961 181.14257812 80.96337891 C172.9410599 79.32112716 164.76642715 78.69479765 156.41113281 78.79785156 C155.693125 78.80236328 154.97511719 78.806875 154.23535156 78.81152344 C152.50224073 78.82307751 150.76917412 78.84099998 149.03613281 78.86035156 Z M130.20019531 102.86425781 C126.53059079 109.15676758 128.5883996 115.66953252 130.28613281 122.23535156 C130.50398437 123.12996094 130.72183594 124.02457031 130.94628906 124.94628906 C134.3650917 138.70147161 138.81192542 153.38319564 150.03613281 162.86035156 C151.02613281 162.86035156 152.01613281 162.86035156 153.03613281 162.86035156 C153.36613281 163.85035156 153.69613281 164.84035156 154.03613281 165.86035156 C167.95341971 175.14679745 186.7610703 178.01628346 203.27832031 177.85644531 C206.31128278 177.85959808 208.78832145 178.04275855 211.72363281 178.67285156 C224.06318594 181.0484719 236.44261298 183.12843919 249.03613281 183.17285156 C249.770979 183.17816895 250.5058252 183.18348633 251.26293945 183.18896484 C255.27712832 183.13539847 258.42260988 182.63182472 262.03613281 180.86035156 C257.23428494 168.63746607 245.277547 162.5343355 234.03613281 156.86035156 C232.03850474 156.18661086 230.03844889 155.52002934 228.03613281 154.86035156 C225.63698951 153.70510588 223.27252251 152.52478069 220.91113281 151.29785156 C215.58999436 148.56829421 210.22832006 146.04851917 204.73217773 143.69140625 C192.44354491 138.39563339 180.56425659 131.95358463 170.12597656 123.50488281 C168.21739803 121.65421648 168.21739803 121.65421648 166.03613281 121.86035156 C166.03613281 121.20035156 166.03613281 120.54035156 166.03613281 119.86035156 C163.39928534 117.46214851 163.39928534 117.46214851 160.03613281 116.86035156 C159.78089844 116.291875 159.52566406 115.72339844 159.26269531 115.13769531 C155.5535648 108.25099758 149.28720338 101.9241842 142.03613281 98.86035156 C136.46476763 97.80371334 134.03387598 99.08182956 130.20019531 102.86425781 Z " fill="#2C6C54" transform="translate(94.9638671875,153.1396484375)"/>
<path d="M0 0 C0.66 0 1.32 0 2 0 C1.34 5.28 0.68 10.56 0 16 C-0.33 15.34 -0.66 14.68 -1 14 C-5.62 14 -10.24 14 -15 14 C-12.56136053 10.3420408 -11.22797389 9.91191594 -7 9 C-4.525 9.99 -4.525 9.99 -2 11 C-1.34 7.37 -0.68 3.74 0 0 Z " fill="#205744" transform="translate(196,219)"/>
<path d="M0 0 C2.125 0.3125 2.125 0.3125 5 1 C7.30933971 1.04472313 9.6053319 1.00053701 11.9140625 0.9375 C14 1 14 1 17 2 C19.33183607 2.67188497 21.66501142 3.33915417 24 4 C24 4.33 24 4.66 24 5 C14.9910961 4.42155945 5.99351805 3.78714218 -3 3 C-1.6328125 1.48046875 -1.6328125 1.48046875 0 0 Z " fill="#255F4A" transform="translate(272,225)"/>
<path d="M0 0 C1.10493755 3.31481265 1.05432279 5.66131116 0 9 C-0.99 9.66 -1.98 10.32 -3 11 C-3.66 10.67 -4.32 10.34 -5 10 C-4.56802365 5.2482602 -3.67230705 3.07999946 0 0 Z " fill="#33745C" transform="translate(226,278)"/>
<path d="M0 0 C3.3 0.33 6.6 0.66 10 1 C6.51515015 3.32323323 4.69247137 3.34217236 0.5625 3.5625 C-3.08685379 3.76593383 -6.48750853 3.95574578 -10 5 C-10.33 4.01 -10.66 3.02 -11 2 C-7.37 2 -3.74 2 0 2 C0 1.34 0 0.68 0 0 Z " fill="#37725D" transform="translate(261,225)"/>
<path d="M0 0 C3.3 0.99 6.6 1.98 10 3 C8 5 8 5 5.57421875 5.01171875 C4.14529297 4.85123047 4.14529297 4.85123047 2.6875 4.6875 C1.74261719 4.58824219 0.79773438 4.48898438 -0.17578125 4.38671875 C-2.81362949 4.02551961 -5.39670462 3.55480065 -8 3 C-8 2.67 -8 2.34 -8 2 C-5.36 2 -2.72 2 0 2 C0 1.34 0 0.68 0 0 Z " fill="#215D46" transform="translate(109,223)"/>
<path d="M0 0 C3.81684226 1.55500981 6.19195732 4.03595495 9 7 C8 9 8 9 6 10 C6.66 11.32 7.32 12.64 8 14 C7.34 14 6.68 14 6 14 C4.3125 12.3125 4.3125 12.3125 3 10 C3.185625 9.195625 3.37125 8.39125 3.5625 7.5625 C4.34158877 4.79570304 4.34158877 4.79570304 2.0625 2.1875 C1.381875 1.465625 0.70125 0.74375 0 0 Z " fill="#255F4A" transform="translate(191,202)"/>
<path d="M0 0 C0.99 0.33 1.98 0.66 3 1 C3.33 3.97 3.66 6.94 4 10 C2.68 10.33 1.36 10.66 0 11 C-0.66 8.03 -1.32 5.06 -2 2 C-1.34 2 -0.68 2 0 2 C0 1.34 0 0.68 0 0 Z " fill="#37735D" transform="translate(265,175)"/>
<path d="M0 0 C3.87853276 0.62876032 7.12174934 1.79813032 10.6875 3.4375 C12.11642578 4.08525391 12.11642578 4.08525391 13.57421875 4.74609375 C16 6 16 6 18 8 C16.68 8.33 15.36 8.66 14 9 C14 8.34 14 7.68 14 7 C13.175 6.7525 12.35 6.505 11.5 6.25 C7.47626529 4.81295189 3.78020976 2.97645485 0 1 C0 0.67 0 0.34 0 0 Z " fill="#27604B" transform="translate(153,180)"/>
<path d="M0 0 C1.98 1.32 3.96 2.64 6 4 C5.67 4.99 5.34 5.98 5 7 C4.319375 6.67 3.63875 6.34 2.9375 6 C-0.50840238 4.82692685 -3.38397422 4.85819507 -7 5 C-7 4.67 -7 4.34 -7 4 C-5.02 3.67 -3.04 3.34 -1 3 C-0.67 2.01 -0.34 1.02 0 0 Z " fill="#36725C" transform="translate(237,247)"/>
<path d="M0 0 C3.5948734 0.57517974 6.24017504 2.25223293 9.31640625 4.078125 C11.17268969 5.09455862 12.90979872 5.66556779 15 6 C14.67 6.66 14.34 7.32 14 8 C8.76481294 6.56032356 4.36973991 4.18303389 0 1 C0 0.67 0 0.34 0 0 Z " fill="#27614B" transform="translate(92,268)"/>
<path d="M0 0 C0.66 0.33 1.32 0.66 2 1 C1.07172661 2.79646436 0.13204162 4.58703557 -0.8125 6.375 C-1.59560547 7.87160156 -1.59560547 7.87160156 -2.39453125 9.3984375 C-4 12 -4 12 -7 14 C-5.53967505 8.68972746 -3.01679014 4.53669968 0 0 Z " fill="#255E4B" transform="translate(164,371)"/>
<path d="M0 0 C0.99 0.99 1.98 1.98 3 3 C2.80156329 7.6632626 1.89961266 9.13384979 -1 13 C-0.67 8.71 -0.34 4.42 0 0 Z " fill="#34755D" transform="translate(221,262)"/>
<path d="M0 0 C0.66 0.33 1.32 0.66 2 1 C1.401875 1.556875 0.80375 2.11375 0.1875 2.6875 C-2.08939299 4.91774529 -2.08939299 4.91774529 -3.5625 7.6875 C-5 10 -5 10 -8 11 C-6.63629701 8.00779732 -5.05091917 5.70973471 -2.875 3.25 C-2.33617187 2.63640625 -1.79734375 2.0228125 -1.2421875 1.390625 C-0.62730469 0.70226562 -0.62730469 0.70226562 0 0 Z " fill="#28624E" transform="translate(222,240)"/>
<path d="M0 0 C1.32 1.32 2.64 2.64 4 4 C0.37 4.33 -3.26 4.66 -7 5 C-4.78065836 1.67098753 -3.65316671 1.24976756 0 0 Z " fill="#2B614E" transform="translate(188,228)"/>
<path d="M0 0 C2.12472576 -0.05386629 4.24983652 -0.09273071 6.375 -0.125 C7.55835938 -0.14820313 8.74171875 -0.17140625 9.9609375 -0.1953125 C13 0 13 0 15 2 C13.02 2.33 11.04 2.66 9 3 C9 2.67 9 2.34 9 2 C6.03 1.67 3.06 1.34 0 1 C0 0.67 0 0.34 0 0 Z " fill="#35735D" transform="translate(338,336)"/>
<path d="M0 0 C0.66 0.33 1.32 0.66 2 1 C2.625 3.0625 2.625 3.0625 3 5 C2.01 5.66 1.02 6.32 0 7 C-0.99 6.01 -1.98 5.02 -3 4 C-2.67 3.01 -2.34 2.02 -2 1 C-1.34 0.67 -0.68 0.34 0 0 Z " fill="#225D49" transform="translate(191,252)"/>
<path d="M0 0 C1.93681161 -0.08107583 3.8745934 -0.13922475 5.8125 -0.1875 C6.89144531 -0.22230469 7.97039062 -0.25710937 9.08203125 -0.29296875 C12 0 12 0 13.88671875 1.51171875 C14.25410156 2.00285156 14.62148438 2.49398437 15 3 C9.9697924 2.47462276 4.98114761 1.89405214 0 1 C0 0.67 0 0.34 0 0 Z " fill="#246049" transform="translate(299,230)"/>
<path d="M0 0 C1.57554035 2.88628401 2.46276373 5.53342384 3.125 8.75 C3.29257813 9.54921875 3.46015625 10.3484375 3.6328125 11.171875 C3.81457031 12.07679688 3.81457031 12.07679688 4 13 C3.34 13 2.68 13 2 13 C0.54815522 8.46298506 -0.23509196 4.81938524 0 0 Z " fill="#235E49" transform="translate(222,286)"/>
<path d="M0 0 C0.33 0.66 0.66 1.32 1 2 C-2.63 3.98 -6.26 5.96 -10 8 C-10 7.01 -10 6.02 -10 5 C-6.7 3.35 -3.4 1.7 0 0 Z " fill="#27624D" transform="translate(172,273)"/>
<path d="M0 0 C1 3 1 3 -0.3125 5.6875 C-0.869375 6.450625 -1.42625 7.21375 -2 8 C-2.66 8 -3.32 8 -4 8 C-4 8.66 -4 9.32 -4 10 C-4.66 9.67 -5.32 9.34 -6 9 C-5.67 8.01 -5.34 7.02 -5 6 C-4.34 6 -3.68 6 -3 6 C-2.690625 5.195625 -2.38125 4.39125 -2.0625 3.5625 C-1 1 -1 1 0 0 Z " fill="#246049" transform="translate(155,398)"/>
<path d="M0 0 C0.99 0.66 1.98 1.32 3 2 C3 2.99 3 3.98 3 5 C-0.75 6.125 -0.75 6.125 -3 5 C-1.125 1.125 -1.125 1.125 0 0 Z M0 2 C1 5 1 5 1 5 Z " fill="#215C47" transform="translate(239,179)"/>
<path d="M0 0 C0.66 0.33 1.32 0.66 2 1 C0.90554162 1.86657116 -0.20097781 2.71792724 -1.3125 3.5625 C-1.92738281 4.03816406 -2.54226562 4.51382813 -3.17578125 5.00390625 C-3.77777344 5.33261719 -4.37976563 5.66132813 -5 6 C-5.99 5.67 -6.98 5.34 -8 5 C-6.35197949 1.70395897 -3.32254422 1.22409524 0 0 Z " fill="#26604C" transform="translate(228,173)"/>
<path d="M0 0 C2.375 0.6875 2.375 0.6875 5 2 C6.3125 4.625 6.3125 4.625 7 7 C3.42895561 5.12050295 1.45255699 3.82946843 0 0 Z " fill="#36705C" transform="translate(235,317)"/>
<path d="M0 0 C0.33 0.66 0.66 1.32 1 2 C0.34 1.67 -0.32 1.34 -1 1 C-0.67 0.67 -0.34 0.34 0 0 Z " fill="#2A634F" transform="translate(150,386)"/>
<path d="M0 0 C3 1 3 1 3 1 Z " fill="#255F4A" transform="translate(217,207)"/>
<path d="M0 0 C2 1 2 1 2 1 Z " fill="#19513D" transform="translate(114,451)"/>
<path d="" fill="#2B6551" transform="translate(0,0)"/>
<path d="M0 0 C2 1 2 1 2 1 Z " fill="#2D6652" transform="translate(249,332)"/>
<path d="M0 0 C2 1 2 1 2 1 Z " fill="#2E6953" transform="translate(164,329)"/>
<path d="M0 0 C2 1 2 1 2 1 Z " fill="#2E6B55" transform="translate(372,327)"/>
<path d="M0 0 C2 1 2 1 2 1 Z " fill="#34705A" transform="translate(372,323)"/>
<path d="M0 0 C2 1 2 1 2 1 Z " fill="#356F5A" transform="translate(270,320)"/>
<path d="M0 0 C2 1 2 1 2 1 Z " fill="#37705B" transform="translate(182,320)"/>
<path d="" fill="#356E59" transform="translate(0,0)"/>
<path d="M0 0 C2 1 2 1 2 1 Z " fill="#245D48" transform="translate(212,293)"/>
<path d="" fill="#356F59" transform="translate(0,0)"/>
<path d="" fill="#25624C" transform="translate(0,0)"/>
<path d="M0 0 C2 1 2 1 2 1 Z " fill="#336D58" transform="translate(32,255)"/>
<path d="" fill="#34705A" transform="translate(0,0)"/>
<path d="M0 0 C2 1 2 1 2 1 Z " fill="#34705A" transform="translate(274,238)"/>
<path d="" fill="#356F59" transform="translate(0,0)"/>
<path d="M0 0 C2 1 2 1 2 1 Z " fill="#336D57" transform="translate(260,206)"/>
<path d="" fill="#26624D" transform="translate(0,0)"/>
<path d="M0 0 C2 1 2 1 2 1 Z " fill="#2E6853" transform="translate(63,196)"/>
<path d="M0 0 C2 1 2 1 2 1 Z " fill="#38765F" transform="translate(145,190)"/>
<path d="" fill="#336F59" transform="translate(0,0)"/>
<path d="M0 0 C2 1 2 1 2 1 Z " fill="#326D58" transform="translate(67,138)"/>
<path d="" fill="#336F59" transform="translate(0,0)"/>
<path d="" fill="#306854" transform="translate(0,0)"/>
<path d="" fill="#35725B" transform="translate(0,0)"/>
<path d="" fill="#2E6A53" transform="translate(0,0)"/>
<path d="" fill="#2B6C55" transform="translate(0,0)"/>
<path d="" fill="#346D58" transform="translate(0,0)"/>
<path d="" fill="#346D58" transform="translate(0,0)"/>
<path d="" fill="#346D58" transform="translate(0,0)"/>
<path d="" fill="#346D58" transform="translate(0,0)"/>
<path d="" fill="#326955" transform="translate(0,0)"/>
<path d="" fill="#2E6751" transform="translate(0,0)"/>
<path d="" fill="#346E58" transform="translate(0,0)"/>
<path d="" fill="#346E58" transform="translate(0,0)"/>
<path d="" fill="#28624E" transform="translate(0,0)"/>
<path d="" fill="#28624D" transform="translate(0,0)"/>
<path d="" fill="#326955" transform="translate(0,0)"/>
<path d="" fill="#24614B" transform="translate(0,0)"/>
<path d="" fill="#387760" transform="translate(0,0)"/>
<path d="" fill="#346E59" transform="translate(0,0)"/>
<path d="" fill="#29644F" transform="translate(0,0)"/>
<path d="" fill="#306B55" transform="translate(0,0)"/>
<path d="" fill="#397862" transform="translate(0,0)"/>
<path d="" fill="#326955" transform="translate(0,0)"/>
<path d="" fill="#2A634E" transform="translate(0,0)"/>
<path d="" fill="#2C6750" transform="translate(0,0)"/>
<path d="" fill="#18533D" transform="translate(0,0)"/>
<path d="" fill="#397761" transform="translate(0,0)"/>
<path d="" fill="#245C48" transform="translate(0,0)"/>
<path d="" fill="#2F6953" transform="translate(0,0)"/>
<path d="" fill="#336A56" transform="translate(0,0)"/>
<path d="" fill="#38735E" transform="translate(0,0)"/>
<path d="" fill="#366E5A" transform="translate(0,0)"/>
<path d="" fill="#346A56" transform="translate(0,0)"/>
<path d="" fill="#34705A" transform="translate(0,0)"/>
<path d="" fill="#397660" transform="translate(0,0)"/>
<path d="" fill="#35725B" transform="translate(0,0)"/>
<path d="" fill="#33745C" transform="translate(0,0)"/>
<path d="" fill="#35725B" transform="translate(0,0)"/>
<path d="" fill="#336956" transform="translate(0,0)"/>
<path d="" fill="#34705A" transform="translate(0,0)"/>
<path d="" fill="#1E5A44" transform="translate(0,0)"/>
<path d="" fill="#346F59" transform="translate(0,0)"/>
<path d="" fill="#316F58" transform="translate(0,0)"/>
<path d="" fill="#245C48" transform="translate(0,0)"/>
<path d="" fill="#356F5A" transform="translate(0,0)"/>
<path d="" fill="#35705A" transform="translate(0,0)"/>
<path d="" fill="#346A56" transform="translate(0,0)"/>
<path d="" fill="#2C6651" transform="translate(0,0)"/>
<path d="" fill="#346A56" transform="translate(0,0)"/>
<path d="" fill="#2F6953" transform="translate(0,0)"/>
<path d="" fill="#306A54" transform="translate(0,0)"/>
<path d="" fill="#36715B" transform="translate(0,0)"/>
<path d="" fill="#3A7A62" transform="translate(0,0)"/>
<path d="" fill="#36745D" transform="translate(0,0)"/>
<path d="" fill="#34715A" transform="translate(0,0)"/>
<path d="" fill="#34715A" transform="translate(0,0)"/>
<path d="" fill="#326A55" transform="translate(0,0)"/>
<path d="" fill="#326A55" transform="translate(0,0)"/>
<path d="" fill="#346F59" transform="translate(0,0)"/>
<path d="" fill="#28624E" transform="translate(0,0)"/>
<path d="" fill="#316A55" transform="translate(0,0)"/>
<path d="" fill="#366F5A" transform="translate(0,0)"/>
<path d="" fill="#366F5A" transform="translate(0,0)"/>
<path d="" fill="#2B634E" transform="translate(0,0)"/>
<path d="" fill="#2F6E57" transform="translate(0,0)"/>
<path d="" fill="#3A7962" transform="translate(0,0)"/>
<path d="" fill="#34705A" transform="translate(0,0)"/>
<path d="" fill="#36705B" transform="translate(0,0)"/>
<path d="" fill="#36705B" transform="translate(0,0)"/>
<path d="" fill="#36715B" transform="translate(0,0)"/>
<path d="" fill="#37715C" transform="translate(0,0)"/>
<path d="" fill="#326B56" transform="translate(0,0)"/>
<path d="" fill="#2E6A53" transform="translate(0,0)"/>
<path d="" fill="#316A55" transform="translate(0,0)"/>
<path d="" fill="#36705A" transform="translate(0,0)"/>
<path d="" fill="#2A644E" transform="translate(0,0)"/>
<path d="" fill="#36705B" transform="translate(0,0)"/>
<path d="" fill="#26624D" transform="translate(0,0)"/>
<path d="" fill="#37705B" transform="translate(0,0)"/>
<path d="" fill="#2C6852" transform="translate(0,0)"/>
<path d="" fill="#366F59" transform="translate(0,0)"/>
<path d="" fill="#346F59" transform="translate(0,0)"/>
<path d="" fill="#346F59" transform="translate(0,0)"/>
<path d="" fill="#1C5842" transform="translate(0,0)"/>
<path d="" fill="#336A56" transform="translate(0,0)"/>
<path d="" fill="#2E6953" transform="translate(0,0)"/>
<path d="" fill="#326A56" transform="translate(0,0)"/>
<path d="" fill="#336A56" transform="translate(0,0)"/>
<path d="" fill="#2B614D" transform="translate(0,0)"/>
<path d="" fill="#336A56" transform="translate(0,0)"/>
<path d="" fill="#2F6854" transform="translate(0,0)"/>
<path d="" fill="#32725B" transform="translate(0,0)"/>
<path d="" fill="#356F59" transform="translate(0,0)"/>
<path d="" fill="#336A56" transform="translate(0,0)"/>
<path d="" fill="#316A55" transform="translate(0,0)"/>
<path d="" fill="#326A56" transform="translate(0,0)"/>
<path d="" fill="#326B56" transform="translate(0,0)"/>
<path d="" fill="#336A56" transform="translate(0,0)"/>
<path d="" fill="#336A56" transform="translate(0,0)"/>
<path d="" fill="#245F4A" transform="translate(0,0)"/>
<path d="" fill="#316A55" transform="translate(0,0)"/>
<path d="" fill="#24634B" transform="translate(0,0)"/>
<path d="" fill="#336A55" transform="translate(0,0)"/>
<path d="" fill="#316A55" transform="translate(0,0)"/>
<path d="" fill="#34705A" transform="translate(0,0)"/>
<path d="" fill="#35715A" transform="translate(0,0)"/>
<path d="" fill="#36705B" transform="translate(0,0)"/>
<path d="" fill="#36705B" transform="translate(0,0)"/>
<path d="" fill="#356E59" transform="translate(0,0)"/>
<path d="" fill="#1F5C47" transform="translate(0,0)"/>
<path d="" fill="#34705A" transform="translate(0,0)"/>
<path d="" fill="#37755E" transform="translate(0,0)"/>
<path d="" fill="#37745E" transform="translate(0,0)"/>
<path d="" fill="#326A56" transform="translate(0,0)"/>
<path d="" fill="#36705B" transform="translate(0,0)"/>
<path d="" fill="#316A55" transform="translate(0,0)"/>
<path d="" fill="#37755F" transform="translate(0,0)"/>
<path d="" fill="#2B6751" transform="translate(0,0)"/>
<path d="" fill="#194E3B" transform="translate(0,0)"/>
<path d="" fill="#407E67" transform="translate(0,0)"/>
<path d="" fill="#36705B" transform="translate(0,0)"/>
<path d="" fill="#36715B" transform="translate(0,0)"/>
<path d="" fill="#235D48" transform="translate(0,0)"/>
<path d="" fill="#306853" transform="translate(0,0)"/>
<path d="" fill="#2F6853" transform="translate(0,0)"/>
<path d="" fill="#397861" transform="translate(0,0)"/>
<path d="" fill="#36705B" transform="translate(0,0)"/>
<path d="" fill="#28634D" transform="translate(0,0)"/>
<path d="" fill="#36715B" transform="translate(0,0)"/>
<path d="" fill="#306955" transform="translate(0,0)"/>
<path d="" fill="#245D49" transform="translate(0,0)"/>
<path d="" fill="#2F6854" transform="translate(0,0)"/>
<path d="" fill="#2A6650" transform="translate(0,0)"/>
<path d="" fill="#255C49" transform="translate(0,0)"/>
<path d="" fill="#336E58" transform="translate(0,0)"/>
<path d="" fill="#37765F" transform="translate(0,0)"/>
<path d="" fill="#2A634F" transform="translate(0,0)"/>
<path d="" fill="#336A56" transform="translate(0,0)"/>
<path d="" fill="#2B6550" transform="translate(0,0)"/>
<path d="" fill="#2A6551" transform="translate(0,0)"/>
<path d="" fill="#34705A" transform="translate(0,0)"/>
<path d="" fill="#2E6A55" transform="translate(0,0)"/>
<path d="" fill="#37735D" transform="translate(0,0)"/>
<path d="" fill="#2A634F" transform="translate(0,0)"/>
<path d="" fill="#336E58" transform="translate(0,0)"/>
<path d="" fill="#397961" transform="translate(0,0)"/>
<path d="" fill="#3D7C65" transform="translate(0,0)"/>
<path d="" fill="#245D4A" transform="translate(0,0)"/>
<path d="" fill="#1E5844" transform="translate(0,0)"/>
<path d="" fill="#2B654F" transform="translate(0,0)"/>
<path d="" fill="#326954" transform="translate(0,0)"/>
<path d="" fill="#397B63" transform="translate(0,0)"/>
<path d="" fill="#37735D" transform="translate(0,0)"/>
<path d="" fill="#2F6C55" transform="translate(0,0)"/>
<path d="" fill="#316955" transform="translate(0,0)"/>
<path d="" fill="#306B56" transform="translate(0,0)"/>
<path d="" fill="#255F49" transform="translate(0,0)"/>
<path d="" fill="#195640" transform="translate(0,0)"/>
<path d="" fill="#2A6A53" transform="translate(0,0)"/>
<path d="" fill="#356E59" transform="translate(0,0)"/>
<path d="" fill="#35725B" transform="translate(0,0)"/>
<path d="" fill="#35715B" transform="translate(0,0)"/>
<path d="" fill="#2B6650" transform="translate(0,0)"/>
<path d="" fill="#326A55" transform="translate(0,0)"/>
<path d="" fill="#336A56" transform="translate(0,0)"/>
<path d="" fill="#38755F" transform="translate(0,0)"/>
<path d="" fill="#26644D" transform="translate(0,0)"/>
<path d="" fill="#2C6652" transform="translate(0,0)"/>
<path d="" fill="#36705B" transform="translate(0,0)"/>
<path d="" fill="#27614B" transform="translate(0,0)"/>
<path d="" fill="#3C7A63" transform="translate(0,0)"/>
<path d="" fill="#326A55" transform="translate(0,0)"/>
<path d="" fill="#336A56" transform="translate(0,0)"/>
<path d="" fill="#36725C" transform="translate(0,0)"/>
<path d="" fill="#336A56" transform="translate(0,0)"/>
<path d="" fill="#336A56" transform="translate(0,0)"/>
<path d="" fill="#2D6550" transform="translate(0,0)"/>
<path d="" fill="#326A55" transform="translate(0,0)"/>
<path d="" fill="#3B7C64" transform="translate(0,0)"/>
<path d="" fill="#326A55" transform="translate(0,0)"/>
<path d="" fill="#28624C" transform="translate(0,0)"/>
<path d="" fill="#27664F" transform="translate(0,0)"/>
<path d="" fill="#2C6752" transform="translate(0,0)"/>
<path d="" fill="#336A56" transform="translate(0,0)"/>
<path d="" fill="#3A7963" transform="translate(0,0)"/>
<path d="" fill="#1F5B46" transform="translate(0,0)"/>
<path d="" fill="#326A55" transform="translate(0,0)"/>
<path d="" fill="#336A56" transform="translate(0,0)"/>
<path d="" fill="#326955" transform="translate(0,0)"/>
<path d="" fill="#326A55" transform="translate(0,0)"/>
<path d="" fill="#346E59" transform="translate(0,0)"/>
<path d="" fill="#27614D" transform="translate(0,0)"/>
<path d="" fill="#316A55" transform="translate(0,0)"/>
<path d="" fill="#2B6651" transform="translate(0,0)"/>
<path d="" fill="#26614B" transform="translate(0,0)"/>
<path d="" fill="#2D6652" transform="translate(0,0)"/>
<path d="" fill="#346E59" transform="translate(0,0)"/>
<path d="" fill="#2B6551" transform="translate(0,0)"/>
<path d="" fill="#326955" transform="translate(0,0)"/>
<path d="" fill="#346E58" transform="translate(0,0)"/>
<path d="" fill="#326A55" transform="translate(0,0)"/>
<path d="" fill="#2A6650" transform="translate(0,0)"/>
<path d="" fill="#316A55" transform="translate(0,0)"/>
<path d="" fill="#2B634F" transform="translate(0,0)"/>
<path d="" fill="#36745E" transform="translate(0,0)"/>
<path d="" fill="#216048" transform="translate(0,0)"/>
<path d="" fill="#326955" transform="translate(0,0)"/>
<path d="" fill="#28634D" transform="translate(0,0)"/>
<path d="" fill="#307259" transform="translate(0,0)"/>
<path d="" fill="#37765F" transform="translate(0,0)"/>
<path d="" fill="#34705A" transform="translate(0,0)"/>
<path d="" fill="#37745E" transform="translate(0,0)"/>
<path d="" fill="#215D46" transform="translate(0,0)"/>
<path d="" fill="#346E58" transform="translate(0,0)"/>
<path d="" fill="#236149" transform="translate(0,0)"/>
<path d="" fill="#316A55" transform="translate(0,0)"/>
<path d="" fill="#2F6954" transform="translate(0,0)"/>
<path d="" fill="#326A55" transform="translate(0,0)"/>
<path d="" fill="#316954" transform="translate(0,0)"/>
<path d="" fill="#38765F" transform="translate(0,0)"/>
<path d="" fill="#346E58" transform="translate(0,0)"/>
<path d="" fill="#336F59" transform="translate(0,0)"/>
<path d="" fill="#346E58" transform="translate(0,0)"/>
<path d="" fill="#346E58" transform="translate(0,0)"/>
<path d="" fill="#306A55" transform="translate(0,0)"/>
<path d="" fill="#346E58" transform="translate(0,0)"/>
<path d="" fill="#2B6650" transform="translate(0,0)"/>
<path d="" fill="#36745D" transform="translate(0,0)"/>
<path d="" fill="#397961" transform="translate(0,0)"/>
<path d="" fill="#336D58" transform="translate(0,0)"/>
<path d="" fill="#27624C" transform="translate(0,0)"/>
<path d="" fill="#316A55" transform="translate(0,0)"/>
<path d="" fill="#316A55" transform="translate(0,0)"/>
<path d="" fill="#205A44" transform="translate(0,0)"/>
<path d="" fill="#2A6651" transform="translate(0,0)"/>
<path d="" fill="#225C46" transform="translate(0,0)"/>
<path d="" fill="#397962" transform="translate(0,0)"/>
<path d="" fill="#316954" transform="translate(0,0)"/>
<path d="" fill="#2B6551" transform="translate(0,0)"/>
<path d="" fill="#2E6652" transform="translate(0,0)"/>
<path d="" fill="#316955" transform="translate(0,0)"/>
<path d="" fill="#336E58" transform="translate(0,0)"/>
<path d="" fill="#3A7861" transform="translate(0,0)"/>
<path d="" fill="#37745E" transform="translate(0,0)"/>
<path d="" fill="#326955" transform="translate(0,0)"/>
<path d="" fill="#346E58" transform="translate(0,0)"/>
<path d="" fill="#346E58" transform="translate(0,0)"/>
<path d="" fill="#1D5741" transform="translate(0,0)"/>
<path d="" fill="#35705A" transform="translate(0,0)"/>
<path d="" fill="#387660" transform="translate(0,0)"/>
<path d="" fill="#346E58" transform="translate(0,0)"/>
<path d="" fill="#387961" transform="translate(0,0)"/>
<path d="" fill="#387760" transform="translate(0,0)"/>
<path d="" fill="#336E58" transform="translate(0,0)"/>
<path d="" fill="#397861" transform="translate(0,0)"/>
<path d="" fill="#215B46" transform="translate(0,0)"/>
<path d="" fill="#387861" transform="translate(0,0)"/>
<path d="" fill="#2D6A53" transform="translate(0,0)"/>
<path d="" fill="#36755E" transform="translate(0,0)"/>
<path d="" fill="#326A55" transform="translate(0,0)"/>
<path d="" fill="#34755D" transform="translate(0,0)"/>
<path d="" fill="#316A55" transform="translate(0,0)"/>
<path d="" fill="#2E6752" transform="translate(0,0)"/>
<path d="" fill="#2E6E56" transform="translate(0,0)"/>
<path d="" fill="#215A46" transform="translate(0,0)"/>
<path d="" fill="#35725B" transform="translate(0,0)"/>
<path d="" fill="#35705A" transform="translate(0,0)"/>
<path d="" fill="#336D58" transform="translate(0,0)"/>
<path d="" fill="#3A7861" transform="translate(0,0)"/>
<path d="" fill="#316954" transform="translate(0,0)"/>
<path d="" fill="#36725C" transform="translate(0,0)"/>
<path d="" fill="#326A55" transform="translate(0,0)"/>
<path d="" fill="#307259" transform="translate(0,0)"/>
<path d="" fill="#316954" transform="translate(0,0)"/>
<path d="" fill="#346F59" transform="translate(0,0)"/>
<path d="" fill="#316954" transform="translate(0,0)"/>
<path d="" fill="#326955" transform="translate(0,0)"/>
<path d="" fill="#336D58" transform="translate(0,0)"/>
<path d="" fill="#38765F" transform="translate(0,0)"/>
<path d="" fill="#37735D" transform="translate(0,0)"/>
<path d="" fill="#397760" transform="translate(0,0)"/>
<path d="" fill="#35725B" transform="translate(0,0)"/>
<path d="" fill="#34705A" transform="translate(0,0)"/>
<path d="" fill="#2D6652" transform="translate(0,0)"/>
<path d="" fill="#336E58" transform="translate(0,0)"/>
<path d="" fill="#336D58" transform="translate(0,0)"/>
<path d="" fill="#326A55" transform="translate(0,0)"/>
<path d="" fill="#316954" transform="translate(0,0)"/>
<path d="" fill="#316954" transform="translate(0,0)"/>
<path d="" fill="#316954" transform="translate(0,0)"/>
<path d="" fill="#306954" transform="translate(0,0)"/>
<path d="" fill="#2C6550" transform="translate(0,0)"/>
<path d="" fill="#336D58" transform="translate(0,0)"/>
<path d="" fill="#346F59" transform="translate(0,0)"/>
<path d="" fill="#316954" transform="translate(0,0)"/>
<path d="" fill="#2C644F" transform="translate(0,0)"/>
<path d="" fill="#316954" transform="translate(0,0)"/>
<path d="" fill="#29634E" transform="translate(0,0)"/>
<path d="" fill="#37755E" transform="translate(0,0)"/>
<path d="" fill="#336D58" transform="translate(0,0)"/>
<path d="" fill="#306954" transform="translate(0,0)"/>
<path d="" fill="#336D58" transform="translate(0,0)"/>
<path d="" fill="#316954" transform="translate(0,0)"/>
<path d="" fill="#306954" transform="translate(0,0)"/>
<path d="" fill="#346F59" transform="translate(0,0)"/>
<path d="" fill="#35725B" transform="translate(0,0)"/>
<path d="" fill="#245B46" transform="translate(0,0)"/>
<path d="" fill="#336D58" transform="translate(0,0)"/>
<path d="" fill="#28614D" transform="translate(0,0)"/>
<path d="" fill="#316954" transform="translate(0,0)"/>
<path d="" fill="#316954" transform="translate(0,0)"/>
<path d="" fill="#27614B" transform="translate(0,0)"/>
<path d="" fill="#346F59" transform="translate(0,0)"/>
<path d="" fill="#387760" transform="translate(0,0)"/>
<path d="" fill="#306954" transform="translate(0,0)"/>
<path d="" fill="#35705A" transform="translate(0,0)"/>
<path d="" fill="#316854" transform="translate(0,0)"/>
<path d="" fill="#2B654F" transform="translate(0,0)"/>
<path d="" fill="#346E59" transform="translate(0,0)"/>
<path d="" fill="#2D6753" transform="translate(0,0)"/>
<path d="" fill="#2B6952" transform="translate(0,0)"/>
<path d="" fill="#29604C" transform="translate(0,0)"/>
<path d="" fill="#32715A" transform="translate(0,0)"/>
<path d="" fill="#1E5644" transform="translate(0,0)"/>
<path d="" fill="#346F59" transform="translate(0,0)"/>
<path d="" fill="#2F6852" transform="translate(0,0)"/>
<path d="" fill="#356E59" transform="translate(0,0)"/>
<path d="" fill="#2B634F" transform="translate(0,0)"/>
<path d="" fill="#356E59" transform="translate(0,0)"/>
<path d="" fill="#1F5C46" transform="translate(0,0)"/>
<path d="" fill="#35705A" transform="translate(0,0)"/>
<path d="" fill="#326D57" transform="translate(0,0)"/>
<path d="" fill="#2F6953" transform="translate(0,0)"/>
<path d="" fill="#37715B" transform="translate(0,0)"/>
<path d="" fill="#346D58" transform="translate(0,0)"/>
<path d="" fill="#2E6954" transform="translate(0,0)"/>
<path d="" fill="#306A54" transform="translate(0,0)"/>
<path d="" fill="#326A55" transform="translate(0,0)"/>
<path d="" fill="#2B644E" transform="translate(0,0)"/>
<path d="" fill="#346E58" transform="translate(0,0)"/>
<path d="" fill="#346E58" transform="translate(0,0)"/>
<path d="" fill="#346E58" transform="translate(0,0)"/>
<path d="" fill="#397962" transform="translate(0,0)"/>
<path d="" fill="#346E58" transform="translate(0,0)"/>
<path d="" fill="#37755F" transform="translate(0,0)"/>
<path d="" fill="#326955" transform="translate(0,0)"/>
<path d="" fill="#2F6753" transform="translate(0,0)"/>
<path d="" fill="#316C56" transform="translate(0,0)"/>
<path d="" fill="#2A6450" transform="translate(0,0)"/>
<path d="" fill="#316C56" transform="translate(0,0)"/>
<path d="" fill="#27604B" transform="translate(0,0)"/>
<path d="" fill="#2C6851" transform="translate(0,0)"/>
<path d="" fill="#336A56" transform="translate(0,0)"/>
<path d="" fill="#316954" transform="translate(0,0)"/>
<path d="" fill="#25604B" transform="translate(0,0)"/>
<path d="" fill="#2D6751" transform="translate(0,0)"/>
<path d="" fill="#336E58" transform="translate(0,0)"/>
<path d="" fill="#336A55" transform="translate(0,0)"/>
<path d="" fill="#32725A" transform="translate(0,0)"/>
<path d="" fill="#2D6651" transform="translate(0,0)"/>
<path d="" fill="#326C56" transform="translate(0,0)"/>
<path d="" fill="#336D58" transform="translate(0,0)"/>
<path d="" fill="#336D58" transform="translate(0,0)"/>
<path d="" fill="#235F48" transform="translate(0,0)"/>
<path d="" fill="#2D6851" transform="translate(0,0)"/>
<path d="" fill="#326D57" transform="translate(0,0)"/>
<path d="" fill="#35735C" transform="translate(0,0)"/>
<path d="" fill="#326D57" transform="translate(0,0)"/>
<path d="" fill="#326C57" transform="translate(0,0)"/>
<path d="" fill="#336E58" transform="translate(0,0)"/>
<path d="" fill="#326C57" transform="translate(0,0)"/>
<path d="" fill="#306853" transform="translate(0,0)"/>
<path d="" fill="#316954" transform="translate(0,0)"/>
<path d="" fill="#347059" transform="translate(0,0)"/>
<path d="" fill="#2E6751" transform="translate(0,0)"/>
<path d="" fill="#336F59" transform="translate(0,0)"/>
<path d="" fill="#397961" transform="translate(0,0)"/>
<path d="" fill="#2C6B55" transform="translate(0,0)"/>
<path d="" fill="#306954" transform="translate(0,0)"/>
<path d="" fill="#2C6551" transform="translate(0,0)"/>
<path d="" fill="#326D58" transform="translate(0,0)"/>
<path d="" fill="#306954" transform="translate(0,0)"/>
<path d="" fill="#2F6953" transform="translate(0,0)"/>
</svg>
