<svg xmlns="http://www.w3.org/2000/svg" width="1920" height="1080" viewBox="0 0 1920 1080"><defs><clipPath id="artboard-5258645140928630987"><path d="M0 0h1920v1080H0z"/></clipPath></defs><path fill="none" d="M0 0h1920v1080H0z"/><g clip-path="url(#artboard-5258645140928630987)"><path fill="none" d="M984.33 1076.2c-205.58 0-410.74 0-615.9.09-3.18 0-3.9-.73-3.9-3.95q.13-534.2 0-1068.4c0-3.22.72-3.94 3.9-3.94q529.2.12 1058.38 0c3.18 0 3.9.72 3.9 3.94q-.12 534.2 0 1068.4c0 3.22-.72 3.95-3.9 3.95-147.35-.1-294.7-.08-442.48-.08"/><path fill="#fff" d="M895.22 740.51c-.27 2.79.29 5.31-1.2 7.93-.53 2.09-.15 3.87-.55 5.9a34 34 0 0 1-1.94 8.68c-.61 1.8-.18 3.33-.63 5.1-.16.45-.16.62-.26 1-.58 1.7-.14 3.25-.6 5.02-.16.28-.1.65-.18.83-.72 1.4-.2 2.76-.66 4.32-.16.28-.16.7-.25.9-.6 1.67-.18 3.2-.52 5-.16 1.52-.18 2.76-.32 4.35-.65 9.34-.2 18.33-.35 27.71.02 4.5-.04 8.61.15 13.1.18 1.01.25 1.67.3 2.66.87 2.03.16 3.88.55 5.96.2.7.27 1.1.36 1.78.45.96.32 1.72.34 2.73 0 .64.02 1.01.17 1.62.13.24.3.58.28.77.8 1.67.2 3.3.58 5.15.13.31.29.67.27.87.84 1.9.2 3.73.51 5.82.72 2.42 1.35 4.5 2 6.92.83 1.75.27 3.3.55 5.1 3 10.14 6.12 19.88 10.46 29.19 5.82 12.47 13.58 23.69 21.7 34.71 6.6 8.96 14.51 16.71 22.55 24.2a124 124 0 0 0 19.61 14.65c8.43 5.2 17.13 9.33 26.7 11.65.8.2 1.66.22 2.85.4 3.14.67 5.96.26 9.06.2 6.65-2.87 8.72-8.73 10.56-14.68 1.03-3.3 1.76-6.71 2.75-10.41.52-1.74.23-3.16.33-4.87.05-.5.09-.7.27-1.17.14-.27.1-.64.18-.8.7-1.4.2-2.76.66-4.3.16-.43.15-.57.23-.92.66-1.96.16-3.8.6-5.88.18-1.2.18-2.12.26-3.37.66-11.16.22-21.99.19-33.19-.17-2.43-.23-4.5-.28-6.94-.96-3.8-.13-7.3-.58-11.1-.13-.34-.28-.7-.27-.9-.9-3.4-.16-6.66-.58-10.23-.12-.36-.3-.72-.27-.93-.93-3.04-.16-5.97-.52-9.2-.75-4.45-1.42-8.54-2.06-12.98-.73-1.53-.23-2.87-.55-4.4-.13-.3-.3-.66-.29-.86-.85-2.19-.18-4.29-.5-6.65-.15-.5-.24-.67-.37-1.1-.66-1.45-.24-2.74-.52-4.25a12 12 0 0 1-.32-1.91c-.25-.64-.4-.99-.56-1.64-.14-.26-.3-.6-.27-.78-.79-1.6-.23-3.17-.51-4.97-2.2-5.97-3.22-11.93-4.65-17.77-2.25-9.23-3.62-18.67-6.62-27.7-6.4-19.3-14.65-37.85-22.6-56.5-3.91-9.19-8.63-18.09-12.2-27.46-2.72-7.08-5.03-14.31-7.5-21.48-.43-1.24-.86-2.8.04-3.68 1.31-1.28 2.36.6 3.14 1.18 5 3.72 8.55 8.93 12.7 13.5 6.06 6.72 11.32 14.18 17.1 21.18 4.38 5.3 8.8 10.63 13.63 15.5a233 233 0 0 0 28.42 24.3c9.74 7.08 20.06 13.22 30.24 19.6a198 198 0 0 0 32.1 16.09c7.05 2.8 14.2 5.32 22.06 6.73 1.83.55 3.37.1 5.15.58.28.16.6.1.76.16 1.06.7 2.12.27 3.35.62.69.16 1.1.18 1.8.31 2.04.64 3.84.16 5.89.6.44.18.6.17.97.26 2.53.66 4.89.15 7.51.6.44.17.59.18.93.25 4.38.7 8.58.19 13.13.36h5.82c2.71-.02 5.07.03 7.77-.13 9.99-2.66 19.66-5.01 28.64-9.78 8.45-4.5 16.6-9.4 24.37-14.96 3.4-2.43 3.87-6.03 3.62-10.24-.89-2.87-.14-5.49-.48-8.39-2.26-4.83-1.96-9.88-3.15-14.62-3.2-12.74-8.98-24-16.8-34.3-14.77-19.48-32.04-36.26-53.19-48.54-13.34-7.76-27.72-12.95-42.74-16.59-16.83-4.08-33.8-7.65-50.3-13.13-6.74-2.23-13.48-4.36-19.94-7.35-5.9-2.73-11.25-6.05-15.07-11.6-2.88-4.16-2.99-4.23 2.24-5.64 2.29-.85 4.38-.16 6.73-.5.5-.16.68-.23 1.13-.32 1.51-.78 2.87-.3 4.57-.43 6.87.03 13.34-.06 20.18.22 1.04.19 1.71.2 2.7.32 2.92.61 5.55.12 8.47.56.47.2.64.2 1.04.32 4.22.56 8.23.1 12.55.54.48.18.64.18 1 .27 1.67.61 3.2.16 4.95.6.68.17 1.08.17 1.77.27 2.05.62 3.87.13 5.93.6.3.17.68.12.86.2 1.39.7 2.72.2 4.23.66 1.88 1.48 3.8.87 5.93 1.14 1.81.54 3.33.15 5.07.56 2.18 1.61 4.39.83 6.82 1.14 2.11.6 3.93.12 5.99.59 2.06.4 3.72 1.34 5.92 1.12 2.08.6 3.87.16 5.93.55.46.17.63.19 1.03.3 1.98.61 3.79.13 5.84.6.29.17.68.12.85.2 1.37.69 2.66.23 4.17.62 7.04 1.19 13.24 4.12 19.5 6.6 5.82 2.3 11.35 5.46 16.7 8.93 11.6 7.56 21.96 16.32 30.36 27.5 11.32 15.09 18.08 32.16 22.67 50.84.08.68.15.8.2 1.14.82 1.9.2 3.72.5 5.8.17 1.02.27 1.73.39 2.79.7 1.81.17 3.37.51 5.17.18.68.24 1.06.28 1.72.93 7.53.2 14.8.2 22.44.53 12.58-4.19 22.4-12.26 31.32-7.96 8.8-16.1 17.39-25.08 25.08-11.25 9.63-23.38 17.87-38.8 20.27-3.15.91-6.06.17-9.28.52-1.07.18-1.8.28-2.88.43-4.4.65-8.44.21-12.84.1-1.28-.2-2.2-.2-3.46-.28-2.66-.68-5.03-.14-7.67-.6-10.53-.55-20.03-3.8-29.4-7.66-16.98-7-31.54-17.96-46.26-28.65-10.83-7.87-21.66-15.76-31.96-24.36-.7-.58-1.64-.85-3.58-1.82 16.23 29.13 30.33 57.93 37.1 90.1.8 1.74.23 3.3.53 5.08.56 2.1 1.54 3.79 1.2 6.1.64 1.27.27 2.35.58 3.61.15.27.28.6.26.77a129 129 0 0 1 1.34 22.03c1.12 4.57 1 8.8.27 13.35-.7 3-.2 5.7-.37 8.76-.02 2.4.06 4.41-.24 6.76-.2.33-.15.76-.23.96-.72 1.99-.14 3.87-.63 6-.17.3-.13.68-.22.86-.28.49-.38.84-.37 1.5-.02 1.02.05 1.77-.27 2.74 0 2.4-.16 4.53-1.1 6.9-.58 1.8-.17 3.33-.58 5.08-3.24 19.44-9.3 37.38-23.23 51.38-10.39 10.45-23.27 16.04-38.46 16.57-5.03.88-9.74.21-14.8.18-1.02-.2-1.68-.2-2.65-.3-1.77-.58-3.3-.17-5.03-.58-8.14-.71-15.39-3.47-22.45-6.74-11.64-5.4-21.96-12.78-31.59-21.3-13.95-12.36-25.19-27.03-34.97-42.71-6.51-10.46-12.6-21.26-17.17-32.94-3.75-9.58-7.51-19.17-11.05-28.83-1.28-3.52-1.9-7.3-2.8-11.3-.86-2.01-.22-3.81-.51-5.86-.14-.5-.22-.67-.33-1.11-.78-1.44-.27-2.74-.58-4.26-1.92-2.1-1.14-4.36-1.16-6.84-.88-2.88-.15-5.5-.5-8.4-.16-.51-.24-.67-.32-1.09-.9-3.3-.15-6.4-.45-9.46-.13-1.33.63-2.84-.96-3.86-6.41 11.9-14.63 22.22-22.62 32.7a372 372 0 0 1-26.57 31.25c-18.15 19.03-36.45 37.82-60.43 49.62a129 129 0 0 1-37.29 11.72c-1.72.87-3.25.24-5 .57-.45.16-.59.23-.97.3-1.39.77-2.7.28-4.2.58-.44.17-.57.23-.93.29-2.17.9-4.24.19-6.57.52-3.4 2.13-6.64.05-9.78.43-.81.1-1.6-.59-1.58-1.14.02-1.2.98-2 2-2.52 4.48-2.25 8.7-4.91 12.92-7.62 9.82-6.28 19.1-13.3 28.2-20.54a608 608 0 0 0 31.1-26.62c13.14-11.97 25.38-24.81 37.47-37.86 4.6-4.96 8.85-10.25 13.53-15.16 5.21-5.48 9.18-12.17 13.7-18.32 8.74-11.87 16.42-24.45 23.7-37.25a663 663 0 0 0 16.86-31.72c5.3-10.6 10.19-21.41 15.12-32.2 3.19-6.98 5.97-14.15 9.22-21.11a38 38 0 0 1 11.4-14.24c4.79-3.68 5.28-3.41 6.37 3.09.28.79.39 1.3.38 2.1 0 .63.02.98.2 1.55.13.23.28.54.26.72.84 2.17.18 4.29.5 6.67.17 1.29.26 2.24.34 3.56.84 4.48.24 8.65.18 13.17-.2.8-.2 1.21-.32 1.92-.56 2.34-.13 4.42-.54 6.77-.16.3-.15.72-.24.9-.42.64-.37 1.16-.38 1.93.02 1.12-.04 1.98.23 3.05a3 3 0 0 1-.31 1.83c-1.45 4.16-.4 8.31-.96 12.75M597.09 494.19c-.33.12-.7.3-.9.28-2 .88-3.93.16-6.07.66-.3.2-.33.18-.32.16l-.43.46a27 27 0 0 1-4.15.46c-1.84.84-3.48.16-5.3.62-7.63 2.2-14.98 4.18-22.31 6.22-13.75 3.82-26.3 9.54-37.02 19.64-10.05 9.47-20.41 18.61-30.38 28.2-10.53 10.13-18.87 21.28-22.03 36.24-.61 2.05-.2 3.84-.6 5.87-.17.86-.17 1.43-.17 2.3.88 2.25.17 4.33.52 6.68 1.09 2.93 1.83 5.62 2.87 8.23 1.55 3.9 3.67 6.93 7.17 9.34 10.33 7.1 22.15 9.4 34.47 11.51 2.1.49 3.86.1 5.87.54.42.16.57.15.9.23 1.4.63 2.69.2 4.17.62.7.18 1.13.19 1.86.31 2.31.52 4.36.11 6.67.55.44.17.6.16.95.25 1.2.53 2.24.28 3.57.35 1.15.01 1.99-.04 3.09.26.45.17.63.17 1.06.3 2.53.55 4.85.12 7.43.55.3.19.7.15.9.22 1.67.72 3.24.19 5.03.63.68.19 1.07.2 1.75.29 2.38.6 4.5.2 6.97.32 2.06.03 3.76-.06 5.78.26.31.19.72.14.91.22 2.52.74 4.9.16 7.55.63.3.18.71.18.9.24 2.88.72 5.6.2 8.69.37 3.73.03 7.08-.06 10.77.24.34.2.74.17.93.23 8.69.76 17.2.25 26.07.2.36-.15.76-.27.97-.25 1.55-.83 3.03-.24 4.79-.42h8.33c.8 0 1.24 0 2-.16.32-.12.68-.3.88-.28 3.37-.9 6.61-.16 10.16-.58.35-.13.7-.3.9-.28 3.6-.97 7.09-.13 10.89-.54.5-.16.64-.23 1.02-.3 4.18-1 8.2-.14 12.53-.55.51-.16.66-.24 1.05-.31 2.53-.9 4.92-.2 7.58-.58.47-.17.6-.24.96-.29 2.2-.91 4.29-.17 6.64-.55.47-.17.62-.24 1-.3.42-.11.6-.22 1.08-.38 1.76-.08 3.22 0 4.95-.24.27-.14.59-.3.76-.26 2.45-.87 4.83-.18 7.5-.53.47-.17.62-.24 1-.3 3.02-.95 5.9-.17 9.08-.52.51-.15.68-.23 1.1-.33 1.7-.86 3.29-.23 5.08-.6.31-.11.7-.3.9-.28 2.72-.92 5.33-.17 8.22-.5.76-.17 1.17-.27 1.9-.36 1.5-.78 2.84-.24 4.37-.6.3-.13.62-.3.8-.27 4.13-.97 8.15-.12 12.5-.5.53-.15.68-.23 1.1-.32 2.49-.91 4.82-.22 7.43-.55 1.1-.39 1.86-.7 2.92-1.08 4.42.9 8.63-.08 13.13.6-4.19 7.95-10.64 14.1-16.89 20.4-9.45 9.56-19.3 18.73-28.29 28.71a357 357 0 0 0-38.02 51 373 373 0 0 0-25.9 49.96 251 251 0 0 0-12.62 36.38c-1.92 7.5-3.87 14.95-5.19 22.96-.2.48-.31.59-.58.86-.16.16-.14.1-.11.12-.95 1.46-.17 3.11-.67 4.93-.17.3-.24.24-.2.2-.9 1.48-.16 3.17-.67 5.04-.18.47-.19.63-.29 1.02-.6 2.57-.11 4.95-.56 7.6-.18.3-.16.7-.23.88-.7 2.34-.22 4.56-.37 7.12.01 7.59-.04 14.8.13 22.39.17.51.23.65.3 1.03.88 2.2.19 4.28.51 6.63 1.73 3.08 1.77 6.27 2.51 9.26 2.51 10.21 7.04 19.36 14.15 27.13.74.8 1.92 1.5 1.46 2.84-.54 1.56-1.91.64-3.27.75-2.07-.51-3.84-.1-5.86-.51-11.38-2.49-19.05-9.58-24.9-18.82-5.7-9.02-9.8-18.75-10.99-29.82-.66-1.21-.28-2.3-.58-3.58-.16-.27-.31-.57-.27-.74-.9-2.81-.16-5.56-.4-8.65v-22.17c.04-3.14-.06-5.88.26-8.98.19-.36.1-.7.18-.85.82-1.97.17-3.88.67-6.04.17-.3.14-.69.21-.87.72-1.67.2-3.26.63-5.07-.14-2.47.15-4.59 1.14-6.96.58-2.13.1-3.97.6-6.07.15-.3.06-.59.13-.72.3-.42.43-.75.43-1.4.01-.8 0-1.35.3-2.1a217 217 0 0 1 13.63-41.43c4.42-10 9.6-19.61 15.2-29.05 6.42-10.83 13.55-21.13 20.75-31.37 4.82-6.87 10.51-13.16 15.75-19.74 7.67-9.63 16.32-18.27 24.56-27.31 1.9-2.08 4.52-3.5 5.6-6.66-.12-.42-.37-.27-.5-.22-13.52 4-27.26 6.39-40.75 9.81-.53.14-1.13 0-2.05-.08-.5-.1-.65-.12-.94 0-.15.16-.11.1-.08.12-.86.68-1.91.28-3.14.6-.26.16-.56.3-.72.27-1.86.82-3.68.2-5.75.5a6.7 6.7 0 0 1-4.42 1.18c-2.03.9-3.86.2-5.93.59-.31.11-.69.3-.9.28-1.69.83-3.31.21-5.16.61-.3.15-.6.3-.77.28-.37.07-.56.17-1.09.33-2.54.09-4.74.02-7.27.18-.72.17-1.11.26-1.82.33-2.3.9-4.44.15-6.81.57-.33.12-.68.3-.88.29-.4.1-.63.22-1.21.37-5.31.06-10.25 0-15.55.13-.78.17-1.2.27-1.94.35-4.1.88-7.91.24-12.07.18-.56-.2-.75-.22-1.2-.35-5.1-.52-9.95-.1-15.12-.52-.33-.19-.71-.14-.89-.22-1.66-.73-3.25-.18-5.05-.65-.45-.17-.61-.18-1-.29-2.54-.6-4.91-.1-7.56-.58-.3-.17-.65-.1-.81-.18-1.38-.74-2.74-.2-4.28-.68-.28-.16-.7-.14-.9-.23-1.68-.66-3.25-.15-5.05-.63-2.99-.6-5.69-1.03-8.55-1.79-1.94-.75-3.79-.33-5.89-.77-11.28-2.13-22.02-4.74-32.45-8.99-13.91-5.66-26.55-13.37-38.9-21.8-13.75-9.39-23.81-21.55-29.28-37.45-1.6-4.65-2.3-9.51-3.18-14.68-.86-2.39-.19-4.54-.4-7.03v-15.98c.02-1.73-.02-3.06.24-4.74 1.06-11.92 5.02-22.5 11.04-32.22 8.13-13.12 18.77-24.14 30.73-33.63 9.43-7.5 19.6-14 30.68-19.1 9.71-4.47 19.8-7.36 29.98-10.21 2.15-.6 4.5-.12 6.9-1.17 2.33-.9 4.43-.16 6.79-.54.46-.16.6-.23.95-.3 3.32-.92 6.48-.19 9.96-.52.5-.14.66-.22 1.08-.32 9.19-.97 18.15-.22 27.47-.22.53.2.68.22 1.05.33 4.8.6 9.4.1 14.34.54.34.18.74.19.92.27 1.97.62 3.8.23 5.97.35 1.5.02 2.67-.05 4.13.25 2.3.94 4.36 1.23 6.83 1.16 2.12.57 3.93.1 6 .58 10.05 2.68 19.8 5.28 29.59 7.7 13.2 3.28 26.07 7.69 39.1 11.6 19.8 5.93 38.59 14.25 56.99 23.64 15.7 8 30.82 16.8 43.82 28.93 2.27 2.11 5.5 5.73 4.1 7.5-1.8 2.23-5.17-.91-7.7-2.3a365 365 0 0 0-86.28-33.63c-3.39-.85-6.85-1.44-10.62-2.26a2 2 0 0 1-.81-.58c-.15-.16-.11-.13-.13-.1-1.2-.9-2.63-.18-4.18-.7-3.1.2-5.68-1.01-8.52-1.72-1.95-.94-3.83-.37-5.95-.86-.3-.18-.66-.11-.82-.19-1.34-.73-2.65-.22-4.14-.64-.27-.17-.22-.25-.18-.22-2.05-.93-4.27-.1-6.73-.66-.31-.18-.71-.14-.89-.23a3.3 3.3 0 0 0-1.72-.37c-1.81-.05-3.31.1-5.08-.28-.28-.17-.64-.1-.81-.18-2.24-.8-4.39-.16-6.79-.65-.46-.18-.63-.18-1.01-.29-4.21-.62-8.22-.12-12.54-.56-.33-.19-.73-.17-.92-.24-6.11-.75-12.05-.23-18.33-.21-.35.12-.73.27-.93.26-2.25.9-4.4.21-6.84.43-1.49.01-2.63-.03-4.1.14-.32.11-.7.3-.9.3-2.26.9-4.43.16-6.85.6-.32.14-.65.3-.82.27-2.2.89-4.35.16-6.74.57m354.68-198.71c.2-.36.14-.69.2-.85.79-2.34.23-4.6.4-7.2 0-7.82-.07-15.25.03-22.69a67 67 0 0 0-1.06-13.56c-.14-.37-.3-.69-.27-.86-.07-.35-.16-.53-.32-1.01-.1-1.52-.03-2.74-.26-4.23-.15-.26-.3-.58-.27-.76a5 5 0 0 1-.4-2.25c0-1.13.02-1.95-.18-3.03-.16-.26-.3-.58-.27-.75-.72-1.4-.24-2.77-.59-4.35-.14-.3-.28-.63-.25-.8-.84-1.9-.2-3.76-.53-5.87-.17-.48-.23-.62-.3-1a4 4 0 0 1-.42-2.23c-.01-1.08.01-1.86-.16-2.92-.12-.26-.3-.64-.28-.85-.82-1.68-.21-3.29-.58-5.13-.12-.31-.3-.69-.27-.89-.85-1.9-.2-3.73-.51-5.8-2.06-5.02-2.22-10.14-3.45-15.02-2.78-11.03-6.61-21.65-10.34-32.34a165 165 0 0 1-2.71-8.54c-.6-2.02-1.16-3.73-1.34-5.85-.44-.9-1-1.45-1.14-2.1-.18-.92-.54-2.19.56-2.67 1.15-.5 1.49.7 2.12 1.45 16.52 19.33 24.37 42.91 32.14 66.54 2.98 9.07 5.1 18.45 9.22 27.45.93 2.47 1.33 4.8 2.53 7.16.21.23.13.2.15.17.8 2.05 1.19 4.27 2.28 6.57 2.58 4.86 3.24 9.98 4.52 15.25.6 1.15.34 2.11.4 3.37.68 4.15 1.64 7.9 1.86 12.12.19.45.25.58.28.93.37 4.92 1.12 9.6 1.26 14.73v19.38c-.01 2.02.04 3.63-.23 5.6-.18.51-.17.67-.25 1.04-.6 3.4-.1 6.69-1.21 10.15-.35 4.33-.86 8.29-1.5 12.58-.32 2.11-.16 3.9-.2 6.01-.46 1.95-.08 3.67-.34 4.95.23-.53.2-1.5.6-2.64 2.3-2.5 1.59-5.92 3.54-8.58.62-.87.36-1.65.68-2.57.14-.23.17-.18.14-.17.42-.34.47-.87.74-1.58.17-.64.2-1.07.32-1.81.21-.4.32-.51.59-.75.17-.14.1-.08.07-.1.67-.61.37-1.47.69-2.44.15-.25.17-.2.14-.19.43-.34.47-.88.75-1.6a282 282 0 0 1 24.86-50.72c9.29-14.9 20.71-27.69 33.86-39 11.17-9.6 23.5-17.4 36.58-24.23 12.69-6.63 26.18-9.88 40.35-12.35 1.52-.74 2.85-.21 4.38-.56.29-.13.67-.28.88-.26 1.68-.85 3.29-.24 5.21-.42h15.03c2.24.02 4.09-.05 6.28.24 3.65-1.06 6.05 2.25 9.52 2.06 1.76.46 3.22.13 4.86.56 6.54 2.74 13.4 3.78 19.21 7.72 12.05 8.17 20.93 18.43 22.74 33.95.84 2.59.17 4.94.48 7.57.16 1.69.25 3.03.24 4.78-.6 2.14-.17 3.94-.52 6-.17.47-.2.63-.34 1.02-.57 1.7-.16 3.24-.56 5.01a136 136 0 0 1-9.4 36.91c-.47 1.19-1.1 1.96-2.4 1.92-1.53-.04-1.18-1.36-1.4-2.21-.48-2.01-.86-4.05-1.26-6.35-.46-7.04-.76-13.81-.73-20.94-.16-.5-.23-.65-.3-1.04-.93-3.05-.16-5.96-.51-9.16-1.73-4.4-1.86-8.82-3.64-12.93-3.72-8.63-7.94-16.48-17.9-19.66a2 2 0 0 1-.76-.57c-.15-.15-.13-.12-.15-.12a37 37 0 0 0-14 .3c-8.34 1.5-15.92 4.47-23.8 7.46-.56.13-.79.32-1.13.7-.13.2-.14.12-.12.15-.61.51-1.37.33-2.31.6-4.16 2.5-8.06 4.92-12.04 7.2-9.23 5.28-16.97 12.35-24.5 19.83a385 385 0 0 0-53.24 66.08c-10.2 16-20.02 32.36-27.8 49.82-.5 1.1-.86 2.44-2.4 3.18-.74.73-.5 1.5-.82 2.4-.14.24-.16.18-.13.18-.43.33-.48.85-.74 1.56-.13.23-.15.17-.12.17a3 3 0 0 0-.75.71c-.15 1.73-.97 2.96-2 4.44a3 3 0 0 1-.61.7c-.17.12-.1.08-.08.11-1.15 2.39-2.61 4.62-3.22 7.56-.16.26-.17.2-.14.19-.41.33-.47.85-.73 1.56-.13.23-.15.17-.12.16-.77.58-1.1 1.48-1.64 2.58-4.38 10-8.69 19.72-12.88 29.49-3.2 7.45-6.25 14.97-9.47 22.78-.22.42-.33.53-.61.77-.17.14-.12.07-.08.1-.9 1.15-1.12 2.54-1.53 4.18-3.48 9.48-6.75 18.71-10.15 27.9-.6 1.6-1.23 3.43-3.59 3.87-2.34-.56-4.4-.1-6.73-.52-3.63.55-4.79-1.4-5.23-4.25-.27-1.79-.58-3.57-.86-5.7-.75-1.52-.25-2.86-.59-4.41-.13-.3-.3-.66-.27-.86-.83-1.87-.2-3.67-.48-5.72-2.43-5.74-2.27-11.72-3.69-17.37-.81-3.24-3.27-6.33-1.82-10.32-.87-3.18-.1-6.13-.5-9.4-.16-.49-.22-.63-.28-1-.95-6.06-.23-11.93-.2-18.15.2-.83.22-1.28.36-2.05.44-2.88.11-5.47.5-8.35.18-.48.2-.66.31-1.08.53-2.55.13-4.89.54-7.5.18-.45.18-.6.26-.96.66-2.24.16-4.33.54-6.7.18-.97.2-1.64.31-2.63.63-2.05.19-3.84.53-5.89.18-1 .22-1.7.36-2.73.58-2.66.13-5.02.53-7.65.19-.71.2-1.12.3-1.81.64-3.47.13-6.69.56-10.2.2-.5.21-.68.33-1.12.53-3.43.1-6.63.53-10.13.18-.47.17-.62.26-.96.68-3.12.12-6.08.59-9.34.18-.32.16-.74.24-.92.73-2.82.14-5.5.6-8.46.2-.5.2-.67.33-1.1.54-3.7.1-7.19.53-10.98.17-.33.15-.73.23-.9.72-2.91.22-5.68.38-8.81.38-8.62 1.2-16.84 1.1-25.45m-96.99 87.83c.13.34.3.69.29.89.29 4.05 1.07 7.85 1.43 12.04 2.44 6.46 3.6 12.96 6.23 18.99.66 1.49 2.08 2.78 1.7 5 .82 3.02.2 5.78.13 8.87.02 4.87-2.41 8.51-4.5 12.08-1.56 2.67-3.22.22-4.05-1.14a262 262 0 0 1-9.56-16.6c-2.03-3.96-5.3-7.19-6.63-11.87-.28-.5-.48-.72-.85-1.06-.18-.13-.12-.14-.13-.1-.31-.4-.38-.93-.73-1.58-.18-.18-.12-.17-.13-.14-.3-.4-.37-.92-.7-1.6-.17-.18-.08-.2-.08-.15-.56-.53-.36-1.49-1.23-2.2a1838 1838 0 0 1-20.96-37.95c-2.54-4.78-6.24-8.92-7.68-14.63-1.42-2.25-2.05-4.62-3.72-6.7-.32-.27-.4-.4-.45-.74-.29-.68-.4-1.23-.73-1.97-.2-.2-.14-.18-.15-.15-.46-.58-.35-1.3-.54-2.23-3.6-5.54-5.04-11.79-8-17.36-4.91-9.25-8.8-19.08-14.53-27.87-10.54-16.18-20.49-32.74-33.55-47.2-10.8-11.96-22.7-22.29-36.28-30.7-7-4.32-14.52-7.58-22.62-10.31-3.93-.63-7.56-.3-11.51-.22-.32.13-.69.3-.9.28-.65.3-1.2.4-1.9.74-.2.19-.18.13-.15.14-.6.52-1.39.33-2.32.62-1.19 2.21-3.52 2.73-5.13 4.45-.65.44-.66.94-.9 1.61-.1.22-.2.16-.15.18-.2.16-.43.34-.74.74-.12.18-.12.12-.09.12a3 3 0 0 0-.78.78c-5.22 6.91-7.16 14.96-9.58 23.18-.58 1.8-.16 3.32-.59 5.08-.16.66-.15 1.05-.23 1.71-.69 7.07-.23 13.87-.22 21.02.18.74.25 1.13.3 1.8.87 2.25.18 4.31.5 6.64.14.5.22.68.32 1.14.8 1.43.26 2.74.59 4.24 1.96 8.87 3.94 17.4 7.8 25.67.29.58.48.88.83 1.4.13.23.23.35.17.4.38.78.4 1.59.57 2.67.97 1.78 1.8 3.3 2.72 5.08.26.53.45.76.84 1.11.2.13.12.14.14.11.3.41.37.93.72 1.59.19.17.12.17.14.14.47.6.33 1.35.53 2.3 4.06 6.27 8.03 12.28 11.93 18.34 9.18 14.26 20 27.28 30.12 40.83a1340 1340 0 0 1 25.39 34.81c12.7 18.2 24.5 36.98 36.22 55.8 6.94 11.15 14.24 22.18 19.6 34.28.85 1.91 3.15 4.32 1.1 6.05-2.32 1.96-3.61-1.43-4.9-2.64-6.34-5.97-11.87-12.7-17.29-19.53-9.7-12.24-19.6-24.33-29.48-36.43-8.45-10.34-16.98-20.62-25.57-31.19a3 3 0 0 0-.85-1.15c-.2-.13-.13-.13-.13-.1a3 3 0 0 0-.73-.76c-.18-.11-.1-.15-.13-.12-.3-.4-.38-.88-.62-1.55-5.28-4.01-8.5-9.61-12.73-14.27-4.52-4.95-8.77-10.16-13.4-15.03-11.19-11.77-22.61-23.32-33.37-35.48-11.88-13.43-22.15-28.1-29.85-44.8-.41-.73-.51-1.28-.85-2-.19-.2-.12-.18-.13-.15-.55-.63-.3-1.47-.7-2.43-.18-.22-.1-.2-.12-.16-.35-.37-.41-.9-.75-1.57-.18-.18-.11-.17-.12-.13-.33-.39-.4-.91-.74-1.57-.18-.18-.12-.17-.13-.14-.53-.64-.3-1.48-.68-2.44-.2-.22-.12-.26-.1-.23-.08-.06-.2-.15-.48-.4a96 96 0 0 1-4.67-17.02c-.48-1-.4-1.8-.4-2.85 0-.68-.02-1.06-.2-1.7-.14-.24-.3-.55-.26-.72-.78-1.64-.2-3.26-.55-5.12a3 3 0 0 1-.28-.92c-.9-2.79-.16-5.46-.54-8.41-.17-.5-.24-.64-.3-1.02-.94-3.5-.22-6.83-.19-10.5.2-.51.19-.67.27-1.04.68-2.86.12-5.55.6-8.53.18-.32.14-.73.27-1.14 2.24-18.39 12.1-31.84 25.23-43.11 6.87-5.9 15.26-9.23 23.9-11.66 3.89-1.08 7.8-2.36 12.33-1.69 6.7-.88 13.05-.2 19.77-.18 1.61.2 2.85.21 4.45.33 1.82.55 3.35.13 5.1.58 4.63 1.42 9.04 2.44 13.18 4.33 9.1 4.16 17.55 9.33 25.18 15.89 13.9 11.94 22.45 27.62 29.99 43.92 4.49 9.7 8.24 19.77 12.42 29.95.25.56.43.8.82 1.16.19.14.13.14.14.11.18.24.37.49.68.95.11.2.22.33.16.39.2.58.39 1.14.7 1.92.22.2.14.2.17.18.47.62.33 1.36.54 2.3 1.53 2.6 2.93 5 4.42 7.66.27.51.46.74.85 1.08.18.13.11.14.13.11.31.4.37.93.72 1.58.19.18.12.17.13.14.3.4.37.92.72 1.58.18.18.12.17.13.14.29.38.38.86.6 1.53 10.36 17.14 20.02 34.41 30.57 51.16 5.83 9.26 11.88 18.45 17.15 28.41 1.38.24 1.38.24 1.24-2.5-1.7-2.51-.85-5.32-1.82-8.3-.03-.58-.22-.94-.2-1.15-.6-1.15-.3-2.23-.58-3.53-.14-.28-.3-.62-.26-.8-.8-1.6-.23-3.16-.51-4.95-.51-1.1-1.24-1.84-.44-3.1-.08-.36-.2-.44-.45-.7-.14-.17-.32-.48-.3-.66-.76-1.45-.22-2.9-.69-4.5-.21-.28-.14-.24-.15-.2-.77-1.14-.24-2.46-.6-3.98-.12-.29-.31-.62-.3-.8-.7-1.47-.19-2.88-.64-4.48-.21-.27-.14-.22-.16-.19-.8-1.34-.23-2.85-.52-4.58-.38-1-.66-1.7-1.06-2.68-.9-1.53-.35-2.96-.82-4.56-.2-.27-.13-.23-.15-.19-.8-1.34-.24-2.84-.52-4.58a34 34 0 0 1-.4-2.14c-.04-.37-.34-.6-.48-.73s-.33-.5-.32-.71c-.62-1.15-.3-2.24-.58-3.54-.13-.28-.3-.6-.26-.77-.8-1.65-.22-3.28-.55-5.15-1.93-3.37-2.3-6.83-2.74-10.84.06-.6-.13-.95-.11-1.16-.78-1.63-.24-3.2-.52-5-1.8-3.01-1.21-6.24-2.05-9.49-.72-1.52-.23-2.84-.54-4.38-.12-.3-.3-.68-.28-.9-.86-1.9-.21-3.72-.52-5.8-1.53-3.98-1.46-7.91-2.06-12.07-.86-2.35-.16-4.45-.5-6.82-.15-.49-.22-.64-.3-1.04-.9-2.21-.2-4.3-.54-6.65-.17-.74-.26-1.14-.34-1.86-.84-2.02-.2-3.85-.53-5.93-.17-1.57-.24-2.8-.32-4.42-.92-7.47-.22-14.6-.39-21.7-.09-3.86-.07-7.72.2-11.96.18-1.3.2-2.23.27-3.49.66-1.79.2-3.32.54-5.1.2-7.78 2.09-15.02 3.56-22.53.73-1.7.34-3.28.77-5.1.16-.45.16-.6.28-1.14 1.81-9 3.45-17.6 5.23-26.19.52-2.49 1.47-4.9 2.25-7.66.65-1.6.35-3 .78-4.63.14-.3 0-.5.07-.6.44-.52.47-1.08.74-1.84.47-3.03 1.18-5.7 2.66-8.4.59-1.49.44-2.79.7-4.33.17-.28.2-.2.16-.2.72-.6.35-1.52.75-2.54 2.07-7.74 5.5-14.3 11.2-19.63 2.31-2.14 5.4-1.95 8.19-3.44 8.03.73 15.79.03 23.88.52 6.06 1.94 11.77 3.26 17.07 6.6 8.34 5.26 14.22 12.42 18.8 20.87 1.39 2.57 3.2 5.05 3.5 8.46.12.46.24.58.54.91.17.2.32.5.3.67.21 2.25 1.75 4.61-1.67 5.79-7.58-5.39-14.76-10.62-22-15.76-2.37-1.68-4.92-3.1-7.34-4.7-2.48-1.65-4.11-1.31-4.82 2.15-.22.42-.33.53-.63.8-.18.16-.14.08-.1.1-.65.6-.36 1.46-.67 2.44-.15.25-.18.2-.15.2-.27.26-.46.6-.67 1.25-.2.74-.24 1.23-.38 2.06-.2.46-.31.57-.6.81-.16.15-.11.07-.07.1-.66.61-.37 1.46-.68 2.45-.15.25-.17.2-.14.2-.43.32-.47.86-.78 1.55-.14.22-.14.14-.1.14-.67.58-.36 1.43-.68 2.4-.15.25-.17.2-.14.19-.42.33-.48.85-.74 1.56-.13.22-.14.16-.11.15-.44.34-.48.9-.76 1.61a7047 7047 0 0 0-13.36 31.12c-3.48 8.16-5.46 16.8-8.35 25.77-.27.53-.33.79-.47.8-.86 1.2-.3 2.54-.75 4.05-.19.96-.2 1.65-.33 2.67-.22.43-.32.53-.6.77-.16.14-.1.1-.08.12-.93 1.23-.15 2.7-.72 4.3-.16.3-.07.6-.14.74-.74 1.12-.21 2.3-.74 3.62-.14.3-.02.54-.1.66-2.27 7.3-2.45 14.8-3.73 22.5-.14 3.4-.1 6.43-.11 9.85-.02 1.68.05 2.97-.26 4.6-.2.33-.07.62-.14.76-.9 9.36-.27 18.6-.23 28.2.16.35.3.64.24.78.84 1.85.2 3.67.36 5.81-.5 11.16.96 21.87 1.14 32.94.22.31.15.26.17.23.54.58.38 1.32.42 2.4v1.46c-.43 6.08 1.14 11.7.85 17.77.02 2.57-.05 4.76.22 7.28.17.32.29.64.24.8.8 1.6.21 3.17.39 5.05.03 3.93-.06 7.48.27 11.33.22.3.16.28.17.24.83 6.43.22 12.98 1.17 19.46.38 2.64.33 5.37.93 8.39.03 1.59-.02 2.8.19 4.35m491.81 98.62c-2.96-8.55-9-13.3-16.69-16.66-6.9-3.03-14.27-4.43-21.67-6.93-1.76-.62-3.27-.19-5-.6-.27-.16-.21-.23-.17-.2-1.47-.89-3.15-.15-5.01-.66-.3-.19-.71-.17-.9-.25-1.95-.7-3.77-.17-5.83-.6-1.49-.19-2.7-.18-4.26-.26-7.93-.68-15.52-.23-23.47-.21-4.36.43-8.27 1.83-12.74 1.16-2.1.88-3.95.16-6.04.57-.31.13-.68.3-.89.28-1.88.87-3.7.2-5.76.53-3.56.53-6.54 2.16-10.23 2.05-1.78.8-3.37.22-5.2.51-.8 1.61-2.07 1.04-3.42 1.18-1.75.86-3.32.23-5.1.55-4.34 2.74-9.13 3.21-13.56 4.45-11.86 3.3-23.36 7.6-34.66 12.34a378 378 0 0 0-45.62 23.07c-15.43 9.09-30.64 18.58-46.25 27.34-12.7 7.14-25.65 14.02-40.9 15.5-4.67.9-9.03.22-13.77.27-2.12-1.8-.3-2.95.31-4.16 5.37-10.62 14.08-18.23 22.98-25.6 9.31-7.71 18.8-15.18 28.25-22.72 7.79-6.2 15.8-12.15 23.38-18.6a203 203 0 0 0 17.1-16.3c3.95-4.24 8.54-7.73 12.46-12.04 8.76-9.63 16.63-19.92 24.36-30.4 7.43-10.04 13.21-21.04 19.83-31.56 7.83-12.45 14.85-25.36 22.15-38.12.61-1.08.83-2.5 2.8-2.42 1.13 2.13.57 4.26.48 6.7-.19.36-.13.75-.2.94-.76 1.64-.22 3.21-.64 5-.16.28-.2.21-.16.2a34 34 0 0 0-1.6 7.76c-.16.32-.03.56-.1.68-.7 1.3-.77 2.64-1.07 4.16.6 1.5-.6 2.28-.8 3.66-1.1 1.33-1.14 2.64-1.37 4.18-.14.24-.17.18-.14.17-.72.58-.37 1.48-.74 2.47-1.9 8.06-5.14 15.33-8.2 22.64a231 231 0 0 1-21.75 40.44c-1.88 2.79-3.94 5.45-6.09 8.4-.16.24-.11.6.04.67a887 887 0 0 0 23.77-12.36c17.17-9.36 35.2-16.5 54.23-20.77 4.56-1.02 9.2-2.51 14.4-2.04 1.5-.74 2.76-.27 4.32-.4 4.03-.02 7.7.03 11.7-.13 2.12-.74 4.12.22 6.15-.98 3.2.61 6.1.12 9.3.07.3-.13.66-.28.85-.26 6-.97 11.83-.19 18.02-.18.52.19.66.18 1.01.26 2.25.7 4.36.15 6.72.6 4.92-.24 8.98 2.2 13.75 2.94 1.49.4 2.66.13 4.05.48.25.15.19.18.18.15.34.42.88.47 1.6.75 7.1 2.6 13.65 5.67 20.15 9.15 14.57 7.82 21.99 20.63 26.86 35.6.8 2.49 1.09 5.15 1.58 8.08.64 1.27.28 2.36.58 3.63.15.27.3.66.26.86.86 3.13.23 6.11.16 9.43-.96 8.52-3.78 16.08-6.77 23.6-4.84 12.2-10.6 23.83-19.58 33.9l-.86 1.1c-.12.19-.15.13-.11.14a3 3 0 0 0-.76.73c-.12.18-.12.12-.1.12-.23.17-.47.38-.79.84-.1.53-.25.75-.75.87-.51.25-.86.4-1.52.52-2.7 4.78-6.84 8.03-10.75 11.12-19.9 15.77-41.21 29.38-64.4 39.75-10.66 4.78-21.37 9.7-33.48 11.24-2.32.88-4.4.19-6.76.52-1.28.17-2.22.26-3.53.34-2.33.88-4.41.18-6.76.54-.46.16-.59.23-.95.3-4.6.93-9.03.23-13.8.2-1.04-.28-1.96-.12-2.34-.5-.76-.75.2-1.02.67-1.5 2.22-2.21 5.18-2.63 7.96-3.4a349 349 0 0 0 43.25-14.74c18.89-7.95 35.4-19.55 51.31-32.13 9.97-7.88 18.58-17.26 26.2-27.5 7.42-9.98 14.6-20.13 18.49-32.18.76-2.36 1.42-4.75 2.23-7.44.6-3.73.26-7.17.11-10.9"/><path fill="#fff" d="M813.72 600.5c-.16-2-.24-3.67-.21-5.75.54-2.16.11-3.96.56-6 .16-.45.15-.6.27-1.14 1.36-8.02 4.32-14.96 8.1-21.66 6.27-11.1 15.25-19.8 24.92-28.79-2.76.4-4.88 1.46-7.32.57 6.8-12.83 17.26-20.5 30.75-24.8 5.74-1.84 11.62-2.64 17.72-4.09 2.9-.9 5.55-.15 8.49-.54.5-.17.66-.24 1.07-.3 1.68-.84 3.24-.25 5.1-.42h9.13c1.65 0 2.92-.04 4.52.23.5.2.66.19 1.06.27 2.57.7 4.97.12 7.64.6 6.85 1.8 13.56 2.8 19.84 5.3 7.59 3.02 15.2 6.06 21.38 11.74 1.31 1.2 2.78 2.24 4.38 3.54l1.12.87c.2.12.13.16.15.13.15.21.33.44.72.74.18.12.1.15.13.12l.67.88c.26.37.4.54.7.8.39.27.62.45 1.04.76.19.12.11.18.14.14.36.44.35 1.07 1 1.65a163 163 0 0 1 8.7 11.85c3.94 6.06 6.07 12.77 7.98 20.14.03.68.1.8.14 1.14.9 2.77.17 5.41.51 8.34.15 3.47.23 6.58.18 10.1-.5 3.3-.09 6.2-.53 9.4-.18.32-.12.69-.2.85-.67 1.12-.22 2.22-.68 3.48-3.22 20.26-14.97 34.1-31.22 44.66-12.02 7.8-24.9 13.76-38.8 17.33-1.47.38-2.88 1.02-4.65 1.5-6.51.23-12.58 1.92-19.16 1.41-3.64.16-6.94.26-10.65.27-2.16-.65-4-.15-6.06-.6-.3-.18-.7-.15-.9-.23-1.4-.66-2.71-.2-4.23-.63-8.14-1.16-15.19-4.48-21.87-8.5-13.63-8.22-25.8-18.15-34.61-31.76-3.27-5.05-5.33-10.64-6.54-16.88-.86-2.3-.16-4.37-.48-6.72"/></g></svg>