<svg xmlns="http://www.w3.org/2000/svg" xmlns:graphite="https://graphite.art" viewBox="0 0 146 144" width="146" height="144"><defs><clipPath id="artboard-16355140569346655957"><rect x="0" y="0" width="146" height="144" /></clipPath></defs><g>
<g clip-path="url(#artboard-16355140569346655957)">
	<g>
		<g>
			<g>
				<g>
					<path d="M43.95000076293945,18.010000228881836 C44.86000061035156,19.399999618530273 45.59000015258789,20.920000076293945 46.02000045776367,22.559999465942383 C46.369998931884766,24.40999984741211 46.43000030517578,25.459999084472656 47.349998474121094,27.149999618530273 C47.66999816894531,27.90999984741211 48.150001525878906,28.760000228881836 48.279998779296875,29.600000381469727 C48.380001068115234,30.09000015258789 48.349998474121094,30.610000610351563 48.310001373291016,31.020000457763672 C47.91999816894531,36.2400016784668 48.130001068115234,41.689998626708984 47.95000076293945,46.95000076293945 C47.93000030517578,49.209999084472656 47.7400016784668,51.400001525878906 48.04999923706055,53.58000183105469 C48.470001220703125,54.810001373291016 48.43000030517578,56.2599983215332 48.2400016784668,57.459999084472656 C48.29999923706055,57.33000183105469 48.06999969482422,56.720001220703125 47.75,56.52000045776367 C47.47999954223633,56.33000183105469 47.349998474121094,56.33000183105469 47.290000915527344,56.310001373291016 C47.220001220703125,56.310001373291016 47.209999084472656,56.310001373291016 47.209999084472656,56.290000915527344 C47.369998931884766,56.2400016784668 47.650001525878906,56.06999969482422 47.68000030517578,55.97999954223633 C47.88999938964844,55.119998931884766 46.88999938964844,52.7599983215332 46.61000061035156,51.77000045776367 C45.439998626708984,48.560001373291016 45.209999084472656,44.650001525878906 45.959999084472656,41.2599983215332 C47.13999938964844,34.939998626708984 46.470001220703125,28.639999389648438 45.29999923706055,22.280000686645508 C45.25,22.06999969482422 45.56999969482422,21.940000534057617 45.68000030517578,22.139999389648438 C47.349998474121094,25.030000686645508 48.56999969482422,28.200000762939453 49.31999969482422,31.520000457763672 C50.09000015258789,34.84000015258789 50.2599983215332,38.380001068115234 49.93000030517578,41.77000045776367 C49.75,43.459999084472656 49.59000015258789,44.880001068115234 49.68000030517578,46.279998779296875 C49.779998779296875,48.36000061035156 50.5,50.9900016784668 51,53.130001068115234 C51.349998474121094,54.5 51.61000061035156,56.939998626708984 50.2599983215332,58.279998779296875 C48.90999984741211,59.84000015258789 45.47999954223633,60.40999984741211 45.0099983215332,57.84000015258789 C44.91999816894531,56.619998931884766 45.47999954223633,55.720001220703125 45.16999816894531,54.599998474121094 C44.709999084472656,52.029998779296875 45.209999084472656,49.34000015258789 45.349998474121094,46.810001373291016 C45.79999923706055,41.84000015258789 45.970001220703125,37.040000915527344 46.599998474121094,32.06999969482422 C47.0099983215332,30.209999084472656 46.95000076293945,29.350000381469727 46.20000076293945,27.6299991607666 C45.939998626708984,26.860000610351563 45.59000015258789,26.1200008392334 45.40999984741211,25.200000762939453 C45.27000045776367,24.260000228881836 45.34000015258789,23.530000686645508 45.18000030517578,22.75 C44.91999816894531,21.18000030517578 44.36000061035156,19.649999618530273 43.59000015258789,18.219999313354492 C43.470001220703125,18.020000457763672 43.79999923706055,17.799999237060547 43.93000030517578,18.010000228881836 C43.93000030517578,18.010000228881836 43.95000076293945,18.010000228881836 43.95000076293945,18.010000228881836 C43.95000076293945,18.010000228881836 43.95000076293945,18.010000228881836 43.95000076293945,18.010000228881836 Z" fill="#367763"/>
				</g>
				<g>
					<path d="M38.02000045776367,24.8700008392334 C40.27000045776367,25.440000534057617 42.540000915527344,26.739999771118164 44.060001373291016,28.530000686645508 C44.790000915527344,29.219999313354492 45.650001525878906,29.149999618530273 46.34000015258789,30.100000381469727 C47.09000015258789,31.040000915527344 48.060001373291016,32.61000061035156 47.529998779296875,33.93000030517578 C47.470001220703125,34.06999969482422 47.310001373291016,34.13999938964844 47.16999816894531,34.099998474121094 C45.9900016784668,33.709999084472656 44.970001220703125,33.84000015258789 43.86000061035156,33.25 C42.22999954223633,32.4900016784668 41.529998779296875,30.450000762939453 40.75,29 C39.970001220703125,27.600000381469727 38.970001220703125,26.420000076293945 37.81999969482422,25.229999542236328 C37.66999816894531,25.09000015258789 37.81999969482422,24.829999923706055 38.02000045776367,24.8799991607666 C38.02000045776367,24.8799991607666 38.02000045776367,24.8799991607666 38.02000045776367,24.8799991607666 C38.02000045776367,24.8799991607666 38.02000045776367,24.8700008392334 38.02000045776367,24.8700008392334 Z" fill="#367763"/>
				</g>
				<g>
					<path d="M55.099998474121094,20.989999771118164 C54.29999923706055,22.690000534057617 53.16999816894531,24.34000015258789 52.040000915527344,25.84000015258789 C51.560001373291016,26.43000030517578 51.29999923706055,26.93000030517578 51.119998931884766,27.649999618530273 C50.560001373291016,29.170000076293945 49.310001373291016,30.06999969482422 47.86000061035156,30.959999084472656 C47.72999954223633,31.040000915527344 47.54999923706055,30.989999771118164 47.470001220703125,30.860000610351563 C46.709999084472656,29.649999618530273 46.58000183105469,28.3799991607666 46.88999938964844,27.06999969482422 C47.36000061035156,25.270000457763672 49.279998779296875,24.270000457763672 50.68000030517578,23.270000457763672 C52.029998779296875,22.459999084472656 53.45000076293945,21.56999969482422 54.790000915527344,20.729999542236328 C54.959999084472656,20.610000610351563 55.189998626708984,20.809999465942383 55.09000015258789,20.989999771118164 C55.09000015258789,20.989999771118164 55.09000015258789,20.989999771118164 55.09000015258789,20.989999771118164 C55.09000015258789,20.989999771118164 55.099998474121094,20.989999771118164 55.099998474121094,20.989999771118164 Z" fill="#367763"/>
				</g>
				<g>
					<path d="M46.70000076293945,39.7599983215332 C41.68000030517578,41.72999954223633 35.38999938964844,43.630001068115234 32.130001068115234,38.81999969482422 C29.450000762939453,35.75 27.649999618530273,32.04999923706055 30.690000534057617,28.450000762939453 C31,27.950000762939453 30.639999389648438,28.31999969482422 30.770000457763672,28.610000610351563 C30.829999923706055,28.780000686645508 30.940000534057617,28.81999969482422 30.729999542236328,28.709999084472656 C26.90999984741211,27.200000762939453 22.65999984741211,21.549999237060547 26.389999389648438,17.729999542236328 C27.389999389648438,16.809999465942383 28.510000228881836,16.40999984741211 29.399999618530273,15.779999732971191 C32.27000045776367,13.779999732971191 34.279998779296875,10.960000038146973 33.79999923706055,7.710000038146973 C33.13999938964844,2.740000009536743 38.439998626708984,-1.2699999809265137 43.20000076293945,0.3700000047683716 C44.18000030517578,0.6399999856948853 45.470001220703125,1.6799999475479126 46.029998779296875,2.359999895095825 C46.470001220703125,2.869999885559082 46.709999084472656,2.940000057220459 46.900001525878906,3.0399999618530273 C49.70000076293945,3.0999999046325684 53.470001220703125,2.130000114440918 56.68000030517578,1.7000000476837158 C59.83000183105469,1.6799999475479126 62.900001525878906,2.880000114440918 64.8499984741211,5.489999771118164 C66.7699966430664,8.40999984741211 65.19999694824219,11.210000038146973 63.150001525878906,13.1899995803833 C63.040000915527344,13.329999923706055 63.09000015258789,13.3100004196167 63.130001068115234,13.079999923706055 C63.189998626708984,12.829999923706055 63.08000183105469,12.25 62.88999938964844,12.039999961853027 C62.689998626708984,11.789999961853027 62.63999938964844,11.819999694824219 62.689998626708984,11.850000381469727 C65.37000274658203,13.229999542236328 67.91999816894531,15.229999542236328 68.98999786376953,18.280000686645508 C69.7699966430664,20.110000610351563 69.0999984741211,22.979999542236328 67.9000015258789,24.309999465942383 C67.27999877929688,25.170000076293945 66.41999816894531,26.280000686645508 65.6500015258789,26.969999313354492 C64.33999633789063,28.290000915527344 63.47999954223633,30.219999313354492 63.540000915527344,32.09000015258789 C63.59000015258789,33.59000015258789 64.41999816894531,34.5099983215332 64.4000015258789,36.369998931884766 C64.33999633789063,37.54999923706055 63.7400016784668,38.52000045776367 63.0099983215332,39.15999984741211 C61.75,40.220001220703125 60.47999954223633,40.4900016784668 59,40.779998779296875 C55.040000915527344,41.27000045776367 51.220001220703125,38.91999816894531 48.66999816894531,36.310001373291016 C51.959999084472656,38.349998474121094 56.189998626708984,40.06999969482422 59.880001068115234,38.209999084472656 C60.70000076293945,37.83000183105469 61.58000183105469,37.16999816894531 61.459999084472656,36.349998474121094 C61.439998626708984,35.84000015258789 60.41999816894531,34.310001373291016 60.099998474121094,32.560001373291016 C59.93000030517578,31.690000534057617 59.93000030517578,30.770000457763672 60.029998779296875,29.93000030517578 C60.290000915527344,27.81999969482422 61.099998474121094,25.760000228881836 62.4900016784668,24.1200008392334 C63.189998626708984,23.3700008392334 63.58000183105469,22.649999618530273 64.0999984741211,21.809999465942383 C65.62000274658203,19.81999969482422 62.81999969482422,17.940000534057617 61.11000061035156,17.010000228881836 C60.040000915527344,16.489999771118164 59.27000045776367,16.260000228881836 58.400001525878906,15.0600004196167 C57.2599983215332,13.649999618530273 57.689998626708984,11.170000076293945 58.63999938964844,10.020000457763672 C59.34000015258789,9.010000228881836 59.84000015258789,8.640000343322754 60.08000183105469,8.170000076293945 C60.119998931884766,8.130000114440918 60.060001373291016,8.149999618530273 60.08000183105469,8.140000343322754 C60.08000183105469,8.15999984741211 60.02000045776367,8.300000190734863 60.04999923706055,8.4399995803833 C60.11000061035156,8.770000457763672 60.15999984741211,8.710000038146973 59.91999816894531,8.520000457763672 C58.9900016784668,7.889999866485596 57.619998931884766,7.329999923706055 56.439998626708984,7.690000057220459 C53.54999923706055,8.300000190734863 50.75,8.859999656677246 47.63999938964844,9.010000228881836 C46.849998474121094,9.020000457763672 45.97999954223633,9.010000228881836 45.08000183105469,8.720000267028809 C43.7599983215332,8.270000457763672 42.540000915527344,7.389999866485596 41.689998626708984,6.420000076293945 C41.13999938964844,5.840000152587891 41.310001373291016,6.019999980926514 41.189998626708984,5.940000057220459 C40.91999816894531,5.829999923706055 39.959999084472656,6.130000114440918 39.7400016784668,6.420000076293945 C39.560001373291016,6.71999979019165 39.56999969482422,6.610000133514404 39.56999969482422,7.460000038146973 C40.189998626708984,13.739999771118164 35.11000061035156,19.15999984741211 29.719999313354492,21.3799991607666 C29.93000030517578,21.040000915527344 29.639999389648438,21.15999984741211 29.81999969482422,21.700000762939453 C30,22.399999618530273 30.760000228881836,23.579999923706055 31.3799991607666,24.1299991607666 C32.16999816894531,24.860000610351563 33.66999816894531,25.299999237060547 34.36000061035156,26.719999313354492 C35.09000015258789,27.90999984741211 34.599998474121094,29.940000534057617 33.7400016784668,30.75 C33.36000061035156,31.209999084472656 32.61000061035156,31.90999984741211 32.560001373291016,32.5099983215332 C32.25,34.15999984741211 33.84000015258789,36.59000015258789 34.810001373291016,38.119998931884766 C36.720001220703125,41.41999816894531 43.459999084472656,40.189998626708984 46.720001220703125,39.7599983215332 C46.720001220703125,39.7599983215332 46.70000076293945,39.7599983215332 46.70000076293945,39.7599983215332 C46.70000076293945,39.7599983215332 46.70000076293945,39.7599983215332 46.70000076293945,39.7599983215332 Z" fill="#367763"/>
				</g>
			</g>
			<g>
				<path d="M38.439998626708984,85.95999908447266 C37.88999938964844,85.95999908447266 36.209999084472656,88.5999984741211 35.689998626708984,89.41999816894531 C33.810001373291016,92.37000274658203 32.9900016784668,94.69000244140625 31.90999984741211,97.7699966430664 C30.81999969482422,100.87999725341797 29.799999237060547,103.80999755859375 29.709999084472656,105.98999786376953 C29.709999084472656,105.98999786376953 29.670000076293945,107.05000305175781 29.350000381469727,108.45999908447266 C29.030000686645508,109.87000274658203 28.8700008392334,110.58000183105469 28.5,110.70999908447266 C28.43000030517578,110.73999786376953 28.34000015258789,110.75 28.25,110.75 C27.56999969482422,110.75 26.399999618530273,110.05999755859375 25.059999465942383,109.05999755859375 C27.270000457763672,111.75 29.059999465942383,115 29.170000076293945,118.58000183105469 C29.299999237060547,122.52999877929688 27.59000015258789,132.91000366210938 27.520000457763672,137.99000549316406 C27.520000457763672,138.3800048828125 27.520000457763672,139.60000610351563 28.600000381469727,140.74000549316406 C29.790000915527344,142 32.09000015258789,142.97000122070313 33.720001220703125,142.97000122070313 C34.119998931884766,142.97000122070313 34.47999954223633,142.91000366210938 34.779998779296875,142.7899932861328 C36.290000915527344,142.14999389648438 35.27000045776367,140.0800018310547 34.84000015258789,135.08999633789063 C34.650001525878906,132.89999389648438 34.91999816894531,134.10000610351563 34.84000015258789,127.16999816894531 C34.7599983215332,119.95999908447266 34.470001220703125,118.38999938964844 34.939998626708984,117.22000122070313 C35.099998474121094,116.81999969482422 35.290000915527344,116.56999969482422 35.34000015258789,116.5 C36.81999969482422,114.19000244140625 39.65999984741211,112.9800033569336 41.02000045776367,112.41999816894531 C41.02000045776367,112.41999816894531 41.72999954223633,112.12999725341797 46.79999923706055,110.6500015258789 C44.45000076293945,110.95999908447266 42.7599983215332,111.4800033569336 41.650001525878906,111.91000366210938 C39.59000015258789,112.69999694824219 38.4900016784668,113.55000305175781 36.2599983215332,113.79000091552734 C35.849998474121094,113.83000183105469 35.459999084472656,113.8499984741211 35.099998474121094,113.8499984741211 C34.4900016784668,113.8499984741211 33.97999954223633,113.80000305175781 33.59000015258789,113.75 C33.34000015258789,105.93000030517578 34.58000183105469,99.83000183105469 35.75,95.72000122070313 C37.09000015258789,91.05000305175781 39.13999938964844,86.12999725341797 38.459999084472656,85.9800033569336 C38.459999084472656,85.9800033569336 38.43000030517578,85.9800033569336 38.43000030517578,85.9800033569336 C38.43000030517578,85.9800033569336 38.43000030517578,85.95999908447266 38.43000030517578,85.95999908447266 C38.43000030517578,85.95999908447266 38.439998626708984,85.95999908447266 38.439998626708984,85.95999908447266 ZM16.290000915527344,101.36000061035156 C16.290000915527344,101.36000061035156 16.290000915527344,101.36000061035156 16.290000915527344,101.36000061035156 C16.290000915527344,101.36000061035156 16.440000534057617,101.51000213623047 16.780000686645508,101.73999786376953 C16.510000228881836,101.48999786376953 16.329999923706055,101.3499984741211 16.290000915527344,101.3499984741211 C16.290000915527344,101.3499984741211 16.290000915527344,101.3499984741211 16.290000915527344,101.3499984741211 C16.290000915527344,101.3499984741211 16.290000915527344,101.36000061035156 16.290000915527344,101.36000061035156 ZM16.780000686645508,101.75 C18.149999618530273,102.97000122070313 22.059999465942383,106.80999755859375 25.06999969482422,109.05999755859375 C22.010000228881836,105.33999633789063 18.139999389648438,102.69999694824219 16.780000686645508,101.75 C16.780000686645508,101.75 16.780000686645508,101.75 16.780000686645508,101.75 C16.780000686645508,101.75 16.780000686645508,101.75 16.780000686645508,101.75 Z" fill="#367763"/>
			</g>
			<g>
				<path d="M34.41999816894531,70.91000366210938 C45.70000076293945,62.61000061035156 67.0199966430664,74.94000244140625 57.869998931884766,89.05999755859375 C57.43000030517578,90.55000305175781 58.54999923706055,91.2699966430664 60,91.81999969482422 C61.93000030517578,92.54000091552734 64.13999938964844,93.56999969482422 65.73999786376953,95.08000183105469 C69.01000213623047,98.43000030517578 70.80999755859375,102.23999786376953 71.66999816894531,106.97000122070313 C72.70999908447266,112.05000305175781 70.19000244140625,118.48999786376953 65.38999938964844,121.11000061035156 C57.47999954223633,125.5 48.130001068115234,125.81999969482422 40.7599983215332,122.11000061035156 C40.52000045776367,121.98999786376953 40.43000030517578,121.69999694824219 40.54999923706055,121.45999908447266 C40.61000061035156,121.33000183105469 40.720001220703125,121.25 40.849998474121094,121.20999908447266 C46.52000045776367,119.54000091552734 51.220001220703125,118.12000274658203 56.06999969482422,115.48999786376953 C59.31999969482422,113.61000061035156 63.150001525878906,112.01000213623047 63.20000076293945,107.63999938964844 C63.29999923706055,105.62000274658203 62.61000061035156,102.47000122070313 62.380001068115234,100.25 C62.130001068115234,97.76000213623047 60.81999969482422,95.79000091552734 58.61000061035156,94.5 C56.58000183105469,93.45999908447266 54.52000045776367,91.08999633789063 55.040000915527344,88.45999908447266 C56.119998931884766,84.41000366210938 55.7599983215332,83.16999816894531 52.349998474121094,80.5999984741211 C48.63999938964844,77.69000244140625 44.689998626708984,74.68000030517578 40.09000015258789,73.2699966430664 C38.41999816894531,72.69999694824219 36.61000061035156,72.2699966430664 34.599998474121094,71.7699966430664 C34.20000076293945,71.69000244140625 34.09000015258789,71.11000061035156 34.43000030517578,70.88999938964844 C34.43000030517578,70.88999938964844 34.43000030517578,70.88999938964844 34.43000030517578,70.88999938964844 C34.43000030517578,70.88999938964844 34.43000030517578,70.91000366210938 34.43000030517578,70.91000366210938 C34.43000030517578,70.91000366210938 34.41999816894531,70.91000366210938 34.41999816894531,70.91000366210938 Z" fill="#367763"/>
			</g>
			<g>
				<path d="M26.229999542236328,120.30000305175781 C23.809999465942383,125.4000015258789 17,127.05999755859375 11.890000343322754,125.16000366210938 C6.75,123.66000366210938 1.909999966621399,120.41999816894531 0.7200000286102295,114.62000274658203 C-0.3499999940395355,110.19999694824219 3.200000047683716,106.51000213623047 5.070000171661377,103.22000122070313 C5.420000076293945,102.5 5.78000020980835,101.36000061035156 5.099999904632568,101.48999786376953 C5.070000171661377,101.5 5,101.51000213623047 4.96999979019165,101.55999755859375 C4.929999828338623,101.5999984741211 4.920000076293945,101.66000366210938 4.849999904632568,101.66999816894531 C1.9700000286102295,101.4000015258789 -0.20000000298023224,97.61000061035156 0.019999999552965164,94.80999755859375 C0.11999999731779099,91.19999694824219 1.9299999475479126,88.52999877929688 3.4600000381469727,85.58000183105469 C6.559999942779541,79.66999816894531 10.989999771118164,74.01000213623047 17.3700008392334,71.30999755859375 C21.219999313354492,69.75 25.15999984741211,69.43000030517578 29.1200008392334,70.31999969482422 C29.549999237060547,70.41999816894531 29.690000534057617,71.0199966430664 29.34000015258789,71.29000091552734 C27.850000381469727,72.5199966430664 26.440000534057617,73.58999633789063 25.1299991607666,74.69999694824219 C22.579999923706055,76.77999877929688 20.790000915527344,78.75 19,81.3499984741211 C17.350000381469727,83.80999755859375 15.300000190734863,86.94000244140625 13.390000343322754,89.22000122070313 C11.90999984741211,91.04000091552734 9.15999984741211,94.19999694824219 8.010000228881836,95.83000183105469 C7.840000152587891,96.0199966430664 7.619999885559082,95.94999694824219 7.409999847412109,96.05999755859375 C7.309999942779541,96.08999633789063 7.099999904632568,96.05999755859375 7.139999866485596,96.23999786376953 C7.170000076293945,96.41999816894531 7.559999942779541,96.72000122070313 8.140000343322754,97.30000305175781 C9.430000305175781,98.4800033569336 9.970000267028809,100.43000030517578 9.609999656677246,101.9800033569336 C8.970000267028809,104.79000091552734 5.800000190734863,106.75 5.039999961853027,109.22000122070313 C3.940000057220459,112.19999694824219 6.809999942779541,113.23999786376953 9.140000343322754,114.19000244140625 C10.40999984741211,114.69999694824219 11.6899995803833,115.37000274658203 13.069999694824219,116.13999938964844 C17.25,118.55999755859375 19.690000534057617,120.19000244140625 25.65999984741211,119.5 C26.09000015258789,119.43000030517578 26.450000762939453,119.91999816894531 26.25,120.30999755859375 C26.25,120.30999755859375 26.229999542236328,120.30999755859375 26.229999542236328,120.30999755859375 C26.229999542236328,120.30999755859375 26.229999542236328,120.30000305175781 26.229999542236328,120.30000305175781 Z" fill="#367763"/>
			</g>
			<g>
				<path d="M121.7300033569336,47.40999984741211 C121.26000213623047,47.40999984741211 119.83999633789063,49.810001373291016 119.4000015258789,50.560001373291016 C117.80999755859375,53.25 117.11000061035156,55.369998931884766 116.19999694824219,58.18000030517578 C115.27999877929688,61.02000045776367 114.41999816894531,63.689998626708984 114.33999633789063,65.68000030517578 C114.33999633789063,65.68000030517578 114.30000305175781,66.6500015258789 114.04000091552734,67.93000030517578 C113.7699966430664,69.22000122070313 113.62999725341797,69.87000274658203 113.31999969482422,69.9800033569336 C113.26000213623047,70 113.18000030517578,70.0199966430664 113.11000061035156,70.0199966430664 C112.52999877929688,70.0199966430664 111.55000305175781,69.38999938964844 110.41999816894531,68.4800033569336 C112.29000091552734,70.93000030517578 113.80000305175781,73.88999938964844 113.9000015258789,77.16000366210938 C114.01000213623047,80.76000213623047 112.55999755859375,90.22000122070313 112.5,94.86000061035156 C112.5,95.22000122070313 112.5,96.31999969482422 113.41000366210938,97.36000061035156 C114.41999816894531,98.51000213623047 116.36000061035156,99.38999938964844 117.73999786376953,99.38999938964844 C118.08000183105469,99.38999938964844 118.37999725341797,99.33999633789063 118.62999725341797,99.22000122070313 C119.9000015258789,98.62999725341797 119.04000091552734,96.75 118.68000030517578,92.19999694824219 C118.5199966430664,90.20999908447266 118.73999786376953,91.29000091552734 118.68000030517578,84.9800033569336 C118.61000061035156,78.4000015258789 118.37000274658203,76.97000122070313 118.7699966430664,75.9000015258789 C118.91000366210938,75.54000091552734 119.06999969482422,75.30999755859375 119.11000061035156,75.23999786376953 C120.36000061035156,73.12999725341797 122.76000213623047,72.02999877929688 123.91999816894531,71.5199966430664 C123.91999816894531,71.5199966430664 124.5199966430664,71.25 128.8000030517578,69.91000366210938 C126.80999755859375,70.19000244140625 125.37999725341797,70.66999816894531 124.44999694824219,71.05999755859375 C122.70999908447266,71.77999877929688 121.77999877929688,72.55000305175781 119.9000015258789,72.7699966430664 C119.55000305175781,72.80999755859375 119.22000122070313,72.83000183105469 118.91999816894531,72.83000183105469 C118.41000366210938,72.83000183105469 117.97000122070313,72.77999877929688 117.6500015258789,72.73999786376953 C117.43000030517578,65.61000061035156 118.4800033569336,60.04999923706055 119.4800033569336,56.29999923706055 C120.61000061035156,52.040000915527344 122.33999633789063,47.560001373291016 121.7699966430664,47.41999816894531 C121.7699966430664,47.41999816894531 121.7300033569336,47.41999816894531 121.7300033569336,47.41999816894531 C121.7300033569336,47.41999816894531 121.7300033569336,47.40999984741211 121.7300033569336,47.40999984741211 Z" fill="#367763"/>
			</g>
			<g>
				<path d="M102.98999786376953,61.459999084472656 C102.98999786376953,61.459999084472656 102.98999786376953,61.459999084472656 102.98999786376953,61.459999084472656 C102.98999786376953,61.459999084472656 103.12000274658203,61.59000015258789 103.41000366210938,61.810001373291016 C103.18000030517578,61.59000015258789 103.02999877929688,61.459999084472656 103,61.459999084472656 C103,61.459999084472656 103,61.459999084472656 103,61.459999084472656 C103,61.459999084472656 102.98999786376953,61.459999084472656 102.98999786376953,61.459999084472656 Z" fill="#367763"/>
			</g>
			<g>
				<path d="M103.41000366210938,61.810001373291016 C104.56999969482422,62.91999816894531 107.87000274658203,66.43000030517578 110.41999816894531,68.4800033569336 C107.83000183105469,65.08000183105469 104.55999755859375,62.68000030517578 103.41000366210938,61.810001373291016 C103.41000366210938,61.810001373291016 103.41000366210938,61.810001373291016 103.41000366210938,61.810001373291016 C103.41000366210938,61.810001373291016 103.41000366210938,61.810001373291016 103.41000366210938,61.810001373291016 Z" fill="#367763"/>
			</g>
			<g>
				<path d="M95.83000183105469,73.02999877929688 C88.93000030517578,68.5999984741211 86.19999694824219,58.59000015258789 89.36000061035156,51.029998779296875 C91.27999877929688,46.31999969482422 96.18000030517578,40.900001525878906 101.77999877929688,42.5 C103.22000122070313,42.849998474121094 103.98999786376953,42.22999954223633 104.06999969482422,40.689998626708984 C104.06999969482422,35.95000076293945 106.12999725341797,32.27000045776367 110.08000183105469,29.649999618530273 C112.91000366210938,27.6299991607666 115.77999877929688,25.969999313354492 119.76000213623047,25.899999618530273 C131.1300048828125,25.920000076293945 136.47999572753906,42.130001068115234 134.2899932861328,51.40999984741211 C134.2100067138672,51.790000915527344 133.6699981689453,51.86000061035156 133.5,51.52000045776367 C131.64999389648438,48.119998931884766 129.9600067138672,45.029998779296875 128.02000427246094,42.2599983215332 C126.31999969482422,39.81999969482422 124.06999969482422,37.0099983215332 121.9000015258789,35.310001373291016 C121.16000366210938,34.72999954223633 120.38999938964844,34.41999816894531 119.4800033569336,34.27000045776367 C117.91000366210938,33.970001220703125 115.48999786376953,34.81999969482422 113.79000091552734,35.70000076293945 C112.33999633789063,36.459999084472656 111.12999725341797,36.79999923706055 109.91000366210938,37.709999084472656 C108.61000061035156,38.77000045776367 108.01000213623047,39.90999984741211 107.30999755859375,41.619998931884766 C106.7699966430664,43.209999084472656 104.9800033569336,45.13999938964844 103,45.06999969482422 C101.62999725341797,45.09000015258789 100.22000122070313,44.439998626708984 99.08999633789063,44.83000183105469 C98.44000244140625,45.04999923706055 97.88999938964844,45.47999954223633 97.48999786376953,46.040000915527344 C96.12999725341797,47.95000076293945 96.08999633789063,50.5 95.79000091552734,52.810001373291016 C95.08999633789063,57.66999816894531 94.55999755859375,62.2599983215332 95.45999908447266,67.19000244140625 C95.7300033569336,68.91000366210938 96.0999984741211,70.66999816894531 96.4800033569336,72.5999984741211 C96.56999969482422,72.95999908447266 96.12000274658203,73.26000213623047 95.81999969482422,73.05000305175781 C95.81999969482422,73.05000305175781 95.81999969482422,73.05000305175781 95.81999969482422,73.05000305175781 C95.81999969482422,73.05000305175781 95.81999969482422,73.02999877929688 95.81999969482422,73.02999877929688 C95.81999969482422,73.02999877929688 95.83000183105469,73.02999877929688 95.83000183105469,73.02999877929688 Z" fill="#367763"/>
			</g>
			<g>
				<path d="M96.1500015258789,72.80000305175781 C102.2699966430664,73.7699966430664 107.8499984741211,75.23999786376953 111.30999755859375,80.76000213623047 C105.30999755859375,83.1500015258789 96.61000061035156,79.83000183105469 96.1500015258789,72.80000305175781 C96.1500015258789,72.80000305175781 96.1500015258789,72.80000305175781 96.1500015258789,72.80000305175781 C96.1500015258789,72.80000305175781 96.1500015258789,72.80000305175781 96.1500015258789,72.80000305175781 Z" fill="#367763"/>
			</g>
			<g>
				<path d="M138.97999572753906,54.61000061035156 C147.99000549316406,56.86000061035156 146.8300018310547,69.83999633789063 142.91000366210938,76.22000122070313 C140.8300018310547,79.69999694824219 136.1300048828125,81.94999694824219 132.2899932861328,80.55999755859375 C131.42999267578125,80.31999969482422 131.11000061035156,80.18000030517578 130.6699981689453,80.08999633789063 C129.3000030517578,79.81999969482422 127.87999725341797,80.62000274658203 126.30000305175781,80.94999694824219 C124.31999969482422,81.36000061035156 122.3499984741211,81.41000366210938 120.43000030517578,80.94000244140625 C122.88999938964844,79.05999755859375 124.30000305175781,77.62999725341797 126.44000244140625,75.58000183105469 C128.08999633789063,74.05999755859375 131.08999633789063,73.31999969482422 133.36000061035156,73.58999633789063 C134.32000732421875,73.62000274658203 134.55999755859375,73.54000091552734 134.69000244140625,73.43000030517578 C136.94000244140625,71.80999755859375 137.77000427246094,68.61000061035156 138.7899932861328,65.9000015258789 C140.3300018310547,62.040000915527344 141.1300048828125,58.61000061035156 138.97999572753906,54.61000061035156 C138.97999572753906,54.61000061035156 138.97999572753906,54.61000061035156 138.97999572753906,54.61000061035156 C138.97999572753906,54.61000061035156 138.97999572753906,54.61000061035156 138.97999572753906,54.61000061035156 Z" fill="#367763"/>
			</g>
			<g>
				<g>
					<path d="M45.43000030517578,140.74000549316406 C46.220001220703125,140.5 47.0099983215332,140.25999450683594 47.81999969482422,140.00999450683594" fill="none" stroke="#866d4b" stroke-width="7" stroke-linecap="round" stroke-linejoin="round"/>
				</g>
				<g>
					<path d="M60.75,135.47000122070313 C67.5,132.83999633789063 74.58000183105469,129.66000366210938 81.80000305175781,125.80000305175781 C90.08999633789063,121.37000274658203 97.3499984741211,116.69999694824219 103.66000366210938,112.08999633789063" fill="none" stroke="#866d4b" stroke-width="7" stroke-dasharray="4.900000095367432, 13.720000267028809" stroke-linecap="round" stroke-linejoin="round"/>
				</g>
				<g>
					<path d="M109.12999725341797,107.94000244140625 C109.79000091552734,107.41999816894531 110.44000244140625,106.9000015258789 111.08000183105469,106.37999725341797" fill="none" stroke="#866d4b" stroke-width="7" stroke-linecap="round" stroke-linejoin="round"/>
				</g>
			</g>
			<g>
				<g>
					<path d="M57.400001525878906,63.220001220703125 C57.97999954223633,63.540000915527344 58.560001373291016,63.86000061035156 59.150001525878906,64.18000030517578" fill="none" stroke="#866d4b" stroke-width="5" stroke-linecap="round" stroke-linejoin="round"/>
				</g>
				<g>
					<path d="M71.01000213623047,70.95999908447266 C73.86000061035156,72.63999938964844 76.75,74.37999725341797 79.6500015258789,76.18000030517578 C85.33999633789063,79.69999694824219 90.80000305175781,83.23999786376953 96.02999877929688,86.76000213623047" transform="matrix(0.99992295,-0.012413491,0.012413491,0.99992295,-0.972492672,1.042850974)" fill="none" stroke="#866d4b" stroke-width="5" stroke-dasharray="4.550000190734863, 13.65999984741211" stroke-linecap="round" stroke-linejoin="round"/>
				</g>
				<g>
					<path d="M101.68000030517578,90.62999725341797 C102.7699966430664,91.01000213623047 103.31999969482422,91.38999938964844 103.31999969482422,91.7699966430664" fill="none" stroke="#866d4b" stroke-width="5" stroke-linecap="round" stroke-linejoin="round"/>
				</g>
			</g>
		</g>
	</g>
</g></g></svg>
