<svg xmlns="http://www.w3.org/2000/svg" width="1920" height="1080" viewBox="0 0 1920 1080"><defs><clipPath id="artboard-14199609795621310635"><path d="M0 0h1920v1080H0z"/></clipPath></defs><path fill="none" d="M0 0h1920v1080H0z"/><g clip-path="url(#artboard-14199609795621310635)"><path fill="#327459" d="M1271.37 612.62c-.27 14.85-2.95 29.36-7.4 43.42a1202 1202 0 0 1-20.84 60.76c-4.63 12.29-10.85 23.99-16.48 35.9-4.08 8.62-6.82 17.48-6.48 27.16.45 12.62 1.14 25.25.94 37.86-.22 13.34-4.65 25.28-14.86 34.46-12.56 11.3-27.8 14.17-43.8 12.04-17.14-2.27-34.12-5.85-51.13-9.07-12.3-2.33-24.5-2.2-36.82-.15-11.94 1.99-23.32 5.68-33.7 11.79a148 148 0 0 0-20.42 14.43c-18.5 15.64-35.54 33.08-56.27 45.9-7.51 4.65-15.64 8.48-23.83 11.82-12.69 5.17-25.75 9.42-38.5 14.44-6.36 2.5-12.44 5.76-18.56 8.84a938 938 0 0 0-21.8 11.38c-7.27 3.9-14.3 8.27-21.7 11.89a799 799 0 0 1-36.58 16.92 718 718 0 0 1-34.72 13.53 472 472 0 0 1-27.77 9.33c-11.57 3.45-23.16 7.01-34.96 9.46-11.61 2.4-22.74.74-33.48-5.5-12.39-7.17-16.9-17.46-17.02-31.17-.07-8.16.14-16.17 3.62-23.5 3.33-7.01 7.69-13.55 11.68-20.25 1.19-2 2.72-3.8 3.95-5.79.24-.38-.04-1.61-.27-1.67-.98-.23-2.15-.49-3.02-.15-8.23 3.2-16.32 6.8-24.63 9.74-13.4 4.76-27.37 6.52-40.63.79-14.02-6.06-21.96-22.79-15.12-40.07 2.92-7.38 8.17-12.45 13.57-17.73 4.16-4.06 7.84-8.6 11.82-13.03-1.56-.42-4.07-1.34-6.67-1.77-3.4-.57-6.88-.57-10.28-1.12-7.76-1.26-15.76-1.89-23.2-4.23-18.67-5.86-24.52-24.06-16.86-41.29 7.44-16.75 21.26-26.97 37.63-33.72 17-7.02 34.43-13.03 51.55-19.8 24.9-9.87 48.69-21.8 69.36-39.18a62 62 0 0 0 8.86-8.82c-10.95-1.06-21.38-.8-31.41 2.91-8.25 3.05-23.78-4.29-25.17-12.84-1.06-6.53 1.07-12.87 5.66-18.15 10.74-12.32 24.6-20.95 36.87-31.46 11.5-9.85 23.53-19.1 35.37-28.57 11.34-9.06 20.36-20.23 28.76-31.9 2.06-2.87 3.3-6.4 4.52-9.78 2.15-5.95 1.49-7.18-4.2-9.1-8.8-3-17.5-6.46-26.5-8.76-6.23-1.58-12.88-1.6-19.34-2.22-10.85-1.04-21.83-1.27-32.51-3.18a458 458 0 0 1-43.64-10.02c-11.73-3.32-23.56-7.1-34.43-12.5-17.78-8.82-27.06-26.56-22.02-47.15 4.13-16.85 15.13-28.26 29.53-36.37 13.99-7.88 28.81-14.27 42.97-21.87 11-5.9 21.58-12.6 32.25-19.11 1.56-.96 2.57-2.81 4.85-5.4-6.1-2.58-11.9-4.8-17.49-7.46-11.42-5.47-23.18-10.46-33.95-17.03-8.86-5.4-15.54-13.74-18.15-24.12-2.9-11.54-1.32-22.51 5.11-33.05 10.83-17.74 27.96-25.06 46.77-29.75a147 147 0 0 1 49.2-3.95c23.24 2.17 46.17 6.71 67.97 15.53a557 557 0 0 1 29.99 13c8.54 4.05 16.42 1.8 24.23-1.51 12.78-5.42 24.12-13.36 33.95-22.9 7.12-6.9 12.5-15.6 18.55-23.58 3.29-4.34 6.38-8.82 9.56-13.24l-.88-1.37c-4.46 0-8.93.1-13.4-.02-11.4-.28-22.98.43-34.17-1.31-9.62-1.5-18.31-7.2-20.92-17.4-3.13-12.27.31-23.41 9.05-32.98 10.96-12.01 24.8-20.2 37.87-29.46 4.02-2.85 8.21-5.5 11.99-8.65 4.45-3.71 3.5-8.5 2.11-13.44a228 228 0 0 1-4.3-18.57c-1.96-10.2-3.07-20.45-.75-30.77 2.2-9.82 7.4-17.82 14.04-25.3 11.54-13 27.06-18.96 42.44-25.26 9.9-4.06 19.77-8.28 29.93-11.53a244 244 0 0 1 29.5-7.33c11.6-2.17 23.48-2.95 35.04-5.28 7.32-1.48 14.19-5.08 21.44-7.06 14.94-4.1 29.67-4.53 44.35 2.12 8.47 3.84 11.12 13.91 9.68 20.73-2.36 11.19-5.25 22.26-7.84 33.4-.52 2.19-.7 4.46-1.2 7.68 7.67-3.61 14.95-6.3 21.45-10.26 20.69-12.62 40.86-26.12 61.69-38.5 12.77-7.6 26.35-14.14 41.94-12.86 15.28 1.25 27.43 7.91 34.84 21.84 6.35 11.95 9.23 24.97 11.45 38.98a646 646 0 0 0 4.92 23s.4.13.51.31c.12.19.24.47.24.47 3.77 20.2 13.33 37.2 27.97 51.59 12.16 11.94 20.05 26.5 25.62 42.57 3.25 9.39 5.89 18.8 5.65 28.7-.38 15.84-5.94 30-16.57 41.68-9.25 10.16-18.77 20.2-29.15 29.16-13.15 11.36-27.43 21.29-43.94 27.61-10.5 4.02-20.72 8.75-31.02 13.26-13.82 6.06-14.4 15.26-12.52 26.7 2.27 13.72 7.9 26.21 15.7 37.8 8.15 12.15 11.01 26.23 13.63 41.18-.07 9.38-.02 17.88.03 26.38-.34 7.59-.52 15.18-1.05 22.76-.76 10.67 2.83 20.32 6 30.25 2.88 8.99 4.12 18.5 6.03 28.68.01 10.67.07 20.42.12 30.18m-471.7 2.03c-.13.67-.26 1.34-.45 2.72-6.76 14.93-17.73 26.82-28.79 38.44-7.89 8.3-16.92 15.54-25.77 22.85-11.11 9.18-22.6 17.91-33.83 26.93-4.1 3.3-7.98 6.87-12.95 11.18 7.2-.55 12.96-1.3 18.71-1.34 7.65-.07 15.47-.53 22.9.86 11.15 2.08 13.94 14.78 10.37 23.38-3.58 8.62-10.01 15.05-16.9 20.44-12.47 9.77-25.3 19.45-39.16 27.01-17.53 9.58-36.17 17.15-54.45 25.33-12.93 5.78-26.5 10.3-38.9 17.02-6.79 3.67-12.25 10.3-17.37 16.38-3.91 4.64-2.15 9.24 3.68 11.26 6.31 2.18 12.85 3.71 19.32 5.38 7.89 2.04 15.9 3.62 23.68 6.01 3.11.96 6.77 2.92 8.38 5.53 6.87 11.13 4.98 17.2-3.04 27.15-5.87 7.28-12.36 14.07-18.17 21.41-3.88 4.91-2.14 10.36 3.84 11.85 3.98.98 8.58 1.46 12.46.46 11.87-3.09 23.42-7.42 35.31-10.41a59 59 0 0 1 19.06-1.6c7.01.6 12.14 5.07 13.45 12.37 1.34 7.44-.61 14.3-4.6 20.75-5.93 9.59-12.62 18.72-15.39 30.05-3.18 13.03 2.88 24.18 16.72 23.22 9.03-.62 17.98-3.43 26.78-5.91a796 796 0 0 0 37.93-11.8c29.74-10.05 58.01-23.4 85.53-38.43 23.13-12.62 47.3-22.98 72.12-31.73 20.95-7.4 39.25-19.22 56.38-32.92 11.7-9.36 22.41-19.98 33.96-29.55a124 124 0 0 1 47.36-24.45c10.74-2.88 21.75-4.8 33.06-3.98 8.14.59 16.43-.1 24.44 1.15 14.04 2.18 27.84 5.87 41.88 7.99a49 49 0 0 0 19.06-.96c14.59-3.76 20.2-13.92 20.87-29.24.51-11.7-.12-23.46.15-35.2.24-10.9 4.16-21.04 8.34-30.88 6.14-14.44 14.16-28.17 19.35-42.92 6.62-18.83 11.43-38.3 16.59-57.62 2.78-10.4 4.64-21.04 7.21-32.29-.09-10.9-.17-21.8-.48-33.55-2.18-8.44-3.28-17.36-6.78-25.2-5.46-12.24-6.1-24.92-5.07-37.56 1.06-13.01 2.51-25.81.73-38.9-1.84-13.59-4.64-26.53-12.15-38.42-5.83-9.22-10.39-19.26-15.2-29.09a53 53 0 0 1-4.7-32.55c2.07-11.14 9.36-21.03 19.92-26.56a390 390 0 0 1 37.67-17.17c14.58-5.76 26.95-14.87 39-24.35 7.8-6.14 14.58-13.74 21.19-21.25 9.43-10.7 17.25-21.77 14.54-37.9-2.29-13.6-7.2-26-14.2-37.28-6.16-9.93-14.57-18.57-22.61-27.2-7.71-8.28-12.24-18.17-15.3-28.6-4.29-14.53-7.27-29.44-11.03-44.14-1.9-7.38-3.88-14.79-6.52-21.92-2.85-7.69-13.26-16-21.1-14.2-9.68 2.22-19.63 5.02-28.25 9.76-16.17 8.9-31.36 19.55-47.18 29.1-10.8 6.53-22.26 12-32.9 18.75-7.84 4.97-15.76 7.9-25.08 7.31-5.51-.35-11.6-5.6-12.32-10.93-1.61-12.02 3.32-22.97 5.59-34.33 1.6-8 4.55-15.73 6.62-23.65.25-.96-1-3.19-1.92-3.45-10.3-2.82-20.28-2.15-30.36 1.86-6.59 2.61-13.8 3.67-21.5 5.6-1.97.36-3.94.67-5.9 1.06a771 771 0 0 0-17.73 3.63c-1.48.2-3 .25-4.43.64-14.02 3.78-28 7.4-41.5 13.1-15.86 6.69-31.92 12.61-45.57 23.54-7.33 5.88-13.83 19.78-11.42 28.9 2.73 10.36 5.68 20.66 8.05 31.1 2.64 11.6.74 22.36-8.8 30.34-9.4 7.86-19.42 14.98-28.94 22.7a350 350 0 0 0-19.34 16.95c-4.14 3.89-3.3 6.95 2.25 8.14 6.03 1.3 12.19 2.17 18.33 2.67 5.08.42 10.24-.28 15.33.08 6.84.48 13.79 1.56 19.2 6.12 8.8 7.4 9.63 17.36 5.6 27.08a106 106 0 0 1-13.5 23.12c-7.96 10.48-16.12 21.1-25.83 29.85-8.98 8.11-19.78 14.42-30.4 20.45-9.62 5.48-20.4 8.68-31.67 7.17-12.43-1.67-23.5-7.71-35.04-12.26-10.08-3.98-20.11-8.27-30.52-11.16-10.56-2.92-21.52-4.48-32.36-6.28-13.04-2.17-26.08-.82-38.83 1.86-11.08 2.32-21.88 5.45-31.79 11.87-10.96 7.1-13.39 22.05-2.06 29.36 8.29 5.35 17.53 9.23 26.37 13.72 8.88 4.51 18.76 6.89 26.6 13.73 10.83 9.47 12.94 26.46.92 37.27-8.03 7.2-17.2 13.32-26.5 18.88-12.15 7.28-25.03 13.34-37.4 20.29-10.25 5.76-21.1 10.97-30.1 18.37-11.64 9.6-10.9 23.08.84 31.01 9.34 6.31 19.77 9.35 30.22 12.3 10.6 3 21.5 4.93 32.3 7.11 12.28 2.48 24.53 5.87 36.93 6.7 12.1.82 23.97 2.11 35.05 6.7 11.3 4.7 24.56 6.03 32.36 18.16q.13 12.83.19 25.55s.07.01-.64.11"/></g></svg>