<svg xmlns="http://www.w3.org/2000/svg" xmlns:graphite="https://graphite.art" viewBox="0 0 138 134" width="138" height="134"><defs><clipPath id="artboard-8047924048471906703"><rect x="0" y="0" width="138" height="134" /></clipPath></defs><g>
<g clip-path="url(#artboard-8047924048471906703)">
	<g>
		<g transform="matrix(1,0,0,1,21.345770035,1.169998169)">
			<g>
				<g>
					<path d="M78.41000366210938,40.25 C78.41000366210938,40.25 78.41000366210938,40.25 78.41000366210938,40.25 C78.41000366210938,40.25 78.41000366210938,40.25 78.41000366210938,40.25M72.3499984741211,99.91000366210938 C72.3499984741211,99.91000366210938 72.3499984741211,99.91000366210938 72.3499984741211,99.91000366210938 C72.3499984741211,99.91000366210938 72.3499984741211,99.91000366210938 72.3499984741211,99.91000366210938M53.33000183105469,23.610000610351563 C52.56999969482422,23.610000610351563 50.27000045776367,28.65999984741211 49.54999923706055,30.229999542236328 C46.97999954223633,35.880001068115234 45.84000015258789,40.33000183105469 44.369998931884766,46.2400016784668 C42.880001068115234,52.20000076293945 41.47999954223633,57.810001373291016 41.36000061035156,61.9900016784668 C41.36000061035156,62 41.29999923706055,64.0199966430664 40.869998931884766,66.72000122070313 C40.43000030517578,69.43000030517578 40.209999084472656,70.79000091552734 39.709999084472656,71.04000091552734 C39.61000061035156,71.08999633789063 39.4900016784668,71.12000274658203 39.36000061035156,71.12000274658203 C38.41999816894531,71.12000274658203 36.83000183105469,69.80000305175781 34.9900016784668,67.87999725341797 C38.02000045776367,73.02999877929688 40.470001220703125,79.26000213623047 40.630001068115234,86.12000274658203 C40.810001373291016,93.69000244140625 38.459999084472656,113.56999969482422 38.36000061035156,123.30000305175781 C38.36000061035156,124.05000305175781 38.36000061035156,126.37999725341797 39.84000015258789,128.55999755859375 C41.470001220703125,130.97000122070313 44.619998931884766,132.8300018310547 46.869998931884766,132.8300018310547 C47.41999816894531,132.8300018310547 47.90999984741211,132.72000122070313 48.31999969482422,132.47999572753906 C50.38999938964844,131.25 48.9900016784668,127.27999877929688 48.40999984741211,117.7300033569336 C48.150001525878906,113.54000091552734 48.5099983215332,115.83000183105469 48.40999984741211,102.55999755859375 C48.29999923706055,88.73999786376953 47.900001525878906,85.7300033569336 48.54999923706055,83.48999786376953 C48.77000045776367,82.7300033569336 49.029998779296875,82.25 49.09000015258789,82.11000061035156 C51.119998931884766,77.69000244140625 55.02000045776367,75.37000274658203 56.880001068115234,74.29000091552734 C56.880001068115234,74.29000091552734 57.86000061035156,73.72000122070313 64.80000305175781,70.9000015258789 C61.56999969482422,71.4800033569336 59.2599983215332,72.5 57.7400016784668,73.30999755859375 C54.91999816894531,74.83000183105469 53.400001525878906,76.44000244140625 50.349998474121094,76.91000366210938 C49.779998779296875,77 49.25,77.02999877929688 48.7599983215332,77.02999877929688 C47.93000030517578,77.02999877929688 47.220001220703125,76.93000030517578 46.689998626708984,76.83999633789063 C46.34000015258789,61.86000061035156 48.040000915527344,50.16999816894531 49.65999984741211,42.290000915527344 C51.4900016784668,33.33000183105469 54.29999923706055,23.920000076293945 53.369998931884766,23.6299991607666 C53.36000061035156,23.6299991607666 53.34000015258789,23.6299991607666 53.31999969482422,23.6299991607666 C53.31999969482422,23.6299991607666 53.31999969482422,23.6299991607666 53.31999969482422,23.6299991607666 C53.31999969482422,23.6299991607666 53.33000183105469,23.610000610351563 53.33000183105469,23.610000610351563 ZM22.959999084472656,53.119998931884766 C22.959999084472656,53.119998931884766 22.959999084472656,53.119998931884766 22.959999084472656,53.119998931884766 C22.920000076293945,53.150001525878906 23.170000076293945,53.400001525878906 23.639999389648438,53.86000061035156 C23.260000228881836,53.38999938964844 23.030000686645508,53.119998931884766 22.969999313354492,53.119998931884766 C22.969999313354492,53.119998931884766 22.969999313354492,53.119998931884766 22.969999313354492,53.119998931884766 C22.969999313354492,53.119998931884766 22.959999084472656,53.119998931884766 22.959999084472656,53.119998931884766 ZM23.6299991607666,53.86000061035156 C25.510000228881836,56.20000076293945 30.860000610351563,63.560001373291016 34.9900016784668,67.87000274658203 C30.790000915527344,60.7400016784668 25.489999771118164,55.68000030517578 23.6299991607666,53.86000061035156 C23.6299991607666,53.86000061035156 23.6299991607666,53.86000061035156 23.6299991607666,53.86000061035156 C23.6299991607666,53.86000061035156 23.6299991607666,53.86000061035156 23.6299991607666,53.86000061035156 Z" fill="#846d4c"/>
				</g>
				<g>
					<path d="M50.59000015258789,1.809999942779541 C62.56999969482422,-3.4000000953674316 78.27999877929688,3.119999885559082 84.37999725341797,14.670000076293945 C86.41999816894531,18.459999084472656 87.19999694824219,23.780000686645508 85.44999694824219,28.06999969482422 C84.69999694824219,30.149999618530273 82.72000122070313,32.41999816894531 81.91999816894531,34.0099983215332 C80.9000015258789,36.36000061035156 82.56999969482422,38.029998779296875 84.73999786376953,39.2400016784668 C89.0199966430664,41.529998779296875 93.2300033569336,45.27000045776367 94.98999786376953,49.97999954223633 C96.87999725341797,54.75 98.0999984741211,58.77000045776367 98.16000366210938,64.19999694824219 C98.44999694824219,71.86000061035156 93.9000015258789,80 86.44000244140625,83 C73.97000122070313,87.94999694824219 60.13999938964844,86.91000366210938 49.529998779296875,80.68000030517578 C49.06999969482422,80.41000366210938 49.2400016784668,79.66999816894531 49.77000045776367,79.63999938964844 C59.310001373291016,78.9800033569336 67.72000122070313,78.04000091552734 76.30999755859375,74.76000213623047 C79.8499984741211,73.41999816894531 83.58000183105469,72.18000030517578 85.83999633789063,69.1500015258789 C89.33999633789063,64.62999725341797 88,57.54999923706055 87.87000274658203,51.869998931884766 C87.72000122070313,47.91999816894531 85.83999633789063,44.599998474121094 82.63999938964844,42.189998626708984 C81.37000274658203,41.150001525878906 79.95999908447266,40 79.18000030517578,38.41999816894531 C78.30000305175781,36.77000045776367 78.08000183105469,34.619998931884766 78.66000366210938,32.86000061035156 C79.51000213623047,30.260000228881836 81.05000305175781,27.93000030517578 80.29000091552734,25.209999084472656 C79.75,23.100000381469727 78.37999725341797,21.299999237060547 76.81999969482422,19.5 C71.9800033569336,13.970000267028809 66,8.489999771118164 58.83000183105469,5.659999847412109 C56.31999969482422,4.590000152587891 53.599998474121094,3.7699999809265137 50.65999984741211,2.880000114440918 C50.15999984741211,2.7699999809265137 50.099998474121094,1.9800000190734863 50.59000015258789,1.809999942779541 C50.59000015258789,1.809999942779541 50.59000015258789,1.809999942779541 50.59000015258789,1.809999942779541 C50.59000015258789,1.809999942779541 50.59000015258789,1.809999942779541 50.59000015258789,1.809999942779541 Z" fill="#367763"/>
				</g>
				<g>
					<path d="M38.810001373291016,79.75 C35.290000915527344,85.02999877929688 27.360000610351563,86.56999969482422 21.559999465942383,83.97000122070313 C18.690000534057617,82.80999755859375 16.5,81.31999969482422 14.079999923706055,79.5999984741211 C9.119999885559082,76.12000274658203 5.28000020980835,70.44000244140625 5.079999923706055,63.970001220703125 C4.940000057220459,58.869998931884766 7.400000095367432,55.0099983215332 10.229999542236328,51.470001220703125 C11.40999984741211,49.810001373291016 14.789999961853027,46.18000030517578 12.920000076293945,44.52000045776367 C9.569999694824219,43.4900016784668 7.159999847412109,39.15999984741211 7.210000038146973,35.63999938964844 C7.119999885559082,31.81999969482422 8.630000114440918,28.670000076293945 10.34000015258789,25.68000030517578 C14.649999618530273,18.610000610351563 19.030000686645508,12.029999732971191 25.65999984741211,6.829999923706055 C32.400001525878906,1.149999976158142 42.22999954223633,-1.090000033378601 50.59000015258789,1.7400000095367432 C51.13999938964844,1.909999966621399 51.189998626708984,2.7200000286102295 50.66999816894531,2.9600000381469727 C48.220001220703125,4.190000057220459 45.939998626708984,5.360000133514404 43.83000183105469,6.619999885559082 C37.5099983215332,10.109999656677246 33.900001525878906,15.390000343322754 29.600000381469727,20.979999542236328 C27.360000610351563,23.899999618530273 24.799999237060547,26.829999923706055 22.260000228881836,29.600000381469727 C20.40999984741211,31.489999771118164 17.809999465942383,34.560001373291016 17.040000915527344,36.310001373291016 C16.809999465942383,36.689998626708984 16.670000076293945,37.18000030517578 16.520000457763672,37.540000915527344 C16.450000762939453,37.68000030517578 16.40999984741211,37.880001068115234 16.739999771118164,38.380001068115234 C17.31999969482422,39.119998931884766 18.639999389648438,41.02000045776367 18.84000015258789,42.349998474121094 C19.15999984741211,43.88999938964844 19.059999465942383,45.5099983215332 18.469999313354492,46.95000076293945 C17.110000610351563,50.0099983215332 14.949999809265137,51.439998626708984 13.130000114440918,53.7599983215332 C8.5600004196167,59.04999923706055 11.029999732971191,63.099998474121094 15.880000114440918,66.7699966430664 C19.06999969482422,69.36000061035156 22.81999969482422,72.87000274658203 26.030000686645508,75.55000305175781 C29.469999313354492,78.37999725341797 33.369998931884766,79.13999938964844 38.189998626708984,78.69000244140625 C38.7400016784668,78.5999984741211 39.150001525878906,79.30000305175781 38.81999969482422,79.73999786376953 C38.81999969482422,79.73999786376953 38.81999969482422,79.73999786376953 38.81999969482422,79.73999786376953 C38.81999969482422,79.73999786376953 38.810001373291016,79.75 38.810001373291016,79.75 Z" fill="#367763"/>
				</g>
			</g>
		</g>
	</g>
	<g>
		<g transform="matrix(1.29871455,-0.007854708,0.013696795,1.085304352,-16.963714569,24.051587357)">
			<g>
				<g>
					<g>
						<path d="M91.18000030517578,98.95999908447266 C90.16000366210938,98.95999908447266 89.33999633789063,97.83999633789063 89.37999725341797,96.81999969482422 C89.33999633789063,95.79000091552734 90.0999984741211,95.02999877929688 90.75,94.36000061035156 C93.13999938964844,91.19000244140625 94.41999816894531,86.83000183105469 95.58999633789063,83.02999877929688 C96.04000091552734,81.6500015258789 96.30999755859376,79.56999969482422 96.51000213623048,78.12999725341797 C96.51000213623048,78.12999725341797 96.69000244140624,76.91000366210938 96.69000244140624,76.91000366210938 C96.8000030517578,76.02999877929688 97.05000305175781,75.16999816894531 96.5199966430664,74.51000213623047 C96.4800033569336,74.47000122070313 96.48000335693358,74.51000213623047 96.58000183105467,74.5999984741211 C96.69999694824217,74.68000030517578 96.80000305175783,74.80999755859375 97.26000213623048,74.80999755859375 C97.70999908447267,74.73999786376953 97.44000244140624,74.80999755859375 97.12999725341795,74.93000030517578 C96.48999786376952,75.16000366210938 95.79000091552736,75.25 95.12000274658205,75.22000122070313 C94.79000091552736,75.19999694824219 94.48999786376953,75.16000366210938 94.4000015258789,75.16000366210938 C94.36000061035156,75.16000366210938 94.37999725341797,75.16999816894531 94.52999877929688,75.16000366210938 C94.6500015258789,75.16000366210938 94.87000274658203,75.0999984741211 95,75.02999877929688 C95.20999908447266,74.95999908447266 95.45999908447266,74.62000274658203 95.4000015258789,74.7300033569336 C95.3499984741211,74.81999969482422 95.26000213623047,75 95.2300033569336,75.0999984741211 C95.0999984741211,75.41999816894531 95.05999755859375,75.8499984741211 95.06999969482422,76.19999694824219 C95.04000091552734,76.75 94.94999694824219,78.12999725341797 94.97000122070313,78.55000305175781 C95.3499984741211,83.5 92.83999633789063,88.16999816894533 90.01000213623047,91.9499969482422 C87.16999816894531,95.75000000000001 82.72000122070313,98.3499984741211 78.2300033569336,99.61000061035156 C77.76000213623047,99.77999877929688 76.68000030517578,100.0500030517578 76.05000305175781,99.98999786376952 C72.62999725341797,99.63999938964842 69.22000122070313,100.36000061035155 66.12999725341797,101.98999786376952 C64.88999938964844,102.51000213623045 63.91999816894531,103.63999938964844 62.560001373291016,103.93000030517578 C61.959999084472656,104 61.41999816894531,103.80999755859375 61.040000915527344,103.54000091552734 C61.040000915527344,103.54000091552734 61.2599983215332,102.9800033569336 61.2599983215332,102.9800033569336 C61.65999984741211,103.0199966430664 62,102.95999908447266 62.22999954223633,102.79000091552734 C62.34000015258789,102.70999908447266 62.459999084472656,102.61000061035155 62.540000915527344,102.48999786376952 C63.099998474121094,101.59999847412108 63.79999923706055,100.70999908447266 64.54000091552734,99.93000030517578 C67.44000244140625,96.87999725341797 71.58000183105469,94.94000244140624 75.83000183105469,94.69000244140624 C79.33000183105469,93.11000061035155 82.77999877929688,90.97000122070313 85.29000091552734,88.04000091552734 C87.87000274658203,85.1500015258789 90.29000091552734,82.27999877929688 90.27999877929688,78.61000061035156 C90.37000274658203,77.25 90.56999969482422,76.30000305175781 90.72000122070313,75.05000305175781 C91.0999984741211,73.31999969482422 92.11000061035158,71.19999694824219 94.12000274658205,71.02999877929688 C94.79000091552736,70.95999908447266 95.11000061035156,71.16000366210938 95.68000030517578,71.18000030517578 C96.18000030517578,71.16999816894531 96.33000183105469,70.95999908447266 97.0199966430664,70.91999816894531 C98.69999694824219,70.93000030517578 99.41000366210939,71.98999786376953 99.76000213623048,72.58999633789063 C99.9499969482422,72.94999694824219 99.98999786376953,73.05000305175781 100.1500015258789,73.45999908447266 C100.80000305175781,75.30000305175781 100.06999969482422,77.16000366210938 99.6500015258789,78.88999938964844 C99.08000183105469,81.38999938964844 98.16999816894531,83.9800033569336 97.06999969482422,86.30000305175781 C95.1500015258789,89.69999694824219 93.90000152587889,93.50000000000001 90.69000244140624,96.01000213623048 C89.98000335693358,96.73000335693361 90.1699981689453,98.2300033569336 91.3000030517578,98.38999938964844 C91.3000030517578,98.38999938964844 91.16999816894533,98.9800033569336 91.16999816894533,98.9800033569336 C91.16999816894533,98.9800033569336 91.16999816894533,98.9800033569336 91.16999816894533,98.9800033569336 C91.16999816894533,98.9800033569336 91.18000030517578,98.95999908447266 91.18000030517578,98.95999908447266 Z" fill="#367763"/>
					</g>
					<g>
						<path d="M118.16999816894533,88.55999755859375 C116.4499969482422,87.7699966430664 114.94999694824219,89.22000122070313 114.54000091552734,90.8499984741211 C113.19000244140625,94.62999725341797 109.77999877929686,97.55999755859376 105.98999786376952,98.80999755859376 C103.40000152587889,100.01000213623048 101.13999938964844,97.29000091552734 102.06999969482422,94.7699966430664 C102.37999725341797,94.06999969482422 102.66999816894531,93.80000305175781 103,93.27999877929688 C104.81999969482422,90.68000030517578 107.58000183105467,86.8499984741211 109.12999725341795,84.1500015258789 C110.44999694824217,80.94000244140625 111.19999694824219,77.30999755859375 111.93000030517578,73.83999633789063 C112.16000366210938,72.62999725341797 112.4000015258789,71.88999938964844 112.2300033569336,71.22000122070313 C112.22000122070313,71.13999938964844 112.16000366210938,71.22000122070313 112.3499984741211,71.58999633789063 C112.5199966430664,72.05000305175781 113.44000244140626,72.55000305175781 113.87000274658205,72.5199966430664 C114.26000213623048,72.5199966430664 113.9800033569336,72.54000091552734 113.72000122070313,72.61000061035156 C112.80999755859375,72.81999969482422 111.4800033569336,72.86000061035156 110.5,72.61000061035156 C110.20999908447266,72.52999877929688 109.87999725341797,72.48999786376953 110.2699966430664,72.56999969482422 C110.61000061035156,72.6500015258789 111.36000061035155,72.44999694824219 111.62999725341795,72.20999908447266 C111.93000030517577,71.9800033569336 112.04000091552733,71.7699966430664 112.0500030517578,71.7699966430664 C112.0699996948242,71.75 111.97000122070313,72.18000030517578 111.88999938964844,72.61000061035156 C111.54000091552734,74.27999877929688 111.06999969482423,75.62000274658203 110.80999755859376,77.18000030517578 C110.48000335693361,79.52999877929688 109.87000274658205,81.88999938964844 108.51000213623048,84.1500015258789 C107.5800018310547,85.6500015258789 106.76999664306639,86.33999633789063 106.0500030517578,87.56999969482422 C103.62999725341795,91.27999877929688 100.52999877929688,94.62999725341797 97,97.33999633789063 C95.37000274658203,98.48999786376953 93.2300033569336,100.0500030517578 91.16000366210938,98.98999786376952 C91.16000366210938,98.98999786376952 91.29000091552734,98.4000015258789 91.29000091552734,98.4000015258789 C93.26000213623047,98.3499984741211 93.95999908447266,96.77999877929689 95.08999633789063,95.37000274658205 C96.70999908447266,93.27999877929689 98.01000213623047,90.66999816894531 99.43000030517578,88.45999908447266 C100.38999938964844,86.91000366210938 101.08000183105469,85.05999755859375 101.95999908447266,83.45999908447266 C103.6500015258789,80.97000122070313 104.25000000000001,79.08999633789063 104.66999816894533,76.11000061035156 C105.26000213623048,73.58000183105469 105.87000274658202,71.75 106.83000183105467,69.30999755859375 C107.34999847412108,68.01000213623047 109.51000213623047,66.22000122070313 111.9000015258789,67.25 C112.26000213623047,67.37999725341797 112.38999938964845,67.41000366210938 112.87000274658205,67.37999725341797 C115.73999786376955,66.81999969482422 117.51999664306642,68.86000061035156 117.30999755859376,71.68000030517578 C117.26000213623048,72.94999694824219 116.88999938964844,73.87000274658203 116.5999984741211,74.95999908447266 C115.5,78.76000213623047 114.50000000000001,82.5 112.62000274658205,86.11000061035156 C110.47000122070314,89.25 107.09999847412108,93.06999969482422 104.69000244140624,95.93000030517578 C104.65000152587889,95.97000122070313 104.5999984741211,96 104.66000366210938,96.27999877929688 C104.66000366210938,96.27999877929688 104.7300033569336,96.5199966430664 104.7300033569336,96.5199966430664 C104.7300033569336,96.5199966430664 104.73999786376952,96.55999755859374 104.73999786376952,96.58000183105467 C104.74999999999999,96.65000152587889 104.91999816894531,96.59999847412108 104.95999908447266,96.58000183105467 C108.54000091552734,95.83999633789061 111.73000335693361,93.69999694824219 113.37000274658205,90.3499984741211 C113.55999755859376,89.9800033569336 113.80999755859375,89.44000244140625 114.1500015258789,89.04000091552734 C115.0999984741211,87.75 117.06999969482423,87.13999938964844 118.4499969482422,88.05999755859375 C118.4499969482422,88.05999755859375 118.16000366210938,88.58999633789063 118.16000366210938,88.58999633789063 C118.16000366210938,88.58999633789063 118.16000366210938,88.58999633789063 118.16000366210938,88.58999633789063 C118.16000366210938,88.58999633789063 118.16999816894533,88.55999755859375 118.16999816894533,88.55999755859375 Z" fill="#367763"/>
					</g>
					<g>
						<path d="M61,103.5199966430664 C59.650001525878906,102.80000305175781 59.84000015258789,101.19999694824219 60.16999816894531,99.97000122070313 C60.34000015258789,99.30999755859375 60.849998474121094,97.36000061035156 61.040000915527344,96.66000366210938 C61.18000030517578,95.77999877929688 61.90999984741211,94.63999938964844 62.86000061035156,94.33999633789063 C63.77000045776367,94.02999877929688 64.25,93.93000030517578 65.04000091552734,93.5999984741211 C68.25,92.23999786376953 71.12000274658203,89.8499984741211 72.95999908447266,86.91000366210938 C76.12000274658203,81.4000015258789 79.37000274658203,75.25 81.29000091552734,69.26000213623047 C81.08000183105469,69.79000091552734 81.54000091552734,70.7699966430664 82.11000061035156,71.13999938964844 C82.70999908447266,71.52999877929688 82.83999633789063,71.47000122070313 82.7300033569336,71.4800033569336 C81.5,71.41000366210938 80.05999755859375,70.81999969482422 79.0999984741211,69.94999694824219 C78.81999969482422,69.70999908447266 78.55000305175781,69.41000366210938 78.47000122070313,69.31999969482422 C78.43000030517578,69.27999877929688 78.45999908447266,69.31999969482422 78.6500015258789,69.48999786376953 C79.20999908447266,70.04000091552734 80.63999938964844,70.27999877929688 81.37999725341797,69.77999877929688 C81.73999786376953,69.55000305175781 81.62000274658203,69.58999633789063 81.55000305175781,69.72000122070313 C81.01000213623047,70.58999633789063 80.22000122070313,72.3499984741211 79.69999694824219,73.27999877929688 C76.8499984741211,78.08000183105469 73.9000015258789,82.91000366210938 69.44999694824219,86.30999755859375 C68.70999908447266,86.95999908447266 67.36000061035156,87.11000061035156 66.5999984741211,86.4000015258789 C66.5999984741211,86.4000015258789 66.87999725341797,85.87000274658203 66.87999725341797,85.87000274658203 C67.31999969482422,85.91000366210938 67.75,85.7699966430664 67.9800033569336,85.43000030517578 C69.19000244140625,83.41000366210938 69.88999938964844,81.11000061035156 70.87999725341797,79.01000213623047 C71.87000274658203,76.2699966430664 73.19000244140625,73.37000274658203 74.25,70.75 C75.3499984741211,68.37999725341797 75.7300033569336,66.05999755859375 78.18000030517578,64.44999694824219 C79.87000274658203,63.380001068115234 82.23999786376953,63.900001525878906 83.23999786376953,65.4800033569336 C83.22000122070313,65.61000061035156 83.41999816894531,65.63999938964844 83.7300033569336,65.72000122070313 C86.36000061035156,66.16999816894531 87.27999877929688,68.73999786376953 86.77999877929688,70.38999938964844 C86.47000122070313,71.58999633789063 86.06999969482422,72.08000183105469 85.5999984741211,72.98999786376953 C84.83000183105469,74.36000061035156 84.12999725341797,75.76000213623047 83.36000061035156,77.12999725341797 C81.55999755859375,80.51000213623047 79.41000366210938,83.87999725341797 77.19000244140625,86.9800033569336 C74.20999908447266,91.7699966430664 69.08000183105469,95.33000183105469 63.470001220703125,96.08999633789063 C63.02000045776367,96.20999908447266 62.779998779296875,96.43000030517578 62.5099983215332,97.13999938964844 C62.2599983215332,97.76000213623047 61.459999084472656,99.70999908447266 61.189998626708984,100.31999969482422 C60.84000015258789,101.1500015258789 60.40999984741211,102.34999847412108 61.2599983215332,102.98999786376952 C61.2599983215332,102.98999786376952 60.97999954223633,103.5199966430664 60.97999954223633,103.5199966430664 C60.97999954223633,103.5199966430664 60.97999954223633,103.5199966430664 60.97999954223633,103.5199966430664 C60.97999954223633,103.5199966430664 61,103.5199966430664 61,103.5199966430664 Z" fill="#367763"/>
					</g>
				</g>
			</g>
		</g>
	</g>
	<g>
		<g transform="matrix(-1.083794272,0.006554857,0.01325901,1.05061522,127.209823314,27.260981595)">
			<g>
				<g>
					<g>
						<path d="M91.18000030517578,98.95999908447266 C90.16000366210938,98.95999908447266 89.33999633789063,97.83999633789063 89.37999725341797,96.81999969482422 C89.33999633789063,95.79000091552734 90.0999984741211,95.02999877929688 90.75,94.36000061035156 C93.13999938964844,91.19000244140625 94.41999816894531,86.83000183105469 95.58999633789063,83.02999877929688 C96.04000091552734,81.6500015258789 96.30999755859376,79.56999969482422 96.51000213623048,78.12999725341797 C96.51000213623048,78.12999725341797 96.69000244140624,76.91000366210938 96.69000244140624,76.91000366210938 C96.8000030517578,76.02999877929688 97.05000305175781,75.16999816894531 96.5199966430664,74.51000213623047 C96.4800033569336,74.47000122070313 96.48000335693358,74.51000213623047 96.58000183105467,74.5999984741211 C96.69999694824217,74.68000030517578 96.80000305175783,74.80999755859375 97.26000213623048,74.80999755859375 C97.70999908447267,74.73999786376953 97.44000244140624,74.80999755859375 97.12999725341795,74.93000030517578 C96.48999786376952,75.16000366210938 95.79000091552736,75.25 95.12000274658205,75.22000122070313 C94.79000091552736,75.19999694824219 94.48999786376953,75.16000366210938 94.4000015258789,75.16000366210938 C94.36000061035156,75.16000366210938 94.37999725341797,75.16999816894531 94.52999877929688,75.16000366210938 C94.6500015258789,75.16000366210938 94.87000274658203,75.0999984741211 95,75.02999877929688 C95.20999908447266,74.95999908447266 95.45999908447266,74.62000274658203 95.4000015258789,74.7300033569336 C95.3499984741211,74.81999969482422 95.26000213623047,75 95.2300033569336,75.0999984741211 C95.0999984741211,75.41999816894531 95.05999755859375,75.8499984741211 95.06999969482422,76.19999694824219 C95.04000091552734,76.75 94.94999694824219,78.12999725341797 94.97000122070313,78.55000305175781 C95.3499984741211,83.5 92.83999633789063,88.16999816894533 90.01000213623047,91.9499969482422 C87.16999816894531,95.75000000000001 82.72000122070313,98.3499984741211 78.2300033569336,99.61000061035156 C77.76000213623047,99.77999877929688 76.68000030517578,100.0500030517578 76.05000305175781,99.98999786376952 C72.62999725341797,99.63999938964842 69.22000122070313,100.36000061035155 66.12999725341797,101.98999786376952 C64.88999938964844,102.51000213623045 63.91999816894531,103.63999938964844 62.560001373291016,103.93000030517578 C61.959999084472656,104 61.41999816894531,103.80999755859375 61.040000915527344,103.54000091552734 C61.040000915527344,103.54000091552734 61.2599983215332,102.9800033569336 61.2599983215332,102.9800033569336 C61.65999984741211,103.0199966430664 62,102.95999908447266 62.22999954223633,102.79000091552734 C62.34000015258789,102.70999908447266 62.459999084472656,102.61000061035155 62.540000915527344,102.48999786376952 C63.099998474121094,101.59999847412108 63.79999923706055,100.70999908447266 64.54000091552734,99.93000030517578 C67.44000244140625,96.87999725341797 71.58000183105469,94.94000244140624 75.83000183105469,94.69000244140624 C79.33000183105469,93.11000061035155 82.77999877929688,90.97000122070313 85.29000091552734,88.04000091552734 C87.87000274658203,85.1500015258789 90.29000091552734,82.27999877929688 90.27999877929688,78.61000061035156 C90.37000274658203,77.25 90.56999969482422,76.30000305175781 90.72000122070313,75.05000305175781 C91.0999984741211,73.31999969482422 92.11000061035158,71.19999694824219 94.12000274658205,71.02999877929688 C94.79000091552736,70.95999908447266 95.11000061035156,71.16000366210938 95.68000030517578,71.18000030517578 C96.18000030517578,71.16999816894531 96.33000183105469,70.95999908447266 97.0199966430664,70.91999816894531 C98.69999694824219,70.93000030517578 99.41000366210939,71.98999786376953 99.76000213623048,72.58999633789063 C99.9499969482422,72.94999694824219 99.98999786376953,73.05000305175781 100.1500015258789,73.45999908447266 C100.80000305175781,75.30000305175781 100.06999969482422,77.16000366210938 99.6500015258789,78.88999938964844 C99.08000183105469,81.38999938964844 98.16999816894531,83.9800033569336 97.06999969482422,86.30000305175781 C95.1500015258789,89.69999694824219 93.90000152587889,93.50000000000001 90.69000244140624,96.01000213623048 C89.98000335693358,96.73000335693361 90.1699981689453,98.2300033569336 91.3000030517578,98.38999938964844 C91.3000030517578,98.38999938964844 91.16999816894533,98.9800033569336 91.16999816894533,98.9800033569336 C91.16999816894533,98.9800033569336 91.16999816894533,98.9800033569336 91.16999816894533,98.9800033569336 C91.16999816894533,98.9800033569336 91.18000030517578,98.95999908447266 91.18000030517578,98.95999908447266 Z" fill="#367763"/>
					</g>
					<g>
						<path d="M118.16999816894533,88.55999755859375 C116.4499969482422,87.7699966430664 114.94999694824219,89.22000122070313 114.54000091552734,90.8499984741211 C113.19000244140625,94.62999725341797 109.77999877929686,97.55999755859376 105.98999786376952,98.80999755859376 C103.40000152587889,100.01000213623048 101.13999938964844,97.29000091552734 102.06999969482422,94.7699966430664 C102.37999725341797,94.06999969482422 102.66999816894531,93.80000305175781 103,93.27999877929688 C104.81999969482422,90.68000030517578 107.58000183105467,86.8499984741211 109.12999725341795,84.1500015258789 C110.44999694824217,80.94000244140625 111.19999694824219,77.30999755859375 111.93000030517578,73.83999633789063 C112.16000366210938,72.62999725341797 112.4000015258789,71.88999938964844 112.2300033569336,71.22000122070313 C112.22000122070313,71.13999938964844 112.16000366210938,71.22000122070313 112.3499984741211,71.58999633789063 C112.5199966430664,72.05000305175781 113.44000244140626,72.55000305175781 113.87000274658205,72.5199966430664 C114.26000213623048,72.5199966430664 113.9800033569336,72.54000091552734 113.72000122070313,72.61000061035156 C112.80999755859375,72.81999969482422 111.4800033569336,72.86000061035156 110.5,72.61000061035156 C110.20999908447266,72.52999877929688 109.87999725341797,72.48999786376953 110.2699966430664,72.56999969482422 C110.61000061035156,72.6500015258789 111.36000061035155,72.44999694824219 111.62999725341795,72.20999908447266 C111.93000030517577,71.9800033569336 112.04000091552733,71.7699966430664 112.0500030517578,71.7699966430664 C112.0699996948242,71.75 111.97000122070313,72.18000030517578 111.88999938964844,72.61000061035156 C111.54000091552734,74.27999877929688 111.06999969482423,75.62000274658203 110.80999755859376,77.18000030517578 C110.48000335693361,79.52999877929688 109.87000274658205,81.88999938964844 108.51000213623048,84.1500015258789 C107.5800018310547,85.6500015258789 106.76999664306639,86.33999633789063 106.0500030517578,87.56999969482422 C103.62999725341795,91.27999877929688 100.52999877929688,94.62999725341797 97,97.33999633789063 C95.37000274658203,98.48999786376953 93.2300033569336,100.0500030517578 91.16000366210938,98.98999786376952 C91.16000366210938,98.98999786376952 91.29000091552734,98.4000015258789 91.29000091552734,98.4000015258789 C93.26000213623047,98.3499984741211 93.95999908447266,96.77999877929689 95.08999633789063,95.37000274658205 C96.70999908447266,93.27999877929689 98.01000213623047,90.66999816894531 99.43000030517578,88.45999908447266 C100.38999938964844,86.91000366210938 101.08000183105469,85.05999755859375 101.95999908447266,83.45999908447266 C103.6500015258789,80.97000122070313 104.25000000000001,79.08999633789063 104.66999816894533,76.11000061035156 C105.26000213623048,73.58000183105469 105.87000274658202,71.75 106.83000183105467,69.30999755859375 C107.34999847412108,68.01000213623047 109.51000213623047,66.22000122070313 111.9000015258789,67.25 C112.26000213623047,67.37999725341797 112.38999938964845,67.41000366210938 112.87000274658205,67.37999725341797 C115.73999786376955,66.81999969482422 117.51999664306642,68.86000061035156 117.30999755859376,71.68000030517578 C117.26000213623048,72.94999694824219 116.88999938964844,73.87000274658203 116.5999984741211,74.95999908447266 C115.5,78.76000213623047 114.50000000000001,82.5 112.62000274658205,86.11000061035156 C110.47000122070314,89.25 107.09999847412108,93.06999969482422 104.69000244140624,95.93000030517578 C104.65000152587889,95.97000122070313 104.5999984741211,96 104.66000366210938,96.27999877929688 C104.66000366210938,96.27999877929688 104.7300033569336,96.5199966430664 104.7300033569336,96.5199966430664 C104.7300033569336,96.5199966430664 104.73999786376952,96.55999755859374 104.73999786376952,96.58000183105467 C104.74999999999999,96.65000152587889 104.91999816894531,96.59999847412108 104.95999908447266,96.58000183105467 C108.54000091552734,95.83999633789061 111.73000335693361,93.69999694824219 113.37000274658205,90.3499984741211 C113.55999755859376,89.9800033569336 113.80999755859375,89.44000244140625 114.1500015258789,89.04000091552734 C115.0999984741211,87.75 117.06999969482423,87.13999938964844 118.4499969482422,88.05999755859375 C118.4499969482422,88.05999755859375 118.16000366210938,88.58999633789063 118.16000366210938,88.58999633789063 C118.16000366210938,88.58999633789063 118.16000366210938,88.58999633789063 118.16000366210938,88.58999633789063 C118.16000366210938,88.58999633789063 118.16999816894533,88.55999755859375 118.16999816894533,88.55999755859375 Z" fill="#367763"/>
					</g>
					<g>
						<path d="M61,103.5199966430664 C59.650001525878906,102.80000305175781 59.84000015258789,101.19999694824219 60.16999816894531,99.97000122070313 C60.34000015258789,99.30999755859375 60.849998474121094,97.36000061035156 61.040000915527344,96.66000366210938 C61.18000030517578,95.77999877929688 61.90999984741211,94.63999938964844 62.86000061035156,94.33999633789063 C63.77000045776367,94.02999877929688 64.25,93.93000030517578 65.04000091552734,93.5999984741211 C68.25,92.23999786376953 71.12000274658203,89.8499984741211 72.95999908447266,86.91000366210938 C76.12000274658203,81.4000015258789 79.37000274658203,75.25 81.29000091552734,69.26000213623047 C81.08000183105469,69.79000091552734 81.54000091552734,70.7699966430664 82.11000061035156,71.13999938964844 C82.70999908447266,71.52999877929688 82.83999633789063,71.47000122070313 82.7300033569336,71.4800033569336 C81.5,71.41000366210938 80.05999755859375,70.81999969482422 79.0999984741211,69.94999694824219 C78.81999969482422,69.70999908447266 78.55000305175781,69.41000366210938 78.47000122070313,69.31999969482422 C78.43000030517578,69.27999877929688 78.45999908447266,69.31999969482422 78.6500015258789,69.48999786376953 C79.20999908447266,70.04000091552734 80.63999938964844,70.27999877929688 81.37999725341797,69.77999877929688 C81.73999786376953,69.55000305175781 81.62000274658203,69.58999633789063 81.55000305175781,69.72000122070313 C81.01000213623047,70.58999633789063 80.22000122070313,72.3499984741211 79.69999694824219,73.27999877929688 C76.8499984741211,78.08000183105469 73.9000015258789,82.91000366210938 69.44999694824219,86.30999755859375 C68.70999908447266,86.95999908447266 67.36000061035156,87.11000061035156 66.5999984741211,86.4000015258789 C66.5999984741211,86.4000015258789 66.87999725341797,85.87000274658203 66.87999725341797,85.87000274658203 C67.31999969482422,85.91000366210938 67.75,85.7699966430664 67.9800033569336,85.43000030517578 C69.19000244140625,83.41000366210938 69.88999938964844,81.11000061035156 70.87999725341797,79.01000213623047 C71.87000274658203,76.2699966430664 73.19000244140625,73.37000274658203 74.25,70.75 C75.3499984741211,68.37999725341797 75.7300033569336,66.05999755859375 78.18000030517578,64.44999694824219 C79.87000274658203,63.380001068115234 82.23999786376953,63.900001525878906 83.23999786376953,65.4800033569336 C83.22000122070313,65.61000061035156 83.41999816894531,65.63999938964844 83.7300033569336,65.72000122070313 C86.36000061035156,66.16999816894531 87.27999877929688,68.73999786376953 86.77999877929688,70.38999938964844 C86.47000122070313,71.58999633789063 86.06999969482422,72.08000183105469 85.5999984741211,72.98999786376953 C84.83000183105469,74.36000061035156 84.12999725341797,75.76000213623047 83.36000061035156,77.12999725341797 C81.55999755859375,80.51000213623047 79.41000366210938,83.87999725341797 77.19000244140625,86.9800033569336 C74.20999908447266,91.7699966430664 69.08000183105469,95.33000183105469 63.470001220703125,96.08999633789063 C63.02000045776367,96.20999908447266 62.779998779296875,96.43000030517578 62.5099983215332,97.13999938964844 C62.2599983215332,97.76000213623047 61.459999084472656,99.70999908447266 61.189998626708984,100.31999969482422 C60.84000015258789,101.1500015258789 60.40999984741211,102.34999847412108 61.2599983215332,102.98999786376952 C61.2599983215332,102.98999786376952 60.97999954223633,103.5199966430664 60.97999954223633,103.5199966430664 C60.97999954223633,103.5199966430664 60.97999954223633,103.5199966430664 60.97999954223633,103.5199966430664 C60.97999954223633,103.5199966430664 61,103.5199966430664 61,103.5199966430664 Z" fill="#367763"/>
					</g>
				</g>
			</g>
		</g>
	</g>
</g></g></svg>
