<svg xmlns="http://www.w3.org/2000/svg" xmlns:graphite="https://graphite.art" viewBox="0 0 132 94" width="132" height="94"><defs><clipPath id="artboard-4604722188762490807"><rect x="0" y="0" width="132" height="94" /></clipPath></defs><g>
<rect fill="#ffffff" fill-opacity="0" x="0" y="0" width="132" height="94"/>
<g clip-path="url(#artboard-4604722188762490807)">
	<g>
		<g transform="matrix(1,0,0,1,-18.923740046,-0.229911174)">
			<g>
				<g>
					<g>
						<g>
							<path d="M93.8848991394043,34.39604663848877 C93.8848991394043,34.39604663848877 93.8848991394043,34.39604663848877 93.8848991394043,34.39604663848877M84.67989730834961,64.37204837799072 C84.67989730834961,64.37204837799072 84.67989730834961,64.37204837799072 84.67989730834961,64.37204837799072M67.0468978881836,19.540047645568848 C66.76989936828613,19.540047645568848 65.93389892578125,21.37604808807373 65.67389869689941,21.949048042297363 C64.85276985168457,23.821663856506348 64.22096061706543,25.77169895172119 63.787899017333984,27.770047187805176 C63.23983192443848,29.64071750640869 62.87149620056152,31.55941104888916 62.68789863586426,33.500046730041504 C62.661808013916016,34.07576084136963 62.601701736450195,34.64942646026611 62.50789833068848,35.21804904937744 C62.34789848327637,36.2040491104126 62.26789855957031,36.697049140930176 62.085899353027344,36.78804874420166 C62.04666519165039,36.80709934234619 62.003509521484375,36.81668949127197 61.95989799499512,36.81604862213135 C61.61989784240723,36.81604862213135 61.03889846801758,36.33804798126221 60.37089920043945,35.64004611968994 C61.60846138000488,37.64058780670166 62.314449310302734,39.92411518096924 62.421897888183594,42.274048805236816 C62.48589897155762,45.029046058654785 61.63189888000488,52.257046699523926 61.59689903259277,55.79804706573486 C61.57894706726074,56.476006507873535 61.76725196838379,57.14344120025635 62.136898040771484,57.71204853057861 C62.723358154296875,58.5752534866333 63.65553855895996,59.14149188995361 64.69189834594727,59.26404666900635 C64.87590217590332,59.269768714904785 65.05801963806152,59.2255334854126 65.21889877319336,59.136048316955566 C65.96989822387695,58.68704700469971 65.46289825439453,57.24504566192627 65.24989891052246,53.770047187805176 C65.15589904785156,52.24504566192627 65.28789901733398,53.07804584503174 65.24989891052246,48.25304889678955 C65.20989799499512,43.228047370910645 65.06589889526367,42.132046699523926 65.30089950561523,41.318047523498535 C65.35158920288086,41.14542484283447 65.4185562133789,40.97800922393799 65.50089836120605,40.818047523498535 C66.12494468688965,39.59678363800049 67.11606216430664,38.60181903839111 68.33489799499512,37.97304630279541 C68.33489799499512,37.97304630279541 68.69089889526367,37.767048835754395 71.21489715576172,36.7400484085083 C70.31819534301758,36.89462375640869 69.45173645019531,37.19064426422119 68.64789772033691,37.61704730987549 C67.84481620788574,38.21936511993408 66.93420791625977,38.66296100616455 65.96489906311035,38.92404651641846 C65.77293968200684,38.95310688018799 65.57904434204102,38.96748065948486 65.3848991394043,38.96704578399658 C65.1329574584961,38.96661853790283 64.8815803527832,38.94318866729736 64.63389778137207,38.89704608917236 C64.5179271697998,34.681077003479004 64.87990188598633,30.465535163879395 65.71289825439453,26.331048011779785 C66.37889862060547,23.073046684265137 67.40189933776855,19.650046348571777 67.06289863586426,19.544047355651855 C67.05727767944336,19.543036460876465 67.0515193939209,19.543036460876465 67.0458984375,19.544047355651855M55.99989891052246,30.27504825592041 C55.99989891052246,30.27504825592041 55.99989891052246,30.27504825592041 55.99989891052246,30.27504825592041 C55.98489952087402,30.285046577453613 56.07589912414551,30.375046730041504 56.24689865112305,30.544045448303223 C56.17876625061035,30.4429292678833 56.09622764587402,30.352307319641113 56.00189781188965,30.27504825592041M56.24689865112305,30.544045448303223 C56.92989921569824,31.39604663848877 58.87689781188965,34.071045875549316 60.37889862060547,35.64404773712158 C59.237152099609375,33.765984535217285 57.84728813171387,32.05051898956299 56.24689865112305,30.544045448303223M94.40390014648438,34.01404666900635 C94.40390014648438,34.01404666900635 94.40390014648438,34.01404666900635 94.40390014648438,34.01404666900635 C94.40390014648438,34.01404666900635 94.40390014648438,34.01404666900635 94.40390014648438,34.01404666900635 Z" fill="#337962"/>
						</g>
					</g>
					<g>
						<g>
							<path d="M66.53589630126953,6.973047435283661 C69.58353424072266,5.932993113994598 72.90728378295898,6.0504526644945145 75.87389755249023,7.30304741859436 C80.6968994140625,9.335047483444214 85.7168960571289,14.403047561645508 83.83489608764648,20.075047492980957 C83.32863998413086,21.105836868286133 82.76095199584961,22.105300903320313 82.1348991394043,23.068047523498535 C81.03489685058594,25.594046592712402 85.43489837646484,26.101046562194824 87.28989791870117,28.99404811859131 C88.21720886230469,30.352513313293457 88.8844985961914,31.871201515197754 89.25789642333984,33.47304821014404 C90.92489624023438,38.588046073913574 89.87889862060547,44.92904567718506 84.33089828491211,47.27304744720459 C78.40574264526367,49.68782329559326 71.72628784179688,49.42534160614014 66.0088996887207,46.553046226501465 C65.91662216186523,46.50564098358154 65.86846923828125,46.40149974822998 65.89212417602539,46.300490379333496 C65.91577911376953,46.19948101043701 66.00516891479492,46.12755107879639 66.1088981628418,46.12604808807373 C67.61689758300781,46.089049339294434 69.07589721679688,46.06104564666748 70.5088996887207,45.954047203063965 C74.59743118286133,45.70179271697998 78.6063117980957,44.71007823944092 82.34089660644531,43.02704906463623 C86.73189926147461,41.006049156188965 85.98889923095703,36.15304660797119 85.62189865112305,32.01904773712158 C85.51938247680664,30.745678901672363 85.04391479492188,29.530749320983887 84.25489807128906,28.526047706604004 C83.34089660644531,27.30204677581787 81.85489654541016,26.756047248840332 81.0448989868164,25.269047737121582 C80.60972595214844,24.446425437927246 80.5218620300293,23.483864784240723 80.80089950561523,22.596047401428223 C81.30089950561523,21.15904712677002 82.03989791870117,20.122047424316406 81.75089645385742,18.701047897338867 C81.46311569213867,17.543757438659668 80.89118194580078,16.476537704467773 80.08689880371094,15.596047401428223 C78.44293212890625,13.569442749023438 76.5015983581543,11.803428649902344 74.32889938354492,10.358047485351563 C71.93457794189453,8.92733359336853 69.30610275268555,7.9313294887542725 66.56489944458008,7.41604745388031 C66.46313095092773,7.3954620361328125 66.38777160644531,7.309245347976685 66.38098907470703,7.2056373953819275 C66.37420654296875,7.10202944278717 66.43768310546875,7.006724417209625 66.53589630126953,6.973047435283661" fill="#337962" stroke="#337962" stroke-width="3"/>
						</g>
					</g>
					<g>
						<g>
							<path d="M60.56089973449707,46.05104875564575 C58.42843055725098,48.31994676589966 55.0772180557251,48.95708131790161 52.26089954376221,47.629047870635986 C49.6589412689209,46.466721057891846 47.3968346118927,44.659306049346924 45.68889904022217,42.37804841995239 C43.93589907884598,40.026047229766846 43.52789908647537,36.19304704666138 45.258899092674255,33.75304651260376 C45.98589909076691,32.537046909332275 46.924899101257324,31.56204652786255 47.604899168014526,30.532047748565674 C48.098899126052856,29.75504732131958 48.513898849487305,28.998047351837158 48.025899171829224,28.249046802520752 C47.80889916419983,27.965046405792236 47.70389914512634,27.982046604156494 47.300899028778076,27.69404649734497 C43.72589907050133,25.06404733657837 46.05489909648895,20.460047245025635 48.120898962020874,17.705047130584717 C49.91068410873413,14.870384693145752 52.09493398666382,12.30497694015503 54.6078987121582,10.086047172546387 C57.87514686584473,7.234318971633911 62.29288673400879,6.084328927099705 66.53589820861816,6.981047213077545 C66.6328239440918,7.004157841205597 66.7033462524414,7.087774395942688 66.70977592468262,7.187208771705627 C66.71620559692383,7.286643028259277 66.65703964233398,7.378645896911621 66.56389999389648,7.4140472412109375 C64.21428489685059,8.173876285552979 61.996877670288086,9.293880939483643 59.990899085998535,10.734047412872314 C57.30489921569824,12.872047424316406 55.19089889526367,16.198047161102295 52.82089900970459,18.890047550201416 C52.13789892196655,19.72004747390747 51.00089931488037,20.960047245025635 50.36689901351929,21.750047206878662 C49.45889902114868,22.9500470161438 48.26089906692505,24.563047885894775 49.12389898300171,25.735046863555908 C50.84389925003052,27.552046298980713 50.37989902496338,29.778048038482666 48.763898849487305,31.42004632949829 C45.64889907836914,34.56804704666138 44.98989909887314,36.97504663467407 48.48889923095703,40.08604860305786 C49.6678991317749,41.212048053741455 51.20789909362793,42.51604890823364 52.5118989944458,43.60204744338989 C54.55532932281494,45.656822681427 57.54763698577881,46.450668811798096 60.340898513793945,45.67904710769653 C60.436452865600586,45.659470081329346 60.53392219543457,45.70256853103638 60.58374214172363,45.786423206329346 C60.63356018066406,45.87028169631958 60.624794006347656,45.97649431228638 60.561899185180664,46.05104875564575" fill="#337962" stroke="#337962" stroke-width="2"/>
						</g>
					</g>
					<g>
						<g>
							<path d="M113.42789840698242,17.757047176361084 C113.20190048217773,17.757047176361084 112.52789688110352,19.01704740524292 112.31089401245117,19.41004705429077 C111.64925003051758,20.680657863616943 111.13492202758789,22.022691249847412 110.77789688110352,23.41004705429077 C110.33613967895508,24.683656215667725 110.03730392456055,26.002418041229248 109.88689804077148,27.342048168182373 C109.8664436340332,27.73836088180542 109.81765365600586,28.13270139694214 109.74089431762695,28.522048473358154 C109.61089706420898,29.19904661178589 109.54589462280273,29.537047863006592 109.39789962768555,29.60004758834839 C109.36621475219727,29.61314344406128 109.33218002319336,29.619609355926514 109.29789352416992,29.619048595428467 C108.80083847045898,29.47364377975464 108.35345840454102,29.19407606124878 108.0048942565918,28.81104612350464 C108.99243545532227,30.13351011276245 109.57217025756836,31.71562910079956 109.67289352416992,33.36304807662964 C109.72389602661133,35.255046367645264 109.0308952331543,40.215049266815186 109.00289535522461,42.6450457572937 C108.98999404907227,43.12090253829956 109.14506149291992,43.58610486984253 109.44089889526367,43.95904874801636 C109.96500778198242,44.575461864471436 110.71244430541992,44.95852994918823 111.51889419555664,45.02404737472534 C111.66645431518555,45.028220653533936 111.81296157836914,44.99809980392456 111.94689559936523,44.93604612350464 C112.55789566040039,44.628047466278076 112.14690017700195,43.63604688644409 111.97289657592773,41.253047466278076 C111.89690017700195,40.20604658126831 112.0038948059082,40.77804899215698 111.97289657592773,37.46604871749878 C111.93989944458008,34.018046855926514 111.82289505004883,33.266047954559326 112.01389694213867,32.70604658126831 C112.05530166625977,32.58620023727417 112.10891342163086,32.470927715301514 112.17390060424805,32.362048625946045 C112.72343826293945,31.491946697235107 113.52602005004883,30.810794353485107 114.47389602661133,30.410048961639404 C114.47389602661133,30.410048961639404 114.76389694213867,30.269046306610107 116.81589889526367,29.564048290252686 C116.09592819213867,29.667026042938232 115.39362716674805,29.868934154510498 114.72890090942383,30.16404676437378 C114.05752944946289,30.586368083953857 113.31888198852539,30.890754222869873 112.54489517211914,31.064048290252686 C112.38837814331055,31.08421277999878 112.23070907592773,31.094233989715576 112.07289505004883,31.09404706954956 C111.8682975769043,31.09382200241089 111.66402053833008,31.07777738571167 111.46189498901367,31.0460467338562 C111.36863327026367,28.14475965499878 111.66392135620117,25.24402952194214 112.33990097045898,22.4210467338562 C112.88089370727539,20.185046672821045 113.71289443969727,17.836047649383545 113.43989944458008,17.763047695159912 C113.43989944458008,17.763047695159912 113.42689895629883,17.763047695159912 113.42689895629883,17.763047695159912M104.44389724731445,25.131045818328857 C104.44389724731445,25.131045818328857 104.44389724731445,25.131045818328857 104.44389724731445,25.131045818328857 C104.4318962097168,25.13804578781128 104.50589370727539,25.201049327850342 104.64389419555664,25.316047191619873 C104.58666610717773,25.244906902313232 104.5192756652832,25.18257474899292 104.44389724731445,25.131045818328857M104.64389419555664,25.316047191619873 C105.19889450073242,25.90104627609253 106.78289413452148,27.737048625946045 108.00289535522461,28.816047191619873 C107.04834365844727,27.501437664031982 105.91816329956055,26.323821544647217 104.64389419555664,25.316047191619873" fill="#337962"/>
						</g>
					</g>
					<g>
						<g>
							<path d="M102.9198989868164,33.14804673194885 C99.85581970214844,30.734720468521118 98.72518920898438,26.604503870010376 100.13289642333984,22.967046976089478 C100.96389770507813,20.802047967910767 103.13289642333984,18.317047357559204 105.70189666748047,19.067047357559204 C106.50789642333984,19.232046365737915 106.8228988647461,18.889046907424927 106.90189361572266,18.14804768562317 C106.9407730102539,17.171819925308228 107.19337463378906,16.216012239456177 107.64189910888672,15.348047494888306 C108.17980194091797,14.484816789627075 108.90718841552734,13.755383729934692 109.7688980102539,13.215047121047974 C111.42589569091797,11.98604702949524 113.7688980102539,11.067047357559204 115.90989685058594,11.886047601699829 C119.83589935302734,13.581047296524048 121.5448989868164,19.206047296524048 120.9468994140625,23.113046884536743 C120.93257141113281,23.20098900794983 120.84992218017578,23.260856866836548 120.76189422607422,23.247047662734985 C120.70927429199219,23.23794388771057 120.66424560546875,23.204078912734985 120.64089965820313,23.1560480594635 C119.95760345458984,21.629997491836548 119.16522216796875,20.155176401138306 118.2698974609375,18.74304699897766 C117.47607421875,17.482717752456665 116.50094604492188,16.346186876296997 115.37589263916016,15.370046854019165 C113.88990020751953,14.116047143936157 111.7908935546875,15.229047060012817 110.13589477539063,16.086047410964966 C109.5338134765625,16.36837124824524 109.02713012695313,16.820145845413208 108.67789459228516,17.38604760169983 C108.21289825439453,18.126047372817993 108.07789611816406,19.29204773902893 107.14289855957031,19.807047128677368 C106.32989501953125,20.381046533584595 105.2428970336914,19.741047143936157 104.43289947509766,19.94104790687561 C102.95689392089844,20.45704674720764 102.84989929199219,22.311046838760376 102.61689758300781,23.66004776954651 C102.33213806152344,25.144832849502563 102.20509338378906,26.655557870864868 102.23789978027344,28.16704773902893 C102.3727798461914,29.79646897315979 102.68632507324219,31.406131982803345 103.17289733886719,32.96704697608948 C103.19104766845703,33.03389763832092 103.1655044555664,33.10496544837952 103.10896301269531,33.14497399330139 C103.05241394042969,33.18498253822327 102.97689819335938,33.18541169166565 102.9198989868164,33.146047830581665" fill="#337962" stroke="#337962" stroke-width="2"/>
						</g>
					</g>
					<g>
						<g>
							<path d="M103.04489517211914,33.05904674530029 C105.98189926147461,33.19604778289795 108.62189865112305,33.842047691345215 110.17389297485352,36.54204845428467 C107.3848991394043,37.93504619598389 103.23089981079102,36.43104839324951 103.04489517211914,33.05904674530029" fill="#337962"/>
						</g>
					</g>
					<g>
						<g>
							<path d="M121.63690185546875,26.115046501159668 C124.10890197753906,26.852046012878418 124.69390106201172,29.715048789978027 124.11090087890625,31.95304775238037 C123.68989562988281,34.40504741668701 122.19390106201172,37.26304531097412 119.222900390625,37.33604717254639 C118.44548797607422,37.25352382659912 117.67872619628906,37.090651512145996 116.93489837646484,36.85004711151123 C116.21903228759766,36.87776851654053 115.5091781616211,36.99227428436279 114.8208999633789,37.191046714782715 C113.95500946044922,37.3250036239624 113.07109832763672,37.28488826751709 112.22090148925781,37.07304668426514 C112.96289825439453,36.62904644012451 113.65589904785156,36.22104549407959 114.2688980102539,35.77304744720459 C114.94357299804688,35.151259422302246 115.75252532958984,34.693400382995605 116.63289642333984,34.43504619598389 C117.16062927246094,34.32161235809326 117.70408630371094,34.300971031188965 118.23889923095703,34.37404537200928 C118.9928970336914,34.44004726409912 119.06289672851563,34.4950475692749 119.57589721679688,34.19404888153076 C120.75090026855469,33.351046562194824 121.20289611816406,31.816046714782715 121.91490173339844,30.165045738220215 C122.50043487548828,28.852526664733887 122.39472198486328,27.33472728729248 121.63289642333984,26.11604595184326" fill="#337962" stroke="#337962" stroke-width="2"/>
						</g>
					</g>
					<g>
						<g>
							<path d="M81.0728988647461,66.6490478515625 C77.79856872558594,64.52903747558594 74.37874603271484,62.64268493652344 70.83889770507813,61.00404357910156 C70.02256202697754,60.729408264160156 69.19037818908691,60.50432586669922 68.34689903259277,60.330047607421875 C64.7819938659668,59.62010192871094 61.14373970031738,59.34809112548828 57.51289749145508,59.520050048828125 C57.51289749145508,59.520050048828125 53.83589839935303,59.744049072265625 53.83589839935303,59.744049072265625 C56.00489807128906,59.28204345703125 58.95089912414551,58.64404296875 61.127899169921875,58.42704772949219 C64.85189819335938,58.04004669189453 68.84889793395996,57.81304931640625 72.53989791870117,58.791046142578125 C76.12913513183594,59.925079345703125 79.64969253540039,61.2659912109375 83.08389663696289,62.807044982910156 C83.83110046386719,63.13127899169922 84.3343734741211,63.845985412597656 84.38781356811523,64.65874481201172 C84.44124984741211,65.47151184082031 84.03588485717773,66.24595642089844 83.33756637573242,66.66522979736328 C82.63925170898438,67.08450317382813 81.76515197753906,67.07826232910156 81.0728988647461,66.6490478515625" fill="#337962"/>
						</g>
					</g>
					<g>
						<g>
							<path d="M98.17789459228516,51.7110481262207 C102.43589782714844,45.02604675292969 112.37789916992188,39.68704605102539 119.77189636230469,44.53704833984375 C119.81718444824219,44.569496154785156 119.83721923828125,44.62688446044922 119.82197570800781,44.68046951293945 C119.80673217773438,44.73405456542969 119.75948333740234,44.77229690551758 119.70389556884766,44.77604675292969 C117.60990142822266,44.89704513549805 115.70389556884766,44.93004608154297 113.8208999633789,45.12604522705078 C113.8208999633789,45.12604522705078 111.0208969116211,45.37104797363281 111.0208969116211,45.37104797363281 C108.14779663085938,45.62809371948242 105.3791275024414,46.57453918457031 102.94989776611328,48.13004684448242 C101.26765441894531,49.168148040771484 99.72972106933594,50.423648834228516 98.37590026855469,51.86404800415039 C98.28189849853516,51.97004318237305 98.09489440917969,51.83304977416992 98.17589569091797,51.7110481262207" fill="#337962"/>
						</g>
					</g>
					<g>
						<g>
							<path d="M48.20789909362793,80.51504898071289 C65.63689994812012,83.37104415893555 83.37189865112305,84.36104965209961 100.88190078735352,81.95505142211914 C103.41523361206055,81.62171808878581 105.9392318725586,81.21771621704102 108.45389556884766,80.74304580688477 C109.57035827636719,80.69482803344727 110.67759704589844,80.51868057250977 111.75389862060547,80.21804428100586 C116.96239471435547,79.05132675170898 120.69530487060547,74.47082901000977 120.78689575195313,69.1340446472168 C120.87190246582031,63.6640510559082 117.14289855957031,58.44804763793945 112.21489715576172,56.16604995727539 C106.40290832519531,53.97568130493164 100.31464385986328,52.603885650634766 94.1249008178711,52.09004592895508 C99.20232009887695,51.37418746948242 104.36033630371094,51.4548225402832 109.41290283203125,52.329044342041016 C112.15135955810547,52.6044807434082 114.79525756835938,53.48099899291992 117.15589904785156,54.89604568481445 C121.96189880371094,57.99604415893555 125.49589538574219,63.196048736572266 125.68689727783203,69.05604934692383 C125.98157501220703,76.81367111206055 120.78013610839844,83.70880508422852 113.23989868164063,85.55604934692383 C111.82393646240234,85.96326065063477 110.36754608154297,86.2137565612793 108.89689636230469,86.30305099487305 C108.89689636230469,86.30305099487305 109.28389739990234,86.2590446472168 109.28389739990234,86.2590446472168 C106.72189839680989,86.72571436564128 104.14756520589194,87.11238225301106 101.56089782714844,87.41904830932617 C83.47893142700195,89.57072830200195 65.14563179016113,87.1998176574707 48.205899238586426,80.51904678344727" fill="#337962" stroke="#337962" stroke-width="4" stroke-linecap="round"/>
						</g>
					</g>
					<g>
						<g>
							<path d="M76.94889831542969,49.245046615600586 C76.75589752197266,50.9930477142334 76.79189682006836,52.45204734802246 77.8838996887207,53.664045333862305 C79.86389923095703,55.52704429626465 83.1718978881836,56.53304862976074 84.37289810180664,59.440046310424805 C85.49939346313477,62.46577262878418 84.72142791748047,65.87154197692871 82.39289855957031,68.10804557800293 C78.25089645385742,71.90804862976074 71.20189666748047,71.64005088806152 65.97089767456055,71.02104759216309 C62.71818733215332,70.46738243103027 59.55587959289551,69.47394371032715 56.57089805603027,68.06804466247559 C55.557350158691406,67.60503959655762 54.57671928405762,67.07313346862793 53.635897636413574,66.47604942321777 C53.635897636413574,66.47604942321777 53.7358980178833,66.05404472351074 53.7358980178833,66.05404472351074 C62.158897399902344,65.29604911804199 70.43589782714844,67.28404808044434 78.7708969116211,67.75404930114746 C81.83889770507813,67.86904716491699 84.1708984375,64.82804679870605 82.57689666748047,62.05404472351074 C81.52789688110352,60.461050033569336 79.93489837646484,60.02404594421387 78.37689590454102,58.76704978942871 C76.39189910888672,57.48304557800293 74.13789749145508,54.89105033874512 74.72389602661133,52.203046798706055 C74.94049835205078,50.963727951049805 75.59138107299805,49.8420467376709 76.55989837646484,49.039045333862305 C76.55989837646484,49.039045333862305 76.94889831542969,49.245046615600586 76.94889831542969,49.245046615600586 Z" fill="#337962"/>
						</g>
					</g>
					<g>
						<g>
							<path d="M107.47489738464355,42.511048316955566 C104.71139335632324,42.61362934112549 101.94408988952637,42.5197229385376 99.19389915466309,42.23004627227783 C97.83151817321777,41.98996448516846 96.45665550231934,41.82703876495361 95.07589530944824,41.74204730987549 C92.33389854431152,41.67904758453369 89.6128978729248,42.50804615020752 86.99689674377441,43.16804599761963 C83.09269905090332,44.13070011138916 79.55838584899902,46.22165775299072 76.83489799499512,49.18005084991455 C76.80732917785645,49.20885944366455 76.76382637023926,49.215535163879395 76.7288875579834,49.196309089660645 C76.69394874572754,49.17707538604736 76.67630958557129,49.13675403594971 76.68589973449707,49.098050117492676 C78.11989784240723,44.90704822540283 82.38589668273926,42.23004627227783 86.63389778137207,41.59804630279541 C89.4108943939209,41.0270471572876 92.2648983001709,41.40304660797119 95.0618953704834,41.19804859161377 C97.83632469177246,40.730366706848145 100.66946983337402,40.730366706848145 103.44389915466309,41.19804859161377 C104.83425712585449,41.43549060821533 106.19530296325684,41.820672035217285 107.50389671325684,42.347046852111816 C107.54047203063965,42.36338138580322 107.5614070892334,42.40235614776611 107.55482292175293,42.44186878204346 C107.54823875427246,42.4813814163208 107.51579856872559,42.511460304260254 107.47589683532715,42.51504611968994" fill="#337962" stroke="#337962" stroke-width="2"/>
						</g>
					</g>
				</g>
			</g>
		</g>
	</g>
</g></g></svg>