<svg xmlns="http://www.w3.org/2000/svg" viewBox="0 0 105.67 132.47"><g id="Layer_2" data-name="Layer 2"><g id="Layer_1-2" data-name="Layer 1"><path d="M44 7.87a42 42 0 0 1 4.1 11.36c.47 2.62.48 5.08 1.6 7.49.88 2 2.34 5.15 3.29 7.19a16 16 0 0 1 1.84 8.5c-.75 6.52-.57 13.18-.81 19.76C53.58 70.09 54 78 53.86 86c0 5.3-.36 10.6-.8 15.82s-.94 10-.17 15A85 85 0 0 0 56.51 132c.14.34-.38.66-.61.35a43 43 0 0 1-9.61-22.68C45.2 96.37 47.47 83 48.14 69.8c.76-8 1.16-15.9 2.23-23.89.28-2 1.1-5.28.63-7.28-.71-3.55-2.6-7.52-3.69-11-1-2.55-.85-5.49-1.06-8.1a43 43 0 0 0-2.92-11.36.36.36 0 0 1 .2-.46.35.35 0 0 1 .44.16Z" style="fill:#367660"/><path d="M75.79 11.83a122 122 0 0 1-9.59 11.22c-2.31 2.28-4.53 4.35-6 7.21-1.37 2.43-3.2 5.74-4.51 8.23-.76 1.42-1.48 2.88-2.38 4.33a.18.18 0 0 1-.34-.09c-.25-9.61 4.21-15.88 11.64-21.41 3.82-3.05 7.33-6.38 10.91-9.73.14-.14.41.07.27.24M40.92 3.51c-.82-.33-1.48 2.18-.69 2.43.79 0 1.43-2 .24-2.07s-.88 1.19.27.45c.74-.53.46-1.32-.54-1.42s-1.47 0-1.67.48a1.1 1.1 0 0 0 1.12 1.46c.69.1 1.69-.79 1.27-1.33m.38-.59c.77.29 2 0 2.84.73 2.69 2.2.21 6.1-3.17 5.88-2.47-.08-3-1.72-3-3.67-.11-.93-.75-1-1.41-1.76a2.2 2.2 0 0 1-.34-2.42c.83-1.72 2.4-2.21 3.58-1 .72.64.86 1.83 1.47 2.29Z" style="fill:#367660"/><path d="M31.68 8.76a18 18 0 0 0 1.23-1.85c-.14.12-.2.18-.23.51a.8.8 0 0 0 .7.8c.21 0 .11.08 0 .19-1.08 1.41-2.21 3-4.24 3.06a2.84 2.84 0 0 1-1.32-5.39 4 4 0 0 1 1.54-.56s.09 0 .08.1-.05.25 0 .6a1.3 1.3 0 0 0 .89 1c.06 0 .24 0 .19-.06-1.28-.51-2.72-.28-4.09-.33a1.2 1.2 0 0 1-.83-1.91 7 7 0 0 1 1.65-1.37 8.4 8.4 0 0 1 7.78-.73 4.78 4.78 0 0 1 2 7.69 5.8 5.8 0 0 1-5 1.54 2 2 0 0 1-.66-.15c-1.47-.69-.26-2.25.25-3.13Zm.5.31a1.7 1.7 0 0 0-.18 1.34c0 .12.15.25.18.1s-.18-.33-.28-.39-.12 0-.12-.08 0-.26.09-.43a7 7 0 0 0 .5-2.29c0-.32-.24 0-.23.18a1 1 0 0 0 0 .44c.22.68.49.6.22.41a13 13 0 0 0-5-1.83c.16-.31.4-.56.31-1a1 1 0 0 0-.57-.8c-.3-.09.06.11.22.14a4 4 0 0 0 2.89-.2 2 2 0 0 1 .78-.14A1.8 1.8 0 0 1 32.41 7a8 8 0 0 1-.34.92 22 22 0 0 1-.94 2v.07a2.48 2.48 0 0 0-1.83-3.82h-.38a12 12 0 0 1 2.08.08l1.82.26c.18 0 .54 0 .77.07a.85.85 0 0 1 .59 1.22 1 1 0 0 1-.33.3 2.2 2.2 0 0 0-1.67 1Z" style="fill:#367660"/><path d="M28.91 8.3c-.95-.18-1.84.83-2.54 1.43l-1.49 1.42c-6.12 3.89-13.53 11-21.34 8.53-.44-.12-.69-.09-.58-.19s-.08 0-.07 0 0-.05.19-.41-.08-.73-.08-.61c1.45 2.36 5 1.59 7.45 2.19a1 1 0 0 1 .49 1.78 13 13 0 0 1-1.43 1c-1.72 1.1-3.75 3.65-4 5.1a.9.9 0 0 0-.85-.66c-.14 0 0 0 .1-.08 2.54-1.1 5.64-2.42 8.48-1.39.14 0-.21-.07-.25-.05s-.07 0 0-.05l.33-.39a2.77 2.77 0 0 1 4.59.21 4.6 4.6 0 0 1 .47 2.87c.08 1.59.2 3.79 1 4.91a1.1 1.1 0 0 0-1.06-.08 12 12 0 0 0 1.31-1.56l.88-1.27c2.4-3.36 2.91-7.88 5.33-11.39 2.08-3.22 4.42-6.29 3.78-10.22-.1-.5-.31-1-.71-1.11Zm.14-.45c1.21.47 1.2 2 1.35 3.11.37 3.33-.84 6.87-1.7 9.92-1.23 4.86-1.61 10.27-5 14.34-1.6 2.42-4.4 4.84-7.29 2.61-2.84-2.57-2.54-6.43-2.36-9.78v.06a1 1 0 0 0 .18.38 1.4 1.4 0 0 0 1.23.51 1.4 1.4 0 0 0 .8-.3 5.3 5.3 0 0 1-2.4 1.49c-1.18.33-2.13-.33-3.07-.61-1.69-.39-3.61.15-5.39.5a4 4 0 0 1-.68.11 1.4 1.4 0 0 1-1.3-.72c-.93-2.3 3.53-6 5.21-7.14a12 12 0 0 0 1.2-.87.5.5 0 0 0 0 .36c.12.23.2.19.12.19-3.07-.22-7 1-9.42-1.88-1.52-1.84.33-4 2.33-4.09 1.23-.13 2.81.26 4 .09 3.55-.7 6.61-2.08 10.16-3.24 2.33-.79 4.72-1.43 7-2.36 1.18-.59 2.14-1.53 3.3-2.25a2.2 2.2 0 0 1 1.73-.43M83.74 25.9c-1.86 6 2 12.08 4.11 17.43 2.22 3.36.61 7-3 8.11L84.19 47a4 4 0 0 0 1.94.42c.26 0 .32 0 .36.12s.09 0 .09-.13a6.4 6.4 0 0 1 0-2.91c.57-1.45 1.77-2.83 3.49-2.67 1.52.33 2.36 1.76 3 3 .24.54.47.94.6 1 .63 0 1.76-.6 1.38-1.42a1.4 1.4 0 0 0-.53-.95 2.45 2.45 0 0 1 1.27-4.32l1.37-.15c1.11-.12 2.33-.19 3.44-.26h.2a2.4 2.4 0 0 0-2 2.4 2.5 2.5 0 0 0 .58 1.49 3 3 0 0 0 1 .75c-3.15-.7-5.44-3.66-6.76-6.23s-3.39-4.6-4.9-7.26a30 30 0 0 1-2.65-6.91c-.09-.3-.25-.55-.2-.6s.1-.21-.14-.11c-1.06.71-1.59 2.51-2 3.76Zm-.68-.18c.45-1.45.58-3.48 1.58-4.74 1.85-2 4 .95 5.31 2.07 3.62 3.16 7.57 5.74 10.13 10.05.87 1.27 1.21 2.56 2.28 3.33a4.48 4.48 0 0 1-1.75 8.77c-1.15-.1-2.4-.18-3.53-.33l2.63-4.46c1.69 3.19.16 7.91-3.58 8.64-2.6.63-5.13-.64-5.45-3.39a3.3 3.3 0 0 0-.91-1.73.7.7 0 0 0-.49.29c-1.31 1.29.5 2.46.07 4.09-.52 3.15-8.18 5.26-8.15 1 0-1.28 1.51-2 2-2.9.09-.2-.05-.26-.19 0a1 1 0 0 0-.09.53v.13a15 15 0 0 1-2.51-8.36c-.08-4.07 1.77-9.15 2.71-13Z" style="fill:#367660"/><path d="M85.38 19.89c.08-1.43-2.13-1.76-3.1-1.12a3 3 0 0 0-.94.72c-.17.11-.17 0-1.35-.06a7 7 0 0 1-1.35-.23c-1.84-.37-3.46-2.76-2.59-4.49.57-1 .92-.91 1-1.15s-.58-.62-.84-.47c0 0-.07.13.19.11.45 0 .84-.58 1-.93.14-.1.37.21.6.42a18 18 0 0 1 3.7 4.94 2 2 0 0 0 .3.37c0-.06-.45-.59-.48-.54s.09.28.29.57a8 8 0 0 0 1.65 2.27c.67.44 1.86.58 2-.43Zm.81.06c0 1.31-1 2.84-2 3.83a6.2 6.2 0 0 1-9.2-.42 8.3 8.3 0 0 1-1.67-5 12 12 0 0 1 .29-4.74c.07-.3.32-1.78.45-2.05a2 2 0 0 1 1.42-1.32 2.3 2.3 0 0 1 1.23.1 6 6 0 0 1 2.56 1.78c.86 1 .86 2.6 1.28 2.92.09.09.24 0 .27-.33a2 2 0 0 0-.4-1.17 2 2 0 0 0-.89-.7c-.26-.11-.33-.18-.32-.24a3.8 3.8 0 0 1 2.79-.35 4.6 4.6 0 0 1 3 2.05c1.1 1.83 1.11 3.75 1.19 5.64M41.45 86.89a9 9 0 0 0-12.2 1 29 29 0 0 1-8.12 4.17c-.14 0-.29.14-.26.09s.16-.45 0-.6c3.05 2.13 8.94 1.12 11.63-1.74 2.93-3.75 8.64-4.37 12.58-1.78 3.53 2.32 5.27 6.43 5.78 10.45v.61a2 2 0 0 1-.9 1.81c.21.66-2.94-.36-2.17-.36a2 2 0 0 1-.26-.39c-.82-2.43-1.39-5-2.4-7.34-.89-2.18-1.82-4.5-3.75-6Zm.21-.28a19 19 0 0 1 3.4 3.51c2.1 2.59 4.36 5.31 5.62 8.47a1 1 0 0 0-.25-.39c.77 0-2.35-1-2.15-.35a1.7 1.7 0 0 0-.88 1.4c-1.13-6-5-11.72-11.77-9.16a35 35 0 0 1-4.22 2.42 19 19 0 0 1-9.88 1c-2.58-.37-3.54-2.15-1-3.65 1.75-1.2 5.05-3.34 6.84-4.54 4.37-3.71 10.12-1.83 14.23 1.23Zm9.28 28.28a.7.7 0 0 1 .05-.52 9 9 0 0 1 .43-.8c3.11-5.2 4.19-11.55 9.61-15.12a6.4 6.4 0 0 1 4.86-1.2 5 5 0 0 1 1.47.62 38 38 0 0 0 8.38 4.13c1.8.73 3.76 1 5.39 2.25 1.81 1.77.64 4.78-.6 6.31a12.8 12.8 0 0 1-10.1 5.06 14 14 0 0 1-5.55-1.31c-2.49-1.16-3.43-2.63-4.88-3.6-2.93-1.16-6.34 1.55-8.15 3.86-.21.25-.61.75-.91.29Zm.53-.26c0-.11-.22-.17-.32-.14l.07-.08c2.47-3.29 4.17-8.25 9.09-8.65 1.94-.29 4.33 1.14 5.66 2.08a14 14 0 0 0 4.86 1.65c2.12.39 4.58-.89 6.27-2.13a9 9 0 0 0 1.16-1.05s.08-.1.13 0 .25.33.19.13c-3.15-3.13-8-4.83-12.29-5.54-.34-.05-.71-.07-.74 0s-.31.18-.42.3c-2.21 2.28-4.42 5.18-7.16 7.16-2.33 1.84-4.94 3.57-6.41 6.21v.09-.07Z" style="fill:#367660"/></g></g></svg>