<svg xmlns="http://www.w3.org/2000/svg" xmlns:graphite="https://graphite.art" viewBox="547 14 823 963" width="823" height="963"><defs><clipPath id="artboard-17104445619285576534"><rect x="0" y="0" width="1920" height="1080" /></clipPath></defs><g>
<rect fill="#ffffff" fill-opacity="0" x="0" y="0" width="1920" height="1080"/>
<g clip-path="url(#artboard-17104445619285576534)">
	<g>
		<g transform="matrix(1,0,0,1,271.049548622,-50.379964834)">
			<path d="M775.2411499023438,947.2471313476563 C774.1234130859375,932.8148803710938 773.4493408203125,918.3300170898438 771.7438354492188,903.9675903320313 C770.4419555664063,893.0045776367188 768.5684204101563,881.992431640625 765.615966796875,871.3728637695313 C762.105224609375,858.7449951171875 757.8314819335938,846.2281494140625 752.65234375,834.1951904296875 C747.9766845703125,823.331787109375 739.891845703125,814.666015625 729.944580078125,808.0763549804688 C713.474609375,797.1655883789063 695.7280883789063,797.9664916992188 677.9703979492188,803.6637573242188 C669.3528442382813,806.4285888671875 660.4108276367188,809.704345703125 653.1949462890625,814.9296264648438 C644.240234375,821.4141235351563 636.9389038085938,830.1758422851563 628.8914184570313,837.920654296875 C617.3038940429688,849.0724487304688 611.4600830078125,863.6699829101563 605.9878540039063,878.1495361328125 C602.3838500976563,887.6856079101563 600.4139404296875,898.0450439453125 599.1549072265625,908.2144165039063 C597.14892578125,924.4164428710938 596.1937866210938,940.7571411132813 595.1066284179688,957.0599975585938 C594.6643676757813,963.6918334960938 595.0399169921875,970.378173828125 595.03173828125,977.9755249023438 C595.0211181640625,986.9501342773438 595.0220336914063,994.9889526367188 595.02294921875,1003.0277709960938 C595.1776733398438,1008.1548461914063 597.1033935546875,1013.3265380859375 593.1388549804688,1018.16357421875 C590.233154296875,1021.708740234375 587.186767578125,1024.025146484375 582.4552001953125,1024.22802734375 C580.08984375,1024.3294677734375 577.7970581054688,1025.7767333984375 575.418212890625,1025.9742431640625 C565.7927856445313,1026.773193359375 556.1157836914063,1028.12890625 546.5160522460938,1027.760498046875 C534.628173828125,1027.3043212890625 522.7042846679688,1025.8919677734375 510.96722412109375,1023.8892211914063 C496.9407958984375,1021.4956665039063 483.0528564453125,1018.2232666015625 469.1858825683594,1014.9850463867188 C458.9365234375,1012.5916137695313 448.7337646484375,1009.9171142578125 438.6629333496094,1006.8641967773438 C428.9982604980469,1003.9343872070313 419.1898498535156,1001.0962524414063 410.05279541015625,996.8950805664063 C395.1242370605469,990.0309448242188 380.25396728515625,983.1603393554689 366.4283752441406,973.8275146484376 C353.6184997558594,965.1804199218751 341.4751281738281,955.915771484375 331.3022766113281,944.569091796875 C321.0179748535156,933.0980834960938 311.3247375488281,921.1046752929688 305.24749755859375,906.31298828125 C300.2595520019531,894.172607421875 296.1790771484375,881.83154296875 294.2194519042969,869.1073608398438 C291.9961242675781,854.6710205078125 291.33624267578125,839.7576293945313 295.3918762207031,825.4298706054688 C298.421875,814.7254638671875 302.8076477050781,804.4048461914063 306.8055725097656,793.3145141601563 C303.5821228027344,789.580078125 298.8972473144531,785.41845703125 295.8336181640625,780.2886352539063 C291.8370056152344,773.5966186523438 289.1088562011719,766.1447143554688 285.8780517578125,759.0003051757813 C285.41192626953125,757.9696044921875 285.5201721191406,756.4624633789063 284.7934875488281,755.8023681640625 C280.7951354980469,752.1704711914063 279.9301452636719,747.2726440429688 278.9186096191406,742.3843383789063 C277.9413146972656,737.66162109375 276.12890625,732.967041015625 276.0423278808594,728.2352294921875 C275.8670959472656,718.6583251953125 276.0208435058594,708.9938354492188 277.15863037109375,699.4996337890625 C278.11419677734375,691.5257568359375 280.4069519042969,683.6712036132813 282.60467529296875,675.9044189453125 C283.7082214355469,672.004638671875 286.2890930175781,668.5396728515625 287.5595397949219,664.667236328125 C291.5876159667969,652.3893432617188 301.3560485839844,644.0023193359375 308.1551513671875,633.6157836914063 C308.4258117675781,633.2022705078125 308.74609375,632.804931640625 309.1078186035156,632.4698486328125 C315.3345947265625,626.7018432617188 315.55023193359375,626.3468627929688 310.7149353027344,619.5108032226563 C303.8199462890625,609.7627563476563 301.8059997558594,598.552734375 299.72784423828125,587.1546630859375 C297.62957763671875,575.6463623046875 297.63006591796875,564.2186889648438 300.5152587890625,553.0916137695313 C302.9294738769531,543.7809448242188 306.3571472167969,534.5840454101563 310.57086181640625,525.9385986328125 C313.6474914550781,519.6261596679688 318.8580017089844,514.37890625 322.8897705078125,508.5008544921875 C328.6670227050781,500.0779113769531 336.8123474121094,494.2731018066407 344.845947265625,488.3845825195313 C349.1649475097656,485.21884155273443 353.8634948730469,482.5470886230469 358.51629638671875,479.8706359863281 C360.8507080078125,478.52783203125 361.235107421875,477.34271240234375 360.1379089355469,474.73443603515625 C350.5433349609375,451.9267272949219 348.5789489746094,428.862060546875 359.03948974609375,405.7730407714844 C366.11138916015625,390.1636047363281 376.64447021484375,377.34783935546875 389.8327941894531,366.1986083984375 C399.875244140625,357.70880126953125 410.4534912109375,350.3011474609375 421.7943115234375,343.86395263671875 C425.4596252441406,341.783447265625 429.48773193359375,340.3072814941406 433.4322509765625,338.76531982421875 C436.1816711425781,337.6905517578125 436.47027587890625,335.97369384765625 435.87548828125,333.355712890625 C432.28558349609375,317.55462646484375 432.9607238769531,302.1209716796875 439.9644775390625,287.2152099609375 C444.6844787597656,277.1698913574219 450.64520263671875,268.0816650390625 458.8571472167969,260.49407958984375 C464.6614990234375,255.13096618652344 469.76214599609375,248.91287231445313 475.97216796875,244.1032257080078 C486.2220458984375,236.1647186279297 496.8879699707031,228.70074462890625 507.8194274902344,221.7279510498047 C514.5655517578125,217.42481994628906 522.0104370117188,214.13600158691406 529.3568725585938,210.87689208984375 C537.5747680664063,207.23118591308594 545.876220703125,203.62445068359375 554.4364624023438,200.9424591064453 C562.828125,198.31329345703125 571.5734252929688,196.7869873046875 580.2001953125,194.9486083984375 C583.0725708007813,194.3365020751953 586.058349609375,194.25624084472656 589.8928833007813,194.01614379882813 C599.9047241210938,194.0545196533203 609.0159912109375,194.00958251953125 618.127197265625,193.96466064453125 C631.9309692382813,196.3831024169922 645.7342529296875,198.8046112060547 659.5391845703125,201.21636962890625 C661.4317626953125,201.54698181152344 663.3327026367188,201.82899475097656 666.0394897460938,202.26348876953125 C663.08740234375,194.22915649414063 660.1973266601563,187.056396484375 657.8075561523438,179.7206573486328 C652.1964111328125,162.49600219726563 650.54443359375,144.56939697265625 652.2383422851563,126.78800201416016 C653.4306030273438,114.2718734741211 656.6180419921875,101.55988311767578 661.2764892578125,89.87714385986328 C665.291015625,79.80941772460938 671.2928466796875,69.86406707763672 681.856689453125,64.55741882324219 C686.209716796875,62.37068557739258 690.9061279296875,61.87638854980469 695.6473388671875,64.23300170898438 C697.63330078125,65.22010803222656 700.0314331054688,65.34737396240234 702.20263671875,65.99763488769531 C712.6845703125,69.13687896728516 716.6544189453125,77.44837188720703 719.00927734375,87.11054229736328 C721.8043212890625,98.57833099365234 720.5535278320313,109.792236328125 718.218505859375,121.23953247070313 C714.3824462890625,140.04510498046875 711.6044311523438,159.06402587890625 708.066650390625,177.93417358398438 C706.7125244140625,185.1573486328125 704.49658203125,192.21894836425778 702.5294189453125,199.9173889160156 C706.5013427734375,199.9173889160156 710.1796875,199.82373046875 713.851806640625,199.9359893798828 C722.7816162109375,200.20899963378906 731.7620849609375,200.0780487060547 740.623779296875,201.0278778076172 C753.1039428710938,202.36557006835938 765.6390991210938,203.86468505859375 777.890380859375,206.5034637451172 C795.8630981445313,210.37457275390625 812.8037109375,217.45045471191406 829.4984130859375,225.13970947265625 C846.4862670898438,232.96397399902344 862.3361206054688,242.53778076171875 877.4254760742188,253.57107543945313 C888.4813842773438,261.6551513671875 898.1592407226563,271.10009765625 906.3082885742188,281.9237365722656 C914.6937866210938,293.0614929199219 918.62548828125,306.2522277832031 921.1095581054688,319.8913269042969 C922.83837890625,329.38348388671875 921.8012084960938,338.6062927246094 919.1481323242188,347.74365234375 C918.408935546875,350.28924560546875 918.7861328125,351.923828125 921.5130004882813,353.23992919921875 C931.9745483398438,358.2891845703125 942.0672607421875,364.1731262207031 952.7456665039063,368.6850280761719 C966.6010131835938,374.5392761230469 976.9648437499999,384.3701477050781 986.0968017578124,395.7232971191406 C988.6535034179686,398.9018859863281 989.7416381835938,403.2657775878906 991.4812622070313,407.0960388183594 C992.6813354492188,409.7384033203125 993.8433837890626,412.3980407714844 994.9686279296876,415.7835693359375 C995.8021850585939,420.3349609375 996.6895141601564,424.1527404785156 997.6439208984376,428.39300537109375 C999.3823242187501,438.1019287109375 1001.0536499023438,447.38836669921875 1002.7249145507813,456.6747741699219 C1002.6295166015625,462.82330322265625 1002.7199096679688,468.982421875 1002.3694458007813,475.1163635253906 C1002.1569213867188,478.836669921875 1001.2625122070313,482.5180358886719 1000.6832885742188,486.1608581542969 C1013.9742431640625,491.8807678222656 1026.5869140625,497.5261535644531 1035.798095703125,508.3008728027344 C1038.8052978515625,511.8185119628906 1040.9681396484375,516.0526733398438 1043.5699462890625,519.923583984375 C1045.7578125,523.1785278320313 1047.8895263671875,526.4840087890625 1050.276123046875,529.59033203125 C1060.1829833984375,542.484375 1067.96728515625,556.4229736328125 1071.2861328125,572.5021362304688 C1073.4996337890625,583.2255249023438 1073.3065185546875,593.7785034179688 1070.479248046875,604.591064453125 C1067.865478515625,614.5870971679688 1065.5787353515625,624.5128173828125 1060.4527587890625,633.6347045898438 C1059.66845703125,635.030517578125 1060.4808349609375,638.66650390625 1061.7838134765625,639.669189453125 C1068.91748046875,645.15869140625 1076.466796875,650.04443359375 1081.085693359375,658.2222290039063 C1082.386474609375,660.5250854492188 1084.837890625,662.177978515625 1086.7984619140625,664.8756103515625 C1088.60693359375,671.3939208984375 1090.37841796875,677.1655883789063 1091.91748046875,683.1397705078125 C1092.702392578125,685.8812255859375 1093.7196044921875,688.420166015625 1094.81494140625,691.385009765625 C1095.6180419921875,696.2159423828125 1096.26953125,700.635009765625 1097.10595703125,705.0186767578125 C1097.4173583984375,706.6502075195313 1098.1612548828125,708.1991577148438 1098.7078857421875,709.7857666015625 C1099.2686767578125,726.2879028320313 1100.2716064453125,742.9848022460938 1095.7042236328125,758.9659423828125 C1093.2618408203125,767.5122680664063 1091.0628662109375,776.5852661132813 1084.3720703125,783.6696166992188 C1079.9547119140625,788.3467407226563 1076.93115234375,794.3331909179688 1073.231201171875,799.6973876953125 C1070.1656494140625,804.141845703125 1073.3984375,808.1190795898438 1075.2908935546875,811.0255126953125 C1081.6812744140625,820.8396606445313 1083.5712890625,831.9727783203125 1085.7777099609375,842.945068359375 C1087.5909423828125,851.9615478515625 1089.0103759765625,861.2799682617188 1088.79052734375,870.4208984375 C1088.5631103515625,879.8687133789063 1086.8148193359375,889.4281005859375 1084.5455322265625,898.6466674804688 C1080.2972412109375,915.9033813476563 1072.00537109375,931.0939331054688 1059.1868896484375,943.7101440429688 C1055.0419921875,947.7894897460938 1051.9215087890625,952.9359130859375 1047.6529541015625,956.8539428710938 C1044.65283203125,959.607666015625 1040.3565673828125,960.890380859375 1036.89404296875,963.2103881835938 C1026.0386962890625,970.4837646484375 1015.360595703125,978.0217895507814 1004.499267578125,985.2860107421876 C998.8570556640625,989.0596923828126 993.1322631835936,992.76611328125 987.1685791015624,995.992431640625 C970.6720581054686,1004.9171142578125 953.4486694335938,1010.7070922851563 934.1923828125,1010.2649536132813 C925.4934692382813,1010.065185546875 916.7215576171875,1012.7726440429688 907.9926147460938,1014.2205200195313 C896.4493408203125,1016.1350708007813 884.9392700195313,1018.2666015625 873.3670043945313,1019.981689453125 C868.3197021484375,1020.729736328125 863.1534423828125,1020.67529296875 857.1089477539063,1020.9599609375 C847.7449340820313,1020.9598999023438 839.313232421875,1020.9850463867188 830.8814697265625,1021.01025390625 C817.955322265625,1021.370361328125 805.2653198242188,1019.7998657226563 792.72705078125,1016.6458129882813 C791.3136596679688,1016.290283203125 789.27294921875,1016.9586791992189 787.9825439453125,1017.8314208984376 C781.55078125,1022.1815185546876 775.5122680664063,1020.0984497070313 774.4523315429688,1012.48388671875 C773.8746948242188,1008.33349609375 774.7633056640625,1003.9798583984375 774.98291015625,999.7174682617188 C775.323486328125,993.1101684570313 775.6574096679688,986.5025634765625 775.9766845703125,978.958984375 C775.7198486328125,967.7643432617188 775.4805297851563,957.5057373046875 775.2411499023438,947.2471313476563M741.2078247070313,552.8614501953125 C740.406494140625,552.9039916992188 739.605224609375,552.946533203125 738.376953125,553.0831298828125 C738.376953125,553.0831298828125 737.9774169921875,552.9057006835938 737.3907470703125,552.3131103515625 C730.269287109375,552.0134887695313 723.150390625,551.6114501953125 716.02587890625,551.4363403320313 C702.7796020507813,551.11083984375 689.5301513671875,550.917724609375 675.3321533203125,550.8909301757813 C664.0223999023438,550.131591796875 652.7131958007813,549.3629150390625 641.4025268554688,548.6177978515625 C637.2730712890625,548.3458251953125 633.1287231445313,548.2504272460938 629.0109252929688,547.8636474609375 C619.4930419921875,546.9694213867188 609.9796752929688,546.0132446289063 600.4788208007813,544.95361328125 C593.4034423828125,544.16455078125 586.3323974609375,543.294189453125 579.2930908203125,542.2361450195313 C573.3673706054688,541.345458984375 567.5001831054688,540.0723266601563 561.5892944335938,539.0740966796875 C549.606689453125,537.0504760742188 537.5841064453125,535.250732421875 525.6322021484375,533.0625 C517.9041137695313,531.6475219726563 510.31427001953125,529.4794921875 502.5882568359375,528.050048828125 C486.6932678222656,525.1090087890625 470.644287109375,522.920166015625 454.8542785644531,519.5146484375 C439.8401184082031,516.2764892578125 425.0165710449219,512.0899658203125 410.2259521484375,507.9076232910156 C403.0308837890625,505.8730773925781 397.27105712890625,508.50494384765625 391.7231750488281,512.1887817382813 C386.5514831542969,515.622802734375 381.2254943847656,519.0425415039063 376.7934875488281,523.32373046875 C369.2385559082031,530.6216430664063 361.4362487792969,537.9509887695313 355.3784484863281,546.4381713867188 C347.8937072753906,556.9246215820313 344.877197265625,569.6256713867188 346.2768249511719,582.3854370117188 C347.1751708984375,590.57568359375 348.4078369140625,599.56298828125 355.42938232421875,605.6587524414063 C357.4432678222656,607.4071044921875 360.2053527832031,608.260498046875 362.4363708496094,609.7971801757813 C376.5231018066406,619.5003051757813 392.5866394042969,625.0262451171875 408.4232482910156,630.7149047851563 C419.6670837402344,634.7537231445313 431.6172790527344,636.8959350585938 443.3304748535156,639.5377197265625 C453.9604187011719,641.9351806640625 464.69415283203125,643.8735961914063 475.3858947753906,645.9954223632813 C482.0880126953125,647.3255004882813 488.8154907226562,648.5341186523438 495.4982299804687,649.9539184570313 C502.97720336914057,651.5428466796875 510.3873291015625,653.465576171875 517.88427734375,654.9573364257813 C526.8356323242188,656.7385864257813 535.8478393554688,658.2135620117188 544.8325805664063,659.8273315429688 C554.45556640625,661.5557250976563 564.0431518554688,663.5206298828125 573.7095336914063,664.9559936523438 C582.4530639648438,666.2542724609375 591.2817993164063,666.9796752929688 600.0733032226563,667.9542236328125 C609.0171508789063,668.9456787109375 617.9591674804688,669.9544067382813 626.9063720703125,670.9150390625 C633.4400024414063,671.6165771484375 639.9672241210938,672.5304565429688 646.5216064453125,672.84619140625 C654.3828125,673.2249145507813 662.2698364257813,673.0687866210938 670.6993408203125,673.7421264648438 C680.5191040039063,673.8229370117188 690.3388671875,673.9037475585938 701.0755004882813,673.973876953125 C717.412841796875,673.2388305664063 733.750732421875,672.5155639648438 750.0872192382813,671.76171875 C755.11328125,671.52978515625 760.1433715820313,671.31494140625 765.157958984375,670.9186401367188 C781.7985229492188,669.6035766601563 798.4432983398438,668.3232421875 815.0662231445313,666.8086547851563 C827.4740600585938,665.6781616210938 839.8505249023438,664.203125 852.241455078125,662.8867797851563 C868.0853271484375,661.2034912109375 883.9674072265625,659.813720703125 899.7616577148438,657.7513427734375 C911.7322387695313,656.188232421875 923.7059936523438,654.273681640625 935.46728515625,651.5904541015625 C946.9964599609375,648.9601440429688 958.1966552734375,644.9223022460938 969.6526489257813,641.9286499023438 C988.0028076171875,637.1334838867188 1004.9036865234374,629.0989379882813 1020.5699462890624,618.68994140625 C1027.5601806640625,614.0453491210938 1032.10205078125,607.13330078125 1031.9530029296875,597.80322265625 C1031.7900390625,587.60205078125 1027.707275390625,578.5468139648438 1023.9200439453124,569.6026611328125 C1019.5435791015624,559.2670288085938 1013.7936401367188,549.4735717773438 1008.169189453125,539.7161254882813 C1001.8901977539063,528.8230590820313 995.8003540039063,517.6227416992188 983.8798217773438,511.2236022949219 C982.2908325195313,512.4931030273438 980.6997070312499,513.9076538085938 978.9693603515624,515.1241455078125 C965.1818237304686,524.8174438476563 949.0136108398438,528.9620971679688 933.3032836914063,533.7943725585938 C921.05126953125,537.5628051757813 908.2545776367188,539.7277221679688 895.58154296875,541.9208374023438 C876.0773315429688,545.296142578125 856.5014038085938,548.2984008789063 836.895751953125,551.0272827148438 C827.9827270507813,552.2679443359375 818.935546875,552.7151489257813 809.9312744140625,553.0773315429688 C802.3541259765625,553.3820190429688 794.7510375976563,553.0426025390625 786.2142944335938,552.8187255859375 C776.8099975585938,552.8930053710938 767.4056396484375,552.96728515625 757.548583984375,552.772705078125 C756.6995239257813,552.856201171875 755.8504028320313,552.9397583007813 754.1063842773438,552.9227905273438 C751.40478515625,552.942138671875 748.703125,552.9614868164063 745.4985961914063,552.7086181640625 C744.333251953125,552.8043823242188 743.16796875,552.900146484375 741.2078247070313,552.8614501953125M641.2597045898438,230.1257476806641 C631.841064453125,230.37585449218753 622.4221801757813,230.6208953857422 613.004638671875,230.90625 C612.77783203125,230.91311645507813 612.5645751953125,231.36956787109375 611.4723510742188,231.90603637695313 C602.5830688476563,233.48532104492188 593.5309448242188,234.4642333984375 584.8518676757813,236.8184814453125 C576.7252807617188,239.02284240722656 568.9020385742188,242.46730041503906 561.1156616210938,245.76792907714844 C553.9374389648438,248.81076049804688 546.4431762695313,251.5862274169922 540.0560913085938,255.9095001220703 C529.3759155273438,263.1387023925781 519.2879638671875,271.2878112792969 509.2804260253906,279.45367431640625 C498.11993408203125,288.5602111816406 487.4910583496094,298.3332214355469 480.0105895996094,310.83721923828125 C478.1819763183594,313.893798828125 477.5818176269531,317.8979797363281 477.2649841308594,321.540283203125 C477.1405944824219,322.970458984375 479.03338623046875,325.4510803222656 480.537353515625,325.9989929199219 C487.7017517089844,328.6091003417969 494.9599304199219,331.0688171386719 502.347900390625,332.9368591308594 C520.0877685546875,337.4223937988281 537.88916015625,341.6764831542969 555.723388671875,345.7731628417969 C568.5689086914063,348.7239074707031 581.4771118164063,351.4247741699219 594.4144897460938,353.94384765625 C603.1922607421875,355.65301513671875 612.0784301757813,356.7986145019531 620.8988037109375,358.2979736328125 C629.834228515625,359.8168640136719 638.7041015625,361.80303955078125 647.6829833984375,362.96343994140625 C658.8754272460938,364.4099426269531 670.1500244140625,365.22088623046875 682.1423950195313,366.08941650390625 C696.7365112304688,366.3931884765625 711.33056640625,366.6969909667969 726.427490234375,367.6706237792969 C728.4061889648438,367.7908020019531 730.4070434570313,368.1622314453125 732.35986328125,367.989501953125 C743.3311157226563,367.0192565917969 754.3068237304688,366.0594177246093 765.249755859375,364.8204956054687 C775.6420288085938,363.6438598632812 786.1515502929688,362.83721923828125 796.3316040039063,360.6019287109375 C813.1857299804688,356.90118408203125 829.9414672851563,352.60809326171875 846.49560546875,347.7381896972656 C856.5924072265625,344.7679443359375 866.2450561523438,340.27813720703125 876.0587768554688,336.3741760253906 C876.8125610351563,336.07427978515625 877.3268432617188,335.0508117675781 877.84033203125,334.2881774902344 C881.2276000976563,329.2572021484375 881.0083618164063,323.641357421875 878.1643676757813,318.96246337890625 C873.3430786132813,311.03076171875 868.508544921875,302.68145751953125 861.9166259765625,296.34039306640625 C848.2032470703125,283.1488342285156 832.4136962890625,272.5433349609375 816.1997680664063,262.4131774902344 C797.3440551757813,250.63253784179688 777.173095703125,242.3618927001953 755.8184204101563,237.45803833007813 C741.4945068359375,234.16873168945313 726.5508422851563,233.34121704101563 711.82568359375,232.1238250732422 C702.8396606445313,231.38092041015625 693.7386474609375,232.14602661132813 684.6953735351563,231.95201110839844 C670.3489990234375,231.64419555664063 656.0077514648438,231.10052490234378 641.2597045898438,230.1257476806641M555.9655151367188,945.98193359375 C556.2941284179688,938.8718872070313 556.245361328125,931.7199096679686 557.028564453125,924.6602783203124 C558.7645874023438,909.0123901367186 560.1112670898438,893.25341796875 563.1203002929688,877.8331298828125 C566.3724365234375,861.1675415039063 571.9785766601563,845.0305786132813 579.4785766601563,829.7161865234375 C582.6381225585938,823.2645874023438 586.368408203125,817.0267333984375 590.4384765625,811.1034545898438 C595.5347290039063,803.6865844726563 600.6478881835938,796.1217651367188 606.824951171875,789.6419677734375 C618.0418090820313,777.8755493164063 630.5242919921875,767.4549560546875 645.9070434570313,761.3715209960938 C653.1571044921875,758.5043334960938 660.5288696289063,755.5645141601563 668.1229248046875,754.036376953125 C679.5908813476563,751.7285766601563 691.21923828125,751.6573486328125 703.0307006835938,752.7391357421875 C713.8836669921875,753.7330322265625 724.002685546875,756.3737182617188 734.1365966796875,760.013916015625 C751.6541137695313,766.3065795898438 765.1740112304688,777.9142456054688 777.0371704101563,791.6387329101563 C786.6790161132813,802.7933959960938 792.4332885742188,816.2739868164063 798.1241455078125,829.7158813476563 C805.6525268554688,847.4979858398438 809.0938110351563,866.4080810546875 812.9827880859375,885.1331176757813 C815.787841796875,898.6394653320313 817.6935424804688,912.3890991210938 819.0516357421875,926.1240844726563 C820.507080078125,940.8436889648438 823.7525634765625,955.5563354492188 820.961669921875,970.485107421875 C820.585693359375,972.4962768554688 820.32861328125,974.5297241210938 819.9280395507813,977.1259765625 C822.0802001953125,976.5923461914063 823.44091796875,976.1726074218749 824.832275390625,975.9229736328124 C835.5994262695313,973.9917602539061 846.3724975585938,972.09326171875 857.6734008789063,970.67333984375 C863.1495971679688,969.922607421875 868.6257934570313,969.1718749999999 875.0899047851563,968.2857666015624 C873.2583618164063,966.9706420898436 872.6245727539063,966.5155639648438 872.3972778320313,965.3148803710938 C876.739990234375,964.578125 881.1177978515625,964.0025634765626 885.4166870117188,963.0648193359376 C891.158935546875,961.8122558593751 896.8353881835938,960.26025390625 902.548095703125,958.8696899414063 C913.3411865234375,956.24267578125 924.2593994140626,954.0418090820313 934.8968505859376,950.8915405273438 C942.6997070312501,948.5806884765625 950.04345703125,944.7643432617189 957.75927734375,942.1048583984376 C970.5674438476563,937.6901245117189 982.4461059570313,931.4036865234375 993.4990234375,923.7919921875 C1001.60791015625,918.207763671875 1008.5305786132813,910.9229736328126 1016.5101928710938,905.1229248046876 C1024.241455078125,899.5032348632814 1029.4033203125,891.7908325195313 1033.2301025390625,883.724853515625 C1038.1436767578125,873.367919921875 1041.812744140625,862.0643920898438 1038.9320068359375,850.1604614257813 C1036.8753662109375,841.6615600585938 1034.2835693359375,833.2903442382813 1031.8531494140625,824.884521484375 C1030.9608154296875,821.7985229492188 1029.0269775390625,821.3480224609375 1026.11474609375,822.5908813476563 C1022.0748901367188,824.3151245117188 1017.9524536132813,825.9417114257813 1013.7289428710938,827.122314453125 C999.1429443359375,831.1994018554688 984.5731811523438,835.3820190429688 969.8458862304688,838.8887939453125 C961.4072265625,840.8982543945313 952.676025390625,841.678955078125 943.1830444335938,843.0001220703125 C934.487060546875,843.682861328125 925.7910766601563,844.3656005859375 916.2772827148438,845.2698364257813 C902.3114624023438,845.1334228515625 888.2932739257813,845.6846313476563 874.3974609375,844.6279296875 C864.5111694335938,843.8760375976563 854.73876953125,841.1764526367188 845.015625,838.9156494140625 C840.0997924804688,837.7726440429688 833.8819580078125,838.2605590820313 831.7476196289063,831.0172119140625 C833.735107421875,830.2628173828125 835.4783325195313,829.2536010742188 837.3328247070313,828.9684448242188 C841.3882446289063,828.3446655273438 845.5047607421875,828.1304321289063 849.587890625,827.673095703125 C857.4205932617188,826.7958374023438 865.2319946289063,825.6886596679688 873.0806884765625,825.00244140625 C882.9196166992188,824.1422119140625 892.8447265625,824.0623168945313 902.6273803710938,822.8179931640625 C914.3031616210938,821.3328247070313 925.9544067382813,819.371826171875 937.4552612304688,816.8753051757813 C948.6004028320313,814.4559326171875 959.8065185546875,811.8316040039063 970.5093383789063,807.9749145507813 C986.117431640625,802.3506469726563 1000.74609375,794.5814819335938 1014.3469848632813,784.879150390625 C1027.123779296875,775.7647094726563 1037.0064697265625,764.5137939453125 1044.195556640625,750.4729614257813 C1050.1356201171875,738.871337890625 1053.874755859375,726.5980224609375 1054.602783203125,713.947021484375 C1055.15234375,704.396728515625 1052.7606201171875,694.5611572265625 1050.84033203125,685.0211791992188 C1049.2813720703125,677.2767333984375 1044.717529296875,670.7743530273438 1040.0771484375,664.3810424804688 C1037.18115234375,660.3910522460938 1034.066162109375,659.1798095703125 1029.47900390625,660.6757202148438 C1019.0758056640625,664.0682983398438 1008.5937500000001,667.2207641601563 998.2025146484376,670.6491088867188 C984.4849243164064,675.1749877929688 971.0013427734375,680.5285034179688 957.0833129882813,684.2920532226563 C945.4254760742188,687.4444580078125 933.2921752929688,688.8449096679688 921.3624877929688,690.9827880859375 C915.4536743164063,692.041748046875 909.5538940429688,693.2053833007813 903.6046752929688,693.968017578125 C898.5634765625,694.6141357421875 893.453125,694.70458984375 888.3802490234375,695.123779296875 C877.5613403320313,696.0180053710938 866.746826171875,696.9660034179688 855.384033203125,697.268310546875 C835.0128784179688,697.203857421875 814.6416625976563,697.11474609375 794.2706909179688,697.1465454101563 C793.2333984375,697.1481323242188 792.19775390625,698.1900024414063 790.3665161132813,698.9334716796875 C782.8079833984375,699.27587890625 775.251708984375,699.68408203125 767.6903686523438,699.9451904296875 C756.4739379882813,700.3323974609375 745.2549438476563,700.6612548828125 734.0350952148438,700.9317626953125 C717.3905639648438,701.3330078125 700.7433471679688,701.9578857421875 684.0991821289063,701.9039306640625 C674.8671264648438,701.8740234375 665.645751953125,700.5394897460938 656.4072875976563,700.005615234375 C643.3572998046875,699.2515258789063 630.2952270507813,698.7081298828125 617.2398071289063,698.0458374023438 C611.794677734375,697.7695922851563 606.352783203125,697.4281616210938 600.9103393554688,697.1016845703125 C584.3529663085938,696.1087036132813 567.783203125,695.2793579101563 551.2447509765625,694.0349731445313 C543.622802734375,693.46142578125 536.0798950195313,691.9039306640625 528.4683837890625,691.1040649414063 C522.7191772460938,690.5 516.9178466796875,690.3914794921875 511.1398315429687,690.0609130859375 C490.9553833007812,688.9061889648438 470.8907775878906,686.9132690429688 451.2094421386719,681.9736938476563 C441.5320129394531,679.5447998046875 431.76690673828125,677.4647216796875 422.0915222167969,675.0281982421875 C417.8621826171875,673.963134765625 413.8262023925781,672.1109619140625 409.5853271484375,671.1146240234375 C393.25537109375,667.2781372070313 377.96826171875,660.6611938476563 362.907958984375,653.54833984375 C355.3816223144531,649.9937133789063 350.2760009765625,649.3580932617188 346.1663513183594,653.50634765625 C332.53814697265625,667.2625122070313 325.5712585449219,684.0661010742188 325.21209716796875,703.2626342773438 C324.928955078125,718.3966064453125 324.3438415527344,733.5338134765625 327.8953857421875,748.619873046875 C330.3251037597656,758.9409790039063 334.9454650878906,767.7578125 343.3518981933594,773.1995239257813 C354.0387878417969,780.1175537109375 365.6007995605469,786.0810546875 377.4757995605469,790.669677734375 C393.794677734375,796.9755249023438 410.7049560546875,801.7892456054688 427.4642333984375,806.9069213867188 C445.9251403808594,812.5442504882813 465.1740417480469,813.1740112304688 484.8532409667969,815.6154174804688 C496.2492370605469,815.7346801757813 507.645263671875,815.8539428710938 519.9729614257813,816.0037231445313 C531.3488159179688,816.6687622070313 542.7294921875,817.267822265625 554.0940551757813,818.0895385742188 C555.3914794921875,818.1834106445313 556.5985717773438,819.525390625 557.8475952148438,820.2886352539063 C556.6773681640625,821.4650268554688 555.60595703125,822.7701416015625 554.3007202148438,823.7704467773438 C553.490478515625,824.3915405273438 551.4210815429688,824.7255249023438 551.453125,824.89111328125 C552.2308349609375,828.9098510742188 548.9384765625,828.6038818359375 546.8554077148438,829.032958984375 C533.4287719726563,831.7986450195313 520.0534057617188,835.024658203125 506.4943542480469,836.8797607421875 C491.5003356933594,838.93115234375 476.345703125,839.9927368164063 461.22509765625,840.85791015625 C453.6589660644531,841.2908325195313 446.0056457519531,840.4404296875 438.406005859375,839.94970703125 C434.4711608886719,839.695556640625 430.53750610351557,839.1224365234375 426.6554565429687,838.40966796875 C417.20498657226557,836.6743774414063 407.7309875488281,835.0092163085938 398.3683776855469,832.869873046875 C389.7623596191406,830.9033203125 381.2292175292969,828.5540771484375 372.7748718261719,826.0054931640625 C364.4060974121094,823.4827270507813 356.176025390625,820.4999389648438 347.6419372558594,817.6373901367188 C343.0820007324219,834.9813232421875 340.982177734375,851.6372680664063 344.8739318847656,868.797607421875 C348.2044677734375,883.4834594726563 355.52886962890625,895.9548339843749 365.5196838378906,906.7291259765624 C374.2995300292969,916.1976318359374 383.9413757324219,924.8607177734375 395.5639343261719,931.05517578125 C402.9107666015625,934.9708251953125 409.51837158203125,940.4131469726563 417.0848083496094,943.7470092773438 C431.3882751464844,950.0491943359375 446.0534973144531,955.5724487304688 460.743896484375,960.93896484375 C470.1954345703125,964.3917236328125 479.8872375488281,967.2543334960939 489.6011962890625,969.9056396484376 C504.9484558105469,974.0943603515626 520.3502197265625,978.1173095703126 535.841064453125,981.7293701171876 C542.2479858398438,983.2233886718751 548.94482421875,983.47412109375 555.9766845703125,984.3483276367188 C555.9766845703125,980.2091064453125 555.9766845703125,977.2260742187499 556.1309204101563,973.2823486328124 C556.080810546875,964.4906005859374 556.03076171875,955.6989135742188 555.9655151367188,945.98193359375M442.8014221191406,479.8883972167969 C449.219970703125,481.022705078125 455.6448059082031,482.1226501464844 462.05560302734375,483.2991943359375 C472.2692565917969,485.1736755371094 482.4615173339844,487.1669616699219 492.68499755859375,488.9852294921875 C504.3532409667969,491.0604248046875 516.033203125,493.0765075683593 527.7318115234375,494.9718627929687 C536.75146484375,496.43313598632807 545.81005859375,497.6529235839844 554.846923828125,499.00927734375 C561.2796020507813,499.9747619628906 567.7040405273438,500.9948425292969 574.1338500976563,501.9795837402344 C581.857421875,503.1624755859375 589.5853881835938,504.3167724609375 597.306640625,505.5149230957031 C604.5425415039063,506.63775634765625 611.754638671875,507.9300231933593 619.0089721679688,508.9137573242187 C627.4119873046875,510.0532836914062 635.8707275390625,510.78765869140625 644.26611328125,511.9749755859375 C652.4990844726563,513.1393432617188 660.6405029296875,515.0663452148438 668.8986206054688,515.9076538085938 C679.5360717773438,516.9913940429688 690.2429809570313,517.4782104492188 700.93212890625,517.9451293945313 C712.5364379882813,518.4520874023438 724.161376953125,519.0581665039063 735.7650146484375,518.8679809570313 C752.0956420898438,518.6002807617188 768.4165649414063,517.6769409179688 784.7376708984375,516.9466552734375 C788.5098266601563,516.7778930664063 792.27197265625,516.307373046875 796.0286254882813,515.8858642578125 C804.5299682617188,514.9320678710938 813.017578125,513.8513793945313 821.52490234375,512.95654296875 C829.042724609375,512.1658325195313 836.5922241210938,511.67132568359375 844.1051025390625,510.8404235839844 C855.0238647460938,509.63287353515625 865.9459838867188,508.4082641601563 876.8206176757813,506.8660278320313 C883.6173706054688,505.9021301269532 890.4016723632813,504.6300354003906 897.0585327148438,502.96435546875 C903.3971557617188,501.3783264160156 909.4725952148438,498.72265625 915.82373046875,497.208251953125 C928.5592041015625,494.1715393066406 940.4676513671875,489.380859375 950.90966796875,481.45269775390625 C958.1159057617188,475.98126220703125 964.9684448242188,463.36273193359375 962.1266479492188,453.2146301269531 C960.6053466796875,447.7821960449219 958.7678833007813,442.3705749511719 956.4150390625,437.2520751953125 C950.3788452148438,424.12115478515625 940.2113037109375,414.3182067871094 929.4901733398438,405.0325012207031 C928.611083984375,404.27105712890625 927.7157592773438,403.5027770996094 926.9679565429688,402.61920166015625 C919.0414428710938,393.25347900390625 909.8861083984375,385.3595275878906 899.2720947265625,379.1567077636719 C895.4209594726563,376.9060974121094 891.7933959960938,376.1678161621094 887.2376708984375,377.7301330566406 C879.2794189453125,380.4593811035156 871.1485595703125,383.26025390625 862.8695678710938,384.3377685546875 C851.814208984375,385.7766418457031 840.5514526367188,385.67913818359375 829.3718872070313,386.0790100097656 C824.4990234375,386.2532653808594 819.4667358398438,385.2513427734375 814.7605590820313,386.1349182128906 C804.1823120117188,388.1209411621094 793.8226318359375,391.2510070800781 783.2637939453125,393.3647766113281 C768.9869384765625,396.2228088378906 754.6727294921875,399.06170654296875 740.2506103515625,400.97467041015625 C728.1130981445313,402.5845642089844 715.808837890625,403.06683349609375 703.5597534179688,403.6700134277344 C690.2496948242188,404.3255310058594 676.9161376953125,404.914794921875 663.5965576171875,404.8419189453125 C651.8738403320313,404.7777404785156 640.10302734375,404.26611328124994 628.4500122070313,403.0368041992187 C613.465576171875,401.45605468749994 598.5023193359375,399.3828125 583.6707763671875,396.7332763671875 C570.7952880859375,394.4331359863281 558.0678100585938,391.22845458984375 545.3645629882813,388.0633544921875 C534.4517822265625,385.3443603515625 523.6669311523438,382.1122741699219 512.8235473632813,379.1142578125 C497.3769226074219,374.8435363769531 481.8516845703125,370.8346862792969 466.5088195800781,366.21929931640625 C456.8925476074219,363.3265380859375 448.0255432128906,363.6934814453125 439.9879455566406,369.9560546875 C434.5854797363281,374.1654052734375 429.391845703125,378.673095703125 424.3684387207031,383.3316345214844 C416.786865234375,390.36248779296875 408.9266052246094,397.18609619140625 404.6046142578125,407.0029296875 C402.5853271484375,411.5895080566406 400.28863525390625,416.06640625 397.900146484375,420.4751892089844 C393.9224548339844,427.8175354003906 392.44964599609375,435.7200927734375 393.1581115722656,443.8770446777344 C394.14642333984375,455.2559814453125 397.9836120605469,465.2404479980469 409.95013427734375,469.3457946777344 C420.5667419433594,472.98797607421875 431.36724853515625,476.09423828125 442.8014221191406,479.8883972167969 C442.8014221191406,479.8883972167969 442.8014221191406,479.8883972167969 442.8014221191406,479.8883972167969 Z" fill="#593c0e"/>
		</g>
	</g>
</g></g></svg>