<svg xmlns="http://www.w3.org/2000/svg" width="153" height="130" viewBox="0 0 153 130"><defs><clipPath id="artboard-12124942142357005565"><path d="M0 0h153v130H0z"/></clipPath></defs><g clip-path="url(#artboard-12124942142357005565)"><path fill="#367763" d="M60.46 34.9c-6.73 24.29 19.28 46.12 41.97 46.24 15.11.24 28.31-11.62 30.49-26.43 2.11-13.58-3.24-28.15-14.47-36.11C100.03 4.76 67.09 11 60.47 34.9zm-1.06-.29C63.54 18.89 75.34 3.74 92.27.82c24.29-4.5 47.45 14.43 49.02 38.82 1.56 28.31-27.41 53.08-55 47.86-24.81-5.47-33.06-30.33-26.89-52.89"/><path fill="#367763" d="M107.95 82.36c5.79-5.52 13.58-3.28 18.4 2.33 4.17 4.7 6.68 10.12 8.82 15.71 1.98 5.24 3.07 10.6 4.69 15.12 1.68 4.39 3.95 9.3 8.19 5.31q.94-.83.69-2.07c-2.59-7.96-11.73-10.31-18.11-15.09-8.18-5.94-17.71-19.7-9.32-29.12.66-.81 5.1-4.22 4.8-1.79-2.13 5.05-1.43 8.5 1.62 12.5 2.82 3.86 6.78 7.18 9.82 11.17 3.32 4.26 6.29 9.31 9.93 13.67 2.33 3.07 5.61 6.11 5.65 10.37-.34 3.92-3.11 7.39-6.75 8.99-2.99 1.28-6.96.55-9.49-.93-6.02-3.65-8.47-10.33-11.11-16.19-3.04-7.07-4.54-15.69-7.22-22.26-1.97-4.95-4.66-6.86-10.14-6.61-.57.05-.89-.74-.46-1.11zM50.47 67.14c12.23 9.2 10.26 28.01 4.07 40.27a87 87 0 0 1-11.6 18.05l-.86 1.03c-1.35 1.79-3.71 3.22-6.07 2.84-2.58-.34-4.25-2.18-5.85-3.98-7.25-8.02-12.51-17.64-16.3-27.7a50 50 0 0 1-1.96-6.6c-1.3-8.23.8-17.63 7.48-22.96 8.59-6.9 22.08-7.13 31.08-.94zm-.39.53c-8.16-6.19-20.5-5.07-28.1 1.52-5.66 4.83-7.54 12.7-6.38 19.88.42 2.42 1.36 4.66 2.3 6.95 4.29 9.96 9.98 19.58 18.06 26.77.56.46 1 .39.6.34 2.47-3.2 4.84-6.65 7.03-10.08 4.4-7 8.68-14.3 11.22-22.23 2.4-7.88 2.33-17.7-4.73-23.15"/><path fill="none" stroke="#367763" stroke-linecap="round" stroke-miterlimit="10" stroke-width="10" d="m62.03 34.2 9.2 9.29m16.31-21.63L71.23 43.49" transform="matrix(.72518 0 0 .73516 -17.732 62.69)"/></g></svg>