<svg xmlns="http://www.w3.org/2000/svg" xmlns:graphite="https://graphite.art" viewBox="0 0 1139 1068" width="1139" height="1068"><defs></defs><g transform="matrix(1,0,0,1,-115.554999581,-27.843940443)">
<g>
	<g transform="matrix(1,0,0,1,-1.084800585,0)">
		<path d="M234.67337036132813,153.55604553222656 C238.50985717773438,169.3455047607422 241.14630126953125,185.55697631835938 246.51011657714844,200.809326171875 C252.2205352783203,217.04725646972656 260.07232666015625,232.59860229492188 267.82806396484375,248.02806091308594 C273.250732421875,258.8160400390625 279.6622009277344,269.17864990234375 286.40924072265625,279.20843505859375 C292.6964416503906,288.5545959472656 299.8736877441406,297.3194274902344 306.9228210449219,306.1291809082031 C311.3253173828125,311.6312561035156 315.7548828125,317.262451171875 320.9930114746094,321.910888671875 C329.5396728515625,329.4952697753906 338.17633056640625,336.76690673828125 350.2388000488281,339.22021484375 C360.10369873046875,341.2265930175781 369.37261962890625,345.995849609375 379.0910339355469,348.9255065917969 C397.72332763671875,354.54229736328125 414.97540283203125,363.3255615234375 432.20489501953125,372.0201110839844 C444.86309814453125,378.40789794921875 456.8530578613281,386.1429443359375 469.007080078125,393.4985656738281 C477.10113525390625,398.3971252441406 485.1197509765625,403.454833984375 492.881103515625,408.8592529296875 C501.561767578125,414.9037170410156 510.0926818847656,421.1954345703125 518.3673706054688,427.7832336425781 C531.4486694335938,438.19775390625 544.322265625,448.87652587890625 557.1689453125,459.5812683105469 C566.5142822265625,467.3683776855469 575.5762329101563,475.4962463378906 584.941162109375,483.259033203125 C597.6026000976563,493.75433349609375 610.373779296875,504.11962890625 623.2100219726563,514.4006958007813 C633.6484375,522.76123046875 644.0556640625,531.1844482421875 654.85009765625,539.068603515625 C662.2403564453125,544.4664306640625 670.405029296875,548.792236328125 677.9619140625,553.9785766601563 C681.8941650390625,556.67724609375 685.9171752929688,559.7116088867188 688.720703125,563.4728393554688 C692.5410766601563,568.59814453125 690.7122802734375,573.5860595703125 684.42431640625,575.1964111328125 C677.4636840820313,576.9791259765625 670.2158203125,578.361328125 663.0623779296875,578.518310546875 C648.5255737304688,578.8370971679688 633.9403686523438,578.696533203125 619.42578125,577.8631591796875 C599.0270385742188,576.69189453125 578.67919921875,574.6547241210938 558.2996215820313,573.1199951171875 C550.74267578125,572.5509643554688 543.1466064453125,572.5066528320313 535.587646484375,571.9580078125 C519.6444702148438,570.8008422851563 503.7135009765625,569.4745483398438 487.77838134765625,568.2064819335938 C474.2618103027344,567.1309204101563 460.73321533203125,566.1815185546875 447.2341613769531,564.9175415039063 C432.0704345703125,563.4976806640625 416.9244384765625,561.8722534179688 401.78826904296875,560.1793212890625 C387.38800048828125,558.5687255859375 372.9356994628906,557.21875 358.6417541503906,554.9140014648438 C340.906005859375,552.0542602539063 323.2236633300781,548.7240600585938 305.67156982421875,544.8944091796875 C273.46923828125,537.8680419921875 242.8112335205078,526.34033203125 213.7884063720703,510.7878723144531 C188.55548095703125,497.26629638671875 165.2190399169922,480.9775390625 145.1465301513672,460.32818603515625 C131.1398468017578,445.9189147949219 119.9146499633789,429.7573547363281 117.3330307006836,409.4131164550781 C115.37646484375,393.99456787109375 117.21562957763672,378.9499816894531 127.33207702636719,365.86077880859375 C142.19342041015625,346.6324462890625 163.0988006591797,338.307861328125 185.61875915527344,332.9653625488281 C203.81466674804688,328.648681640625 222.3609619140625,327.4932861328125 241.05909729003906,326.7071838378906 C256.5286865234375,326.0567626953125 271.6625061035156,327.810791015625 286.9270324707031,328.9669494628906 C292.25433349609375,329.37042236328125 297.59552001953125,329.5908508300781 304.4569396972656,329.98187255859375 C297.32391357421875,322.4891357421875 290.9329528808594,316.3162841796875 285.1679382324219,309.60565185546875 C273.7899475097656,296.361328125 262.5830078125,282.960693359375 251.62774658203125,269.3648681640625 C237.35690307617188,251.65432739257813 225.1224365234375,232.5377960205078 215.3450469970703,212.02593994140625 C208.94776916503906,198.60513305664063 202.91839599609375,184.86264038085938 198.4150390625,170.7256317138672 C193.71359252929688,155.9667510986328 190.23257446289063,140.70053100585938 190.02627563476563,124.98883819580078 C189.91143798828125,116.24193572998047 188.78414916992188,107.3093032836914 190.16708374023438,98.79393768310547 C191.7679443359375,88.93668365478516 194.55081176757813,78.94800567626953 198.7412109375,69.90654754638672 C205.9707489013672,54.30767822265625 217.6247100830078,42.22170639038086 234.0487823486328,36.11955642700195 C242.88589477539063,32.83625030517578 252.2784881591797,30.781208038330078 261.5904541015625,29.131786346435547 C268.3810729980469,27.92896842956543 275.5233154296875,27.500871658325195 282.377685546875,28.138111114501953 C294.1087951660156,29.22873878479004 305.8106689453125,31.044513702392578 317.3836364746094,33.28501510620117 C325.4667663574219,34.84989547729492 333.4612731933594,37.218605041503906 341.2264404296875,39.98356246948242 C349.161865234375,42.80915069580078 356.8112487792969,46.463157653808594 364.50439453125,49.934932708740234 C369.2206726074219,52.06330108642578 373.95263671875,54.24928283691406 378.3815002441406,56.903385162353516 C388.2628479003906,62.824989318847656 398.0092468261719,68.97733306884766 407.706298828125,75.1982650756836 C411.8955993652344,77.88581085205078 415.9349365234375,80.8378677368164 419.8522644042969,83.91203308105469 C427.7895812988281,90.140869140625 435.9156494140625,96.1833267211914 443.3823547363281,102.9448013305664 C454.07110595703125,112.62389373779297 464.7283020019531,122.42634582519531 474.49853515625,133.007568359375 C485.3451843261719,144.75450134277344 495.50592041015625,157.1810302734375 505.3574523925781,169.78672790527344 C514.1718139648438,181.0653076171875 522.8223266601563,192.5785369873047 530.3607788085938,204.72340393066406 C542.5299072265625,224.32843017578125 554.1194458007813,244.3214874267578 565.2193603515625,264.5535888671875 C575.5462646484375,283.376708984375 585.2008056640625,302.5861511230469 594.614501953125,321.8872985839844 C602.359130859375,337.7661437988281 609.4185791015625,353.9835205078125 616.5963745117188,370.13323974609375 C624.54296875,388.01263427734375 632.5182495117188,405.8861083984375 640.0306396484375,423.949462890625 C646.0178833007813,438.345703125 651.4318237304688,452.98455810546875 656.9102783203125,467.5870056152344 C662.44970703125,482.3519592285156 667.8062744140625,497.1863098144531 673.1393432617188,512.0275268554688 C675.365234375,518.2217407226563 677.5498046875,524.45068359375 679.2742919921875,530.7940063476563 C679.838134765625,532.868408203125 678.8887939453125,535.3541870117188 678.6314697265625,537.6517944335938 C676.1614990234375,537.0958862304688 673.3161010742188,537.14599609375 671.282470703125,535.8859252929688 C657.8831176757813,527.58349609375 647.182861328125,516.2021484375 638.0843505859375,503.62841796875 C627.2354736328125,488.63580322265625 616.8935546875,473.17962646484375 607.5928955078125,457.1908264160156 C598.3860473632813,441.3631286621094 590.3661499023438,424.8033142089844 582.5279541015625,408.232421875 C574.0794677734375,390.3714294433594 566.6480712890625,372.0321350097656 558.4014282226563,354.0721435546875 C549.7542724609375,335.2401123046875 540.833984375,316.5284729003906 531.7182006835938,297.91839599609375 C524.314208984375,282.8030700683594 516.9275512695313,267.6427307128906 508.65130615234375,253.00086975097656 C499.5519104003906,236.90264892578125 489.86322021484375,221.09678649902344 479.6515197753906,205.68002319335938 C470.3114013671875,191.5790252685547 460.2609558105469,177.9112548828125 449.89617919921875,164.53883361816406 C442.55413818359375,155.06625366210938 434.3500061035156,146.23464965820313 426.2056884765625,137.4171600341797 C412.263671875,122.32280731201172 396.53363037109375,109.14501190185547 379.5975646972656,97.64868927001953 C361.04638671875,85.05603790283203 341.1561279296875,75.14382934570313 319.0280456542969,69.75889587402344 C302.6708984375,65.7783432006836 286.4524841308594,64.40998840332031 270.838134765625,70.53204345703125 C251.67138671875,78.0468978881836 241.23809814453125,93.5326156616211 237.00390625,113.38748168945313 C236.3504180908203,116.45174407958984 235.69195556640625,119.51493835449219 234.84149169921875,123.35525512695313 C234.6559295654297,133.93994140625 234.66465759277344,143.74798583984375 234.67337036132813,153.55604553222656M639.595703125,558.9700317382813 C640.6261596679688,558.8110961914063 641.6565551757813,558.6521606445313 643.8255615234375,558.317626953125 C641.72216796875,556.8302001953125 640.558837890625,556.0086669921875 639.396728515625,555.1856079101563 C618.149658203125,540.1370849609375 596.7225341796875,525.334716796875 575.7090454101563,509.96673583984375 C556.7684936523438,496.11480712890625 538.5490112304688,481.271484375 519.512451171875,467.5581359863281 C503.078369140625,455.7195129394531 486.12750244140625,444.5665588378906 469.0709228515625,433.6317138671875 C446.18853759765625,418.9620666503906 422.3805847167969,405.8807067871094 397.4944763183594,394.9051818847656 C385.44476318359375,389.5908508300781 373.30462646484375,384.2734375 360.7798767089844,380.2983703613281 C346.06787109375,375.6291198730469 331.02862548828125,371.72357177734375 315.880859375,368.7726135253906 C301.65362548828125,366.0009765625 287.1405029296875,364.3539733886719 272.6738586425781,363.2906494140625 C264.7302551269531,362.7068176269531 256.6149597167969,364.26300048828125 248.59104919433594,365.0050354003906 C228.548095703125,366.8585205078125 209.71804809570313,372.5522766113281 193.1443328857422,384.1820373535156 C170.47731018066406,400.08746337890625 167.23318481445313,421.3962707519531 181.1199493408203,441.9366149902344 C188.53701782226563,452.90740966796875 198.5889892578125,461.5186767578125 209.45440673828125,469.0825500488281 C225.94432067871094,480.5618896484375 243.49876403808594,490.1242370605469 262.20068359375,497.4374084472656 C277.7080993652344,503.5013122558594 293.1712646484375,509.8607177734375 309.0865173339844,514.6528930664063 C328.4761657714844,520.4912109375 348.2458801269531,525.140625 367.9909362792969,529.6990966796875 C380.89178466796875,532.6775512695313 394.0211486816406,534.6957397460938 407.08465576171875,536.9308471679688 C418.21087646484375,538.8345336914063 429.3890380859375,540.43505859375 440.5446472167969,542.1669311523438 C450.981689453125,543.7872314453125 461.39410400390625,545.59521484375 471.8633117675781,546.9710083007813 C483.5488586425781,548.506591796875 495.2937316894531,549.5845947265625 506.99896240234375,550.97802734375 C520.626953125,552.6002807617188 534.2133178710938,554.61962890625 547.8674926757813,555.9596557617188 C559.5783081054688,557.1090087890625 571.353759765625,557.6499633789063 583.1109619140625,558.2605590820313 C592.1256713867188,558.7286987304688 601.1565551757813,558.8861083984375 610.8299560546875,559.6513671875 C620.173828125,559.4798583984375 629.5177001953125,559.308349609375 639.595703125,558.9700317382813 C639.595703125,558.9700317382813 639.595703125,558.9700317382813 639.595703125,558.9700317382813 Z" fill="#266e54"/>
	</g>
	<g transform="matrix(1,0,0,1,-1.084800585,0)">
		<path d="M463.73602294921875,897.8572998046875 C444.132080078125,910.3049926757813 424.3079528808594,921.7154541015625 402.9291687011719,929.8121337890625 C386.5674133300781,936.0087890625 369.7471618652344,941.1940307617188 352.81500244140625,945.62109375 C339.6622314453125,949.0599975585938 326.1046447753906,951.7347412109375 312.57684326171875,952.7513427734375 C296.640869140625,953.9489135742188 280.54296875,952.9948120117188 264.5152893066406,952.9689331054688 C252.7923583984375,952.9500732421875 241.1048583984375,952.374755859375 229.78585815429688,956.9093017578125 C217.5255126953125,961.8208618164063 210.39723205566406,972.215576171875 209.9958953857422,985.3314819335938 C209.5387420654297,1000.2711181640625 215.82872009277344,1012.3079223632813 224.3338165283203,1023.7599487304688 C226.6280059814453,1026.8489990234375 228.2582550048828,1030.4310302734375 230.1932373046875,1033.786865234375 C229.68751525878906,1034.3883056640625 229.18177795410156,1034.98974609375 228.67605590820313,1035.59130859375 C225.4472198486328,1034.4190673828125 221.9069061279297,1033.7523193359375 219.04339599609375,1031.9873046875 C206.5325164794922,1024.27587890625 196.30902099609375,1014.1261596679688 187.45498657226563,1002.3663330078125 C178.8266143798828,990.9061279296875 172.3666229248047,978.3037109375 168.4534149169922,964.7459716796875 C165.1621856689453,953.343505859375 163.60520935058594,941.3624267578125 162.1607208251953,929.5300903320313 C161.0588836669922,920.5045776367188 160.93446350097656,911.3035278320313 161.1018524169922,902.1939086914063 C161.30184936523438,891.3106079101563 162.255859375,880.4402465820313 162.950927734375,869.568603515625 C163.01077270507813,868.6325073242188 163.3238525390625,867.4767456054688 163.94796752929688,866.8500366210938 C168.7716522216797,862.0070190429688 166.55177307128906,856.3206787109375 166.29673767089844,850.7315063476563 C166.064208984375,845.6353759765625 166.34188842773438,840.4439697265625 167.0697479248047,835.3917846679688 C168.39669799804688,826.1813354492188 169.87493896484375,816.96337890625 171.94192504882813,807.897216796875 C173.89556884765625,799.3281860351563 176.55712890625,790.9102783203125 179.13775634765625,782.4966430664063 C183.75328063964844,767.4485473632813 191.89418029785156,754.1196899414063 200.80145263671875,741.4092407226563 C209.29949951171875,729.28271484375 218.89947509765625,717.9201049804688 228.17535400390625,706.3502807617188 C233.60916137695313,699.5725708007813 239.0661163330078,692.7697143554688 245.04891967773438,686.489013671875 C250.4059295654297,680.8652954101563 256.4032287597656,675.8324584960938 262.2886962890625,670.7360229492188 C269.7705078125,664.2572631835938 276.97149658203125,657.3148193359375 285.102783203125,651.7560424804688 C299.893798828125,641.64453125 314.79052734375,631.4838256835938 330.568603515625,623.0816040039063 C344.30023193359375,615.7691040039063 359.05609130859375,610.101318359375 373.8407897949219,605.14208984375 C383.840087890625,601.7879028320313 394.6183166503906,600.5178833007813 405.15155029296875,599.0654296875 C414.2917785644531,597.8049926757813 423.61151123046875,596.7578735351563 432.7902526855469,597.1315307617188 C445.2270202636719,597.6378173828125 457.6142883300781,599.5128173828125 469.9958190917969,601.0220947265625 C471.512451171875,601.2069702148438 472.8628234863281,602.7557373046875 475.52667236328125,604.4666137695313 C472.79766845703125,605.2262573242188 471.50921630859375,605.8353881835938 470.1893310546875,605.9133911132813 C457.7794494628906,606.6475830078125 445.3274841308594,606.8991088867188 432.95977783203125,608.0592651367188 C417.3043212890625,609.5277099609375 401.8072814941406,612.4614868164063 389.0334777832031,622.4160766601563 C382.97381591796875,627.1383056640625 377.33612060546875,632.8807373046875 373.0518493652344,639.2069702148438 C370.8016662597656,642.5296020507813 370.2808532714844,648.715087890625 371.73956298828125,652.5607299804688 C377.6163330078125,668.0538330078125 383.8820495605469,683.4848022460938 391.3278503417969,698.2720947265625 C398.0553283691406,711.6328735351563 406.24072265625,724.2951049804688 414.2983703613281,736.9370727539063 C419.1162109375,744.4959716796875 424.66436767578125,751.6371459960938 430.3595275878906,758.5760498046875 C436.2998352050781,765.8135375976563 442.37249755859375,773.0481567382813 449.17169189453125,779.451171875 C460.3907470703125,790.016845703125 471.8601379394531,800.3944091796875 485.52093505859375,807.91259765625 C491.45733642578125,811.1797485351563 497.1991882324219,814.8217163085938 503.2484130859375,817.8570556640625 C511.0657043457031,821.77978515625 515.4514770507813,820.4940185546875 521.1557006835938,814.1552124023438 C527.226806640625,807.4088745117188 533.9171752929688,801.2108154296875 539.8529663085938,794.354248046875 C545.1841430664063,788.1959228515625 549.861572265625,781.4713134765625 554.8146362304688,774.98681640625 C555.1058349609375,774.6055297851563 555.1742553710938,773.9485473632813 555.5322875976563,773.741455078125 C557.5367431640625,772.58154296875 559.5985107421875,771.5206298828125 561.6406860351563,770.4259033203125 C562.4132080078125,772.7909545898438 564.1937255859375,775.3460083007813 563.7897338867188,777.4893188476563 C561.644775390625,788.8698120117188 558.0470581054688,799.85693359375 551.9718017578125,809.7949829101563 C535.5020141601563,836.7366943359375 514.05712890625,859.2017211914063 489.2563171386719,878.557373046875 C480.9458312988281,885.0432739257813 472.447998046875,891.289306640625 463.73602294921875,897.8572998046875M254.89910888671875,717.9529418945313 C262.1882629394531,718.0181884765625 262.869140625,718.74072265625 263.065673828125,725.8013916015625 C263.17584228515625,729.7582397460938 262.8707275390625,733.9039916992188 263.944580078125,737.6202392578125 C266.264404296875,745.6484375 268.8116455078125,753.6987915039063 272.2425231933594,761.2992553710938 C278.7759704589844,775.7731323242188 285.80804443359375,790.031982421875 292.9822082519531,804.2034301757813 C299.3912658691406,816.8633422851563 308.2031555175781,827.8447875976563 317.2872009277344,838.7325439453125 C326.01861572265625,849.1976318359375 335.9717712402344,858.213623046875 346.8473205566406,866.0957641601563 C355.1136169433594,872.0869750976563 364.125,877.367919921875 373.4608459472656,881.4730834960938 C382.1619873046875,885.2991943359375 391.7808532714844,886.9955444335938 400.8962097167969,889.937744140625 C406.7664794921875,891.8326416015625 412.2222595214844,890.8006591796875 417.6087341308594,888.568115234375 C435.3944091796875,881.1963500976563 451.4527282714844,870.791015625 467.0848083496094,859.7494506835938 C474.44451904296875,854.5509643554688 481.2483215332031,848.5654296875 488.146728515625,843.06201171875 C478.2674255371094,841.5897827148438 468.5351867675781,841.2183837890625 459.4742736816406,838.559326171875 C441.8924865722656,833.399658203125 426.5310974121094,823.5072021484375 412.54443359375,811.9293212890625 C398.17327880859375,800.033203125 385.30743408203125,786.4343872070313 374.078369140625,771.504150390625 C357.28350830078125,749.173583984375 343.4435119628906,725.076416015625 333.3566589355469,698.9664306640625 C330.9647521972656,692.7748413085938 329.3137512207031,686.2279052734375 328.0030822753906,679.7074584960938 C326.7286071777344,673.3671875 324.6637878417969,670.6859130859375 318.2792663574219,673.3466186523438 C293.6298828125,683.6190185546875 271.2054443359375,697.0806884765625 253.16761779785156,717.75 C253.12213134765625,718.0665283203125 253.07664489746094,718.3829956054688 253.0311737060547,718.6995239257813 C253.37318420410156,718.489990234375 253.71519470214844,718.2804565429688 254.89910888671875,717.9529418945313M259.9207763671875,859.5288696289063 C253.85670471191406,850.8175659179688 247.44297790527344,842.3257446289063 241.80718994140625,833.3456420898438 C232.4208221435547,818.389404296875 225.25657653808594,802.3639526367188 220.8699951171875,785.1986694335938 C219.18502807617188,778.605224609375 217.7970428466797,771.935791015625 216.171630859375,764.8563232421875 C212.97476196289063,769.389404296875 210.16552734375,773.3894653320313 207.33921813964844,777.3773803710938 C198.76866149902344,789.470458984375 191.19761657714844,802.1187133789063 187.24411010742188,816.531982421875 C185.07870483398438,824.4264526367188 183.02957153320313,832.4382934570313 181.99810791015625,840.5335083007813 C181.03211975097656,848.1150512695313 179.7544708251953,856.3298950195313 181.63467407226563,863.4707641601563 C186.6435089111328,882.493896484375 199.71099853515625,896.10400390625 216.11183166503906,906.0724487304688 C225.63632202148438,911.8614501953125 236.11244201660156,916.2158203125 246.47634887695313,920.4406127929688 C252.15875244140625,922.7570190429688 258.4559020996094,924.4124755859375 264.54986572265625,924.6799926757813 C274.52069091796875,925.1178588867188 284.6142272949219,924.7574462890625 294.5431213378906,923.68701171875 C309.394775390625,922.0857543945313 324.1722412109375,919.7260131835938 338.9325256347656,917.38232421875 C344.94281005859375,916.4279174804688 350.8255920410156,914.6704711914063 356.7663879394531,913.2784423828125 C356.6968078613281,912.83642578125 356.6272277832031,912.3944702148438 356.55767822265625,911.9524536132813 C352.49346923828125,911.9524536132813 348.3742980957031,912.3858032226563 344.37451171875,911.878173828125 C326.0123291015625,909.5474243164063 309.9874267578125,901.4198608398438 294.7393798828125,891.4164428710938 C281.60296630859375,882.7984008789063 270.5393371582031,871.9441528320313 259.9207763671875,859.5288696289063 C259.9207763671875,859.5288696289063 259.9207763671875,859.5288696289063 259.9207763671875,859.5288696289063 Z" fill="#266e54"/>
	</g>
	<g transform="matrix(1,0,0,1,-1.084800585,0)">
		<path d="M1140.288818359375,350.78912353515625 C1134.9891357421875,351.8487548828125 1129.721923828125,353.1246337890625 1124.383544921875,353.92694091796875 C1109.121337890625,356.2206115722656 1095.2816162109375,362.31689453125 1082.0712890625,369.8753967285156 C1058.7880859375,383.1972961425781 1038.0709228515625,399.966064453125 1020.2550048828125,419.8930358886719 C1007.2962036132813,434.3872985839844 995.8652954101563,450.2492980957031 983.798095703125,465.5370178222656 C982.17236328125,467.59661865234375 980.8101196289063,469.8641357421875 978.8837890625,472.6822204589844 C981.8521118164063,475.1358947753906 985.12744140625,477.349609375 987.7828369140625,480.15093994140625 C992.05615234375,484.65911865234375 996.193603515625,489.35107421875 999.906982421875,494.32489013671875 C1012.0159301757813,510.5440979003906 1020.541748046875,528.6664428710938 1024.7012939453125,548.3568725585938 C1028.8870849609375,568.1719360351563 1029.49658203125,588.3961181640625 1026.548095703125,608.5777587890625 C1024.445556640625,622.9680786132813 1020.33349609375,636.74072265625 1013.6622314453125,649.6936645507813 C1008.5165405273438,659.6845703125 1002.0316162109375,668.6038208007813 992.6218872070313,675.0629272460938 C991.5465698242188,675.8009643554688 990.3292236328125,676.4655151367188 989.0803833007813,676.7938232421875 C984.185791015625,678.080810546875 981.9203491210938,676.09375 983.103759765625,671.1447143554688 C984.3847045898438,665.7881469726563 986.6810302734375,660.6542358398438 987.729248046875,655.2665405273438 C989.4740600585938,646.2982177734375 990.788330078125,637.230224609375 991.8753051757813,628.1553344726563 C992.6016845703125,622.0906982421875 992.87890625,615.9425048828125 992.9082641601563,609.8295288085938 C993.0029296875,590.1378784179688 990.4852905273438,570.670166015625 984.6193237304688,551.9431762695313 C977.4898071289063,529.1821899414063 966.4094848632813,508.38739013671875 947.8092651367188,492.6907653808594 C935.697265625,482.46954345703125 921.9299926757813,475.7209167480469 905.4684448242188,475.9554748535156 C889.6480712890625,476.180908203125 877.2037353515625,489.1694030761719 874.9692993164063,503.3609619140625 C871.2536010742188,526.9605712890625 878.0240478515625,548.1110229492188 890.1171875,567.906005859375 C894.3278198242188,574.7982788085938 900.8470458984375,579.4842529296875 907.6428833007813,583.8718872070313 C915.0076293945313,588.6268310546875 922.0988159179688,593.8709106445313 928.9330444335938,599.369384765625 C946.880859375,613.8093872070313 961.1661376953125,631.0797729492188 968.9097900390625,653.1394653320313 C969.4439086914063,654.6610107421875 969.4108276367188,656.381591796875 969.6414794921875,658.0096435546875 C969.0747680664063,658.294189453125 968.508056640625,658.5787353515625 967.9413452148438,658.86328125 C964.7299194335938,654.8820190429688 961.475830078125,650.934326171875 958.3143310546875,646.9137573242188 C943.1227416992188,627.5944213867188 924.8870849609375,611.7495727539063 903.8941650390625,599.0179443359375 C893.3359985351563,592.61474609375 882.525634765625,586.5643920898438 872.38330078125,579.5531005859375 C856.8020629882813,568.7820434570313 845.0064086914063,554.845947265625 838.9232788085938,536.4617309570313 C832.8973999023438,518.2509155273438 832.9124755859375,500.09222412109375 840.69921875,482.7041320800781 C846.79638671875,469.0888366699219 857.1052856445313,459.06982421875 870.9556884765625,452.2978210449219 C888.14111328125,443.89520263671875 905.9961547851563,444.5559997558594 924.12744140625,445.7583923339844 C924.4476318359375,445.7796325683594 924.7782592773438,445.6424255371094 925.6171875,445.4794921875 C925.7501831054688,444.222412109375 925.8600463867188,442.8072814941406 926.0545654296875,441.40386962890625 C927.738525390625,429.2522277832031 928.7003784179688,416.9407653808594 931.32470703125,404.9948425292969 C934.3950805664063,391.017822265625 938.0969848632813,377.06121826171875 942.9844360351563,363.626708984375 C952.7537231445313,336.77294921875 963.7767944335938,310.3423156738281 980.8965454101563,287.15716552734375 C987.9817504882813,277.5617980957031 996.5023803710938,269.0207214355469 1004.4396362304688,260.0616149902344 C1012.581787109375,250.87132263183594 1022.3776245117188,243.765625 1033.1982421875,238.1141815185547 C1047.7550048828125,230.51136779785156 1063.4696044921875,228.00042724609375 1079.6612548828125,229.08651733398438 C1085.034912109375,229.4469757080078 1090.5008544921875,231.20066833496094 1095.5302734375,233.2740020751953 C1103.067626953125,236.3811798095703 1104.4984130859375,245.9235382080078 1098.673095703125,252.82852172851563 C1092.145263671875,260.5662536621094 1083.2340087890625,264.4547119140625 1073.7115478515625,266.8880310058594 C1054.3193359375,271.8434753417969 1036.6197509765625,280.1661682128906 1020.4765625,292.0478515625 C1002.6205444335938,305.1903381347656 988.639404296875,321.7596740722656 976.7069091796875,340.2097473144531 C955.8885498046875,372.3995056152344 940.80517578125,407.0145263671875 932.6937866210938,444.58447265625 C932.1719970703125,447.00164794921875 932.1571044921875,448.20892333984375 934.7775268554688,448.9966125488281 C946.5984497070313,452.55010986328125 958.1267700195313,456.7727355957031 968.03173828125,464.476806640625 C969.2919311523438,465.45703125 970.7260131835938,466.2135925292969 972.6610107421875,467.4432678222656 C973.9990234375,464.32977294921875 974.9066772460938,461.5397644042969 976.3218383789063,459.0367126464844 C984.3302001953125,444.8723449707031 991.8286743164063,430.3641662597656 1000.7138061523438,416.76556396484375 C1011.0629272460938,400.926513671875 1023.54345703125,386.62188720703125 1037.5218505859375,373.8124084472656 C1054.813232421875,357.9669189453125 1072.870849609375,343.0674133300781 1094.9207763671875,334.0959167480469 C1108.0003662109375,328.77423095703125 1120.9599609375,322.8628234863281 1134.48486328125,319.0131530761719 C1147.9752197265625,315.17327880859375 1162.03564453125,313.07757568359375 1175.9764404296875,311.1701965332031 C1185.28759765625,309.8962097167969 1194.9005126953125,309.3850402832031 1204.2469482421875,310.14569091796875 C1218.6456298828125,311.3174743652344 1233.4736328125,312.0148620605469 1245.9412841796875,320.8370056152344 C1251.84423828125,325.013916015625 1256.546875,330.124755859375 1256.02197265625,338.316650390625 C1255.7091064453125,343.1983947753906 1253.51806640625,346.6219787597656 1249.6802978515625,349.35980224609375 C1243.20849609375,353.97662353515625 1235.6507568359375,355.3928527832031 1228.0999755859375,355.8352355957031 C1211.826904296875,356.78857421875 1195.7076416015625,354.71710205078125 1179.6712646484375,352.0374450683594 C1176.981201171875,351.5880432128906 1174.2486572265625,351.3935546875 1170.802734375,350.7767333984375 C1160.1427001953125,350.57781982421875 1150.2156982421875,350.6835021972656 1140.288818359375,350.78912353515625 C1140.288818359375,350.78912353515625 1140.288818359375,350.78912353515625 1140.288818359375,350.78912353515625 Z" fill="#266e54"/>
	</g>
	<g transform="matrix(1,0,0,1,-1.084800585,0)">
		<path d="M628.0961303710938,862.1926879882813 C626.9210205078125,885.7278442382813 619.204833984375,906.7180786132813 603.2853393554688,924.291748046875 C594.5921020507813,933.888427734375 584.8555297851563,942.5782470703125 576.5643310546875,952.4923095703125 C562.338623046875,969.5023193359375 554.3779907226563,989.4965209960938 549.80517578125,1011.189697265625 C546.3786010742188,1027.445068359375 543.4090576171875,1044.0888671875 535.0574340820313,1058.7930908203125 C526.7635498046875,1073.39599609375 514.615478515625,1084.171142578125 499.19635009765625,1090.9486083984375 C494.2950439453125,1093.1029052734375 489.0828552246094,1094.6937255859375 483.86419677734375,1095.898193359375 C482.2215576171875,1096.2772216796875 479.0889892578125,1095.032958984375 478.4459228515625,1093.67529296875 C477.6605224609375,1092.0172119140625 478.08447265625,1088.976318359375 479.1964111328125,1087.373291015625 C483.4355773925781,1081.2618408203125 488.2800598144531,1075.574951171875 492.679931640625,1069.5693359375 C500.2371520996094,1059.25439453125 505.21722412109375,1047.631591796875 506.7605895996094,1035.0504150390625 C508.5052795410156,1020.8274536132813 508.8849182128906,1006.437744140625 509.87860107421875,992.1219482421875 C511.5264892578125,968.38134765625 517.8331298828125,945.96435546875 533.6762084960938,927.907958984375 C547.6138916015625,912.02294921875 563.2828979492188,897.5900268554688 583.7320556640625,889.8655395507813 C588.9403686523438,887.898193359375 589.45556640625,882.4370727539063 590.685302734375,878.4066772460938 C595.2528076171875,863.4367065429688 599.970458984375,848.3630981445313 602.5580444335938,832.9796142578125 C605.2752075195313,816.8258666992188 606.8865966796875,800.186767578125 600.7918701171875,784.1654052734375 C598.5333862304688,778.2283935546875 594.299072265625,772.8663940429688 596.583740234375,765.2233276367188 C591.8759765625,764.4312133789063 587.4085693359375,763.7454223632813 582.9672241210938,762.9200439453125 C568.6608276367188,760.2613525390625 554.6533203125,756.4796752929688 541.6405029296875,749.8782958984375 C523.8739624023438,740.865234375 509.3898010253906,727.9942016601563 500.998779296875,709.7535400390625 C497.2558288574219,701.6170654296875 495.95074462890625,692.2890625 494.053955078125,683.3920288085938 C491.90594482421875,673.3167724609375 493.94390869140625,663.501953125 496.78851318359375,653.7626953125 C499.3884582519531,644.861328125 503.9169921875,637.0099487304688 509.511474609375,629.822021484375 C523.5726928710938,611.7556762695313 542.556884765625,600.7090454101563 563.599365234375,592.728271484375 C567.5364379882813,591.2351684570313 568.0835571289063,591.34228515625 570.2022705078125,594.785888671875 C575.6956176757813,593.184326171875 581.1884765625,591.4719848632813 586.7482299804688,590.0145874023438 C589.099365234375,589.3982543945313 591.5990600585938,589.0364990234375 594.0158081054688,589.1051635742188 C595.3624877929688,589.1433715820313 597.7691040039063,590.2662963867188 597.7928466796875,590.9651489257813 C597.8534545898438,592.7474975585938 597.37939453125,595.1685791015625 596.1588745117188,596.253173828125 C592.9747314453125,599.0826416015625 589.047607421875,601.0724487304688 585.8419189453125,603.8821411132813 C582.0338745117188,607.2196655273438 578.4932250976563,610.9087524414063 575.1490478515625,614.719482421875 C567.486328125,623.4514770507813 559.35009765625,631.874755859375 552.6080322265625,641.2844848632813 C540.354736328125,658.3862915039063 533.19091796875,677.713623046875 536.3582763671875,698.8856811523438 C538.9227294921875,716.0274047851563 546.53466796875,730.5728149414063 563.4716796875,739.3071899414063 C576.0535888671875,745.7957153320313 588.9190063476563,746.3612670898438 602.2618408203125,746.016845703125 C619.5266723632813,745.5712280273438 635.78369140625,740.4920654296875 650.8919067382813,732.7857666015625 C671.0451049804688,722.5061645507813 690.4714965820313,710.806396484375 710.2700805664063,699.8248901367188 C721.7731323242188,693.4445190429688 733.0787963867188,686.5722045898438 745.052490234375,681.2160034179688 C756.423828125,676.1293334960938 768.4296264648438,671.998779296875 781.3067016601563,673.0140991210938 C787.512939453125,673.5034790039063 793.7029418945313,674.4560546875 798.5706176757813,679.0814819335938 C804.2728881835938,684.5001220703125 805.6055908203125,692.1094360351563 802.4398193359375,699.4398193359375 C801.7693481445313,700.9921875 801.7903442382813,703.7398681640625 802.74462890625,704.9485473632813 C808.1146240234375,711.7498168945313 813.7671508789063,718.3377685546875 819.5205688476563,724.823486328125 C824.1846923828125,730.0812377929688 829.26904296875,734.9669799804688 833.9159545898438,740.239013671875 C843.6436767578125,751.2750244140625 854.1659545898438,761.6798095703125 861.0996704101563,774.94287109375 C866.9163818359375,786.069091796875 867.460693359375,797.9816284179688 866.7431030273438,810.0728759765625 C866.2482299804688,818.4105834960938 864.5205078125,826.4776611328125 861.3093872070313,834.3137817382813 C855.4530639648438,848.6054077148438 846.9839477539063,860.9132690429688 835.3274536132813,871.03759765625 C833.2073974609375,872.8790283203125 831.1901245117188,874.8428344726563 829.0211791992188,876.6231079101563 C825.6510620117188,879.389404296875 821.3423461914063,882.6011352539063 817.599365234375,879.7088012695313 C813.473876953125,876.5208129882813 816.4988403320313,871.1124267578125 818.5759887695313,868.0453491210938 C825.94970703125,857.1571044921875 828.0086669921875,844.7244873046875 829.8018188476563,832.3397827148438 C831.3569946289063,821.5988159179688 832.2482299804688,810.6024780273438 831.8630981445313,799.7748413085938 C831.1842041015625,780.6956176757813 825.8434448242188,762.9066162109375 815.1819458007813,746.6497192382813 C807.8714599609375,735.5026245117188 801.8824462890625,723.48876953125 795.3016967773438,711.8629760742188 C794.7352294921875,710.8622436523438 794.1610107421875,709.8659057617188 793.4946899414063,708.7001342773438 C779.963134765625,712.202880859375 766.3475341796875,715.1885986328125 753.10107421875,719.3496704101563 C744.5615844726563,722.0321044921875 736.5527954101563,726.415283203125 728.3560791015625,730.1458129882813 C727.9599609375,730.3261108398438 728.0448608398438,731.5634155273438 727.6924438476563,732.6866455078125 C726.6329345703125,733.375244140625 725.7867431640625,733.6856689453125 724.9405517578125,733.99609375 C723.4804077148438,734.0546875 721.841796875,733.69775390625 720.5877685546875,734.236328125 C708.694091796875,739.3442993164063 696.99951171875,744.9390258789063 684.9872436523438,749.7425537109375 C666.91796875,756.9682006835938 648.390869140625,762.6802978515625 628.8013305664063,764.1124267578125 C620.5215454101563,764.7176513671875 612.2479858398438,765.409423828125 603.2926025390625,766.1154174804688 C623.5446166992188,784.2617797851563 627.1529541015625,807.8794555664063 628.6136474609375,832.9256591796875 C628.2356567382813,843.1675415039063 628.1658935546875,852.6801147460938 628.0961303710938,862.1926879882813 C628.0961303710938,862.1926879882813 628.0961303710938,862.1926879882813 628.0961303710938,862.1926879882813 Z" fill="#266e55"/>
	</g>
	<g transform="matrix(1,0,0,1,-1.084800585,0)">
		<path d="M724.63330078125,734.2491455078125 C725.7867431640625,733.6856689453125 726.6329345703125,733.375244140625 727.8118286132813,733.0036010742188 C736.5636596679688,733.5292358398438 740.8629150390625,739.88037109375 745.0648803710938,745.760498046875 C759.902099609375,766.5234985351563 769.1217041015625,789.75732421875 772.91650390625,814.904052734375 C776.244384765625,836.9564819335938 773.5835571289063,857.9568481445313 760.1456909179688,876.9423828125 C756.9256591796875,881.4917602539063 756.1806030273438,888.0386962890625 755.1082153320313,893.8173828125 C751.5578002929688,912.9495849609375 747.9551391601563,932.077392578125 741.00390625,950.3165283203125 C733.4035034179688,970.2588500976563 723.512939453125,988.9279174804688 709.2252807617188,1005.0769653320313 C699.0433349609375,1016.5853271484375 688.0188598632813,1026.911865234375 673.5072021484375,1032.676513671875 C667.4050903320313,1035.1004638671875 661.1367797851563,1037.626708984375 653.5909423828125,1034.39599609375 C654.2031860351563,1032.943115234375 654.5034790039063,1031.1700439453125 655.5111083984375,1030.01318359375 C661.6691284179688,1022.9426879882813 668.5455322265625,1016.4281616210938 674.1301879882813,1008.9431762695313 C684.0905151367188,995.5933837890625 691.0452880859375,980.77001953125 694.0639038085938,964.1390991210938 C696.2482299804688,952.1044311523438 699.4364624023438,940.255126953125 702.0014038085938,928.2855834960938 C705.0733642578125,913.9500732421875 712.67626953125,901.7197875976563 720.1288452148438,889.4913330078125 C723.068359375,884.6680297851563 726.7567138671875,879.8195190429688 731.2398071289063,876.530517578125 C738.1009521484375,871.4967041015625 737.43896484375,865.0187377929688 736.9072875976563,858.2353515625 C736.3826293945313,851.541015625 735.3532104492188,844.8759155273438 735.0690307617188,838.1757202148438 C734.7587280273438,830.8573608398438 735.4349975585938,823.4901733398438 734.9927368164063,816.1859130859375 C734.226318359375,803.5288696289063 732.9683227539063,790.9005126953125 731.8385620117188,778.26708984375 C731.2700805664063,771.9096069335938 730.8884887695313,765.5026245117188 729.75634765625,759.2384033203125 C728.8312377929688,754.1199951171875 726.72900390625,749.2252807617188 725.5128173828125,744.144287109375 C724.7637329101563,741.014892578125 724.6983642578125,737.7218017578125 724.63330078125,734.2491455078125 C724.63330078125,734.2491455078125 724.63330078125,734.2491455078125 724.63330078125,734.2491455078125 Z" fill="#266e54"/>
	</g>
	<g transform="matrix(1,0,0,1,-1.084800585,0)">
		<path d="M837.4161376953125,550.63818359375 C842.3425903320313,560.3023071289063 848.1791381835938,569.29736328125 851.453369140625,579.1444091796875 C855.4744873046875,591.2376098632813 857.8548583984375,603.955810546875 860.0438232421875,616.5602416992188 C863.2720947265625,635.1490478515625 859.2450561523438,652.8335571289063 850.3240966796875,669.1516723632813 C842.2470092773438,683.9260864257813 830.5372314453125,695.1295166015625 813.9192504882813,700.0733032226563 C811.61181640625,700.759765625 808.8829956054688,700.0299682617188 806.3492431640625,699.955810546875 C806.838134765625,697.1599731445313 806.5377807617188,693.8624267578125 807.9442138671875,691.6497802734375 C817.0236206054688,677.3662719726563 822.03173828125,661.6047973632813 824.84765625,645.1665649414063 C826.6798706054688,634.4707641601563 826.2191162109375,623.7587890625 824.0948486328125,612.8673095703125 C819.717041015625,590.4213256835938 809.7427368164063,571.2517700195313 793.4622802734375,555.3971557617188 C783.2564697265625,545.458251953125 771.4718627929688,537.8895263671875 758.3682861328125,531.9959106445313 C736.1217651367188,521.990234375 712.8883056640625,519.077392578125 688.843017578125,519.9356079101563 C685.680908203125,520.0484619140625 682.4097900390625,518.8987426757813 679.2916870117188,517.9842529296875 C675.7138061523438,516.9349975585938 675.3866577148438,513.649169921875 676.9733276367188,511.3929138183594 C679.3321533203125,508.0386962890625 682.2398681640625,504.3877258300781 685.7882080078125,502.6846923828125 C695.2852172851563,498.12664794921875 705.4863891601563,495.3435974121094 716.1143798828125,495.0186767578125 C726.4470825195313,494.7028503417969 736.854736328125,494.09442138671875 747.1140747070313,494.9683532714844 C755.6824340820313,495.6982421875 764.1493530273438,498.1286315917969 772.5448608398438,500.2637023925781 C786.8349609375,503.8979187011719 799.4542846679688,511.2830810546875 810.732666015625,520.3482666015625 C821.1395263671875,528.7129516601563 830.4756469726563,538.494384765625 837.4161376953125,550.63818359375 C837.4161376953125,550.63818359375 837.4161376953125,550.63818359375 837.4161376953125,550.63818359375 Z" fill="#266e54"/>
	</g>
	<g transform="matrix(1,0,0,1,-1.084800585,0)">
		<path d="M234.69122314453125,153.11766052246094 C234.66465759277344,143.74798583984375 234.6559295654297,133.93994140625 234.69468688964844,123.75379943847656 C234.73114013671875,133.14356994628906 234.72010803222656,142.9114227294922 234.69122314453125,153.11766052246094 C234.69122314453125,153.11766052246094 234.69122314453125,153.11766052246094 234.69122314453125,153.11766052246094 Z" fill="#a9d5c6"/>
	</g>
	<g transform="matrix(1,0,0,1,-1.084800585,0)">
		<path d="M1140.73681640625,350.80206298828125 C1150.2156982421875,350.6835021972656 1160.1427001953125,350.57781982421875 1170.421142578125,350.64886474609375 C1160.9100341796875,350.8220520019531 1151.0474853515625,350.8185119628906 1140.73681640625,350.80206298828125 C1140.73681640625,350.80206298828125 1140.73681640625,350.80206298828125 1140.73681640625,350.80206298828125 Z" fill="#a0c1b4"/>
	</g>
	<g transform="matrix(1,0,0,1,-1.084800585,0)">
		<path d="M628.4892578125,861.9797973632813 C628.1658935546875,852.6801147460938 628.2356567382813,843.1675415039063 628.6004638671875,833.3663940429688 C628.89111328125,842.640869140625 628.8867797851563,852.203857421875 628.4892578125,861.9797973632813 C628.4892578125,861.9797973632813 628.4892578125,861.9797973632813 628.4892578125,861.9797973632813 Z" fill="#6fa796"/>
	</g>
	<g transform="matrix(1,0,0,1,-1.084800585,0)">
		<path d="M610.505126953125,559.4165649414063 C619.4348754882813,559.14013671875 628.689453125,559.0985107421875 638.40283203125,559.096923828125 C629.5177001953125,559.308349609375 620.173828125,559.4798583984375 610.505126953125,559.4165649414063 C610.505126953125,559.4165649414063 610.505126953125,559.4165649414063 610.505126953125,559.4165649414063 Z" fill="#a6c4bb"/>
	</g>
	<g transform="matrix(1,0,0,1,-1.084800585,0)">
		<path d="M253.92074584960938,717.9140625 C253.71519470214844,718.2804565429688 253.37318420410156,718.489990234375 253.03115844726563,718.6995239257813 C253.07664489746094,718.3829956054688 253.12213134765625,718.0665283203125 253.32183837890625,717.6142578125 C253.47607421875,717.478515625 253.78427124023438,717.75732421875 253.92074584960938,717.9140625 C253.92074584960938,717.9140625 253.92074584960938,717.9140625 253.92074584960938,717.9140625 Z" fill="#2e7d5b"/>
	</g>
</g></g></svg>