<svg xmlns="http://www.w3.org/2000/svg" width="1024" height="672" viewBox="0 0 1024 672"><defs><clipPath id="artboard-13316180507658234898"><path d="M0 0h1024v672H0z"/></clipPath></defs><path fill="none" d="M0 0h1024v672H0z"/><g fill="#2e7d5b" stroke="#2e7d5b" stroke-width="2" clip-path="url(#artboard-13316180507658234898)"><path d="m421.12 502-6.4 5.87c5.84-1.87 10.98-1.17 16.42.96 1-.1 1.19-1.55 2.06-2.25 2.46-2 4.55-1.58 5.22 1.47a11.7 11.7 0 0 0 4.61 7.37c1.84 1.38 1.93 3.47.73 5.4-1.2 1.9-3.08 1.71-4.93 1.2-3.94-1.07-5.6-4.4-7.16-7.8-4.53 4.49-4.67 6.23-.78 10.67 1.36 1.55 2.1 3.1.85 4.91-1.46 2.13-3.48 1.7-5.3.58-4.77-2.91-6.64-7.67-7.97-13.33-2.65 2.48-4.52 4.67-2.76 8.27 1.15 2.37 1.14 4.82-1.5 5.96-2.58 1.11-4.6-.67-5.78-2.77-3.56-6.27-4.14-13.23-.05-18.99 4.85-6.8 3.13-11.42-1.42-17.46-8.03-10.62-15.18-21.9-24.94-31.14-8.9-8.43-18.66-15.76-29.9-20.63-15.38-6.66-29.4-15.48-43.26-24.79-17.62-11.83-37.28-17.29-58.62-16.21-4.9.24-9.4 2.07-14.01 3.47-7.95 2.4-11.9-1.04-10.82-9.31.71-5.46-1.5-10.46-2.54-15.63-4.85-23.96-13.03-46.54-28.6-65.78-16.77-20.73-35.97-38.47-61.89-47.28-5.02-1.71-10.08-3.43-15.53-3.35-3.6.05-5.9-2-7.17-5.23s-.1-6.04 2.25-8.12c2.1-1.85 3.3-3.86 4.09-6.56 6.07-20.8.67-39.56-10.4-57.05-9.53-15.06-22.59-26.6-38.36-34.99-6.62-3.52-7.13-3.41-11.87 2.2-2.44 2.88-7.85 3.82-11.48 1.78-3.98-2.23-4.94-5.96-3.49-9.89 1.99-5.37 5.24-10.11 10.2-13.2 15.28-9.5 32.19-14.2 49.84-16.57 32.11-4.31 61.83 4.72 91.57 15.43 34.48 12.4 66.79 29.22 99.34 45.67 11.57 5.84 23.1 11.97 36.05 14.46.78.15 1.59.6 2.4-.11.37-1.86-1.12-2.97-1.89-4.36-1.43-2.58-1.56-5.12.42-7.42 2.03-2.35 4.69-2.43 7.33-1.34 3.89 1.6 6.51 4.65 8.2 8.37a26 26 0 0 0 5.5 8.2 13 13 0 0 1 3.95 8.96c.15 5.39 2.6 9.69 5.93 13.42 15.27 17.15 30.62 34.2 46.82 50.52 7.88 7.92 15.65 15.91 24.3 22.98 13.28 10.85 27.75 12.69 43.34 5.38 5.82-2.72 8.24-9.9 5.15-15.44-4.83-8.64-5.5-18.08-4.87-27.63.31-4.8 5.04-7.99 9.82-6.74 8.87 2.31 16.98 6.15 22.28 14.1 1.66 2.5 3.46 3.33 6.22 2.51a19 19 0 0 1 10.82-.2c2.98.82 5.33-.05 7.2-2.92 4.88-7.54 12.36-12.07 20.15-15.92 5.75-2.85 11.53.62 11.74 7.05.37 11.07 1.85 22.27-5.82 32.14-3.18 4.09-.8 8.99 4.17 10.96 2.53 1 4.73 2.4 6.64 4.33 13.76 13.9 32.34 12.18 44.9 1.17 13.31-11.66 25.15-24.8 37.93-36.98a7719 7719 0 0 0 37.88-36.3c6.94-6.72 12.91-13.6 11.2-24.68-.93-5.97 2.48-11.27 7.67-14.81 2.31-1.58 4.9-2.26 7.5-.62 2.44 1.53 2.76 3.93 2.55 6.59-.4 4.85.9 5.85 5.79 4.27 12.93-4.15 24.85-10.51 36.35-17.57 20.73-12.73 41.1-26.04 61.9-38.64 29.96-18.16 62.11-30.39 97.03-35.01 13.6-1.8 27.15-2.97 40.77-.78 7.46 1.2 14.54 3.53 20.4 8.67 4.34 3.8 6.16 9.6 4.54 14.3-.95 2.76-2.6 4.7-5.56 5.06-3 .35-6-.46-7.33-3.21-2.55-5.24-5.75-3.34-8.89-1.18-6.82 4.72-11.9 11.17-16.52 17.89a170 170 0 0 0-23.57 49.88c-4.71 16.46-7.21 33.14-4.38 50.29.5 3.04 1.57 5.53 3.93 7.78 3.58 3.42 4 7.93 2.46 12.5-1.27 3.82-4.11 6.37-8.1 6.47-13.21.34-24.46 6.24-35.28 12.74-30.85 18.54-53.12 44.93-69.14 76.96-10.02 20.06-17 41.2-23.24 62.64-.37 1.26-.43 2.62-.53 3.94-.33 4.2-1.53 7.97-5.66 9.86-4.32 1.98-8.53 1.22-12.19-1.68-6.55-5.2-13.37-9.69-21.48-12.39-16.15-5.37-32.28-5.38-47.94.73-23.25 9.07-46.63 18.02-67.69 31.85-15.17 9.96-28.83 21.61-39.43 36.4-5.08 7.09-9.81 14.5-9.1 24.1.36 4.78-2.17 9.32-3.58 13.9-.45 1.47-1.88 2.72-3.08 3.84-1.3 1.2-2.95 1.62-4.6.67-1.46-.84-1.7-2.28-1.87-3.85-.31-2.85 2.25-5.24 1.07-9.2-1.77 4.64-4.33 7.74-6.88 10.86-1.17 1.44-2.37 2.83-4.17 3.47-1.77.64-3.63 1.06-5.1-.57a3.8 3.8 0 0 1-.34-4.68c2.9-4.75 4.29-9.68 2.96-15.25-.37-1.56.53-2.92 1.88-3.83 2.32-1.56 3.52 1.02 5.28 1.54 2.39-1.27 2.44-2.9.96-4.9-5-6.8-6.4-14.5-5.58-22.72 1.27-12.8-1.42-24.46-9.57-34.7-12.32-15.47-12.67-32.55-6.76-50.57 4.51-13.74 10.24-27.09 13.04-41.38 1.42-7.21 2.84-14.37 2.27-21.77a8.7 8.7 0 0 1 1.04-5.3c1.88-3.13 4.67-3.26 6.65-.22 1.86 2.88 2.3 6.19 2.63 9.53 1.8 18.71-2.44 36.38-9.11 53.66-1.98 5.12-3.98 10.26-5.51 15.52-3.37 11.6-.22 22.24 6.27 31.78 8.64 12.7 11.16 26.47 9.05 41.4-.77 5.4 1.54 9.63 5.16 13.42 2.23-.77 3.12-2.7 4.12-4.3 18.53-29.95 45.72-49.8 76.4-65.55 13.5-6.92 27.2-13.22 42.09-16.84 25.27-6.15 49.16-3.43 71.7 9.78.7.4 1.42.74 2.9 1.5-.56-7.66-.81-14.7-1.63-21.69-3.48-29.6-7.6-59.1-16.57-87.64a301 301 0 0 0-41.9-84.18c-2.12-3-3.9-4.88-7.59-.78-16.22 18.06-29.85 37.93-41.85 58.94-8.02 14.02-15.3 28.45-23.39 42.42-6.99 12.07-15.86 15.22-29.24 11.38-6.59-1.9-12.95-4.3-18.6-8.31-1.62-1.15-3.26-2.27-5.33-2.62-1.46-.25-3.26-.77-2.88-2.73.37-1.88 2.24-1.69 3.72-1.68 6.53.05 12.89 1.34 19.16 3.04 11.16 3.03 16.45 1.38 22.52-8.07 15.6-24.23 31-48.58 46.47-72.9.05-.08-.08-.27-.26-.83a374 374 0 0 0-31.9 31.7c-7.25 8.05-14.77 15.87-21.67 24.2-10.75 12.96-35.97 17.94-51 10.5-1.57-.78-3.2-1.83-5.29-1.25-1.14 2.88-.23 5.92-.68 8.84-.24 1.49-.38 3.22-2.13 3.59-1.9.4-2.45-1.35-3.07-2.68-3.38-7.24-6.9-14.3-12.6-20.2-3.47-3.62-2.92-9.03-3.78-13.73-1-5.49.4-10.2 3.68-14.9 3.16-4.52 4.17-10.04 3.19-16.97-6.03 3.56-10.74 7.4-13.75 13.04-2.72 5.1-5.72 7.03-11.25 5.51-6.38-1.74-12.5-2.91-19.05-.62-3.08 1.08-5.99-.88-7.7-3.5-3.15-4.87-7.97-7.36-13.25-10.3-.68 5.44 1.36 9.67 3.9 13.67 5.62 8.87 3.01 21.42-4.65 28.57-6.17 5.74-10.68 13.27-13.64 21.17-4.56 12.18-6.75 24.97-7.05 38.01-.31 13.01 1.13 25.9 2.62 38.8.82 7.15 1.8 14.19.39 21.71-1.17 6.28-2.52 12.11-5.52 17.68-2.01 3.72-4.41 6.62-8.41 8.75-5.6 2.96-7.72 9.08-9.62 14.73-2.77 8.22-6.43 16.05-9.56 24.11-.3.77-.6 1.9-1.2 2.14-6.1 2.46-6.98 9.44-11.83 13.41m26.4-126.25c-.74-16.42 3.05-32.02 8.9-47.19 2.3-5.97 5.16-11.74 8.23-18.64-25.02 3.62-41.67-10.53-58.32-24.8a661 661 0 0 0 12.2 29.16 5.7 5.7 0 0 0 5.6 3.5q3.5-.06 6.96-.53a35 35 0 0 1 16.28 1.16c1.78.58 3.34 1.65 3.32 3.87 0 1.39-.92 2.09-2.15 2.4-8.7 2.18-17.34 4.73-26.15 6.4a15.1 15.1 0 0 1-16.43-8.75c-1.4-3.38-2.75-6.8-3.8-10.3-10.25-33.92-27.3-63.86-52.15-89.23-3.67-3.76-7.4-7.47-11.15-11.26-4.41 3.36-6.73 7.7-9.5 11.56a1626 1626 0 0 0-43.34 63.51c-7.87 12.17-15.39 24.58-21.55 37.66-9.01 19.15-15.89 39.15-21.53 59.55-.39 1.4-.87 2.9.38 4.3.46.05.95.2 1.42.16 28.94-2.68 55.64 3.8 79.5 20.43a308 308 0 0 0 36.25 21.96c16.46 8.39 29.9 20.23 40.73 35.3 6.73 9.38 11.56 19.77 17.33 29.76 2.64-1.74 4.11-4.02 5.4-6.63 5.68-11.53 7.8-24.27 12.52-36.18 3.44-8.7 6.55-17.38 11.73-25.19 2-3 3.02-6.14 2.63-9.87-1.45-13.73-2.96-27.46-3.32-42.1M281.65 273.1c13.23-22.02 28.79-42.5 43.47-64.34-1.84-.3-2.63-.53-3.42-.55a456 456 0 0 0-86.46 6.17c-30.66 5.21-60.48 13.07-88.4 27.11-5.42 2.73-10.54 6.04-15.79 9.08 1.3 2.42 3.18 2.38 4.67 2.88 31.21 10.51 54.05 31.46 72.04 58.23 10.7 15.92 17 33.8 21.86 52.23.6 2.25 1.27 4.48 1.85 6.73s.8 4.64 2.72 7.5c12.23-37.08 27.08-71.92 47.46-105.04m565.83-131.2c-5.06 2.91-10.14 5.78-15.17 8.72-23.73 13.87-46.36 29.58-70.89 42.08-10.48 5.35-21.19 10.25-32.63 15.76 30.84 2.58 60.95 3.54 90.53 9.72 29.68 6.2 57.77 17.15 86.09 28.7-3.03-50.94 13.67-93.63 47.3-129.99-8.2-7.4-65.95 1.86-105.23 25.02m54.1 119.05c.98-1.8-.8-1.94-1.6-2.4-3.77-2.11-7.5-4.32-11.43-6.09a336 336 0 0 0-105.62-28.15c-13.07-1.3-26.13-2.75-39.23-3.74-7.34-.55-14.7-2.28-22.98-.65 4.45 6.7 8.62 12.86 12.65 19.1 12.5 19.36 23.29 39.57 30.26 61.68 9.26 29.42 12.12 59.87 15 90.34.43 4.68.37 9.5 2.14 14.5 4.77-13.3 9.16-26.2 14-38.92 10.04-26.42 25.32-49.25 46.24-68.48 17.7-16.26 37.77-28.3 60.56-37.2M195.92 213.1c37.26-10.6 75.66-13.22 114.15-15.72-.51-1.04-.96-1.55-1.53-1.77-28.97-11.47-56.38-26.36-84.82-38.98-28.77-12.76-57.85-24.58-89.44-28.85-19.35-2.61-38.13-1-56.68 4.66-2.9.89-6.05 1.61-7.79 4.84 41.5 21.5 63.44 54.27 59.39 102.73 21.71-11.24 43.25-20.41 66.72-26.91Z"/><path d="M472.95 541.95c2.62-22.51-6.28-42.07-12.98-62.78-8.2 4.33-11.89 10.97-13.44 19.14-.3 1.55.24 3.83-2.06 3.91-2.3.1-2.78-2.21-3.14-3.92-1.32-6.32.05-12.2 3.18-17.77 1.67-2.96 4.06-5.28 6.31-7.72 9.55-10.31 20.23-5.62 23.86 5.58 3.67 11.32 5.19 23.31 6.86 35.17 1.77 12.6 2.08 25.15.06 37.76-.27 1.68-.64 3.59.72 5.9 3.72-4.2 5.9-9.03 8.41-13.57 9.04-16.35 16.12-33.6 23.18-50.87 3.1-7.55 6-15.2 10.94-21.82 5.4-7.26 12.43-9.45 19.53-6.11 5.2 2.44 6.83 7.4 8.56 12.31 2.09 5.93 1.05 11.24-2.86 16.71l-9.4-14.38c-3.3 1.1-4.59 3.75-6.11 6.01-11.93 17.71-21.68 36.61-30.99 55.8a247 247 0 0 1-24.86 40.32c-2.68 3.57-7.45 4.9-10.56 2.82-3.75-2.49-2.81-5.8-1.55-9.32 3.77-10.55 5.67-21.5 6.34-33.17ZM552 522.76c-2.49 1.8-4.94 2.8-6.96.36-2.12-2.57-.21-4.73 1.66-6.44a13 13 0 0 0 4.04-6.74c.36-1.53.75-3.08 2.64-3.1 2.19-.03 2.62 1.84 2.93 3.44.92 4.8-.56 8.87-4.32 12.48Z"/></g></svg>