<svg version="1.1" id="Layer_1" xmlns="http://www.w3.org/2000/svg" xmlns:xlink="http://www.w3.org/1999/xlink" x="0px" y="0px"
	 width="100%" viewBox="0 0 1024 816" enable-background="new 0 0 1024 816" xml:space="preserve">
<path fill="#000000" opacity="1.000000" stroke="none" 
	d="
M471.064362,188.687805 
	C474.399750,190.374146 479.249420,191.022446 478.362549,195.337067 
	C477.408600,199.978134 472.630005,198.355957 469.398499,198.103455 
	C454.278320,196.922028 440.538208,202.137085 426.705200,206.956207 
	C423.250671,208.159698 419.862366,209.587921 416.532898,211.108337 
	C410.280762,213.963364 407.847595,218.736313 409.810059,225.216721 
	C414.265350,239.929001 421.420044,253.158966 432.165619,264.313568 
	C439.888123,272.329987 449.344482,274.994110 459.897980,272.250946 
	C478.876007,267.317963 496.761322,259.700195 513.080872,248.678360 
	C516.266968,246.526566 519.151001,243.976685 521.514099,240.925201 
	C525.254272,236.095535 524.463379,231.706879 519.146606,228.312469 
	C513.859131,224.936768 507.834656,223.562134 501.786621,222.295059 
	C493.648224,220.590088 485.386139,219.365814 477.598816,216.259415 
	C474.333344,214.956787 471.134979,213.523636 468.946503,210.576996 
	C467.545227,208.690323 467.135956,206.606750 468.198547,204.474182 
	C469.141876,202.580948 470.676453,201.368576 472.940277,201.358429 
	C485.058044,201.304138 497.182617,199.590683 509.291504,201.702438 
	C518.919495,203.381561 528.075867,206.216492 536.045044,212.092880 
	C552.245056,224.038635 552.722290,244.437561 537.011536,257.287354 
	C524.421326,267.584900 509.232635,272.127228 493.890228,276.199219 
	C480.821442,279.667725 467.559448,281.945190 453.983002,281.828339 
	C451.843170,281.809937 451.174805,282.770416 450.718109,284.680817 
	C442.208984,320.274902 432.825653,355.676544 426.803070,391.820404 
	C424.013062,408.564148 422.748383,425.490540 421.466278,442.404114 
	C421.420105,443.013458 421.719452,443.648987 422.002228,444.923340 
	C424.072601,442.472443 424.721832,439.955566 425.583649,437.587646 
	C431.187225,422.191742 437.832306,407.328217 447.588196,394.032043 
	C451.357056,388.895477 455.475952,384.085663 461.037384,380.808411 
	C469.191132,376.003571 475.308472,379.429413 475.310120,388.763672 
	C475.311798,398.454285 472.317993,407.464722 468.533264,416.194305 
	C460.932678,433.725494 450.436615,449.555511 439.084076,464.818237 
	C430.622650,476.194122 424.220093,488.636139 420.820038,502.299133 
	C418.944550,509.835571 420.104218,517.898499 420.522278,525.703491 
	C421.474426,543.480896 422.419556,561.260864 424.247437,578.981567 
	C426.194183,597.854614 429.070862,616.580017 432.737579,635.189697 
	C432.769653,635.352356 432.857025,635.506470 432.875000,635.669373 
	C433.173462,638.376221 434.728973,642.098145 431.163269,643.020203 
	C427.394409,643.994934 427.186890,640.064758 426.486267,637.386108 
	C418.347260,606.267273 412.848724,574.687927 409.575500,542.690613 
	C406.657074,514.162109 405.100586,485.576355 405.990784,456.916046 
	C407.122223,420.487701 408.984436,384.087494 415.731812,348.166199 
	C419.610962,327.514648 424.395111,307.088959 435.490479,288.810242 
	C437.018127,286.293579 438.708771,283.875854 440.559387,281.053192 
	C437.017609,280.006805 433.812012,279.260651 430.751495,278.123901 
	C404.760315,268.470093 388.515411,249.959595 381.420197,223.318893 
	C378.838043,213.623642 381.715088,205.564087 389.617432,199.388077 
	C399.503723,191.661514 411.128510,188.260025 423.254608,186.397690 
	C439.186371,183.950867 455.079285,183.537354 471.064362,188.687805 
z"/>
<path fill="#000000" opacity="1.000000" stroke="none" 
	d="
M184.085190,329.311676 
	C189.321823,321.338898 197.037231,318.431335 205.586639,317.764191 
	C225.676300,316.196564 241.871277,324.168396 255.098419,338.893433 
	C255.858765,339.739899 256.371826,340.878754 258.107819,341.165924 
	C258.879730,337.392212 257.359467,333.798584 257.281677,330.153381 
	C256.905975,312.550110 261.608215,297.105896 277.004974,286.827881 
	C287.678192,279.703033 299.576660,280.306427 309.165344,287.671326 
	C318.384216,294.752167 322.168365,307.378235 318.720062,319.112732 
	C316.617950,326.266113 312.429260,332.176849 307.168671,338.216736 
	C311.453949,338.910339 315.140289,338.578979 318.673401,339.587067 
	C329.021423,342.539673 336.497314,350.425201 337.305328,359.516022 
	C338.169678,369.240417 333.096954,377.766357 323.068970,382.617615 
	C312.316864,387.819183 301.261047,387.986115 290.133209,383.683716 
	C288.736755,383.143829 287.362793,382.546051 285.972168,381.990631 
	C285.828949,381.933441 285.643066,381.982941 284.412659,381.982941 
	C299.332642,414.064789 307.114960,447.873871 313.565704,483.546204 
	C315.593048,476.242706 317.080322,470.307648 318.890350,464.472687 
	C324.309021,447.004608 332.343964,430.801941 342.718689,415.739594 
	C348.477509,407.378754 354.531921,399.190399 358.511292,389.738831 
	C359.301056,387.863007 360.407227,385.857086 362.765686,386.154907 
	C365.298798,386.474823 366.017853,388.666718 366.344940,390.943604 
	C367.844421,401.380493 364.744934,411.032440 361.333405,420.639862 
	C354.621490,439.541656 344.289368,456.761749 336.080078,474.973236 
	C327.215424,494.638550 321.884888,515.221619 320.564209,536.596313 
	C319.893311,547.455200 321.816406,558.483521 322.685211,569.425842 
	C323.492981,579.599792 323.654480,589.762207 321.186279,599.719177 
	C320.123779,604.005371 319.789185,610.482483 313.794220,609.912720 
	C307.978821,609.360107 309.063446,602.987366 308.892426,598.810852 
	C308.252167,583.173340 308.243195,567.510193 307.621918,551.871643 
	C306.670380,527.918945 304.070038,504.141113 299.922058,480.505585 
	C294.730133,450.921753 287.046112,422.042847 276.783508,393.831635 
	C276.171692,392.149689 275.919556,390.310547 274.176758,388.549988 
	C273.538727,399.884125 271.450378,410.380890 264.066132,419.008759 
	C257.182068,427.052124 248.593735,431.492676 237.972427,428.940521 
	C227.910797,426.522858 221.627319,419.674652 219.455612,409.415192 
	C217.581100,400.559753 220.498367,392.669067 224.721710,385.116180 
	C227.062714,380.929626 230.484421,377.536163 234.460953,373.168793 
	C225.900864,373.926483 218.451172,374.275482 211.163132,372.259094 
	C198.835724,368.848480 189.196991,362.005249 183.624542,350.216187 
	C180.392532,343.378540 179.962631,336.441925 184.085190,329.311676 
M284.928741,367.624664 
	C286.326050,368.163544 287.696625,368.789734 289.125061,369.226929 
	C297.629791,371.829834 305.897858,371.356567 313.735016,366.963623 
	C316.927612,365.174072 319.237061,362.680206 318.927765,358.578613 
	C318.629578,354.625183 315.931915,352.881256 312.741669,351.514130 
	C310.889099,350.720245 308.974884,350.355499 306.946533,350.202454 
	C299.089752,349.609680 292.239655,352.444641 285.715057,356.312988 
	C282.884918,357.990906 280.175659,359.189331 277.906555,355.824860 
	C274.972961,351.475128 275.402557,347.119507 279.425812,345.156311 
	C288.095306,340.926025 292.759674,333.398895 296.875061,325.321655 
	C299.105011,320.945038 300.234863,316.257812 299.603760,311.314301 
	C298.440491,302.202148 290.407867,298.456085 282.727264,303.445587 
	C279.334503,305.649536 276.509796,308.476135 274.538300,312.046082 
	C269.675842,320.850983 266.804779,329.994751 269.107208,340.253632 
	C269.926758,343.905243 269.300049,347.719604 264.590454,348.118378 
	C260.073639,348.500824 257.553528,351.545410 255.867340,354.696899 
	C254.107574,357.985901 251.898376,361.920074 256.350098,365.734100 
	C259.211761,368.185913 258.020874,371.110565 254.787399,373.012756 
	C246.434479,377.926605 241.690460,385.578339 238.874557,394.548676 
	C237.817215,397.916992 237.839539,401.446869 239.092163,404.855347 
	C241.754196,412.098938 247.655380,413.784027 253.622940,408.954468 
	C258.507080,405.001770 260.882446,399.525513 262.571472,393.695343 
	C264.036713,388.637634 263.958038,383.553406 262.858765,378.398438 
	C262.346039,375.994019 262.956818,373.520996 265.595917,372.614136 
	C268.536194,371.603790 269.658386,373.980560 270.836823,376.043335 
	C271.442657,377.103790 271.314117,378.632751 272.722351,379.219208 
	C274.249603,376.872375 276.445801,374.864868 274.287109,371.679443 
	C272.900635,369.633514 272.656342,367.189240 274.867828,365.359955 
	C277.179626,363.447662 279.474152,364.051361 281.673187,365.776886 
	C282.451447,366.387573 283.378815,366.808228 284.928741,367.624664 
M203.094818,345.497925 
	C203.026764,349.378601 205.272659,352.005341 207.940689,354.387939 
	C216.159760,361.727997 236.426010,363.243042 245.798294,357.228790 
	C248.890335,355.244629 250.249146,350.381348 247.943237,348.396942 
	C238.318604,340.114136 227.386337,334.828339 214.372375,335.477051 
	C207.738663,335.807739 204.468536,338.844025 203.094818,345.497925 
z"/>
<path fill="#000000" opacity="1.000000" stroke="none" 
	d="
M141.685974,588.387146 
	C145.969269,594.243896 149.307693,600.181030 150.407928,607.088257 
	C150.911224,610.248047 152.466934,610.602722 155.309570,610.123657 
	C168.429321,607.912537 181.524948,605.518677 194.813034,604.434692 
	C213.247650,602.930847 231.646545,602.444397 250.171326,603.436157 
	C287.592651,605.439514 323.017944,615.029907 357.244690,629.730530 
	C369.508026,634.997742 381.257111,641.271606 392.613647,648.283508 
	C395.272980,649.925476 397.980377,651.489563 401.711304,653.712585 
	C397.966980,644.103333 393.700958,636.108765 388.961334,628.355469 
	C380.674072,614.798950 371.543579,601.913269 359.011719,591.846863 
	C356.947205,590.188538 354.593811,588.891907 352.391602,587.402100 
	C350.662201,586.232117 349.196259,584.843323 349.760162,582.491211 
	C350.308929,580.202148 352.235107,579.327576 354.233673,579.047913 
	C358.965179,578.385864 363.562225,579.459900 367.929749,581.096436 
	C389.449768,589.160767 404.357666,604.706177 415.179932,624.327393 
	C422.884186,638.295410 426.480225,653.361633 424.401825,669.533813 
	C423.181702,679.027893 420.097473,680.462280 411.765442,676.293518 
	C368.324921,654.558655 324.191315,634.803833 275.320770,628.335205 
	C228.545639,622.143921 182.728180,627.088501 137.322433,638.748474 
	C112.340103,645.163757 87.906670,653.642395 62.560303,658.646851 
	C56.864239,659.771545 51.041298,660.406860 45.245029,660.802246 
	C42.585007,660.983765 39.122715,661.208191 37.872944,657.940552 
	C36.511932,654.382019 39.319515,652.383789 41.790909,650.679688 
	C52.840679,643.060425 65.186035,637.984741 77.502625,632.917725 
	C95.700676,625.431091 114.465202,619.646301 133.547607,614.877869 
	C135.303146,614.439209 137.138138,614.220459 139.152115,612.625305 
	C133.006317,606.969177 127.043465,601.311279 120.893929,595.864197 
	C112.895668,588.779541 104.348679,582.422668 94.973114,577.233398 
	C92.192436,575.694336 89.358299,574.396362 86.171921,573.841675 
	C83.807198,573.430054 81.390594,572.439087 81.318390,569.609314 
	C81.237892,566.454041 83.916878,565.592041 86.377136,564.992981 
	C95.904121,562.673157 104.901909,565.220886 113.709717,568.423157 
	C124.720245,572.426453 134.199341,578.743713 141.685974,588.387146 
z"/>
<path fill="#000000" opacity="1.000000" stroke="none" 
	d="
M773.025879,589.273804 
	C729.531494,590.679749 687.553223,598.207703 646.312378,610.222595 
	C594.616943,625.283508 546.861328,649.119995 500.344269,675.707642 
	C482.267548,686.039673 464.069855,696.145569 445.647339,705.848816 
	C441.088959,708.249817 436.506775,710.591614 432.501434,713.969238 
	C430.407104,715.735474 427.673187,717.750610 424.964020,715.041382 
	C422.410004,712.487244 424.538727,710.061646 426.005249,707.911438 
	C435.453094,694.059143 448.078674,683.424255 461.598206,673.905029 
	C493.405640,651.509155 528.431335,635.311707 564.533997,621.236084 
	C605.857849,605.124756 647.963867,591.568054 691.383423,582.340942 
	C717.285095,576.836670 743.433044,573.219849 769.911865,571.533142 
	C805.923096,569.239136 841.464355,572.054260 876.565735,579.947449 
	C907.556763,586.916382 937.615967,596.632996 964.655273,613.959900 
	C969.985474,617.375427 975.097290,621.130005 979.586792,625.645447 
	C981.230408,627.298462 983.358337,629.023376 981.769409,631.610291 
	C980.137878,634.266541 977.638855,632.994507 975.486206,632.189026 
	C957.088623,625.305054 938.813843,618.075562 920.293762,611.540344 
	C886.523804,599.623779 851.681641,592.767883 815.959045,590.094482 
	C801.805359,589.035217 787.672546,589.228149 773.025879,589.273804 
z"/>
<path fill="#000000" opacity="1.000000" stroke="none" 
	d="
M513.157471,396.199005 
	C528.016479,368.807159 544.948120,343.354065 566.880127,321.511200 
	C582.249146,306.204651 599.587280,293.685974 619.401978,284.716980 
	C620.764832,284.100098 622.136353,283.448364 623.570374,283.055817 
	C625.541504,282.516174 627.252380,283.167572 628.283813,284.961517 
	C629.435364,286.964233 628.394226,288.600708 626.857361,289.739624 
	C609.381348,302.689880 596.390564,319.968719 582.615112,336.359528 
	C535.577820,392.327209 501.995758,455.293182 486.116211,527.043762 
	C480.188293,553.828613 476.279297,581.049561 469.374359,607.632080 
	C465.985992,620.676453 462.097870,633.591187 458.416992,646.559143 
	C458.053802,647.838684 457.648651,649.121582 457.103638,650.331055 
	C456.079834,652.603088 455.101440,655.385681 451.990662,654.894897 
	C449.190552,654.453125 448.949707,651.752808 448.633179,649.396912 
	C446.438141,633.059570 447.969879,616.798828 449.997925,600.606506 
	C454.036743,568.358887 460.701752,536.620972 469.692200,505.394806 
	C480.547028,467.693451 494.119202,431.050629 513.157471,396.199005 
z"/>
<path fill="#000000" opacity="1.000000" stroke="none" 
	d="
M799.163940,433.329712 
	C811.489990,392.590698 827.910217,354.100586 850.241394,318.250275 
	C852.874451,314.023102 856.032593,310.120728 858.988892,306.098358 
	C860.090149,304.600037 861.434265,303.118744 863.328674,302.947723 
	C866.409241,302.669556 867.908142,300.538422 869.557861,298.438751 
	C875.425415,290.971069 882.690613,285.231445 891.250183,281.157043 
	C895.673401,279.051544 900.304260,277.700592 905.270935,278.668915 
	C910.933533,279.772919 912.883911,284.221100 909.872925,289.099091 
	C907.071472,293.637512 902.648132,296.395050 898.380249,299.294678 
	C891.991333,303.635345 885.070923,307.023682 877.643372,308.973419 
	C872.744019,310.259460 868.617249,313.129639 863.822937,314.536682 
	C861.588989,315.192230 860.977905,317.657227 860.005127,319.565155 
	C848.382812,342.360046 840.193298,366.434967 833.220154,390.982391 
	C824.304504,422.367889 819.014099,454.580994 811.281311,486.234924 
	C805.868958,508.390381 798.822632,530.074463 792.280701,551.901367 
	C791.250977,555.336914 790.254333,560.392212 785.343933,559.679749 
	C780.691284,559.004700 781.368408,553.922607 781.077454,550.545105 
	C779.610291,533.516541 781.591858,516.629639 783.999817,499.810455 
	C787.211670,477.376343 792.453979,455.385193 799.163940,433.329712 
z"/>
<path fill="#000000" opacity="1.000000" stroke="none" 
	d="
M754.477417,685.389221 
	C756.740173,686.416443 758.745667,687.486694 757.567688,689.959106 
	C756.460693,692.282532 754.138550,692.269409 751.885254,691.761658 
	C737.232849,688.460144 722.343689,687.191528 707.399719,685.965515 
	C693.536011,684.828064 679.771606,685.425110 666.008606,686.495056 
	C634.768555,688.923584 603.973755,694.305664 573.445862,701.261353 
	C552.954834,705.930176 533.292542,713.306519 513.359863,719.799072 
	C507.028168,721.861511 500.616760,723.673950 494.037689,724.778687 
	C492.079010,725.107544 490.070465,725.216980 488.080994,725.262695 
	C486.166016,725.306763 484.384827,724.779602 483.499268,722.861877 
	C482.485962,720.667542 483.583313,718.866394 485.109406,717.526367 
	C487.730377,715.224976 490.418945,712.941833 493.335632,711.045593 
	C514.388794,697.357971 537.780762,689.213867 561.759338,682.544434 
	C595.339722,673.204346 629.559692,668.630737 664.416565,669.915161 
	C694.961731,671.040649 725.066101,675.175293 754.477417,685.389221 
z"/>
<path fill="#000000" opacity="1.000000" stroke="none" 
	d="
M111.225937,453.750916 
	C101.575768,442.244507 92.209991,430.963715 82.700287,419.805603 
	C80.016350,416.656464 77.293503,413.480469 73.551651,411.389435 
	C71.777786,410.398132 70.066055,408.871674 71.408043,406.552826 
	C72.660072,404.389374 74.774681,404.757843 76.738670,405.571350 
	C85.556526,409.223877 93.715973,414.091980 101.491219,419.552551 
	C138.073669,445.244598 165.029785,478.576874 180.899567,520.542297 
	C189.461868,543.184082 193.799774,566.625427 193.278030,590.893311 
	C193.263718,591.559387 193.309875,592.242920 193.177429,592.887390 
	C192.648026,595.463074 192.580093,598.675049 189.224869,599.076904 
	C185.858688,599.480225 184.750259,596.503845 184.002045,593.974182 
	C180.462173,582.006104 177.269257,569.941956 172.816147,558.249634 
	C158.258392,520.025696 136.925552,485.811707 111.225937,453.750916 
z"/>
<path fill="#000000" opacity="1.000000" stroke="none" 
	d="
M711.748901,372.629639 
	C707.507751,375.569855 704.597534,379.150330 702.839905,383.607056 
	C700.042358,390.700806 696.464478,393.072998 688.564514,392.105499 
	C683.460083,391.480377 678.661743,391.490936 674.063416,394.137299 
	C666.531372,398.472046 663.003479,406.977814 665.717590,414.574158 
	C668.460754,422.252136 677.693176,427.762817 685.698181,426.371765 
	C688.145508,425.946533 690.572021,425.280579 692.928711,424.488953 
	C695.303223,423.691376 697.536316,423.148285 699.097351,425.722382 
	C700.705933,428.374878 698.839172,430.104767 697.192505,431.774811 
	C686.852356,442.261658 668.619934,441.545288 657.600830,430.241272 
	C647.837585,420.225616 645.772217,404.217072 652.575623,391.290314 
	C659.363770,378.392456 673.836426,370.769958 687.467102,373.279755 
	C690.848389,373.902344 692.364929,372.662415 693.728699,369.984741 
	C696.566650,364.412292 700.363220,359.567444 705.623535,356.082184 
	C721.142456,345.799866 743.591309,352.273590 745.926147,377.827759 
	C746.288940,381.797974 747.124817,383.572174 751.320862,384.275177 
	C760.666687,385.840973 767.104553,391.469757 769.639465,400.620422 
	C772.230286,409.972260 769.064331,418.177704 762.415833,424.806488 
	C752.265930,434.926239 739.618408,438.728546 725.500488,438.155243 
	C724.681091,438.121979 723.867493,437.860016 723.058594,437.672333 
	C720.734497,437.133118 718.002502,436.503967 718.150269,433.631836 
	C718.307129,430.581573 721.003845,429.967651 723.683594,429.804657 
	C733.533875,429.205566 741.565308,424.898163 747.900574,417.472229 
	C751.031189,413.802734 753.298767,409.668884 750.825012,404.683197 
	C748.399902,399.795380 743.723145,398.898285 738.974548,398.787842 
	C731.300293,398.609253 729.255981,396.619995 729.814453,388.849030 
	C730.030640,385.841064 730.247681,382.840851 729.559204,379.895050 
	C727.915894,372.864136 719.955261,367.264587 711.748901,372.629639 
z"/>
<path fill="#000000" opacity="1.000000" stroke="none" 
	d="
M499.629364,639.004395 
	C496.402893,624.055481 497.199646,609.410278 499.053772,594.855652 
	C504.447449,552.515869 519.401245,513.639160 542.473572,477.842255 
	C549.887146,466.339996 558.145813,455.455353 568.050354,445.928894 
	C569.356750,444.672363 570.815979,443.435181 572.432312,442.671265 
	C575.283325,441.323730 576.886658,442.699280 577.227356,445.641388 
	C577.449524,447.559753 576.561035,449.242096 575.648376,450.822662 
	C559.240601,479.240234 547.741760,509.765503 537.190430,540.679260 
	C527.447571,569.224304 520.161560,598.456238 513.312683,627.802612 
	C512.405457,631.689758 511.386444,635.557373 510.236664,639.379089 
	C509.434387,642.045837 508.828156,645.499878 505.332336,645.509949 
	C501.823578,645.519958 500.519257,642.441772 499.629364,639.004395 
z"/>
<path fill="#000000" opacity="1.000000" stroke="none" 
	d="
M700.988281,435.321472 
	C701.763306,432.171326 702.251831,429.355713 703.941406,426.981720 
	C706.402649,423.523499 709.128235,423.576874 711.333130,427.109283 
	C712.688843,429.281128 713.835754,431.652649 713.119202,434.192413 
	C709.963196,445.379913 710.714844,456.976868 709.581360,468.359406 
	C708.049255,483.743256 707.082642,499.219543 707.254639,514.720276 
	C707.267151,515.847168 707.256287,516.974243 707.256287,519.621765 
	C712.867249,511.115448 717.189270,503.471588 723.491089,497.283203 
	C730.884216,490.023041 738.982849,484.163635 749.520691,482.491730 
	C753.050171,481.931702 756.425354,482.365082 758.444031,485.483765 
	C760.338989,488.411377 759.394104,491.608521 757.700989,494.462402 
	C753.585571,501.399200 748.095215,507.267151 742.516785,512.965942 
	C729.285034,526.483093 717.136902,540.744934 708.518860,557.763000 
	C706.958679,560.843811 704.781311,563.711365 702.448914,566.277527 
	C699.270813,569.774170 695.354858,568.758606 694.325623,564.152954 
	C693.570251,560.772827 693.278503,557.211792 693.332886,553.740051 
	C693.788879,524.600464 695.085449,495.505188 697.476746,466.447174 
	C698.323486,456.158752 699.093750,445.895386 700.988281,435.321472 
z"/>
<path fill="#000000" opacity="1.000000" stroke="none" 
	d="
M842.979370,480.014832 
	C861.515015,454.841431 882.869995,433.522339 911.986389,421.367096 
	C915.117981,420.059753 919.067261,417.480469 921.290894,421.543945 
	C923.561035,425.692383 918.661011,426.853729 916.273315,428.751587 
	C903.582458,438.838684 892.622986,450.718231 881.634155,462.517944 
	C857.303528,488.644104 837.641846,518.020752 821.890137,550.038391 
	C821.010742,551.825928 819.991394,553.561401 818.873535,555.210144 
	C817.730713,556.895752 816.313293,558.530151 813.969055,557.736145 
	C811.682861,556.961792 811.353455,554.951233 811.495544,552.820190 
	C812.008423,545.131836 813.738159,537.685486 816.285034,530.451294 
	C822.628662,512.433411 831.528320,495.744263 842.979370,480.014832 
z"/>
<path fill="#000000" opacity="1.000000" stroke="none" 
	d="
M839.124878,548.184692 
	C863.962524,518.621521 894.434143,498.969452 932.415283,492.142242 
	C943.609009,490.130188 954.970642,490.398193 965.912415,494.353699 
	C967.620300,494.971130 969.243958,495.868835 970.822937,496.781647 
	C972.214844,497.586304 973.058228,498.852356 972.600891,500.539612 
	C972.164185,502.150818 970.939880,502.962219 969.324524,503.204529 
	C968.996399,503.253784 968.660522,503.296936 968.330811,503.282898 
	C942.879456,502.198517 921.289246,513.583801 899.682068,524.721741 
	C880.212219,534.757996 863.186340,548.526733 845.285889,560.956421 
	C842.838135,562.656067 840.148621,564.015747 837.529968,565.458191 
	C835.774231,566.425293 833.993835,566.420471 832.434265,565.012329 
	C830.773376,563.512756 831.159363,561.742432 831.918152,559.966492 
	C833.698120,555.800415 836.235657,552.094421 839.124878,548.184692 
z"/>
<path fill="#000000" opacity="1.000000" stroke="none" 
	d="
M231.932190,539.267822 
	C234.580429,554.689880 235.936539,569.714233 232.220139,584.730591 
	C230.973816,589.766418 229.057037,594.576599 225.674713,598.615784 
	C222.111252,602.871277 218.300339,602.313354 216.153549,597.203369 
	C214.570526,593.435364 214.716782,589.380188 214.681595,585.390198 
	C214.436508,557.599304 213.473114,529.851685 208.685440,502.401184 
	C206.830658,491.766602 204.440323,481.225739 202.329056,470.635162 
	C202.039490,469.182709 201.651230,467.650208 201.836884,466.223511 
	C202.218811,463.288849 204.816559,462.359100 206.831482,464.534332 
	C208.257385,466.073669 209.236313,468.111023 210.113815,470.061462 
	C220.046066,492.137665 227.522400,514.995605 231.932190,539.267822 
z"/>
<path fill="#000000" opacity="1.000000" stroke="none" 
	d="
M731.521301,654.295166 
	C743.176208,647.120483 755.903809,643.822937 768.769897,641.197876 
	C793.031067,636.247925 817.248047,635.152893 841.098572,643.641602 
	C848.842041,646.397583 856.087830,650.051941 862.327026,655.479797 
	C863.935730,656.879272 865.956543,658.419556 864.904419,660.909668 
	C863.765564,663.604980 861.175964,663.414551 858.856445,662.932556 
	C826.880676,656.287415 794.463623,656.080994 762.026428,656.344177 
	C753.718018,656.411560 745.455811,657.279419 737.325073,659.248352 
	C732.093262,660.515320 730.614929,659.222595 731.521301,654.295166 
z"/>
<path fill="#000000" opacity="1.000000" stroke="none" 
	d="
M558.658691,601.635742 
	C552.523926,609.314758 547.263550,617.246643 540.466858,623.920593 
	C539.519592,624.850830 538.524048,625.742004 537.481079,626.562500 
	C535.403870,628.196716 533.342957,630.322571 530.400146,628.579773 
	C527.499207,626.861816 528.170593,624.042297 528.645508,621.414734 
	C532.436523,600.438416 543.750000,583.638428 558.376160,568.852173 
	C569.182922,557.927124 581.659058,549.556396 597.044006,546.358826 
	C598.335999,546.090332 599.671326,545.833496 600.977478,545.872925 
	C603.414673,545.946289 605.631592,546.684937 606.616577,549.211426 
	C607.679626,551.938049 605.975708,553.660583 604.086426,555.110535 
	C586.809082,568.370056 572.242249,584.271790 558.658691,601.635742 
z"/>
<path fill="#000000" opacity="1.000000" stroke="none" 
	d="
M932.985535,180.533539 
	C925.916443,191.317474 917.649536,200.246368 905.816406,205.152466 
	C904.170105,205.835052 903.640137,206.848450 903.314514,208.451965 
	C900.379944,222.905426 891.664429,234.422272 883.819885,246.356522 
	C882.415894,248.492508 880.161926,249.975372 877.367188,249.012909 
	C874.858276,248.148911 873.966309,245.948883 873.831238,243.476624 
	C872.923523,226.870422 876.232361,211.374969 886.080261,197.646484 
	C888.250793,194.620651 890.823608,191.980957 894.612610,191.105209 
	C896.854614,190.587021 897.796265,188.922668 898.857971,187.213669 
	C902.498962,181.353287 907.087708,176.329910 912.572144,172.156235 
	C915.095337,170.236099 917.863831,168.713486 920.904663,167.705048 
	C924.958679,166.360580 928.907349,166.285751 932.090271,169.466751 
	C935.236206,172.610764 934.664124,176.418365 932.985535,180.533539 
z"/>
<path fill="#000000" opacity="1.000000" stroke="none" 
	d="
M279.872009,549.116699 
	C270.487000,537.612732 261.310944,526.395874 252.159103,515.159302 
	C250.257202,512.824158 248.652954,510.282715 247.607071,507.444122 
	C245.853821,502.685730 248.108688,499.582520 253.246750,499.709808 
	C257.029541,499.803528 260.383362,501.411926 263.568756,503.199646 
	C284.149200,514.749939 296.938904,532.337891 303.214569,554.871277 
	C304.825226,560.654480 305.552429,566.618958 306.026184,572.581055 
	C306.261658,575.544678 306.216248,579.073486 302.540070,580.017883 
	C299.159760,580.886414 298.054810,577.653137 296.876221,575.401184 
	C292.068542,566.215271 286.236359,557.708618 279.872009,549.116699 
z"/>
<path fill="#000000" opacity="1.000000" stroke="none" 
	d="
M647.538940,516.412109 
	C644.081726,511.700409 640.579895,507.431824 638.317383,502.377411 
	C637.146484,499.761414 636.130676,496.967072 638.388184,494.414398 
	C640.595642,491.918335 643.492432,491.509064 646.614380,492.277222 
	C658.192749,495.126190 666.628967,502.605316 673.927002,511.428619 
	C685.574951,525.510864 691.178467,541.955811 691.825562,560.142883 
	C691.866333,561.289551 691.627258,562.459412 691.414185,563.599060 
	C690.977844,565.932434 690.434265,568.505371 687.658752,568.856628 
	C685.053528,569.186218 684.164246,566.788879 683.155090,564.866455 
	C673.788086,547.022827 660.352539,532.167053 647.538940,516.412109 
z"/>
<path fill="#000000" opacity="1.000000" stroke="none" 
	d="
M356.051117,692.880615 
	C364.373291,699.036194 370.286163,706.378296 371.917206,716.579285 
	C372.375671,719.446777 372.834534,722.414978 370.134155,724.365723 
	C367.042572,726.599243 364.832428,724.038391 362.666656,722.361145 
	C342.713776,706.909119 320.366364,695.927917 296.861755,687.134827 
	C293.610138,685.918457 290.154175,685.208679 286.751648,684.448853 
	C284.293213,683.899841 281.929901,683.068848 282.185577,680.184570 
	C282.409912,677.653625 284.765625,677.011108 287.030975,676.714233 
	C300.811798,674.908203 314.217896,677.341187 327.531311,680.439636 
	C337.657654,682.796326 347.243378,686.535095 356.051117,692.880615 
z"/>
<path fill="#000000" opacity="1.000000" stroke="none" 
	d="
M841.468384,304.135620 
	C839.514160,288.379730 840.908447,273.513092 847.973450,259.546356 
	C851.255676,253.057877 855.420227,250.209015 859.588928,251.068237 
	C863.908325,251.958527 866.026917,255.733505 866.477722,263.542114 
	C866.827026,269.592499 866.001282,275.536194 863.792114,281.148773 
	C860.507568,289.493408 856.951172,297.733612 853.377686,305.960571 
	C852.042542,309.034393 850.341003,312.417725 846.328674,311.900879 
	C842.402161,311.395111 842.269897,307.601837 841.468384,304.135620 
z"/>
<path fill="#000000" opacity="1.000000" stroke="none" 
	d="
M900.063721,261.260193 
	C896.220032,263.298401 892.168030,263.984436 888.951599,266.548981 
	C887.579712,267.642792 885.756531,267.727295 884.303589,266.553558 
	C882.872986,265.397888 882.492981,263.630707 883.159302,262.001068 
	C889.457458,246.597397 898.525940,233.645996 914.813416,227.428299 
	C918.825745,225.896637 922.878174,226.350601 925.688782,229.974899 
	C928.557983,233.674667 926.872986,237.328888 924.520996,240.524521 
	C918.099609,249.249100 909.667664,255.678314 900.063721,261.260193 
z"/>
</svg>