<svg xmlns="http://www.w3.org/2000/svg" width="1920" height="1080" viewBox="0 0 1920 1080"><defs><clipPath id="artboard-15156272718617336717"><path d="M0 0h1920v1080H0z"/></clipPath></defs><path fill="none" d="M0 0h1920v1080H0z"/><g clip-path="url(#artboard-15156272718617336717)"><path fill="#33775e" d="M655.24 497.3c.35-4.4.7-8.81.96-14.11.27-8.83.63-16.77 1-24.7 0-2.73.02-5.47.12-9.07-.03-11.57-.13-22.28-.14-33.46.08-15.52.05-30.57.02-45.63-2.78-9.9 3.74-18.69 3.51-28.38-.07-3.12 4.26-7.7 3.2-9.14-1.93-2.63-6.33-3.51-9.78-4.94-14.75-6.13-30.1-7.7-46.04-7.58a201 201 0 0 0-42.24 5c-20.64 4.58-39.1 14.11-56.32 25.74-12.86 8.7-24.24 19.55-36.49 29.18-11.23 8.83-22.64 17.6-37.32 19.9-7.79 1.21-15.72.6-22.31-3.88-3.01-2.05-4.9-6.27-6.4-9.87-1.62-3.92-1.25-7.63 2.82-10.84 3.02-2.39 4.64-6.47 7.26-9.47 16.45-18.84 37.83-30.83 59.72-41.8 10.73-5.37 22.25-9.41 33.76-12.9 13.23-4.03 26.69-8 40.34-9.75 14.23-1.84 28.86-1.85 43.23-1.11 14.16.72 28.33 2.72 41.75 8.04 1.97.78 4.31.62 6.48.89l.46-1.36c-3.55-1.87-7-3.95-10.64-5.57-19.3-8.56-40.03-11.68-60.42-16.3-16.75-3.78-33.18-9-49.7-13.75-7.23-2.09-14.52-4.18-21.47-7.02a580 580 0 0 1-35.7-15.83c-8.44-4.13-16.43-9.2-24.48-14.08-13.2-8-22.69-19.24-29.41-33.15-4.41-9.11-6.36-18.55-6.8-28.55-.19-4.62-1.89-9.23-1.8-13.82.17-8.43 2.46-16.4 5.51-24.41 4.05-10.62 11-19.25 17.14-28.4 2.51-3.74 7.15-6.2 11.1-8.81 12.22-8.08 24.52-16.18 38.84-20.08 7.87-2.14 16.03-3.23 24.01-5.02 8.73-1.95 17.44-3.55 26.46-2.96 12.46.83 24.92 2.12 36.44 7.05 9.34 4 18.4 8.88 27.04 14.24 8.77 5.45 17.53 11.25 25.07 18.23a141 141 0 0 1 20.95 24.32c7.13 10.55 13.09 21.96 18.8 33.37 4.25 8.52 7.26 17.66 10.92 26.49 3.76 9.05 7.82 17.98 11.42 27.1 3.63 9.21 6.72 18.64 10.27 27.88 4.7 12.25 7.46 25.36 15.46 36 7.18-3.5 14.14-7.2 21.35-10.31 12.41-5.37 25.4-8.55 38.84-10.5 14.74-2.13 29.3-5.43 43.95-8.22 17.05-3.25 34.08-6.57 51.14-9.71 9.83-1.81 19.75-3.1 29.55-5.02 10.08-1.98 19.98-5.04 30.12-6.5a128 128 0 0 1 26.71-1.21c14.45.96 28.92 2.48 43.2 4.9 12.64 2.15 25.04 5.79 37.52 8.88 15.79 3.92 31.81 7.15 47.22 12.23 9.17 3.03 17.61 8.62 25.92 13.8 15.13 9.41 26.77 22.91 39.57 35.05 12.98 12.3 25.89 24.69 39 36.85 6.51 6.03 13.62 11.43 20.08 17.51 8.4 7.92 16.22 16.48 24.69 24.33 11.31 10.5 23.1 20.47 34.5 30.9 6.39 5.84 12.14 12.4 18.61 18.17 6 5.34 12.58 10 18.85 15.04 3.94 3.16 7.75 6.48 11.67 9.67 12.6 10.24 25.27 20.37 37.79 30.7 6.98 5.75 13.62 11.92 20.58 17.71 9.13 7.6 18.52 14.91 27.61 22.57a542 542 0 0 1 19.1 17.05c14.21 13.15 28.4 26.3 42.45 39.62 11.4 10.8 22.46 21.95 33.9 32.7 8.3 7.8 15.75 16.31 21.34 26.15a77 77 0 0 1 10.02 32.87c.78 11.68 1.33 23.66-4.59 34.43-4.35 7.94-8.34 16.5-14.38 23.02-18.7 20.19-38.3 39.56-57.6 59.18-5.24 5.33-10.8 10.34-16.04 15.68-11.34 11.56-22.77 23.05-33.78 34.92-10.3 11.1-20.1 22.67-30.16 34-8.55 9.63-17.42 19.01-25.68 28.9-8.87 10.62-17.12 21.77-25.79 32.57a1713 1713 0 0 1-23.3 28.34c-9.45 11.28-18.7 22.76-28.66 33.58-12.33 13.4-24.03 27.53-40.5 36.46-17.7 9.59-36.44 10.86-55.8 7.77-15.23-2.43-29.41-7.98-41.9-16.93-7.4-5.3-13.8-12-20.55-18.16-.75-.69-.91-2.02-1.89-4.33l26.77 11.92.8-1.48c-5.49-3.87-11.12-7.54-16.43-11.63a2374 2374 0 0 1-40.2-31.5 1110 1110 0 0 1-31.63-26.48c-8.6-7.46-16.87-15.3-25.27-22.98-10.4-9.52-20.52-19.38-31.25-28.5-16.73-14.23-33.92-27.9-50.82-41.9-10.84-8.99-21.45-18.24-32.26-27.26-11.67-9.75-23.47-19.34-35.18-29.04-10.42-8.65-20.63-17.58-31.23-26-17.74-14.11-35.85-27.75-53.55-41.9-12.31-9.83-24.17-20.23-36.29-30.3-9.57-7.97-19.64-15.4-28.74-23.86a186 186 0 0 1-21.47-23.56c-6.4-8.43-12.52-17.43-16.79-27.05-3.95-8.92-5.61-18.93-7.7-28.58-2.66-12.42-4.72-24.96-7.09-37.44-.93-4.92-2.17-9.78-2.91-14.72-.25-1.67.93-3.51.88-5.26-.12-3.95-.6-7.89-.85-12.73.04-11.3 0-21.7-.05-32.1m114.1-53.24 5.3 13 1.5-.58c-1.7-4.34-3.4-8.68-5.3-13.88l-3.4-18.87c-1.98 6.86-.42 13.27 1.9 20.33m-67.2 108.02c1.37 11.85.44 24.01 4.8 35.46 2.26 5.93 3.75 12.33 7 17.66 6.16 10.1 13.15 19.7 20.16 29.25 5.95 8.1 12.25 15.8 20.57 21.89 9.66 7.06 18.59 15.11 27.88 22.68q15.25 12.44 30.6 24.8c10.33 8.35 20.67 16.7 31.08 24.96 5.76 4.57 11.76 8.82 17.5 13.41 12.39 9.9 24.66 19.96 37.01 29.9 11.65 9.39 23.53 18.5 34.99 28.11 13.12 11 25.92 22.4 38.8 33.68 8.3 7.27 16.6 14.52 24.66 22.04 9.74 9.1 19.2 18.52 28.82 27.74 7.72 7.4 15.57 14.66 23.28 22.07 10.08 9.68 20.07 19.46 30.13 29.17 7.86 7.6 16 14.94 23.57 22.81 10.59 11 20.1 22.96 31.42 33.32 7.62 6.96 16.16 10.64 26.17 12.45 17.16 3.1 31.78-2.6 44.63-12.83 9.33-7.42 17.4-16.44 25.91-24.87 1.58-1.55 2.44-3.8 3.91-5.49 4.06-4.64 8.49-8.98 12.37-13.76 5.09-6.26 9.53-13.06 14.74-19.21 5.6-6.6 11.95-12.56 17.61-19.11 7-8.1 13.66-16.5 20.43-24.8 6.47-7.94 12.71-16.07 19.4-23.81 6.32-7.3 13.18-14.12 19.63-21.3 4.36-4.84 8.11-10.26 12.68-14.89 12.7-12.88 25.68-25.48 38.54-38.2l19.8-19.62c6.76-6.73 13.62-13.37 20.24-20.24 6.17-6.41 12.41-12.8 18.02-19.7 5.94-7.32 10.07-15.68 13.7-24.53 5.73-14.03 2.7-26.43-5.14-38.01-4.07-6-9.74-10.97-14.93-16.15-9.22-9.18-18.73-18.08-27.94-27.27a1934 1934 0 0 1-27.2-27.9c-7.71-7.99-14.95-16.46-23.02-24.06-10.33-9.72-21.26-18.8-31.97-28.12-7.72-6.7-15.37-13.5-23.27-19.98-11.37-9.31-22.7-18.7-34.48-27.45-13.3-9.9-23.95-22.76-38.12-31.84-11.51-7.38-21.17-17.6-31.86-26.32-10.77-8.79-21.88-17.16-32.69-25.9a513 513 0 0 1-21.34-18.16c-5.12-4.63-9.66-9.9-14.73-14.6-10.46-9.7-21.23-19.09-31.63-28.87-7.28-6.85-13.87-14.44-21.27-21.14-7.04-6.38-14.94-11.8-22.08-18.08-9.03-7.94-18.57-14.49-30.77-16.7-8.67-1.58-17.06-5-25.76-6.04-21.04-2.5-42.16-4.31-63.28-5.9-7.06-.52-14.23.47-21.34.82-12.65.61-25.32 1.09-37.95 1.97-10.37.72-20.7 1.93-31.94 2.89-3.08.4-6.17.71-9.23 1.24a646 646 0 0 0-19.44 3.71c-1.76.38-3.5.94-5.28 1.09-16.38 1.33-32.23 5.25-47.82 10.16-14.29 4.5-29.1 8-41.45 17.85 4.2 7.9 12.18 11.32 19.02 15.8 7.34 4.8 15.73 8 23.09 12.78 7.54 4.9 14.46 10.78 21.5 16.42 1.91 1.53 3.03 2.18 5.52.64 4-2.46 8.33-4.74 12.83-5.93 8.98-2.36 18.08-4.77 27.27-5.6 12.63-1.12 24.46 2.6 35.68 8.64 9.2 4.95 17.38 10.78 22.55 20.06 3.68 6.6 7 13.38 10.68 19.97 3.65 6.54 5.1 13.65 5.51 21.6-.54 10.87-1.08 21.74-1.58 33.45-2.1 6.3-3.21 13.19-6.51 18.78-6.56 11.12-14.47 21.1-25.7 28.48-10.8 7.1-23.02 9.1-34.96 11.63-6.55 1.39-13.92-.8-20.88-1.67-14.64-1.83-26.46-9.59-36.78-19.32-10.6-9.99-16.45-23.14-20.8-36.88-.69-2.19-.38-4.7-.73-7.84v-4.85l3.77 4.2a782 782 0 0 1-4.46-21.1c-.72-3.74-.18-8.76-2.42-10.95-5.52-5.4-12.4-9.42-18.58-14.19-9.96-7.66-19.97-15.28-29.64-23.3-5.12-4.26-9.58-9.32-15.18-14.84-.88 7.37-2 13.39-2.2 19.44-.18 5.74.47 11.54 1.02 17.29.9 9.48 2.05 18.93 3.02 28.4 1.39 13.69 2.89 27.36 3.98 41.07.45 5.78-.03 11.63-.33 18.41.11 19 .2 37.99.37 56.98.02 1.74.5 3.48.82 6.15m-100.51-281.8c27.25 9.39 53.02 21.5 74.57 40.99 1.5-1.66 3.25-2.86 3.89-4.5.8-2.06 1.71-5.05.8-6.63-3.34-5.87-7.73-11.13-11.13-16.96a655 655 0 0 1-14.83-27.3c-2.52-4.84-4.62-9.91-6.91-14.88-2.83-6.13-5.62-12.29-8.5-18.4-5.86-12.35-11.1-25.07-17.87-36.9-5.05-8.83-12.13-16.5-18.32-24.66-9.89-13.03-22.62-23.08-35.82-32.3-8.1-5.67-17.35-9.85-26.46-13.83-16.2-7.07-33.2-7.8-49.9-2.54-13.8 4.35-26.51 11.18-35.55 23.2-6.77 9.02-11.57 18.66-11.45 30.4.1 9.15 2.4 17.34 6.46 25.6 3.68 7.48 8.3 14.08 14.27 19.47a183 183 0 0 0 23.45 18.1c17.37 11.19 36.87 17.78 56.37 24.1 18.6 6.02 37.4 11.39 56.93 17.03m273.14 165.76c1.12-10.21-1.71-19.68-6.65-28.3-6.82-11.92-17.44-19.18-31.09-21.14-7.42-1.07-14.5.8-20.94 5.56 1.94 3.72 3 7.87 5.62 10.32 6.34 5.89 6.48 13.18 5.22 20.4-1.57 8.96-15.08 16.27-24.04 13.92-4.46-1.17-8.95-2.25-14.16-3.56.92 4.24 1.52 8.2 2.65 12.02 1.75 5.92 3.4 11.93 5.98 17.5a21 21 0 0 0 7.22 8.42c8.7 5.57 17.99 10.14 28.82 8.19 5.9-1.07 12.3-1.73 17.38-4.54 11.02-6.1 18.55-15.6 21.7-28.08.84-3.3 1.15-6.74 2.3-10.71m-147.14-72.67c7.23 6.15 14 12.95 21.79 18.3 11.48 7.89 23.64 14.81 35.62 21.97 2.26 1.35 5.01 1.9 7.54 2.8l.64-1.33c-3.29-3.34-6.49-6.77-9.88-10-2.78-2.66-6.43-4.63-8.58-7.69-7.42-10.56-18-17.55-28.02-25.04-12.52-9.37-25.67-17.89-38.87-26.99-2.92 2.11-3.2 4.84.24 8.22 6.44 6.31 12.66 12.84 19.52 19.76"/></g></svg>