<svg xmlns="http://www.w3.org/2000/svg" xml:space="preserve" id="Layer_1" width="1024" height="1024" x="0" y="0" version="1.1" viewBox="0 0 1024 1024"><path fill="#46855c" d="M766.18 747.28c-12.24 5.05-24.34 9.02-37.27 10.4-10.13 1.08-20.02-.08-29.71-2.42-21.23-5.12-42.7-7.48-64.43-5.85-31.53 2.35-62.08 8.38-88.83 26.77-10.93 7.51-20.3 16.61-28.77 27.84 8.12.94 15.62 1.7 23.09 2.69 16.17 2.13 32.37 4.2 47.79 9.94 2.33.88 5.84 1.21 5.52 4.75-.3 3.27-3.24 4.27-6.07 5.12-4.28 1.29-8.65 1.04-12.9.53-31.86-3.86-63.57-.86-95.17 2.55-38.35 4.15-75.37 14.56-112.33 25.3-71.52 20.79-141.61 45.85-212 70.04-6.3 2.16-12.46 4.73-18.66 7.17-4.6 1.81-8.83 1.64-12.35-2.21-3.6-3.96-3.96-8.15-1.17-13.38 2.45-4.56 6.26-7.68 10.77-10.1 43.99-23.5 89.14-44.4 136.02-61.52 36.8-13.43 74.12-25.14 112.58-32.8 21.38-4.26 43.05-6.7 64.8-8.43 15.28-1.22 26.1-10 35.36-21.26 10.81-13.18 22.06-25.87 36.5-35.29a131 131 0 0 1 18.86-10.25c1.49-.66 3.2-1 4.16-2.86-2-2.92-4.38-5.74-6.03-8.93-4.95-9.54-6.06-19.68-5.56-30.45.97-21.17 4.37-42 7.3-62.91q3.04-21.48 6.5-42.9c1.64-10.15.97-12.16-8.8-15.73-19.4-7.1-38.94-13.76-58.4-20.65-16.49-5.83-32.94-11.74-49.44-17.54-1.63-.57-3.23-1.8-5.47-.97.8 2.92 3.44 4.01 5.35 5.63 2.12 1.79 3.14 3.72 2.79 6.48-3.7 29.21-6.92 58.49-12.6 87.41-3.33 16.98-10.56 32.02-21.34 45.7-32.82 41.6-63.9 84.51-95.31 127.18-3.77 5.12-7.85 9.94-12.69 14.08-8.96 7.67-20.28 7.64-28.97-.32-12.52-11.46-16.67-25.58-13.02-42.13 3.4-15.46 10.81-28.85 20.25-41.38 23.87-31.67 47.33-63.66 71.42-95.15 8.93-11.69 12.42-24.74 13.77-38.9 3.3-34.43 5.47-68.96 9.7-103.32 4.11-33.46 13.99-65.34 25.15-96.9 9.45-26.73 19.98-53.01 34.39-77.54 9.18-15.62 20.89-28.5 38.94-34 20-6.08 37.51-.87 52.94 12.35 10.49 8.97 17.6 20.84 25.85 31.7 6.76 8.88 13.56 17.73 20.21 26.7 7.04 9.49 16.26 13.05 27.6 9.85a535 535 0 0 0 76.9-28.03c.27-.12.45-.47.88-.93-2.7-9.85 2.72-15.89 10.47-20.72 9.34-5.83 19.5-8.05 30.15-5.27 10.6 2.77 17.83 9.73 20.25 20.66 2.66 12-2.5 21.23-11.87 28.12-3.4 2.5-4.26 5.02-3.83 8.8 2.31 20.34 3.37 40.78 4.92 61.18 1.48 19.57 3.14 39.14 4.6 58.72 1.5 20.08 2.85 40.17 4.32 60.25 1.07 14.76 2.27 29.52 3.36 44.29 1.22 16.59 2.3 33.2 3.6 49.78 1.63 20.91 1.1 41.94 3.7 62.81.67 5.39-1.2 10.48-5.1 15.28 8.69-1.39 16.06-4.9 23.57-7.82 21.67-8.42 43.55-8.32 65.68-2.42 15.29 4.08 30.54 8.24 45.43 13.63 7.08 2.57 13.87 5.7 19.84 10.38 1.6 1.25 3 2.62 3.9 4.48 2.41 4.98.78 7.91-4.7 7.75-8.7-.25-17.08-2.47-25.49-4.57-17.42-4.37-34.63-9.76-52.91-9.55-13.27.15-25.62 3.72-37.99 9.09M641.9 400.48c-15.4 7.56-30.65 15.43-46.22 22.6-27.73 12.79-46.75 9.4-68.75-11.47-10.53-9.98-20.27-20.7-30.2-31.26-.99-1.05-1.85-2.7-3.6-2.2-2.1.61-1.83 2.6-1.75 4.22.14 2.9-.48 5.58-1.57 8.24-10.75 26.19-21.4 52.42-32.27 78.55-1.57 3.76-.86 5.33 2.89 6.57 20.23 6.65 40.47 13.29 60.6 20.25 19.35 6.68 38.73 13.33 57.52 21.51 7.4 3.22 14.14 7.42 19.3 13.85 7.06 8.83 10.2 19.12 10.34 30.16.34 25.36-3.3 50.44-6.42 75.52-1.98 16-4.51 31.94-7.07 47.87-.97 6.05-.1 7.25 5.79 5.27a149 149 0 0 1 19.3-5.02c23.43-4.54 40.84 11.74 37.23 35-.46 2.91.36 4.05 2.93 4.49 17.06 2.92 34.14 5.94 51.55 4.93 4.1-.24 8.46-.37 12.41-2.8-6.54-5-9.56-11.37-9.92-19.1-.12-2.5-.17-5.02-.57-7.47-3.6-22-7.05-44-9.75-66.12-2.64-21.62-5.36-43.23-7.43-64.92-2.3-24.17-5.4-48.27-7.33-72.47-2.9-36.49-5.73-72.99-7.36-109.57-.08-1.8-.03-3.68-1.93-5.8-12.24 6.24-24.64 12.55-37.72 19.18"/><path fill="#46855c" d="M315.08 500.3c-17.14-.85-31.47-6.18-40.48-21.3-5.57-9.35-7.35-19.97-6.29-30.38 4.57-44.53 18.49-86.08 42.24-124.1 13.93-22.31 35.13-34.39 60.1-40.65 18.47-4.63 37.16-5.35 56.01-3.12 3.49.4 6.9 1.23 10.1 2.69 5.28 2.39 6.09 6.57 1.9 10.57-2.91 2.77-6.44 4.66-10.15 6.26-17.54 7.57-34.14 16.51-47.17 31.03-10.5 11.7-17.92 25.22-24.02 39.5-7.52 17.62-14.44 35.48-17.37 54.55-2.25 14.58-2.32 28.85 6.5 41.8 1.65 2.42 2.57 5.43 3.34 8.3 2.18 8.1-.59 14.8-7.76 19.1-8.15 4.9-17.21 5.82-26.95 5.76m210.11-218.86c-32.38 5.31-73.1-14.88-77.31-56.65-2.67-26.48 8.78-47.24 29.53-62.93 24-18.15 56.59-19.3 81.45-2.66 17.72 11.87 26.49 28.7 25.53 50.47-.67 15.45-3.67 29.96-12.74 42.86-11.33 16.08-26.58 25.77-46.46 28.9m252.74 535.88c-2.98.07-5.8.3-6.8-2.67-1.1-3.24 1.56-4.77 3.74-6.29 21.68-15.04 46.01-22.95 71.9-26.71 6.8-1 13.6-1.4 20.41-.55 18.63 2.32 31.05 13.58 40.38 28.83 4 6.53 2.55 9.22-4.69 11.51-5.35 1.7-10.5.82-15.72-.52-13.53-3.47-26.99-7.2-40.96-8.74-18.35-2-36.54-1.38-54.62 2.48-4.38.94-8.8 1.77-13.64 2.66"/></svg>