<svg xmlns="http://www.w3.org/2000/svg" width="1254" height="1254" viewBox="0 0 1254 1254"><defs><clipPath id="artboard-11648442978728182737"><path d="M0 0h1254v1254H0z"/></clipPath></defs><path fill="none" d="M0 0h1254v1254H0z"/><g clip-path="url(#artboard-11648442978728182737)"><path fill="#fff" d="M874.02 882.04c-6.07.33-12.16 1.02-18.22.89-8.9-.2-17.77-1.3-26.66-1.41-11.22-.13-22.45.58-33.67.52-8.22-.05-16.45-.75-25.46-1.45-16.16-.34-31.54-.4-46.91-.44-2.61.75-5.26 1.4-7.84 2.28-6.98 2.4-10.92 8.4-11.28 17.79-.63 3.24-1.78 5.64-1.8 8.06-.17 18.91-.12 37.84-.14 56.76.3 5.42.8 10.85.83 16.28.02 3.72-.82 7.43-.93 11.16-.37 12.71-.46 25.43-.9 38.14-.52 15.02-.93 30.07-2.08 45.06-.76 9.79-2.15 19.59-7.85 28.19-6.52 9.85-16.59 12.64-27.25 13.87-14.7 1.7-29.5 2-43.96-1.63-15.73-3.95-21.35-12.2-23.84-27.06-5.34-31.95-2.71-64.26-2.9-96.41-.17-31.94.92-63.9.67-95.83-.09-12.1-6.55-20.7-20.19-21.78-7.27-.57-14.57-.78-22.62-1.46-12.23-.39-23.68-.47-35.13-.56-5.2 1-9.34-1.22-13.01-4.46-3.95-3.48-2.33-8.4-1.48-12.13 2.29-10.07 5.85-19.85 8.67-29.8a78.5 78.5 0 0 0 .4-41.92c-2.55-9.67-7-18.83-10.48-28.27-1.8-4.86-3.89-9.71-4.88-14.76-2.03-10.35 4.95-14.72 15.65-14.66 7.2.04 14.38.67 22.4 1.22 12.11.1 23.4.03 34.68-.05 4.82-.97 9.84-1.36 14.4-3.04 7.48-2.76 11.56-8.78 12.33-16.64 1-10.37 1.51-20.74-6.75-29.06-3.78-3.81-8.34-5.57-14.07-6.3-10.85-.36-21.19-.37-31.53-.38-10.06.43-20.11.91-30.17 1.28-10.28.38-20.57.53-30.85 1.02-9.69.46-19.35 1.33-29.04 1.87-7.85.44-15.73.55-23.58 1.02-16.08.96-32.15 2.24-48.23 3.04-12.73.63-25.49.48-38.2 1.16-12.86.7-25.66 2.2-38.5 2.89-4.87.25-9.8-.72-14.69-1.31-5.39-.66-10.79-1.3-16.1-2.36-15.68-3.11-28.65-11.53-40.98-21.18-4.75-3.73-9.63-7.3-14.5-10.87-10.15-7.43-20.53-14.58-30.44-22.32-6.88-5.38-13.08-11.56-14.56-20.94a24.7 24.7 0 0 1 3.78-17.74c5.91-8.98 14.46-15.52 22.7-22.25 9.8-8 19.49-16.13 29.49-23.86 10.25-7.93 20.32-16 32.94-20.44a97 97 0 0 1 31.72-5.77c31.1-.25 62.18-.64 94.13-.8 15.2.36 29.54.56 43.88.77q40.43.03 80.84.01c1.12 0 2.24-.37 4.12-.43 16.75 0 32.75-.15 48.75-.28 5.82-.85 11.76-1.22 17.45-2.64 13.5-3.36 16.92-10.45 17.67-21.68.55-8.36-.44-16.84-.96-25.26-.45-7.27-7.63-17.23-17.4-18.5q-11.8-1.5-23.58-3.1c-14.08-1.92-28.15-4.01-42.24-5.81-9.96-1.27-19.98-2.03-29.93-3.28-12.36-1.56-24.77-2.98-37-5.25-8.4-1.56-12.72-11.33-8.68-18.96 3.88-7.32 8.88-14.04 12.75-21.35 7.33-13.87 15.13-27.93 13.9-44.23-.64-8.33-3.26-16.72-6.25-24.6-3.34-8.82-8.71-16.86-12.1-25.66-3.4-8.81-2.67-17.11 7.62-20.35 5.63-1.77 12.14-1.83 18.11-1.26a942 942 0 0 1 44.9 5.68c10.04 1.46 19.99 3.52 29.98 5.29 10.77 1.9 21.51 4 32.33 5.6 7.9 1.16 16-5.72 16.58-13.93.91-12.7 2.13-25.41 2.08-38.12-.07-17.34-1.8-34.68-1.74-52.02.07-21.56 12.2-38.64 35.9-41.05a113 113 0 0 1 37.69 2.3c16.19 3.8 27.03 16.1 29.99 33.65 1.5 8.94 1.56 18.12 2.15 28.12-.07 12.06-.01 23.2.04 34.33-.03 5.35-.07 10.7-.4 16.81-.45 9.6-.7 18.42-.72 27.25-.01 2.21.64 4.43 1 6.65 1.57 12.92 8.16 16.1 20.79 18.05a575 575 0 0 0 20.9 2.79c4.81.56 9.66.92 14.51 1.24 6.1.4 12.21.44 18.28 1 8.3.78 16.54 2 24.82 2.84 5.07.52 10.2.47 15.25 1.08 12.98 1.55 25.91 3.47 38.9 4.97 7.97.93 16.02 1.26 24.01 2.05 4.7.46 9.34 1.32 14.02 1.94 8.1 1.07 16.22 2.15 24.34 3.15 18.6 2.3 37.65 2.97 54.69 11.86a90 90 0 0 1 20.27 14.36c12.63 12.05 24.54 24.85 36.6 37.5a324 324 0 0 1 17.16 19.13c13.1 16.15 12.42 25.66-4.35 38.84-16.78 13.2-36 23.31-54.3 34.54a204 204 0 0 1-21.13 11.39 35 35 0 0 1-12.74 3.15c-16.72.82-33.37.24-49.94-2.73-15.27-2.73-30.7-4.55-46.01-7.08-8.87-1.46-17.62-3.68-26.48-5.28-9.53-1.71-19.14-2.92-28.67-4.67-13.66-2.5-27.26-5.3-40.9-7.92a636 636 0 0 0-29-4.97c-7.99-4.42-15.65-5.3-23.74-2.27-5.42 4.07-7.77 9.43-7.1 16.2.69 6.84.65 13.81 2.03 20.5.95 4.59 4.54 7.75 9.77 8.37 4.5.52 8.97 1.4 14.3 2.28 20.23.38 39.62.58 59.01.78 4.7 1.32 9.65 1.96 12.74 6.58 3.9 5.84 1.74 11.32-.69 16.74-5.72 12.79-10.38 25.8-12.28 39.83-3.08 22.73.82 44.2 9.9 64.99 1.63 3.72 2.81 7.64 4.17 11.47 3.62 10.16-3.4 17.39-13.1 17.43l-3.89-.01c-16.1.04-31.31.06-46.52.18-2.78.02-5.55.4-8.33.61-6.63 1.53-13.43 2.57-19.83 4.76-4.89 1.67-6.94 6.63-7.22 11.42-.46 7.62-.87 15.44.33 22.91 1.15 7.14 7.26 10.54 14.84 12.34 15.33.13 29.9.07 44.47 0l30.29-1.28c16.48-.7 32.96-1.44 49.44-2.07 10.02-.38 20.05-.55 30.08-.89 2.29-.07 4.57-.41 7.65-.59 5.35.11 9.74-.86 14.47-.57 14.36.88 28.8.27 43.22.24 11.13.57 22.48.01 33.34 2.06 9.9 1.86 19.53 5.59 27.7 12.53 15.1 12.84 30.82 24.93 46.07 37.6 6.06 5.04 12.26 10.2 17.11 16.34 7.47 9.45 6.32 19.84-2.4 27.97-9.7 9.05-19.71 17.76-29.75 26.43q-15.17 13.07-30.64 25.79c-7.72 6.36-16.9 10.26-26.64 10.98-15.5 1.15-31.09.92-47.58 1.2-17.98-.03-35.04.02-52.09.06"/></g></svg>